<?xml version="1.0" standalone="no"?>
<!DOCTYPE svg PUBLIC "-//W3C//DTD SVG 20010904//EN"
 "http://www.w3.org/TR/2001/REC-SVG-20010904/DTD/svg10.dtd">
<svg version="1.0" xmlns="http://www.w3.org/2000/svg"
 width="1600.000000pt" height="2100.000000pt" viewBox="0 0 1600.000000 2100.000000"
 preserveAspectRatio="xMidYMid meet">
<metadata>
Created by potrace 1.16, written by Peter Selinger 2001-2019
</metadata>
<g transform="translate(0.000000,2100.000000) scale(0.100000,-0.100000)"
fill="#000000" stroke="none">
<path d="M3171 20548 c-11 -29 -4 -48 18 -48 12 -1 9 -7 -11 -23 -33 -27 -35
-37 -7 -37 26 0 89 61 89 87 0 45 -73 62 -89 21z"/>
<path d="M3355 20538 c-67 -34 -105 -65 -105 -85 0 -20 16 -16 82 19 55 29 98
69 98 89 0 14 -10 11 -75 -23z"/>
<path d="M13450 20533 c-17 -21 -20 -36 -16 -63 4 -28 1 -40 -21 -62 -25 -26
-25 -28 -6 -28 22 0 90 42 110 69 20 26 27 79 13 96 -20 24 -56 18 -80 -12z
m35 -33 c3 -5 1 -10 -4 -10 -6 0 -11 5 -11 10 0 6 2 10 4 10 3 0 8 -4 11 -10z"/>
<path d="M3000 20513 c-56 -32 -100 -72 -100 -91 0 -31 117 32 158 86 22 29
23 32 6 32 -11 0 -39 -12 -64 -27z"/>
<path d="M2749 20474 c-10 -12 -13 -39 -11 -91 2 -73 -4 -86 -28 -58 -17 21
-37 19 -51 -6 -9 -17 -17 -20 -44 -15 -27 5 -36 3 -44 -13 -17 -31 -13 -49 15
-68 26 -17 27 -16 49 9 19 22 24 24 40 12 16 -12 22 -11 41 7 l21 20 7 -32 c3
-17 6 -55 6 -83 0 -65 30 -130 67 -149 21 -11 66 -14 190 -12 139 2 166 4 182
19 32 29 44 107 38 232 -5 107 -16 154 -37 154 -19 0 -22 -52 -9 -171 14 -140
15 -139 -68 -139 l-51 0 11 35 c8 29 7 42 -6 70 -19 41 -54 53 -98 35 -38 -16
-49 -37 -49 -98 l0 -49 -45 7 c-26 4 -50 11 -55 16 -16 16 -29 111 -32 234
l-3 115 33 3 c46 5 35 26 -15 30 -28 2 -44 -2 -54 -14z m255 -330 c17 -7 22
-34 7 -34 -21 0 -41 13 -41 26 0 15 10 17 34 8z"/>
<path d="M2093 20434 c-5 -13 -14 -15 -45 -10 -34 6 -40 4 -50 -20 -22 -48 32
-85 72 -49 15 14 21 14 40 3 18 -11 23 -10 36 6 20 28 17 52 -8 70 -28 20 -37
20 -45 0z"/>
<path d="M3312 20391 c-7 -19 -7 -55 0 -108 5 -43 12 -123 16 -178 4 -57 11
-99 17 -98 20 4 27 72 22 213 -5 175 -29 247 -55 171z"/>
<path d="M2412 20373 c-68 -32 -107 -71 -89 -89 15 -15 148 61 166 95 18 32 0
31 -77 -6z"/>
<path d="M14115 20378 c-7 -18 -17 -49 -20 -69 -3 -21 -12 -42 -20 -49 -16
-13 -20 -40 -7 -40 13 0 94 58 115 82 22 26 22 71 -1 91 -28 26 -51 20 -67
-15z m40 -38 c3 -6 -1 -7 -9 -4 -18 7 -21 14 -7 14 6 0 13 -4 16 -10z"/>
<path d="M2950 20330 c-11 -27 -11 -32 6 -45 11 -8 29 -15 41 -15 31 0 42 43
18 70 -26 29 -51 25 -65 -10z"/>
<path d="M13396 20328 c-22 -31 -20 -54 6 -72 31 -22 47 -20 60 9 l11 24 19
-24 c25 -32 42 -32 56 0 17 37 15 53 -9 65 -25 14 -49 6 -49 -15 0 -13 -7 -11
-33 9 -41 31 -42 32 -61 4z"/>
<path d="M13854 20315 c-18 -28 -12 -45 17 -45 26 0 24 -14 -6 -30 -35 -19
-31 -34 8 -26 52 10 94 79 67 111 -20 24 -67 19 -86 -10z"/>
<path d="M13725 20306 c-59 -27 -115 -72 -115 -92 0 -20 13 -18 69 10 59 31
111 73 111 92 0 18 -5 17 -65 -10z"/>
<path d="M1754 20284 c-12 -29 -14 -58 -8 -138 3 -55 10 -108 15 -116 15 -29
31 42 36 168 5 110 4 122 -11 122 -10 0 -23 -15 -32 -36z"/>
<path d="M2111 20287 c-6 -15 -29 -40 -53 -57 -53 -38 -78 -76 -78 -116 0 -45
19 -57 82 -49 51 6 54 5 87 -29 32 -32 40 -36 88 -36 30 0 79 9 111 21 97 36
106 36 130 -5 24 -41 52 -51 124 -44 72 7 98 38 98 117 0 69 -16 121 -37 121
-13 0 -14 -11 -8 -70 l7 -70 -72 0 c-62 0 -71 2 -60 14 6 8 10 25 8 38 -3 19
-17 26 -104 52 -117 34 -143 31 -169 -18 -23 -43 -16 -54 20 -30 22 15 31 15
67 4 38 -11 40 -13 22 -23 -10 -6 -55 -13 -99 -15 -102 -5 -111 3 -129 122 -7
47 -16 89 -19 92 -4 4 -11 -5 -16 -19z m-13 -109 c-2 -18 -11 -24 -35 -26 -40
-4 -43 12 -5 32 37 21 44 20 40 -6z"/>
<path d="M8004 20238 c-16 -31 -16 -92 3 -257 5 -48 7 -52 19 -36 12 15 17 38
40 157 3 17 13 28 29 32 13 3 35 21 49 39 50 65 54 124 6 72 -30 -32 -60 -32
-90 0 -30 32 -36 32 -56 -7z"/>
<path d="M13509 20205 c-20 -11 -35 -12 -60 -5 -50 15 -50 15 -48 -52 1 -35
-2 -84 -6 -109 -7 -43 -5 -47 25 -72 40 -34 60 -34 99 2 25 24 31 37 31 71 0
24 -5 60 -12 82 -9 31 -9 44 0 59 24 39 14 47 -29 24z m-28 -125 c25 -14 25
-50 1 -50 -28 0 -56 25 -49 44 7 19 20 20 48 6z"/>
<path d="M14249 20151 c-13 -37 -32 -40 -54 -8 l-16 22 -23 -28 c-27 -33 -62
-34 -80 -2 -6 11 -12 22 -14 24 -1 3 -12 -5 -25 -17 -12 -11 -35 -26 -51 -31
-25 -10 -32 -8 -62 19 -46 40 -70 39 -91 -5 -22 -46 -9 -84 35 -107 l33 -16
-23 -22 c-13 -12 -43 -34 -68 -48 l-45 -27 43 -3 c52 -4 97 20 130 68 12 18
41 42 65 52 35 16 48 18 80 8 31 -9 42 -8 67 6 25 15 33 16 57 5 25 -12 30
-10 50 14 16 18 23 39 23 70 0 54 -17 67 -31 26z"/>
<path d="M13680 20113 c0 -20 5 -51 12 -69 15 -42 4 -56 -89 -110 l-67 -39 53
-3 c99 -6 140 26 148 115 4 48 1 67 -16 101 -26 52 -41 54 -41 5z"/>
<path d="M2661 19941 c-43 -25 -70 -48 -80 -69 -8 -18 -12 -35 -8 -38 8 -8 96
40 141 78 35 29 49 69 24 67 -7 0 -42 -18 -77 -38z"/>
<path d="M7112 15418 c-6 -6 -12 -26 -12 -43 0 -17 -5 -36 -12 -43 -9 -9 -8
-12 6 -12 27 0 78 56 74 82 -3 26 -36 36 -56 16z"/>
<path d="M8986 15414 c-3 -9 -6 -25 -6 -37 0 -11 -7 -29 -17 -39 -23 -26 -10
-32 26 -14 35 19 51 44 51 80 0 21 -5 26 -24 26 -13 0 -27 -7 -30 -16z"/>
<path d="M9350 15346 c0 -55 12 -80 24 -50 8 20 8 68 0 88 -13 33 -24 14 -24
-38z"/>
<path d="M8722 15378 c-15 -15 -16 -159 -1 -230 14 -64 33 -88 71 -88 21 0 31
-6 38 -24 11 -29 38 -46 75 -46 20 0 27 6 32 30 4 22 13 32 32 36 71 15 83 33
72 115 -7 53 -27 50 -23 -4 4 -40 2 -41 -60 -52 l-37 -6 -3 43 c-2 35 -7 44
-25 46 -16 2 -29 -7 -49 -37 -53 -81 -91 -43 -101 103 -6 95 -6 97 16 103 17
4 19 8 9 14 -18 12 -32 11 -46 -3z m168 -237 c0 -12 -20 -25 -27 -18 -7 7 6
27 18 27 5 0 9 -4 9 -9z m10 -93 c0 -6 -6 -5 -15 2 -8 7 -15 14 -15 16 0 2 7
1 15 -2 8 -4 15 -11 15 -16z"/>
<path d="M9098 15364 c-18 -39 4 -238 30 -273 28 -38 94 -42 117 -7 18 27 21
64 11 114 -11 47 -27 39 -25 -11 3 -52 -5 -67 -36 -67 -47 0 -58 25 -69 157
-7 74 -1 93 28 93 17 0 18 2 6 10 -26 17 -50 11 -62 -16z"/>
<path d="M6493 15364 c-3 -9 -3 -66 0 -126 8 -134 26 -179 74 -189 18 -4 43
-20 59 -38 21 -25 33 -31 57 -29 25 2 32 9 39 34 7 28 12 32 57 37 61 7 145
46 149 69 3 16 -2 17 -42 12 -30 -5 -51 -2 -61 6 -22 19 -9 30 38 30 l42 1
-24 19 c-13 11 -34 20 -47 20 -31 0 -64 -33 -64 -64 0 -28 -3 -30 -44 -40
l-28 -7 6 46 c7 43 6 45 -16 45 -28 0 -48 -15 -72 -53 -21 -35 -55 -33 -73 3
-7 14 -15 67 -19 117 -6 87 -6 91 15 98 12 3 19 11 16 16 -10 15 -55 10 -62
-7z m177 -233 c0 -5 -7 -12 -16 -15 -14 -5 -15 -4 -4 9 14 17 20 19 20 6z m14
-86 c11 -8 15 -15 10 -15 -6 0 -19 7 -30 15 -10 8 -14 14 -9 14 6 0 19 -6 29
-14z"/>
<path d="M7210 15356 c-19 -13 -55 -36 -78 -51 l-44 -26 6 -52 c13 -114 14
-112 -17 -115 -17 -2 -36 3 -47 13 -27 25 -54 15 -58 -19 -3 -21 3 -34 18 -46
l22 -16 -41 -27 c-23 -15 -41 -29 -41 -32 0 -3 14 -5 31 -5 21 0 40 10 62 32
18 18 45 37 62 43 16 5 36 22 45 37 13 25 13 34 -1 89 l-16 61 46 29 c25 16
52 29 58 29 12 0 43 50 43 70 0 16 -12 12 -50 -14z"/>
<path d="M6810 15351 c-5 -11 -10 -31 -10 -45 0 -14 -4 -28 -10 -31 -5 -3 -10
-11 -10 -16 0 -19 81 35 86 58 11 44 -35 72 -56 34z"/>
<path d="M9245 15343 c-55 -29 -83 -63 -52 -63 19 0 107 58 107 70 0 14 -20
12 -55 -7z"/>
<path d="M9313 15219 c4 -138 19 -194 32 -119 10 60 -3 204 -21 227 -13 16
-15 4 -11 -108z"/>
<path d="M6655 15297 c-39 -22 -59 -57 -33 -57 20 0 108 57 108 70 0 17 -32
11 -75 -13z"/>
<path d="M8859 15300 c-41 -21 -65 -47 -55 -58 11 -10 100 42 104 62 4 20 -4
20 -49 -4z"/>
<path d="M6976 15285 c-3 -9 1 -18 10 -22 13 -5 13 -8 -2 -24 -16 -18 -16 -19
-1 -19 23 0 59 38 55 58 -4 23 -53 28 -62 7z"/>
<path d="M9015 15290 c-3 -5 -17 -10 -31 -10 -19 0 -24 -5 -24 -25 0 -28 25
-44 43 -26 6 6 21 11 34 11 13 0 26 7 29 15 12 29 -35 61 -51 35z"/>
<path d="M7222 15278 c-7 -7 -12 -20 -12 -30 0 -11 -7 -33 -16 -49 -8 -17 -13
-33 -10 -36 11 -11 76 40 82 64 11 41 -19 76 -44 51z"/>
<path d="M7234 15096 l7 -43 -53 -34 c-52 -33 -52 -34 -24 -37 49 -6 76 7 93
43 14 29 14 41 4 75 -16 55 -35 53 -27 -4z"/>
<path d="M9240 15040 c0 -5 -14 -10 -30 -10 -19 0 -33 -6 -37 -16 -10 -26 11
-35 66 -28 53 7 66 25 39 52 -15 15 -38 16 -38 2z"/>
<path d="M6864 14775 c-7 -51 3 -155 16 -155 14 0 20 30 20 100 0 71 -6 100
-20 100 -5 0 -12 -20 -16 -45z"/>
<path d="M9030 14753 c-60 -68 -86 -111 -72 -125 5 -5 47 -8 93 -6 82 3 84 3
87 29 l3 27 -65 -5 c-38 -4 -66 -2 -66 4 0 5 16 25 36 44 20 18 42 46 50 62
26 49 -9 33 -66 -30z"/>
<path d="M6697 14293 c-17 -20 -37 -66 -37 -89 0 -20 30 -30 40 -14 5 7 4 21
-2 30 -8 12 -6 25 7 49 19 38 16 49 -8 24z"/>
<path d="M6725 14256 c-9 -13 -13 -31 -9 -41 5 -13 -1 -25 -21 -41 -40 -32
-25 -41 31 -19 50 19 78 62 67 103 -7 30 -48 29 -68 -2z m42 -22 c-3 -3 -12
-4 -19 -1 -8 3 -5 6 6 6 11 1 17 -2 13 -5z"/>
<path d="M8450 14189 c-10 -18 -8 -21 11 -26 22 -6 22 -6 -7 -31 l-29 -24 34
6 c47 8 61 23 61 62 0 31 -3 34 -30 34 -19 0 -33 -7 -40 -21z"/>
<path d="M7150 14176 c0 -28 0 -29 -20 -11 -19 17 -20 17 -20 -1 -1 -18 -1
-18 -14 -1 -18 23 -26 21 -26 -6 0 -30 18 -47 50 -47 44 0 65 41 40 80 -7 12
-10 8 -10 -14z"/>
<path d="M6954 14169 c-50 -24 -77 -52 -72 -73 3 -14 8 -14 45 5 23 11 53 32
67 46 47 46 28 56 -40 22z"/>
<path d="M8300 14164 c-44 -24 -70 -49 -70 -66 0 -16 31 -7 80 23 93 57 84 96
-10 43z"/>
<path d="M8722 14168 c-6 -6 -12 -28 -12 -47 0 -19 -7 -43 -17 -53 -28 -31 -6
-32 44 -1 44 27 48 33 48 69 0 34 -3 39 -25 42 -14 2 -31 -3 -38 -10z"/>
<path d="M7172 14100 c-126 -84 -138 -108 -106 -205 16 -46 16 -49 -1 -62 -29
-21 -66 -15 -98 15 -20 18 -31 23 -34 14 -7 -18 -57 -42 -88 -42 -32 0 -50 37
-60 123 -8 64 -21 81 -31 42 -3 -14 -19 -32 -36 -41 -33 -17 -68 -69 -68 -100
0 -34 24 -47 74 -40 38 6 45 4 51 -12 13 -43 96 -52 138 -15 15 15 19 15 37
-2 14 -12 37 -19 67 -19 44 -1 48 1 68 35 l20 37 37 -39 c42 -44 81 -50 143
-25 20 9 50 12 73 9 35 -5 42 -2 57 20 11 17 15 41 13 73 -3 43 -6 48 -32 55
-27 7 -34 3 -82 -46 -58 -61 -87 -69 -140 -36 -31 19 -94 104 -94 127 0 7 38
38 84 68 51 33 91 67 100 85 30 58 19 56 -92 -19z m-426 -215 c-3 -8 -18 -15
-33 -15 l-28 1 30 26 c29 25 43 20 31 -12z m644 -35 c0 -5 -7 -10 -15 -10 -8
0 -15 5 -15 10 0 6 7 10 15 10 8 0 15 -4 15 -10z"/>
<path d="M8123 14150 c-21 -8 -23 -16 -23 -75 0 -64 0 -65 -22 -54 -18 10 -24
8 -37 -8 -10 -12 -28 -19 -46 -19 -23 1 -31 -4 -33 -20 -5 -32 21 -48 50 -33
13 7 38 14 55 14 30 2 33 -1 38 -34 27 -164 28 -165 199 -169 170 -4 178 0
190 91 12 94 -1 237 -21 237 -13 0 -15 -18 -12 -127 l4 -128 -47 -3 -48 -3 0
50 c0 55 -15 71 -64 71 -37 0 -56 -25 -56 -76 0 -42 -2 -44 -28 -44 -53 0 -72
35 -84 152 -14 126 -8 158 28 158 16 0 24 5 22 13 -6 15 -36 19 -65 7z m207
-285 c7 -9 10 -19 6 -22 -8 -9 -38 9 -44 25 -5 17 23 15 38 -3z"/>
<path d="M6740 14101 c0 -6 -15 -7 -34 -4 -29 4 -35 2 -41 -17 -10 -33 18 -59
46 -42 11 7 29 10 40 7 38 -12 70 45 33 59 -23 9 -44 7 -44 -3z"/>
<path d="M7565 14101 c-3 -6 -17 -8 -32 -5 -28 7 -43 -7 -43 -43 0 -18 6 -23
24 -23 14 0 28 5 31 11 4 5 21 9 38 7 30 -3 32 -1 32 27 0 23 -5 31 -22 33
-11 2 -24 -2 -28 -7z"/>
<path d="M8550 14033 c0 -108 22 -285 34 -273 17 17 14 257 -3 298 -20 48 -31
39 -31 -25z"/>
<path d="M9271 14074 c-15 -11 -21 -26 -21 -51 0 -24 -8 -45 -22 -60 -21 -22
-21 -23 -2 -23 29 0 93 47 100 75 13 52 -17 85 -55 59z"/>
<path d="M6973 14052 c-10 -25 -11 -25 -12 -4 -1 28 -21 29 -28 1 -6 -21 -7
-21 -19 -4 -18 24 -27 14 -19 -18 9 -32 24 -38 69 -26 28 8 36 15 36 32 0 39
-15 50 -27 19z"/>
<path d="M7828 14054 c-46 -23 -87 -68 -75 -81 13 -12 147 78 147 99 0 14 -23
8 -72 -18z"/>
<path d="M7363 14040 c-48 -28 -82 -65 -70 -77 7 -6 43 13 100 54 78 57 57 73
-30 23z"/>
<path d="M6500 14032 c0 -4 13 -19 29 -35 30 -29 51 -85 51 -133 0 -37 -31
-103 -59 -128 -24 -21 -27 -36 -8 -36 18 1 52 32 81 75 58 85 17 224 -76 258
-10 3 -18 3 -18 -1z"/>
<path d="M8269 14018 c-10 -18 -8 -24 11 -40 29 -23 42 -19 55 16 7 21 6 29
-5 36 -25 16 -49 11 -61 -12z"/>
<path d="M9480 14014 c-89 -75 -92 -182 -7 -271 47 -50 60 -39 21 18 -19 28
-37 63 -41 76 -8 34 22 125 52 162 42 49 26 58 -25 15z"/>
<path d="M9640 14034 c0 -3 13 -22 30 -40 61 -70 60 -180 -1 -245 -16 -18 -27
-34 -24 -37 10 -10 57 23 84 57 22 29 26 45 26 101 0 57 -4 72 -28 103 -25 34
-87 77 -87 61z"/>
<path d="M6278 14003 c-67 -72 -78 -163 -28 -231 32 -44 76 -79 87 -68 4 3 -5
19 -20 34 -26 27 -57 99 -57 131 0 32 21 89 45 125 29 43 11 49 -27 9z"/>
<path d="M8693 14013 c-18 -6 -16 -48 2 -63 21 -18 45 -5 45 24 0 26 -25 47
-47 39z"/>
<path d="M8761 14006 c-17 -20 -10 -60 10 -64 19 -3 52 25 46 41 -2 6 -12 16
-24 24 -17 12 -22 11 -32 -1z"/>
<path d="M9058 14009 c-22 -13 -23 -38 -2 -46 14 -5 13 -9 -7 -24 -29 -22 -18
-36 15 -21 36 16 62 60 49 81 -13 20 -33 24 -55 10z"/>
<path d="M7582 13978 c-6 -14 -20 -29 -31 -33 -33 -10 -71 -63 -71 -99 0 -33
1 -33 55 -39 40 -4 64 -13 87 -32 28 -24 39 -27 83 -22 27 3 76 14 108 25 l59
20 10 -28 c10 -31 32 -40 96 -40 60 0 92 33 92 94 0 52 -14 96 -31 96 -8 0
-10 -16 -5 -54 7 -63 3 -66 -77 -66 -45 1 -50 2 -34 14 27 21 22 55 -10 61
-16 3 -54 14 -86 25 -68 22 -102 15 -117 -26 -12 -30 -5 -43 12 -26 16 16 81
16 76 0 -5 -15 -46 -25 -106 -27 -38 -1 -44 3 -62 32 -11 17 -20 48 -21 67 -1
19 -4 46 -9 60 l-7 25 -11 -27z m-6 -93 c-3 -8 -18 -15 -33 -15 l-28 1 30 26
c29 25 43 20 31 -12z"/>
<path d="M8923 13970 c-50 -29 -81 -64 -66 -73 13 -8 138 68 141 86 5 25 -16
21 -75 -13z"/>
<path d="M6382 13930 c-31 -42 -47 -103 -40 -150 3 -21 9 -24 56 -25 46 -2 56
1 72 23 13 16 20 40 20 69 0 37 -6 50 -38 85 l-38 41 -32 -43z m56 -60 c12
-18 22 -37 22 -41 0 -14 -28 -10 -33 4 -3 8 -10 7 -26 -7 -16 -15 -24 -17 -33
-8 -14 14 19 95 36 89 6 -2 21 -18 34 -37z"/>
<path d="M9576 13944 c-8 -20 -8 -138 0 -158 14 -36 24 1 24 85 0 82 -9 111
-24 73z"/>
<path d="M8686 13900 c-2 -3 -2 -45 -2 -95 1 -87 2 -90 28 -103 23 -11 32 -10
59 4 l32 16 -6 79 c-3 43 -1 82 4 85 23 14 4 21 -52 20 -33 0 -62 -3 -63 -6z
m72 -102 c19 -19 14 -28 -12 -28 -27 0 -41 14 -31 30 8 14 28 13 43 -2z"/>
<path d="M9371 13868 c-13 -34 -33 -36 -54 -5 l-15 22 -10 -27 c-15 -38 -32
-45 -53 -20 -21 27 -31 27 -54 2 -24 -26 -43 -25 -70 4 -23 25 -61 26 -77 2
-16 -24 -8 -67 18 -91 l26 -24 -54 -33 c-46 -29 -50 -33 -29 -36 52 -8 91 8
116 46 32 48 83 69 126 52 25 -11 32 -10 49 5 11 10 26 14 39 10 46 -14 83 42
62 96 l-9 24 -11 -27z"/>
<path d="M8910 13834 c0 -14 5 -34 10 -45 15 -27 0 -49 -59 -84 -55 -33 -66
-55 -26 -55 31 0 96 26 107 43 11 18 10 125 -2 148 -15 27 -30 24 -30 -7z"/>
<path d="M6953 13723 c-7 -3 -13 -11 -13 -19 0 -11 -4 -12 -19 -4 -35 18 -51
12 -51 -19 0 -37 24 -59 45 -41 8 7 25 10 40 6 19 -5 28 -1 41 18 8 14 13 30
9 36 -9 15 -38 28 -52 23z"/>
<path d="M7135 13711 c-24 -10 -46 -29 -53 -46 -7 -15 -11 -29 -10 -31 7 -6
94 38 116 58 43 41 16 51 -53 19z"/>
<path d="M7552 13704 c-50 -25 -81 -58 -67 -72 10 -10 116 50 133 76 20 31 1
30 -66 -4z"/>
<path d="M8028 13680 c-35 -19 -83 -69 -74 -77 7 -8 100 37 123 59 44 41 15
52 -49 18z"/>
<path d="M9276 13325 c-10 -26 -7 -111 5 -142 9 -26 11 -26 21 -10 17 31 15
134 -3 153 -15 14 -17 14 -23 -1z"/>
<path d="M7827 13194 c-11 -11 -9 -83 5 -150 l12 -59 12 30 c20 46 18 138 -4
165 -9 12 -21 18 -25 14z"/>
<path d="M6881 13150 c-91 -43 -121 -67 -121 -96 l0 -25 78 41 c120 63 159
135 43 80z"/>
<path d="M8110 13160 c-29 -29 -26 -50 7 -50 l27 0 -34 -35 c-29 -30 -31 -35
-14 -35 29 1 63 23 85 56 24 37 24 61 0 74 -29 15 -49 12 -71 -10z"/>
<path d="M7046 13145 c-9 -26 -7 -123 5 -215 11 -77 10 -85 -7 -97 -26 -19
-92 -16 -142 7 -54 24 -60 14 -37 -65 20 -69 19 -70 -81 -125 -41 -22 -74 -45
-74 -50 0 -13 98 -1 137 17 18 9 43 33 57 58 24 40 29 43 78 47 58 6 81 26 98
86 27 98 -4 413 -34 337z"/>
<path d="M7165 13136 c-18 -27 -18 -33 4 -224 12 -108 24 -198 26 -200 2 -2 9
16 15 39 16 58 7 309 -12 369 l-15 44 -18 -28z"/>
<path d="M8505 13129 c-67 -31 -105 -62 -105 -84 0 -21 17 -19 85 14 59 28
105 75 88 91 -4 5 -35 -5 -68 -21z"/>
<path d="M8794 13134 c-8 -29 0 -142 20 -309 12 -103 14 -108 25 -80 16 36 9
318 -9 378 -13 43 -27 48 -36 11z"/>
<path d="M9526 13145 c-10 -27 -7 -142 9 -279 14 -128 18 -146 33 -132 12 12
15 245 4 325 -11 77 -33 118 -46 86z"/>
<path d="M8677 13143 c-10 -10 -8 -107 4 -206 8 -67 8 -91 -1 -102 -19 -23
-90 -18 -143 9 -26 13 -50 19 -53 14 -8 -12 3 -56 24 -96 23 -44 12 -58 -84
-110 -94 -51 -107 -62 -73 -62 43 0 143 21 158 33 8 7 22 30 31 52 16 39 19
40 80 50 51 8 67 15 84 38 19 27 21 40 19 187 -1 170 -15 225 -46 193z"/>
<path d="M9231 13121 c-15 -27 -14 -63 2 -85 10 -13 24 -17 67 -14 53 3 55 4
58 34 4 37 -14 88 -28 79 -5 -3 -10 -18 -11 -33 -1 -26 -1 -26 -7 -4 -10 33
-22 32 -37 -3 l-13 -30 -1 32 c-1 39 -16 51 -30 24z"/>
<path d="M5403 13087 l-73 -32 -35 -82 c-35 -81 -35 -82 -20 -128 42 -124 50
-133 122 -166 38 -17 79 -33 93 -35 23 -5 157 44 186 67 6 5 26 47 43 93 l33
83 -36 84 -36 84 -83 33 c-45 17 -91 32 -102 31 -11 0 -53 -15 -92 -32z m187
-20 l74 -32 33 -76 32 -76 -33 -78 -33 -79 -77 -33 c-43 -18 -83 -33 -89 -33
-25 1 -139 58 -152 76 -7 11 -25 49 -39 84 l-27 65 33 77 33 76 70 30 c38 17
77 30 85 30 8 1 49 -14 90 -31z"/>
<path d="M5452 13049 c-34 -13 -71 -44 -99 -81 -31 -43 -32 -126 -2 -174 36
-59 103 -88 191 -85 32 1 101 59 124 102 18 36 18 102 0 137 -42 81 -145 129
-214 101z m153 -60 c71 -66 73 -143 5 -210 -78 -78 -206 -58 -246 37 -45 108
26 213 144 214 48 0 56 -4 97 -41z"/>
<path d="M5495 12969 c-9 -26 -9 -165 0 -179 16 -26 25 9 25 95 0 90 -11 128
-25 84z"/>
<path d="M6207 13062 c-23 -26 -22 -52 3 -52 29 0 24 -18 -11 -39 -29 -18 -30
-19 -11 -26 31 -9 80 21 100 61 16 35 16 36 -7 55 -29 24 -53 24 -74 1z"/>
<path d="M10276 13044 c-22 -21 -20 -45 4 -51 28 -7 25 -19 -9 -39 -38 -22
-31 -35 12 -23 63 17 101 95 58 119 -27 14 -47 13 -65 -6z"/>
<path d="M6879 13018 c0 -29 -1 -30 -9 -12 -14 35 -29 37 -36 7 -12 -54 -10
-54 -28 0 -8 26 -26 11 -26 -21 0 -46 13 -55 65 -50 54 7 66 19 63 67 -4 46
-28 54 -29 9z"/>
<path d="M8519 13020 c-1 -8 -1 -24 0 -35 2 -19 1 -19 -16 3 -20 25 -33 20
-33 -11 0 -16 -3 -17 -15 -7 -8 7 -15 19 -15 26 0 8 -5 14 -11 14 -6 0 -9 -17
-7 -42 l3 -43 55 3 c56 3 70 12 70 48 0 25 -29 67 -31 44z"/>
<path d="M9122 12986 c-6 -14 -27 -32 -46 -41 -19 -9 -54 -37 -76 -61 -33 -36
-41 -51 -38 -77 3 -28 8 -33 41 -41 26 -7 52 -6 80 2 41 11 43 10 74 -24 25
-26 40 -34 67 -34 36 0 66 21 66 47 0 11 10 6 35 -16 45 -39 68 -39 107 0 30
30 31 31 24 102 -4 40 -11 90 -17 112 -10 34 -12 37 -21 21 -10 -18 -5 -116 8
-149 8 -23 -20 -33 -52 -18 -32 14 -54 67 -54 131 0 27 -4 50 -10 50 -9 0 -15
-28 -24 -118 -7 -67 -10 -72 -51 -72 -51 0 -75 36 -75 116 0 92 -15 120 -38
70z m1 -98 c8 -28 7 -28 -43 -39 -69 -16 -83 9 -22 40 48 26 58 26 65 -1z"/>
<path d="M7998 12968 c-10 -7 -21 -29 -24 -48 l-7 -35 27 24 26 25 55 -18 c30
-9 55 -21 55 -25 0 -10 -85 -21 -165 -21 -52 0 -63 3 -91 31 l-31 30 -31 -30
c-20 -21 -40 -31 -60 -31 -40 0 -89 18 -96 36 -8 22 -26 7 -26 -21 0 -13 7
-45 16 -71 19 -57 10 -85 -38 -114 -40 -24 -126 -27 -169 -5 -31 17 -69 69
-69 96 0 8 9 34 20 57 25 51 25 64 3 60 -56 -10 -71 -177 -23 -250 27 -41 51
-53 122 -63 34 -4 57 -1 83 11 46 22 99 83 114 134 11 39 13 40 55 40 27 0 48
6 56 15 18 22 28 18 28 -10 0 -14 5 -32 12 -40 18 -21 67 -19 79 4 7 12 27 21
58 26 93 13 288 67 301 83 22 29 15 61 -15 68 -16 3 -58 14 -95 25 -96 28
-150 33 -170 17z"/>
<path d="M10574 12945 c-3 -20 -1 -55 6 -81 16 -55 8 -64 -61 -64 -32 0 -55 6
-73 21 l-27 21 -29 -27 c-32 -31 -61 -28 -77 7 -9 21 -10 21 -38 -10 -35 -39
-59 -41 -82 -4 -9 15 -18 29 -20 31 -1 2 -15 -5 -30 -15 -20 -13 -47 -18 -90
-19 -53 0 -66 4 -90 26 -38 35 -89 52 -115 38 -11 -6 -31 -35 -44 -65 -19 -44
-37 -63 -99 -109 -41 -31 -75 -60 -75 -64 0 -5 26 -3 57 4 40 9 64 22 79 40
l21 26 38 -25 c42 -29 59 -28 115 9 24 15 56 24 97 27 42 3 69 10 83 23 20 18
21 18 43 -2 32 -30 61 -36 100 -20 28 12 37 12 58 1 32 -18 36 -17 60 7 19 19
22 20 54 5 58 -28 124 -18 164 25 24 26 28 101 10 175 -15 57 -26 64 -35 19z
m-681 -172 c26 -14 28 -18 14 -21 -29 -6 -67 7 -67 23 0 19 14 19 53 -2z"/>
<path d="M6363 12902 c-15 -9 -30 -72 -18 -72 5 0 17 7 27 16 15 15 23 15 63
4 77 -22 70 -28 -56 -45 -59 -9 -115 14 -129 51 l-11 27 -32 -38 c-26 -30 -41
-38 -78 -42 -40 -5 -55 0 -121 36 -46 25 -82 39 -92 35 -9 -3 -28 -27 -43 -53
-34 -60 -66 -94 -133 -144 -39 -29 -50 -43 -38 -45 29 -6 99 19 123 43 l24 23
35 -26 36 -25 62 31 c41 20 83 32 121 35 46 3 63 9 86 31 l29 28 38 -28 c33
-26 45 -29 103 -27 82 2 281 55 298 79 18 24 16 54 -2 54 -8 0 -57 14 -108 30
-92 29 -160 37 -184 22z m-410 -131 c18 -12 25 -21 18 -26 -17 -10 -81 14 -81
31 0 20 30 17 63 -5z"/>
<path d="M7495 12819 c-18 -33 -10 -53 24 -62 23 -6 34 1 50 30 15 30 15 30
-19 48 -38 20 -37 20 -55 -16z"/>
<path d="M9043 12700 c-55 -27 -83 -48 -92 -66 -6 -15 -10 -29 -7 -31 17 -17
165 68 185 106 19 35 -4 32 -86 -9z"/>
<path d="M6531 12685 c-71 -38 -111 -71 -111 -92 0 -19 31 -9 98 30 63 38 85
60 80 81 -2 12 -15 9 -67 -19z"/>
<path d="M6235 12660 c-16 -18 -19 -18 -48 -3 -29 14 -31 14 -44 -3 -38 -51
15 -117 57 -72 20 21 21 22 49 5 29 -17 30 -17 50 9 29 37 26 51 -16 73 -28
14 -27 14 -48 -9z"/>
<path d="M10531 12654 c-26 -33 -26 -39 1 -58 30 -21 55 -20 68 3 17 33 12 57
-15 69 -33 15 -30 16 -54 -14z"/>
<path d="M9921 12615 c-71 -38 -111 -71 -111 -92 0 -17 14 -16 53 3 84 44 151
104 129 118 -4 2 -36 -11 -71 -29z"/>
<path d="M5965 12608 c-72 -36 -105 -65 -105 -90 0 -17 2 -17 43 3 63 33 125
77 137 99 15 28 -3 25 -75 -12z"/>
<path d="M7592 12575 c-95 -45 -155 -105 -106 -105 25 0 129 59 159 90 45 47
26 53 -53 15z"/>
<path d="M10625 12573 c-75 -31 -112 -57 -120 -84 -11 -33 1 -34 67 -1 63 31
137 95 121 105 -4 3 -35 -6 -68 -20z"/>
<path d="M10156 12101 c-20 -32 -24 -73 -11 -128 8 -32 14 -71 15 -86 0 -39
22 -30 33 14 18 68 -14 238 -37 200z"/>
<path d="M6085 12090 c-16 -25 25 -90 56 -90 20 0 49 -47 49 -80 0 -13 -13
-28 -37 -43 -28 -16 -33 -23 -20 -25 28 -6 91 30 105 60 31 66 35 178 6 178
-11 0 -14 -18 -14 -79 0 -45 -5 -83 -10 -86 -7 -4 -9 2 -5 18 9 33 -16 78 -62
114 -52 41 -61 45 -68 33z"/>
<path d="M8235 12000 c-19 -36 -13 -50 21 -50 36 0 29 -16 -18 -44 l-43 -26
38 0 c49 0 73 13 92 50 31 60 14 100 -42 100 -26 0 -36 -6 -48 -30z"/>
<path d="M12001 11995 c-40 -18 -82 -40 -92 -48 -20 -18 -35 -64 -24 -75 8 -9
125 53 170 91 19 16 35 37 35 48 0 24 0 24 -89 -16z"/>
<path d="M7740 11965 c-80 -42 -130 -83 -130 -107 0 -17 50 0 122 43 61 36
108 79 108 100 0 15 -11 11 -100 -36z"/>
<path d="M11715 11939 c-16 -30 -16 -30 14 -42 17 -6 31 -14 31 -17 0 -3 -13
-14 -30 -23 -36 -22 -39 -37 -5 -37 30 0 90 57 99 95 9 37 -9 55 -55 55 -33 0
-41 -4 -54 -31z"/>
<path d="M10829 11898 c-14 -24 -19 -45 -16 -75 4 -36 0 -46 -24 -69 -38 -36
-37 -46 4 -32 94 33 127 72 127 153 l0 55 -35 0 c-29 0 -39 -6 -56 -32z m61
-43 c0 -16 -9 -19 -34 -9 -20 8 -11 24 15 24 10 0 19 -7 19 -15z"/>
<path d="M7954 11905 c-4 -9 -4 -38 0 -65 3 -28 9 -72 12 -100 8 -60 29 -66
43 -12 16 55 13 113 -7 151 -19 40 -39 50 -48 26z"/>
<path d="M4492 11898 c-15 -15 -15 -59 0 -148 14 -82 33 -92 44 -24 14 98 -12
204 -44 172z"/>
<path d="M7212 11887 c-6 -6 -13 -24 -17 -39 -6 -23 -4 -27 21 -30 38 -4 41
-23 4 -38 -44 -18 -46 -30 -5 -30 49 0 95 49 95 101 0 24 -5 39 -16 43 -27 10
-71 7 -82 -7z"/>
<path d="M5250 11840 c-81 -43 -104 -63 -115 -97 -10 -36 22 -29 109 25 82 49
137 112 99 112 -10 0 -52 -18 -93 -40z"/>
<path d="M4872 11857 c-6 -6 -13 -24 -17 -40 -6 -24 -4 -27 18 -27 40 0 40
-16 2 -39 -59 -34 -37 -58 25 -26 37 19 70 62 70 91 0 41 -73 72 -98 41z"/>
<path d="M5446 11854 c-9 -24 -7 -130 4 -244 12 -116 9 -124 -48 -133 -48 -8
-108 6 -145 33 -24 18 -31 20 -38 9 -12 -18 -2 -66 22 -107 34 -60 27 -69
-109 -137 -51 -25 -90 -50 -87 -55 9 -15 72 -11 140 8 58 16 61 19 95 79 l35
62 53 1 c45 0 58 4 82 28 43 43 53 97 48 262 -3 113 -8 152 -21 178 -20 37
-23 38 -31 16z"/>
<path d="M5578 11845 c-8 -18 -7 -69 6 -207 21 -228 26 -260 40 -255 7 2 12
67 14 203 2 164 0 207 -14 242 -18 48 -30 53 -46 17z"/>
<path d="M8378 11845 c-9 -19 -8 -54 1 -148 7 -67 16 -169 21 -226 5 -57 12
-106 15 -109 15 -16 20 27 23 199 3 150 0 201 -13 244 -18 64 -31 75 -47 40z"/>
<path d="M11968 11845 c-16 -35 23 -465 43 -465 16 0 21 71 17 247 -6 213 -27
291 -60 218z"/>
<path d="M8245 11840 c-13 -20 -11 -100 5 -243 15 -134 16 -132 -57 -143 -64
-9 -73 -3 -73 55 0 67 -25 85 -122 85 -64 1 -72 -1 -94 -27 -32 -38 -32 -77 0
-77 31 0 56 -10 56 -21 0 -5 -31 -9 -70 -9 -56 0 -74 4 -89 19 -27 27 -50 109
-62 221 -6 52 -13 106 -16 120 -5 25 -5 25 -19 5 -12 -16 -15 -52 -12 -190 l3
-169 -26 -10 c-41 -14 -96 2 -139 40 l-38 34 -27 -31 c-21 -26 -36 -33 -74
-37 -82 -8 -109 21 -129 137 -16 91 -30 98 -39 18 -4 -35 -11 -47 -30 -56 -39
-18 -78 -13 -107 14 -15 14 -29 25 -32 25 -11 0 -3 -104 11 -137 8 -19 15 -44
15 -54 0 -43 -96 -98 -173 -99 -138 0 -210 114 -142 225 31 51 33 76 4 49 -29
-26 -50 -69 -65 -132 -30 -126 49 -227 185 -239 45 -4 65 -1 97 15 56 28 111
92 124 144 17 66 17 67 52 81 18 8 39 21 47 30 20 25 31 20 31 -14 0 -23 10
-42 39 -70 35 -35 44 -39 91 -39 36 0 61 6 81 21 l29 20 0 -30 c0 -18 9 -40
20 -51 26 -26 76 -26 90 0 6 10 29 25 51 31 30 10 46 22 62 51 l22 38 36 -41
c35 -41 36 -41 101 -40 36 0 94 10 128 20 63 20 63 20 88 0 18 -14 40 -19 86
-19 114 0 130 33 129 256 -1 125 -4 158 -20 194 -15 35 -21 41 -28 30z"/>
<path d="M9388 11793 c-79 -37 -99 -51 -107 -75 -8 -23 -7 -30 4 -34 32 -13
215 110 215 144 0 18 -6 16 -112 -35z"/>
<path d="M10212 11803 l-9 -38 -12 28 c-13 32 -31 27 -31 -8 0 -13 -4 -26 -9
-30 -12 -7 -31 26 -31 54 0 12 -4 21 -10 21 -5 0 -10 -22 -10 -50 0 -38 4 -52
19 -59 10 -6 21 -7 25 -4 3 3 27 7 53 7 43 1 48 4 51 25 5 32 -7 91 -17 91 -5
0 -13 -17 -19 -37z"/>
<path d="M6920 11785 c-105 -55 -163 -115 -112 -115 50 0 212 113 212 148 0
18 -8 15 -100 -33z"/>
<path d="M11492 11780 c-75 -38 -122 -80 -122 -110 0 -17 34 -4 119 43 135 77
138 134 3 67z"/>
<path d="M11806 11804 c-9 -24 -7 -145 5 -251 10 -88 9 -98 -7 -110 -23 -17
-95 -27 -134 -18 l-33 7 27 22 c14 11 27 32 28 45 3 21 -3 26 -32 34 -19 6
-75 23 -124 38 -120 39 -139 38 -171 -8 -24 -36 -33 -73 -18 -73 4 0 17 10 30
22 22 20 25 21 70 7 85 -26 69 -40 -68 -59 -92 -13 -165 0 -205 37 -22 20 -31
23 -43 14 -76 -55 -109 -63 -160 -37 -40 21 -51 38 -81 124 -15 42 -32 77 -36
77 -16 0 -15 -49 0 -124 13 -64 14 -77 1 -101 -15 -30 -72 -70 -98 -70 -28 0
-57 42 -78 112 -26 88 -44 90 -35 6 16 -152 54 -218 125 -218 32 0 44 6 69 34
17 19 33 48 37 65 9 44 20 46 62 12 47 -39 119 -43 161 -10 l27 21 3 -33 c5
-46 28 -69 69 -69 26 0 36 5 40 20 5 20 13 22 117 35 27 4 86 20 132 36 97 34
114 36 114 10 0 -43 32 -63 115 -71 87 -8 86 -9 122 55 26 45 27 332 2 393
-20 46 -24 50 -33 26z"/>
<path d="M6065 11721 c-101 -43 -114 -58 -156 -181 l-23 -69 39 -96 c43 -107
42 -106 182 -159 l71 -27 93 38 c103 42 109 48 160 174 l30 77 -41 100 -41 99
-85 37 c-46 20 -96 38 -112 41 -17 3 -60 -10 -117 -34z m215 -24 l85 -42 37
-88 38 -87 -39 -97 -38 -96 -93 -39 -93 -38 -95 37 -95 38 -27 60 c-59 131
-58 123 -15 224 l39 90 85 40 c47 22 95 40 106 40 11 0 58 -19 105 -42z"/>
<path d="M6103 11670 c-12 -5 -41 -28 -66 -52 -59 -56 -75 -108 -59 -185 15
-74 29 -93 93 -128 95 -51 195 -33 267 49 53 61 56 165 7 236 -49 70 -168 110
-242 80z m173 -49 c60 -43 77 -75 78 -148 1 -59 -1 -64 -39 -103 -22 -23 -52
-48 -67 -56 -66 -34 -180 -1 -225 65 -32 48 -37 91 -19 156 15 49 23 60 63 85
39 25 57 30 108 30 52 0 68 -5 101 -29z"/>
<path d="M6123 11568 c-8 -14 -7 -131 3 -160 9 -30 24 -10 24 32 0 34 4 42 30
55 25 13 60 59 60 79 0 3 -13 -2 -29 -12 -28 -15 -31 -15 -49 1 -22 20 -28 21
-39 5z"/>
<path d="M8979 11723 l0 -38 -16 33 c-20 39 -33 41 -33 5 0 -16 -4 -35 -10
-43 -7 -11 -11 -9 -19 13 -6 16 -11 33 -11 40 0 8 -3 8 -11 0 -5 -5 -9 -30 -7
-54 l3 -44 60 3 c82 3 92 18 68 105 -8 31 -23 18 -24 -20z"/>
<path d="M11100 11734 c-15 -38 -13 -43 21 -52 l32 -8 -37 -32 c-20 -17 -36
-34 -36 -37 0 -13 66 8 88 28 25 24 48 88 39 111 -5 11 -20 16 -52 16 -40 0
-47 -3 -55 -26z"/>
<path d="M5285 11737 c-4 -9 -5 -26 -2 -36 9 -35 -9 -44 -23 -11 -15 36 -34
35 -38 -3 -4 -35 -32 -36 -32 -1 0 16 -5 24 -12 22 -17 -6 -21 -38 -9 -72 11
-27 12 -27 73 -20 35 4 67 12 71 18 9 13 1 81 -13 105 -8 14 -9 14 -15 -2z"/>
<path d="M9954 11675 c-9 -23 -32 -46 -67 -68 -87 -56 -134 -127 -110 -166 12
-20 142 -28 173 -11 11 6 20 7 20 1 0 -5 13 -23 29 -40 25 -27 36 -31 79 -31
43 0 54 4 72 27 l20 26 28 -25 c38 -35 58 -40 96 -24 46 19 60 59 53 154 -6
86 -23 145 -41 139 -11 -4 -14 -72 -5 -157 4 -42 2 -45 -21 -48 -53 -6 -88 66
-90 179 0 25 -3 49 -7 52 -15 15 -33 -59 -33 -134 0 -85 -9 -99 -65 -99 -62 0
-85 40 -85 149 0 112 -18 142 -46 76z m0 -117 c3 -17 4 -34 1 -36 -10 -10
-125 -15 -125 -6 0 11 90 74 106 74 6 0 14 -14 18 -32z"/>
<path d="M4681 11631 c-19 -26 -29 -71 -16 -71 2 0 15 11 29 25 28 28 45 27
121 -5 l40 -17 -56 -12 c-96 -20 -200 -19 -233 3 -16 10 -31 27 -33 37 -7 26
-18 24 -42 -10 -39 -54 -121 -63 -183 -20 -14 11 -29 19 -33 19 -10 0 2 -103
16 -134 19 -40 3 -74 -48 -106 -51 -32 -106 -39 -174 -20 -84 23 -122 116 -80
198 32 63 25 95 -12 54 -30 -33 -47 -91 -47 -157 0 -83 23 -131 82 -171 37
-25 53 -29 108 -29 57 0 71 4 112 33 52 36 96 101 105 155 5 34 6 35 44 30 27
-4 50 1 78 15 21 11 42 18 45 15 3 -4 6 -24 6 -45 l0 -38 45 0 c39 0 47 4 57
25 10 22 18 25 58 25 26 0 92 12 146 26 55 14 121 31 148 38 52 13 76 36 76
73 0 17 -7 24 -27 29 -16 3 -76 19 -134 35 -138 38 -171 38 -198 0z"/>
<path d="M8694 11615 c-12 -19 -15 -42 -12 -95 3 -63 7 -73 37 -104 43 -45
112 -60 236 -54 99 5 157 25 213 73 33 28 34 30 27 84 -13 107 -60 161 -49 58
l7 -65 -54 -29 c-49 -25 -63 -28 -149 -27 -113 1 -173 16 -207 51 -23 22 -25
30 -20 79 6 59 -3 68 -29 29z"/>
<path d="M9377 11596 c-3 -7 2 -46 11 -86 19 -86 22 -81 -102 -149 -41 -22
-78 -45 -81 -51 -9 -15 120 -12 159 4 88 37 107 140 49 264 -16 34 -28 40 -36
18z"/>
<path d="M4105 11490 c-20 -39 -19 -57 4 -70 31 -16 69 -12 81 9 18 35 12 60
-20 76 -40 21 -47 19 -65 -15z"/>
<path d="M6873 11485 c-15 -31 -15 -37 -2 -50 8 -8 28 -17 44 -21 28 -5 32 -2
48 31 22 45 22 42 -13 60 -44 23 -59 19 -77 -20z"/>
<path d="M14880 11416 c-46 -24 -98 -72 -88 -81 2 -3 29 8 59 25 78 43 127 37
211 -22 31 -22 32 1 2 33 -29 32 -97 69 -124 68 -8 0 -35 -11 -60 -23z"/>
<path d="M9864 11331 c-76 -36 -124 -77 -124 -107 0 -21 16 -17 101 27 72 38
129 86 129 110 0 15 -22 9 -106 -30z"/>
<path d="M10335 11329 c-73 -31 -125 -76 -125 -109 0 -19 1 -19 47 1 98 42
163 90 163 121 0 23 -2 23 -85 -13z"/>
<path d="M8920 11300 c-19 -36 -8 -73 23 -85 24 -8 31 -6 43 10 24 32 18 74
-12 85 -36 14 -42 13 -54 -10z"/>
<path d="M7228 11291 c-11 -18 -14 -18 -39 -5 -40 20 -54 18 -67 -11 -17 -38
-15 -63 7 -75 33 -17 61 -12 73 15 11 24 13 24 34 10 31 -20 47 -19 67 3 23
25 21 48 -5 66 -30 21 -55 20 -70 -3z"/>
<path d="M14880 11273 c-59 -6 -68 -12 -46 -29 23 -16 206 -20 206 -4 0 5 -13
16 -30 25 -28 14 -55 16 -130 8z"/>
<path d="M7600 11246 c-99 -41 -121 -56 -136 -93 -9 -19 -13 -37 -10 -40 8 -8
157 70 188 99 26 24 38 59 21 58 -5 -1 -33 -11 -63 -24z"/>
<path d="M9015 11198 c-38 -16 -80 -39 -92 -50 -21 -19 -39 -66 -29 -75 3 -3
42 15 87 38 80 43 135 92 123 110 -7 12 -9 12 -89 -23z"/>
<path d="M4210 11177 c-63 -31 -90 -51 -104 -75 -10 -18 -15 -36 -11 -40 11
-11 174 79 201 111 50 60 28 61 -86 4z"/>
<path d="M14802 11134 c6 -31 73 -76 122 -81 36 -5 54 0 89 20 24 15 52 38 61
52 20 31 18 31 -40 0 -63 -33 -124 -33 -187 1 -42 22 -48 23 -45 8z"/>
<path d="M14805 10958 c-37 -20 -55 -51 -55 -97 0 -41 5 -49 51 -94 35 -34 56
-47 67 -42 9 4 65 8 123 10 106 3 156 16 143 37 -5 7 -51 8 -148 4 l-142 -7
-12 26 c-19 42 -15 91 12 122 23 26 26 27 58 15 41 -15 58 -15 58 -2 0 31
-113 52 -155 28z"/>
<path d="M15047 10879 c39 -66 114 -93 121 -42 3 24 -39 53 -77 53 -11 0 -23
5 -26 10 -3 6 -13 10 -21 10 -13 0 -12 -5 3 -31z"/>
<path d="M14742 10688 c6 -56 31 -98 58 -98 20 0 50 -35 50 -59 0 -7 -16 -31
-36 -53 -26 -29 -34 -46 -30 -61 3 -12 9 -32 12 -44 5 -16 2 -23 -8 -23 -8 0
-23 -9 -34 -21 -17 -19 -17 -21 -2 -30 10 -5 22 -28 28 -49 17 -63 45 -75 165
-74 109 1 165 17 130 36 -17 10 -170 3 -201 -9 -23 -8 -19 82 5 116 19 27 19
27 0 39 -13 8 -19 23 -19 48 0 48 13 69 52 84 58 23 63 32 26 44 -39 13 -49
47 -23 76 31 35 -11 55 -51 25 -30 -23 -41 -18 -69 29 -14 24 -33 50 -42 58
-15 12 -16 8 -11 -34z"/>
<path d="M14620 10715 c0 -27 70 -125 90 -125 16 0 11 22 -18 75 -18 34 -34
51 -49 53 -13 2 -23 1 -23 -3z"/>
<path d="M14965 10650 c-14 -44 44 -69 65 -29 13 23 13 22 -17 38 -31 16 -41
14 -48 -9z"/>
<path d="M9780 10556 c0 -30 36 -76 60 -76 22 0 64 -64 56 -86 -3 -8 -19 -22
-36 -32 -34 -19 -39 -32 -11 -32 32 0 85 44 98 80 13 38 17 128 7 154 -13 33
-24 2 -24 -65 0 -44 -4 -68 -10 -64 -5 3 -10 16 -10 27 0 25 -91 118 -115 118
-9 0 -15 -9 -15 -24z"/>
<path d="M5388 10469 c-3 -82 -5 -93 -25 -107 -38 -24 -27 -35 31 -30 65 5
106 29 106 62 0 32 -24 49 -60 44 l-30 -5 0 58 c0 95 -18 77 -22 -22z m61 -90
c-8 -5 -21 -9 -29 -9 -12 1 -11 4 4 15 10 8 23 12 29 8 5 -3 3 -9 -4 -14z"/>
<path d="M15011 10540 c-17 -10 -10 -40 12 -54 15 -9 21 -7 33 9 8 10 13 23
11 29 -5 14 -42 25 -56 16z"/>
<path d="M15100 10539 c0 -19 59 -71 77 -67 23 4 29 51 9 68 -13 10 -19 10
-31 0 -12 -10 -19 -10 -27 -2 -15 15 -28 15 -28 1z"/>
<path d="M4682 10470 c-78 -39 -122 -78 -122 -106 0 -20 13 -18 87 19 70 33
133 87 133 112 0 22 -9 19 -98 -25z"/>
<path d="M4404 10443 c-15 -15 -16 -37 -11 -203 9 -319 35 -380 162 -380 58 0
105 20 134 56 20 26 23 37 19 99 -5 69 -29 135 -49 135 -11 0 -8 -72 6 -136 7
-30 5 -33 -30 -44 -21 -7 -58 -10 -83 -7 -71 8 -90 40 -112 192 -12 85 -13
235 -1 253 4 8 27 16 50 19 67 9 46 33 -29 33 -23 0 -45 -7 -56 -17z"/>
<path d="M4266 10424 c-4 -9 1 -104 11 -211 12 -139 14 -199 6 -211 -13 -22
-90 -40 -174 -41 -53 -1 -73 3 -100 22 -36 25 -39 38 -24 122 l7 40 -31 -33
c-27 -28 -31 -39 -31 -90 0 -64 22 -110 67 -139 21 -14 47 -18 123 -18 105 0
144 14 184 68 20 27 21 41 21 230 0 154 -4 211 -15 240 -16 39 -34 48 -44 21z"/>
<path d="M9350 10401 c-12 -24 -11 -54 10 -160 12 -61 13 -63 26 -40 31 56 26
155 -9 204 -14 18 -15 18 -27 -4z"/>
<path d="M14950 10397 c0 -17 51 -98 73 -116 26 -20 32 9 12 51 -32 61 -85
103 -85 65z"/>
<path d="M4140 10372 c-36 -16 -75 -35 -88 -43 -24 -15 -58 -77 -47 -87 9 -9
150 65 185 98 27 26 41 60 23 60 -5 0 -37 -13 -73 -28z"/>
<path d="M6351 10381 c-19 -35 -13 -51 19 -51 40 0 38 -16 -5 -41 -38 -23 -45
-39 -17 -39 50 0 117 75 110 123 -3 19 -10 22 -50 25 -38 2 -49 -1 -57 -17z"/>
<path d="M11690 10360 c-94 -50 -151 -110 -104 -110 28 0 175 82 191 106 14
21 11 44 -5 44 -4 0 -41 -18 -82 -40z"/>
<path d="M4837 10366 c-11 -29 -8 -144 8 -261 8 -60 15 -135 15 -165 0 -30 4
-61 9 -69 19 -29 26 18 29 191 4 181 -6 254 -41 302 -13 17 -14 18 -20 2z"/>
<path d="M6797 10374 c-4 -4 -7 -21 -7 -38 l-1 -31 -20 28 c-27 35 -39 34 -39
-3 0 -20 -5 -30 -15 -30 -9 0 -15 9 -15 24 0 14 -4 28 -10 31 -14 9 -24 -44
-14 -74 9 -25 13 -26 69 -23 72 4 89 20 80 72 -7 38 -17 54 -28 44z"/>
<path d="M12026 10364 c-10 -27 -6 -144 9 -254 8 -58 15 -138 15 -177 0 -74
13 -96 27 -45 5 15 8 110 8 212 -1 168 -3 189 -22 233 -24 51 -28 55 -37 31z"/>
<path d="M7146 10355 c-10 -27 -6 -132 9 -260 8 -66 15 -146 15 -177 0 -61 14
-77 27 -30 5 15 8 110 8 212 -1 141 -5 194 -16 224 -17 44 -33 55 -43 31z"/>
<path d="M11886 10354 c-10 -25 -6 -121 9 -229 17 -126 9 -145 -61 -145 -47 0
-107 20 -136 46 -9 9 -22 13 -29 9 -16 -11 -4 -90 22 -134 l21 -35 -24 -19
c-12 -11 -62 -39 -110 -63 -47 -24 -90 -49 -94 -55 -9 -16 90 -6 165 16 51 16
54 19 80 76 l26 59 52 0 c67 0 98 15 115 54 18 43 18 347 0 399 -14 40 -26 47
-36 21z"/>
<path d="M4710 10317 c0 -56 -14 -61 -30 -12 -14 42 -25 38 -34 -11 -6 -29
-10 -33 -22 -24 -8 7 -14 23 -14 36 0 13 -4 24 -10 24 -16 0 -12 -86 5 -100
16 -14 83 -7 117 11 17 9 20 18 15 56 -7 65 -27 80 -27 20z"/>
<path d="M7006 10344 c-9 -25 -6 -119 8 -234 7 -57 11 -112 9 -121 -9 -32 -73
-35 -144 -8 -30 12 -67 74 -94 157 -26 82 -38 52 -26 -67 9 -84 8 -107 -3
-130 -25 -47 -99 -67 -130 -36 -8 9 -25 47 -36 85 -27 90 -40 97 -40 21 0 -70
22 -142 57 -188 20 -27 31 -33 62 -33 50 0 85 28 107 88 10 26 19 49 20 51 2
1 21 -12 43 -30 32 -25 53 -33 94 -37 107 -8 134 51 124 282 -6 137 -19 216
-36 216 -5 0 -12 -7 -15 -16z"/>
<path d="M8204 10321 c-89 -44 -124 -72 -124 -102 0 -16 4 -19 23 -14 70 22
197 114 197 143 0 18 -9 15 -96 -27z"/>
<path d="M8824 10339 c-3 -6 -3 -80 1 -163 l7 -153 -26 -21 c-81 -63 -283 -50
-326 21 -17 27 -18 34 -6 52 34 53 40 65 33 71 -12 13 -67 -48 -77 -86 -19
-72 29 -160 98 -180 53 -14 187 -12 226 4 18 7 47 31 64 52 24 28 32 34 32 20
0 -10 15 -33 34 -52 44 -44 94 -47 125 -8 11 14 22 30 24 37 2 7 23 -6 51 -32
44 -40 52 -43 88 -38 24 3 51 16 67 31 l26 25 68 -17 69 -16 18 24 c20 27 40
86 40 119 0 12 -7 37 -14 56 -14 32 -19 35 -54 35 -48 0 -78 -22 -133 -96 -36
-49 -43 -54 -77 -54 -61 0 -79 9 -95 48 -24 55 -35 106 -47 222 -6 58 -14 107
-16 110 -3 2 -10 -2 -15 -10 -10 -14 -7 -109 7 -263 6 -57 4 -71 -11 -87 -10
-11 -28 -20 -40 -20 -51 0 -88 87 -100 235 -11 136 -20 167 -41 134z m562
-323 c10 -8 16 -17 13 -20 -9 -9 -59 11 -59 24 0 14 23 12 46 -4z"/>
<path d="M10884 10273 c-16 -12 -34 -49 -27 -57 3 -3 17 -6 30 -6 32 0 29 -21
-7 -45 -16 -11 -30 -24 -30 -29 0 -19 57 7 88 40 26 27 33 42 30 67 -3 29 -7
32 -38 35 -19 1 -40 -1 -46 -5z"/>
<path d="M5315 10209 l-100 -40 -41 -104 -40 -104 41 -103 41 -103 106 -42
106 -42 105 41 106 40 41 104 42 104 -38 95 c-20 52 -44 101 -53 109 -14 12
-197 87 -211 85 -3 0 -50 -18 -105 -40z m270 -43 c38 -15 42 -22 77 -112 l38
-95 -36 -87 c-19 -48 -41 -92 -47 -99 -7 -7 -52 -27 -101 -46 l-90 -34 -97 39
-96 39 -39 95 -38 94 40 97 39 97 95 37 95 37 60 -23 c33 -12 78 -30 100 -39z"/>
<path d="M5347 10145 c-91 -47 -117 -88 -117 -186 0 -69 3 -80 30 -117 42 -59
80 -75 172 -76 71 -1 79 1 114 30 53 43 73 72 82 124 23 129 -70 239 -203 240
-27 0 -63 -7 -78 -15z m136 -14 c48 -11 84 -43 108 -96 49 -106 -6 -218 -119
-243 -111 -25 -209 41 -220 146 -13 140 89 226 231 193z"/>
<path d="M5475 10053 c-15 -23 -19 -24 -27 -10 -9 17 -45 22 -64 9 -29 -19
-49 -101 -38 -157 8 -47 24 -45 24 4 0 68 11 101 32 101 14 0 18 -6 16 -22 -2
-13 2 -23 8 -23 17 0 84 84 84 106 0 27 -15 24 -35 -8z"/>
<path d="M7891 10231 c-18 -33 -13 -49 20 -56 l31 -7 -36 -24 c-38 -26 -46
-44 -21 -44 50 0 120 76 113 122 -3 20 -10 23 -50 26 -38 2 -49 -1 -57 -17z"/>
<path d="M9824 10208 l-102 -40 -36 -91 c-20 -51 -36 -103 -36 -117 0 -13 16
-65 36 -115 l35 -90 108 -43 107 -42 104 42 104 43 43 102 43 103 -42 104 -43
105 -103 40 c-57 23 -106 41 -110 40 -4 0 -53 -19 -108 -41z m275 -46 c28 -14
39 -31 71 -109 l37 -91 -33 -83 c-19 -45 -41 -90 -50 -100 -15 -17 -165 -82
-189 -82 -15 0 -177 63 -189 74 -5 4 -26 49 -47 98 l-38 91 40 97 39 98 98 36
97 37 65 -25 c36 -13 80 -32 99 -41z"/>
<path d="M9845 10146 c-35 -16 -68 -46 -92 -83 -13 -20 -18 -48 -18 -103 0
-69 3 -81 29 -114 54 -71 128 -96 224 -75 166 35 206 242 68 353 -33 27 -46
31 -109 33 -46 2 -83 -2 -102 -11z m173 -27 c111 -54 133 -196 43 -283 -46
-45 -102 -60 -170 -45 -90 20 -131 75 -131 177 0 74 26 117 90 150 56 28 111
28 168 1z"/>
<path d="M9843 10044 c-6 -17 4 -164 12 -172 10 -10 17 8 23 53 5 50 24 65 81
65 28 0 71 35 71 58 0 15 -6 15 -32 1 -16 -8 -22 -8 -29 2 -6 11 -12 11 -34
-1 -21 -11 -30 -12 -45 -2 -26 16 -39 15 -47 -4z"/>
<path d="M11716 10243 c-3 -3 -6 -18 -6 -32 l-1 -26 -17 30 -16 30 -10 -38
c-11 -41 -29 -45 -34 -6 -2 13 -8 28 -12 33 -14 14 -24 -43 -14 -73 8 -23 15
-26 66 -29 50 -3 58 0 68 19 18 33 -2 113 -24 92z"/>
<path d="M15110 10221 c0 -35 56 -78 86 -67 19 7 18 50 -2 67 -14 11 -18 11
-29 -4 -11 -15 -14 -16 -25 -2 -14 17 -30 20 -30 6z"/>
<path d="M6425 10210 c-4 -6 -4 -42 0 -80 7 -69 7 -70 -20 -80 -66 -25 -168
-7 -197 34 -12 17 -28 -15 -22 -44 3 -14 12 -42 20 -63 19 -52 18 -62 -15 -99
-74 -85 -220 -84 -281 2 -34 48 -36 90 -6 156 27 60 28 76 1 54 -36 -30 -55
-87 -55 -165 0 -83 11 -114 57 -158 35 -33 80 -47 149 -47 41 0 59 6 92 30 43
31 87 97 103 155 l10 35 67 0 c102 0 142 40 142 142 0 84 -26 158 -45 128z"/>
<path d="M4107 10162 c-9 -10 -20 -33 -23 -50 l-6 -32 55 0 c66 0 84 -16 27
-24 -22 -3 -58 -9 -80 -12 -72 -10 -38 -34 50 -34 28 0 58 8 78 20 28 17 33
25 30 53 -3 30 -6 32 -43 35 -40 3 -76 22 -42 22 10 0 17 8 17 20 0 26 -40 27
-63 2z"/>
<path d="M8622 10157 c-12 -13 -22 -35 -22 -49 0 -27 16 -38 54 -38 52 0 33
-16 -30 -25 -42 -6 -69 -15 -72 -24 -4 -12 10 -13 79 -8 101 6 117 12 125 43
10 41 -1 54 -48 55 -24 0 -52 4 -63 9 -18 8 -17 9 6 9 27 1 40 16 32 39 -7 19
-38 14 -61 -11z"/>
<path d="M8157 10146 c-11 -29 -8 -71 9 -111 20 -49 7 -64 -67 -72 -53 -5 -56
-4 -91 31 -65 65 -128 42 -128 -47 0 -50 16 -69 73 -82 15 -4 27 -11 27 -16 0
-5 -36 -30 -80 -55 -45 -26 -83 -51 -86 -56 -3 -4 17 -8 43 -8 68 0 132 34
160 85 21 38 25 40 80 46 47 6 62 12 85 38 24 27 28 39 28 94 0 68 -12 122
-33 151 -13 18 -14 18 -20 2z"/>
<path d="M15120 10142 c0 -22 55 -102 71 -102 14 0 2 37 -27 83 -26 40 -44 48
-44 19z"/>
<path d="M14960 10114 c-19 -2 -64 -7 -99 -10 -48 -4 -60 -9 -52 -17 14 -14
195 -16 254 -4 86 18 7 42 -103 31z"/>
<path d="M7641 10087 c-16 -7 -37 -39 -61 -92 -42 -90 -55 -103 -157 -169 -40
-25 -73 -50 -73 -56 0 -16 41 -12 108 11 48 16 71 31 101 66 l39 46 47 -12
c26 -6 55 -9 65 -6 22 7 38 49 46 121 6 47 4 55 -19 78 -28 28 -57 32 -96 13z
m55 -102 c19 -14 19 -14 -2 -15 -11 0 -29 7 -40 15 -19 14 -19 14 2 15 11 0
29 -7 40 -15z"/>
<path d="M11071 10064 c-34 -43 -24 -88 10 -48 16 19 74 15 129 -8 l35 -15
-40 -11 c-22 -6 -77 -13 -122 -14 -78 -3 -83 -2 -112 26 -17 17 -31 36 -31 43
0 22 -13 15 -42 -21 -20 -25 -40 -37 -77 -46 -61 -15 -100 -5 -171 44 -84 58
-109 49 -164 -53 -29 -54 -47 -74 -112 -120 -42 -31 -79 -62 -82 -68 -10 -33
115 5 156 46 26 27 28 27 46 9 23 -21 76 -33 110 -24 14 3 37 17 53 30 23 19
42 24 106 28 76 3 80 5 113 40 l33 37 21 -28 c14 -21 35 -32 70 -41 60 -14
101 -9 265 31 93 23 125 35 143 55 24 27 29 63 10 68 -86 24 -279 66 -300 66
-17 0 -34 -10 -47 -26z m-492 -118 c15 -8 33 -22 40 -30 12 -14 9 -16 -21 -16
-42 0 -74 21 -65 44 8 20 11 20 46 2z"/>
<path d="M6020 9994 c-14 -35 -13 -41 10 -64 31 -31 59 -26 76 16 8 20 14 37
12 38 -60 44 -85 46 -98 10z"/>
<path d="M6441 9897 c-6 -8 -14 -28 -17 -44 -5 -27 -3 -31 27 -42 45 -16 47
-15 66 25 17 35 17 36 -7 55 -30 22 -53 24 -69 6z"/>
<path d="M6317 9873 c-17 -17 -6 -63 19 -80 31 -20 53 -10 67 32 8 23 6 31 -9
42 -19 14 -66 18 -77 6z"/>
<path d="M4912 9825 c-76 -36 -122 -74 -122 -100 0 -22 24 -19 90 15 67 34
130 85 130 106 0 21 -19 17 -98 -21z"/>
<path d="M11312 9815 c-81 -38 -122 -74 -122 -105 0 -11 2 -20 5 -20 22 0 168
85 189 110 50 61 31 65 -72 15z"/>
<path d="M4663 9810 c-6 -23 -14 -24 -61 -8 -30 11 -35 11 -48 -7 -24 -32 -18
-74 12 -85 36 -14 40 -13 67 16 24 25 25 26 56 9 37 -19 55 -10 66 32 8 33
-19 63 -57 63 -21 0 -31 -6 -35 -20z"/>
<path d="M8163 9810 c-6 -24 -7 -24 -51 -8 -31 12 -35 11 -53 -11 -27 -33 -24
-65 6 -79 38 -18 51 -15 72 14 19 26 20 26 51 10 17 -9 35 -16 40 -16 11 0 32
45 32 67 0 40 -87 61 -97 23z"/>
<path d="M10930 9813 c0 -5 -4 -14 -9 -21 -7 -11 -16 -11 -50 -1 -50 15 -61 6
-61 -49 0 -25 6 -35 26 -44 23 -11 29 -9 48 13 21 25 22 25 51 7 42 -25 52
-23 75 15 26 42 26 44 -12 67 -33 20 -68 26 -68 13z"/>
<path d="M7610 9772 c-59 -29 -79 -45 -95 -74 -11 -20 -17 -40 -13 -43 9 -9
142 60 183 96 38 33 46 59 18 58 -10 0 -52 -17 -93 -37z"/>
<path d="M9080 9773 c-86 -44 -162 -123 -118 -123 30 0 161 76 188 109 53 64
34 68 -70 14z"/>
<path d="M8640 9762 c-64 -31 -77 -42 -86 -72 -7 -19 -8 -36 -4 -38 10 -4 134
64 178 96 17 13 32 31 32 38 0 24 -42 15 -120 -24z"/>
<path d="M6755 9755 c-38 -18 -77 -40 -86 -47 -15 -12 -39 -51 -39 -62 0 -25
132 37 190 90 71 64 43 72 -65 19z"/>
<path d="M10600 9725 c-58 -30 -91 -55 -104 -76 -10 -17 -15 -33 -12 -36 3 -3
36 7 73 22 88 38 191 136 141 135 -7 -1 -51 -21 -98 -45z"/>
<path d="M6137 9698 c-76 -41 -146 -103 -132 -117 17 -17 149 45 190 90 61 68
37 79 -58 27z"/>
<path d="M5848 9043 c-3 -91 -5 -99 -25 -108 -48 -21 -7 -41 60 -30 67 11 79
21 75 63 -3 35 -5 37 -40 40 l-37 3 -3 61 c-2 37 -8 63 -15 65 -9 3 -13 -22
-15 -94z m77 -83 c-3 -5 -16 -10 -28 -10 -18 0 -19 2 -7 10 20 13 43 13 35 0z"/>
<path d="M11986 9007 c-77 -41 -122 -83 -114 -107 4 -14 155 61 193 96 27 24
33 54 13 54 -7 0 -49 -19 -92 -43z"/>
<path d="M4200 9000 c-41 -22 -83 -50 -92 -63 -17 -21 -24 -57 -12 -57 21 0
169 88 189 112 51 61 21 64 -85 8z"/>
<path d="M8377 8984 c-62 -32 -90 -52 -97 -70 -6 -14 -10 -27 -10 -30 0 -24
161 54 202 98 58 63 25 63 -95 2z"/>
<path d="M9568 8989 c-78 -39 -113 -74 -106 -104 2 -14 17 -10 86 26 81 41
122 77 122 105 0 21 -18 16 -102 -27z"/>
<path d="M3949 8989 c-16 -16 -19 -33 -19 -116 0 -125 26 -366 42 -400 20 -40
61 -65 115 -70 124 -12 192 80 157 213 -17 68 -30 86 -45 64 -9 -14 -6 -72 7
-131 5 -23 2 -28 -27 -38 -50 -17 -113 -14 -141 9 -34 26 -45 76 -60 262 -13
176 -10 188 48 188 19 0 34 4 34 10 0 9 -11 12 -73 25 -10 2 -27 -5 -38 -16z"/>
<path d="M9315 8988 c-11 -38 -12 -85 -4 -227 16 -286 30 -329 108 -351 84
-23 159 -2 187 51 28 54 6 229 -29 229 -6 0 -7 -32 -3 -85 l7 -85 -28 -11
c-46 -18 -121 -6 -150 24 -23 23 -27 39 -39 149 -17 158 -18 260 -2 276 7 7
25 12 40 12 15 0 28 4 28 9 0 21 -108 29 -115 9z"/>
<path d="M11122 8980 c-27 -12 -44 -52 -41 -101 3 -30 -3 -42 -30 -69 -45 -46
-27 -61 32 -27 100 59 143 141 97 187 -22 22 -25 23 -58 10z m27 -64 c14 -17
0 -29 -23 -20 -17 7 -20 16 -9 27 10 11 19 8 32 -7z"/>
<path d="M9168 8963 c-5 -22 8 -221 22 -327 12 -93 9 -100 -63 -121 -128 -38
-269 3 -253 73 16 71 18 92 8 92 -20 0 -52 -85 -52 -139 0 -48 4 -57 35 -86
48 -46 93 -59 180 -52 78 6 117 21 152 59 20 21 22 36 29 216 6 173 5 198 -12
247 -18 55 -38 71 -46 38z"/>
<path d="M4799 8949 c-11 -11 -19 -28 -19 -39 0 -16 7 -20 30 -20 40 0 38 -13
-5 -40 -57 -35 -44 -52 19 -26 45 19 78 63 74 100 -3 27 -8 32 -42 37 -30 5
-43 2 -57 -12z"/>
<path d="M9021 8910 c-85 -45 -121 -76 -121 -102 0 -15 5 -18 23 -12 49 15
121 57 163 96 76 70 49 78 -65 18z"/>
<path d="M7647 8898 c-82 -43 -119 -80 -99 -100 22 -22 186 74 213 123 17 32
-27 23 -114 -23z"/>
<path d="M7010 8909 c-16 -29 -5 -49 25 -49 35 0 31 -17 -10 -41 -44 -26 -46
-43 -2 -34 50 11 75 32 88 74 17 57 8 71 -45 71 -36 0 -48 -4 -56 -21z"/>
<path d="M5071 8883 c-8 -27 -5 -85 9 -222 11 -103 20 -204 20 -225 0 -61 19
-31 32 50 11 75 -4 361 -22 409 -13 35 -27 31 -39 -12z"/>
<path d="M9771 8888 c-9 -26 -7 -80 11 -260 12 -129 26 -224 31 -219 27 27 26
372 -1 475 -11 41 -28 43 -41 4z"/>
<path d="M11399 8878 c-15 -25 -19 -44 -15 -74 5 -36 1 -45 -24 -69 -42 -41
-23 -52 36 -22 58 29 78 50 99 100 19 46 19 62 -1 81 -27 28 -72 20 -95 -16z
m59 -46 c3 -9 -2 -13 -14 -10 -9 1 -19 9 -22 16 -3 9 2 13 14 10 9 -1 19 -9
22 -16z"/>
<path d="M6700 8885 c-7 -8 -13 -42 -14 -74 -2 -51 -5 -61 -31 -84 -62 -53 3
-45 78 9 60 44 84 92 65 132 -10 21 -21 28 -49 30 -23 2 -40 -2 -49 -13z m55
-44 c7 -12 -12 -24 -25 -16 -11 7 -4 25 10 25 5 0 11 -4 15 -9z"/>
<path d="M9610 8860 c0 -37 -13 -39 -30 -2 l-13 27 -10 -38 c-10 -42 -30 -45
-35 -4 -6 50 -23 28 -20 -25 3 -50 5 -53 28 -50 14 1 43 3 65 5 38 2 40 4 43
36 4 41 -5 81 -18 81 -6 0 -10 -13 -10 -30z"/>
<path d="M10205 8854 c-77 -39 -109 -67 -120 -102 -6 -22 -5 -23 17 -17 40 12
151 77 175 103 25 27 30 52 11 52 -7 -1 -44 -17 -83 -36z"/>
<path d="M11690 8870 c-11 -11 -20 -27 -20 -35 0 -8 -1 -18 -2 -22 -1 -5 11
-10 28 -13 l29 -6 -44 -29 -45 -30 34 -3 c39 -4 76 20 103 66 23 40 15 67 -25
81 -39 14 -35 14 -58 -9z"/>
<path d="M4150 8814 c-16 -41 -12 -53 25 -71 27 -13 37 -14 48 -4 27 22 27 52
2 77 -32 32 -63 31 -75 -2z"/>
<path d="M8340 8819 c-16 -30 -4 -68 26 -79 39 -15 44 -13 60 27 15 35 15 37
-8 55 -31 24 -65 23 -78 -3z"/>
<path d="M11940 8821 c-15 -29 -12 -56 8 -74 34 -31 64 -18 77 35 6 23 2 29
-24 42 -39 21 -48 20 -61 -3z"/>
<path d="M8039 8809 c-11 -11 -19 -28 -19 -39 0 -16 7 -20 33 -20 l32 -1 -38
-32 c-42 -37 -46 -47 -16 -47 12 0 41 20 66 44 35 35 44 51 41 73 -3 24 -9 29
-42 34 -30 5 -43 2 -57 -12z"/>
<path d="M5775 8782 c-100 -42 -105 -49 -156 -173 l-30 -77 37 -88 c21 -49 43
-94 48 -101 6 -6 56 -29 110 -51 l99 -39 100 41 100 41 39 84 c22 46 41 95 43
110 3 17 -11 60 -38 119 l-42 94 -94 39 c-52 21 -101 39 -110 39 -9 0 -56 -18
-106 -38z m200 -18 l91 -36 42 -91 c23 -51 42 -98 42 -104 0 -7 -19 -51 -42
-97 l-42 -85 -85 -36 c-48 -19 -93 -35 -101 -35 -8 0 -55 17 -104 38 l-88 37
-38 88 -37 89 37 96 38 97 93 37 c52 21 96 38 99 38 2 0 45 -16 95 -36z"/>
<path d="M5785 8717 c-122 -69 -140 -236 -35 -331 89 -80 218 -66 293 33 35
45 37 52 37 121 0 64 -3 78 -26 108 -15 19 -47 47 -72 63 -59 38 -137 40 -197
6z m199 -34 c125 -89 91 -274 -57 -314 -89 -24 -166 12 -207 96 -29 59 -23
120 15 175 58 83 166 102 249 43z"/>
<path d="M5842 8608 c-22 -36 -42 -100 -42 -135 0 -26 27 -56 43 -46 6 4 25 6
43 5 38 -3 49 9 65 69 12 44 11 47 -20 92 -38 56 -62 60 -89 15z m58 -65 c21
-27 22 -44 2 -51 -7 -2 -12 3 -12 12 0 20 -14 21 -30 1 -29 -36 -42 3 -14 43
20 28 28 28 54 -5z"/>
<path d="M7647 8723 c-17 -44 -16 -48 26 -69 30 -16 31 -16 54 10 28 33 29 50
3 76 -33 33 -65 26 -83 -17z"/>
<path d="M4790 8719 c-7 -11 -22 -62 -35 -112 -23 -92 -23 -92 -56 -95 -60 -5
-92 26 -130 122 -19 47 -37 86 -40 86 -16 0 -18 -70 -4 -124 12 -47 13 -66 4
-93 -20 -61 -107 -94 -142 -55 -8 9 -22 46 -30 80 -27 119 -59 101 -38 -21 15
-89 42 -151 76 -173 36 -24 95 -6 130 40 14 18 25 36 25 39 0 3 4 17 10 31 l9
26 43 -30 c48 -33 65 -35 231 -32 134 3 147 11 147 102 0 54 -3 64 -34 98 -19
21 -62 59 -95 85 -58 46 -60 47 -71 26z m52 -144 c14 -30 -5 -57 -36 -53 -39
6 -29 78 10 78 8 0 19 -11 26 -25z m89 -45 l24 -19 -37 -1 c-36 0 -50 15 -31
33 10 11 19 8 44 -13z"/>
<path d="M7537 8704 c-20 -41 -13 -58 31 -69 19 -5 30 -2 39 11 20 27 16 72
-6 84 -33 17 -47 12 -64 -26z"/>
<path d="M9027 8719 c-18 -10 -47 -66 -47 -89 0 -6 25 -10 60 -10 76 0 78 -16
3 -24 -105 -13 -125 -30 -48 -41 86 -13 162 31 148 86 -4 14 -14 19 -42 19
-20 0 -43 5 -51 10 -13 8 -13 10 1 10 21 0 31 24 16 39 -13 13 -17 13 -40 0z"/>
<path d="M11112 8610 l3 -122 -33 -29 c-22 -20 -43 -29 -66 -29 -33 0 -36 3
-55 55 -12 31 -21 61 -21 68 -1 7 -7 23 -14 36 l-14 24 -7 -22 c-14 -46 19
-185 53 -227 26 -31 58 -45 87 -38 34 8 81 65 96 114 l12 39 33 -29 c40 -35
102 -55 139 -46 15 4 41 20 57 37 16 16 32 29 36 29 3 0 20 -13 37 -29 25 -25
42 -31 95 -37 55 -5 77 -2 135 18 l70 24 34 -23 c27 -18 48 -23 97 -23 59 0
67 3 104 36 39 36 40 38 39 103 0 73 -16 132 -38 139 -11 4 -13 -10 -7 -77 l7
-81 -26 -10 c-29 -11 -79 -13 -112 -4 -19 5 -23 13 -23 49 0 55 -21 73 -102
86 -78 12 -111 2 -133 -41 -22 -42 -15 -56 31 -65 48 -8 31 -20 -44 -30 -46
-6 -57 -4 -87 17 -19 12 -38 31 -41 41 -8 25 -24 21 -53 -14 -31 -36 -96 -49
-155 -29 -47 15 -70 46 -95 130 -33 109 -43 99 -39 -40z"/>
<path d="M7037 8703 c-2 -5 -7 -24 -11 -44 -11 -61 -81 -78 -134 -34 -20 17
-33 22 -37 15 -10 -16 4 -97 23 -136 22 -46 6 -75 -60 -113 -41 -24 -65 -31
-106 -31 -141 0 -207 107 -138 225 32 53 26 74 -9 33 -28 -32 -65 -128 -65
-166 1 -42 33 -104 73 -139 72 -63 171 -68 250 -14 59 40 88 81 102 144 10 43
16 52 39 58 16 5 39 18 52 30 l23 21 11 -41 c6 -23 24 -56 40 -74 28 -31 30
-32 112 -32 63 1 95 6 131 23 l48 22 29 -22 c62 -45 168 -31 206 28 l17 25 26
-25 c32 -31 91 -56 129 -56 16 0 44 10 62 23 l34 22 27 -27 c36 -37 89 -38
116 -4 19 23 20 23 31 5 17 -27 79 -26 108 2 l23 21 27 -21 c18 -14 41 -21 73
-21 125 0 180 98 133 234 -27 78 -39 69 -38 -31 l1 -87 -38 -9 c-21 -5 -58 -6
-83 -2 -39 5 -47 11 -56 37 -10 28 -12 29 -21 12 -19 -37 -51 -64 -73 -64 -14
0 -28 9 -35 23 -6 12 -13 24 -16 26 -2 3 -19 -10 -37 -28 -42 -41 -77 -37 -96
9 -7 16 -15 30 -18 30 -3 0 -24 -9 -47 -20 -22 -11 -61 -23 -86 -26 -39 -5
-49 -3 -77 21 -18 15 -32 33 -32 40 0 27 -21 26 -48 -4 -35 -39 -95 -64 -133
-56 -29 7 -36 19 -41 80 -4 40 -36 55 -124 55 -80 0 -95 -9 -97 -61 -2 -28 2
-33 32 -44 46 -15 22 -25 -65 -25 -82 0 -97 14 -119 114 -16 72 -28 96 -38 79z"/>
<path d="M10145 8636 c-19 -19 -25 -35 -25 -68 0 -58 9 -68 66 -76 l49 -7 -35
-25 c-18 -14 -59 -38 -89 -55 -90 -49 -78 -67 29 -44 92 20 149 96 136 183
-15 98 -80 143 -131 92z"/>
<path d="M6679 8544 c-14 -37 -3 -61 33 -73 17 -6 32 -11 34 -11 2 0 13 18 24
39 l20 40 -22 15 c-36 26 -77 21 -89 -10z"/>
<path d="M9873 8398 c-78 -33 -128 -71 -138 -105 -9 -32 7 -29 90 13 71 36
110 66 126 96 15 28 -3 27 -78 -4z"/>
<path d="M5154 8377 c-76 -40 -96 -55 -118 -89 -36 -55 13 -44 125 28 67 44
106 94 71 94 -9 -1 -44 -15 -78 -33z"/>
<path d="M9592 8368 c-7 -7 -12 -18 -12 -25 0 -17 -24 -16 -60 2 -28 14 -30
14 -45 -9 -23 -34 -15 -68 17 -84 31 -15 68 -2 68 23 0 19 4 19 42 -1 31 -16
32 -16 55 10 32 38 29 59 -12 79 -42 20 -38 20 -53 5z"/>
<path d="M7043 8344 c-19 -26 -20 -26 -52 -10 -27 14 -35 15 -48 4 -37 -30
-33 -76 8 -99 18 -9 26 -6 49 16 27 26 30 26 51 11 32 -22 42 -20 62 13 22 37
21 47 -3 71 -27 27 -45 25 -67 -6z"/>
<path d="M11385 8345 c-14 -13 -25 -31 -25 -39 0 -13 66 -56 85 -56 11 0 35
69 29 83 -4 12 -45 37 -60 37 -3 0 -16 -11 -29 -25z"/>
<path d="M7385 8326 c-38 -17 -80 -37 -92 -44 -24 -13 -57 -67 -51 -82 4 -11
94 29 159 71 43 27 77 73 61 82 -4 3 -38 -9 -77 -27z"/>
<path d="M4519 8295 c-69 -36 -119 -84 -119 -115 0 -18 4 -17 56 6 99 44 164
97 164 133 0 19 -33 11 -101 -24z"/>
<path d="M5100 7619 c-80 -43 -130 -84 -130 -106 0 -21 28 -15 93 20 90 47
168 127 125 127 -7 0 -47 -19 -88 -41z"/>
<path d="M7240 7604 c0 -28 40 -84 60 -84 22 0 60 -45 60 -71 0 -12 -15 -26
-41 -40 -30 -15 -38 -24 -31 -31 16 -16 80 11 105 44 15 20 20 43 21 102 1
100 -18 99 -24 -1 l-5 -78 -13 47 c-10 39 -21 55 -65 88 -60 45 -67 47 -67 24z"/>
<path d="M9991 7504 c-26 -33 -23 -48 12 -52 37 -4 34 -16 -9 -42 -47 -27 -34
-49 17 -27 41 18 75 53 83 87 8 34 -4 50 -46 56 -30 5 -38 2 -57 -22z"/>
<path d="M5136 7510 c-3 -8 -7 -28 -9 -45 -3 -30 -7 -27 -23 23 -5 16 -6 16
-20 -2 -8 -11 -14 -30 -14 -43 0 -34 -18 -28 -28 10 -4 17 -12 32 -18 32 -15
0 -16 -68 -2 -88 12 -16 21 -17 73 -10 l60 8 3 47 c3 50 -12 97 -22 68z"/>
<path d="M9055 7408 c-89 -44 -135 -82 -135 -111 0 -14 5 -17 23 -11 32 10
117 53 150 76 29 21 62 74 49 81 -4 3 -43 -13 -87 -35z"/>
<path d="M10808 7391 c-36 -16 -80 -38 -96 -49 -28 -20 -60 -77 -50 -87 9 -10
152 70 190 106 35 33 49 59 31 59 -5 0 -38 -13 -75 -29z"/>
<path d="M4461 7384 c-29 -37 -26 -52 11 -56 l32 -3 -45 -30 -44 -30 34 -3
c62 -6 135 74 113 124 -17 35 -73 34 -101 -2z"/>
<path d="M5875 7358 c-44 -22 -86 -45 -93 -51 -18 -15 -45 -68 -38 -75 8 -7
84 29 149 70 46 29 85 82 69 91 -4 3 -43 -13 -87 -35z"/>
<path d="M5665 7373 c-3 -10 -3 -97 1 -193 6 -163 5 -179 -13 -214 -15 -30
-31 -43 -64 -55 -25 -9 -44 -23 -44 -31 0 -12 21 -16 105 -18 120 -3 174 8
221 47 30 25 33 34 37 93 4 62 3 67 -22 83 -36 24 -102 21 -137 -4 l-28 -21
-7 46 c-3 25 -3 84 0 131 5 54 3 96 -4 119 -12 37 -34 45 -45 17z m164 -364
c65 -23 24 -51 -95 -65 l-49 -6 42 41 c46 44 54 47 102 30z"/>
<path d="M10564 7364 c-4 -15 -2 -101 4 -191 l12 -164 -26 -50 c-19 -38 -35
-55 -69 -71 -25 -12 -45 -26 -45 -31 0 -5 61 -7 139 -5 138 3 139 3 178 34 41
33 68 105 56 152 -12 51 -106 72 -160 37 -13 -9 -28 -14 -31 -10 -4 4 -7 64
-7 133 0 103 -3 133 -18 160 -21 39 -25 39 -33 6z m175 -375 c18 -6 30 -16 28
-23 -5 -16 -74 -34 -132 -35 l-50 0 40 34 c43 37 64 41 114 24z"/>
<path d="M10142 7355 c-16 -34 -15 -101 3 -265 23 -212 25 -224 38 -211 8 8
14 73 17 188 4 143 2 187 -11 235 -21 74 -32 87 -47 53z"/>
<path d="M11886 7364 c-10 -26 -7 -98 9 -231 12 -90 13 -129 5 -137 -6 -6 -44
-12 -85 -14 l-74 -4 -3 53 c-3 53 -4 54 -43 67 -58 19 -111 -4 -176 -76 l-50
-57 -25 28 c-13 15 -24 38 -24 50 0 19 -5 17 -40 -20 -31 -34 -46 -43 -72 -43
-52 0 -107 19 -118 40 -18 34 -30 22 -30 -27 0 -30 8 -60 20 -81 11 -18 20
-38 20 -45 0 -15 -84 -71 -155 -102 -29 -13 -56 -29 -60 -34 -10 -17 82 -12
145 7 51 16 57 21 85 75 28 53 32 57 66 57 22 0 51 10 73 25 35 24 38 24 61 9
19 -12 25 -25 25 -50 0 -37 24 -48 32 -16 7 24 65 32 233 32 143 1 182 12 210
60 18 32 20 52 20 210 0 149 -3 180 -18 208 -20 37 -23 38 -31 16z m-211 -346
c31 -14 32 -26 2 -37 -33 -13 -147 -29 -147 -21 0 9 52 57 70 63 25 9 48 8 75
-5z"/>
<path d="M5242 7357 c-18 -23 -20 -69 -6 -190 7 -67 15 -162 18 -212 5 -91 19
-120 33 -68 14 49 9 353 -6 416 -16 63 -23 74 -39 54z"/>
<path d="M6034 7356 c-7 -19 0 -168 20 -386 10 -115 13 -132 24 -113 20 35 16
386 -4 449 -20 60 -31 73 -40 50z"/>
<path d="M10940 7346 c-14 -38 -13 -111 5 -251 8 -66 15 -142 15 -170 0 -27 4
-56 9 -64 19 -30 26 19 29 201 3 156 1 196 -13 240 -22 69 -32 78 -45 44z"/>
<path d="M12027 7363 c-11 -11 -7 -141 8 -268 8 -66 15 -146 15 -178 0 -42 3
-58 12 -55 21 7 29 102 26 268 -3 122 -8 164 -22 198 -18 41 -26 49 -39 35z"/>
<path d="M5094 7335 c-16 -24 -16 -36 0 -173 21 -191 22 -179 -19 -191 -88
-24 -160 30 -195 148 -11 40 -25 69 -31 66 -12 -8 -11 -79 2 -148 14 -68 1
-110 -42 -132 -66 -35 -97 -14 -130 86 -33 97 -42 97 -37 -1 6 -110 33 -175
81 -195 62 -26 114 5 144 84 9 25 18 48 19 50 2 1 20 -11 41 -27 21 -17 57
-36 80 -43 37 -10 45 -9 74 7 18 11 42 35 54 54 18 32 20 49 17 204 -2 116 -7
179 -17 202 -8 19 -16 34 -19 34 -3 0 -13 -11 -22 -25z"/>
<path d="M9791 7339 c-24 -26 -35 -70 -26 -100 5 -15 -1 -29 -20 -49 -15 -16
-26 -33 -24 -39 6 -16 83 25 125 65 33 30 35 36 32 86 -3 51 -4 53 -35 56 -22
2 -37 -3 -52 -19z m44 -50 c12 -19 -5 -23 -22 -6 -16 16 -16 17 -1 17 9 0 20
-5 23 -11z"/>
<path d="M4831 7336 c-7 -8 -15 -30 -18 -49 -4 -30 -1 -38 21 -52 22 -14 29
-15 42 -5 43 36 40 81 -6 105 -24 12 -30 12 -39 1z"/>
<path d="M10000 7243 c0 -60 5 -139 10 -178 12 -79 6 -89 -57 -101 -56 -11
-104 4 -141 44 -32 36 -34 36 -47 17 -26 -37 -47 -54 -77 -60 -36 -8 -85 11
-93 36 -9 26 -17 23 -40 -14 -15 -24 -29 -33 -53 -35 -29 -3 -33 0 -38 27 -8
37 -17 39 -38 6 -37 -56 -89 -55 -113 2 l-14 35 -23 -21 c-31 -29 -83 -43
-131 -35 -56 9 -75 21 -87 55 -13 36 -21 36 -47 0 -25 -35 -87 -61 -145 -61
l-43 0 5 55 c5 65 -10 108 -44 124 -36 16 -65 14 -101 -9 -33 -19 -33 -21 -33
-96 l0 -77 -63 5 c-73 6 -103 22 -116 60 -12 35 -28 36 -43 3 -6 -14 -30 -34
-53 -45 -69 -34 -126 -25 -195 30 -43 34 -90 47 -117 32 -10 -6 -30 -39 -44
-74 -26 -65 -37 -75 -154 -157 -41 -28 -46 -35 -32 -43 26 -14 94 9 136 47
l38 35 23 -25 c38 -40 102 -33 158 18 19 18 34 21 87 19 68 -3 94 5 137 46
l27 25 36 -31 c19 -18 48 -34 63 -38 15 -3 33 -7 40 -10 7 -2 46 1 87 7 55 8
95 8 148 1 87 -13 127 -5 177 36 l34 29 49 -33 c56 -38 97 -43 151 -18 33 16
35 16 90 -11 l57 -28 29 21 c26 20 31 20 57 7 40 -21 60 -19 89 10 l24 24 33
-19 c42 -26 97 -26 130 0 14 11 28 20 31 20 3 0 6 -20 6 -45 l0 -45 45 0 c36
0 47 4 61 25 14 21 24 25 65 25 43 0 51 4 74 34 35 46 48 134 41 273 -5 109
-24 183 -45 183 -7 0 -11 -39 -11 -107z m-1240 -208 c35 -18 36 -21 11 -35
-28 -14 -71 4 -71 30 0 24 20 26 60 5z m-630 -107 l35 -23 -32 -3 c-38 -4 -73
12 -73 33 0 22 30 18 70 -7z"/>
<path d="M11646 7339 c-3 -8 -7 -27 -9 -44 l-3 -30 -13 33 c-7 17 -17 32 -21
32 -11 0 -22 -33 -18 -51 2 -8 -4 -14 -12 -14 -9 0 -16 11 -18 28 -2 16 -8 27
-15 24 -15 -4 -21 -41 -13 -73 6 -22 12 -24 61 -24 72 0 99 23 89 78 -7 43
-21 62 -28 41z"/>
<path d="M4163 7308 c-86 -35 -133 -75 -133 -112 0 -29 -2 -30 106 26 69 36
108 75 102 103 -2 11 -19 7 -75 -17z"/>
<path d="M8121 7269 c-70 -35 -131 -87 -131 -112 0 -14 36 -6 86 17 78 36 160
115 135 130 -5 3 -45 -12 -90 -35z"/>
<path d="M8724 7284 c-19 -26 -20 -26 -51 -11 -36 19 -49 10 -59 -43 -6 -26
-3 -36 11 -47 28 -19 61 -16 77 8 13 20 16 21 52 8 36 -13 39 -13 57 10 29 36
24 58 -21 81 -21 11 -41 20 -43 20 -2 0 -12 -12 -23 -26z"/>
<path d="M6310 7254 c-76 -36 -140 -87 -140 -111 0 -21 26 -15 98 21 75 38
122 79 122 107 0 11 -1 19 -3 19 -1 0 -36 -16 -77 -36z"/>
<path d="M7235 7246 l-98 -40 -32 -70 c-64 -142 -64 -131 -15 -244 l43 -101
92 -41 c51 -22 99 -40 106 -40 8 0 59 18 113 39 l99 39 40 104 39 104 -39 104
-39 105 -106 41 -105 41 -98 -41z m201 -21 l91 -35 38 -97 c42 -107 43 -100
-15 -228 l-27 -60 -97 -39 -97 -38 -91 39 -91 39 -33 80 c-18 43 -33 91 -34
106 0 28 54 175 71 193 12 12 160 74 179 75 8 0 56 -16 106 -35z"/>
<path d="M7241 7174 c-78 -39 -106 -87 -106 -180 0 -83 14 -109 84 -159 39
-27 50 -30 121 -30 72 0 81 2 116 31 55 44 76 76 81 127 8 70 -4 114 -45 159
-72 80 -159 98 -251 52z m180 -22 c120 -63 133 -210 26 -296 -50 -40 -134 -48
-193 -18 -75 39 -104 89 -104 183 0 42 4 50 46 88 83 77 140 88 225 43z"/>
<path d="M7280 7078 c0 -18 12 -40 35 -62 23 -23 35 -45 35 -63 0 -32 15 -61
26 -50 4 4 10 46 12 93 5 99 -5 120 -41 86 l-23 -22 -22 22 -22 22 0 -26z"/>
<path d="M8420 7270 c-11 -11 -20 -24 -20 -29 0 -14 23 -29 50 -33 24 -3 24
-4 -12 -26 -43 -27 -53 -58 -15 -47 63 20 107 67 107 115 0 40 -76 54 -110 20z"/>
<path d="M11200 7250 c-96 -51 -162 -120 -114 -120 27 0 137 59 172 93 29 28
44 67 25 67 -5 0 -42 -18 -83 -40z"/>
<path d="M9053 7258 c-33 -41 -35 -59 -12 -84 42 -44 89 -23 89 40 0 18 -9 30
-30 41 -35 18 -35 18 -47 3z"/>
<path d="M9428 7246 c-15 -34 -5 -54 29 -58 l28 -3 -37 -23 c-42 -26 -49 -42
-18 -42 35 0 67 22 89 60 26 47 27 66 2 80 -36 19 -80 12 -93 -14z"/>
<path d="M8929 7219 c-26 -37 -18 -58 26 -74 22 -8 29 -6 41 10 21 29 17 61
-11 79 -32 21 -30 21 -56 -15z"/>
<path d="M4496 7213 c-4 -16 0 -52 8 -82 8 -30 12 -60 9 -67 -12 -31 -157 -27
-205 7 -15 10 -30 19 -33 19 -10 0 -5 -68 10 -116 19 -62 20 -57 -12 -95 -33
-39 -95 -68 -144 -69 -50 0 -118 38 -141 80 -22 40 -20 82 8 152 19 51 15 69
-12 47 -49 -40 -73 -203 -40 -267 17 -32 61 -74 96 -92 45 -24 125 -16 177 16
60 37 109 101 118 154 l7 40 66 0 c77 0 126 23 143 68 21 53 -9 232 -40 232
-5 0 -12 -12 -15 -27z"/>
<path d="M6715 7111 c-31 -14 -81 -64 -99 -99 -9 -18 -21 -32 -26 -32 -12 0
-50 50 -50 66 0 22 -16 16 -43 -16 -43 -51 -105 -63 -175 -35 -20 9 -43 23
-50 33 -11 14 -14 15 -22 2 -11 -18 -3 -62 21 -119 19 -44 19 -45 -1 -66 -11
-12 -59 -42 -105 -66 -47 -24 -83 -48 -81 -54 4 -13 56 -8 126 11 67 19 76 26
105 84 22 43 26 46 83 58 33 7 72 22 86 33 l27 21 25 -23 c16 -15 24 -33 24
-56 0 -39 16 -44 30 -9 8 21 17 25 77 31 127 13 181 52 190 138 4 35 1 48 -18
71 -26 30 -88 43 -124 27z m84 -95 c17 -21 -13 -35 -90 -43 -71 -7 -78 7 -19
39 41 22 93 24 109 4z"/>
<path d="M4109 6999 c-26 -26 -21 -57 11 -81 31 -22 53 -16 69 18 16 37 14 62
-8 74 -29 15 -49 12 -72 -11z"/>
<path d="M4517 6902 c-10 -10 -17 -24 -17 -31 0 -9 -6 -8 -22 3 -12 9 -30 16
-39 16 -34 0 -69 -71 -47 -97 19 -23 74 -16 92 12 16 24 18 25 46 10 41 -21
48 -19 68 21 l17 36 -30 24 c-36 29 -47 30 -68 6z"/>
<path d="M6743 6799 c-87 -46 -133 -84 -133 -111 0 -26 24 -22 89 12 64 35 87
53 119 94 45 58 29 59 -75 5z"/>
<path d="M8454 6795 l-16 -25 -33 20 c-18 11 -35 20 -38 20 -4 0 -16 -19 -28
-42 l-21 -42 22 -18 c31 -25 57 -23 76 7 l16 24 38 -19 39 -20 20 26 c29 36
26 51 -11 74 -42 25 -44 25 -64 -5z"/>
<path d="M4840 6767 c-68 -33 -89 -49 -103 -77 -26 -52 -3 -51 99 7 79 44 124
89 107 107 -10 9 -13 8 -103 -37z"/>
<path d="M8789 6795 c-96 -34 -169 -84 -169 -117 0 -27 27 -22 104 20 99 54
147 126 65 97z"/>
<path d="M11587 6776 c-43 -19 -84 -39 -91 -45 -19 -16 -40 -70 -32 -79 10 -9
151 66 188 100 26 24 38 58 21 58 -5 0 -43 -16 -86 -34z"/>
<path d="M14790 6426 c-94 -34 -137 -53 -144 -64 -5 -9 86 -46 183 -73 39 -12
45 -11 57 5 10 15 32 19 118 23 l106 6 0 38 0 39 -104 0 c-100 0 -104 1 -120
25 -20 30 -15 30 -96 1z"/>
<path d="M14745 6177 c-11 -42 2 -128 23 -157 26 -35 95 -41 112 -10 8 15 8
30 2 49 l-10 28 75 7 c76 6 108 19 96 39 -4 6 -38 8 -93 4 -87 -6 -162 4 -168
21 -1 5 -9 18 -17 28 -13 18 -14 18 -20 -9z m73 -89 c15 -15 16 -45 1 -53 -13
-9 -15 -6 -24 33 -7 33 2 41 23 20z"/>
<path d="M10612 6143 c-12 -2 -20 -9 -17 -14 8 -12 1422 -12 1429 0 3 5 -4 11
-17 15 -25 6 -1359 6 -1395 -1z"/>
<path d="M5013 6050 c-61 -28 -88 -47 -103 -72 -24 -40 -25 -48 -4 -48 46 0
214 118 214 150 0 17 -22 11 -107 -30z"/>
<path d="M10087 6056 c-43 -19 -84 -39 -91 -45 -17 -14 -41 -70 -33 -77 6 -6
142 57 167 78 19 15 50 59 50 70 0 13 -11 10 -93 -26z"/>
<path d="M12000 6054 c-83 -39 -120 -68 -120 -96 0 -27 25 -22 99 18 72 39
121 80 121 101 0 20 -18 16 -100 -23z"/>
<path d="M7436 6058 c-26 -37 -20 -56 17 -60 l32 -3 -37 -23 c-44 -27 -48 -42
-14 -42 53 0 133 103 105 136 -19 23 -85 18 -103 -8z"/>
<path d="M8419 6004 c-78 -38 -129 -81 -129 -105 0 -38 191 68 220 121 17 33
-3 29 -91 -16z"/>
<path d="M11736 6024 c-24 -24 -20 -51 9 -58 22 -6 37 -36 18 -36 -5 0 -19 -9
-33 -20 l-25 -20 34 0 c70 0 135 111 82 140 -29 15 -67 12 -85 -6z"/>
<path d="M6481 5992 c-27 -39 -35 -76 -20 -103 10 -19 9 -24 -1 -27 -8 -3 -25
-17 -39 -31 -22 -21 -23 -26 -9 -29 25 -5 91 33 126 73 39 44 46 117 13 135
-31 16 -48 12 -70 -18z m43 -38 c15 -6 23 -34 10 -34 -15 0 -44 22 -39 31 7
11 9 11 29 3z"/>
<path d="M6885 6000 c-4 -6 -10 -24 -15 -40 -8 -28 -7 -30 21 -30 39 0 37 -14
-6 -40 -19 -12 -35 -24 -35 -26 0 -2 16 -4 36 -4 27 0 43 7 64 30 40 43 47 80
20 102 -24 20 -75 24 -85 8z"/>
<path d="M5250 5957 c-68 -33 -89 -49 -102 -77 -10 -20 -14 -36 -8 -38 13 -5
156 77 191 110 31 27 37 48 17 48 -7 0 -51 -19 -98 -43z"/>
<path d="M8714 5989 c-9 -15 26 -61 59 -77 14 -7 36 -29 48 -49 l23 -36 -30
-23 c-16 -13 -32 -24 -36 -24 -5 0 -8 -4 -8 -10 0 -19 59 -10 84 13 20 17 29
39 38 92 11 71 5 136 -12 119 -5 -5 -10 -45 -12 -89 -3 -77 -9 -83 -23 -20 -7
33 -84 115 -108 115 -9 0 -19 -5 -23 -11z"/>
<path d="M10312 5956 c-95 -50 -122 -72 -122 -98 0 -10 2 -18 5 -18 17 0 150
75 180 101 32 28 47 59 28 59 -5 0 -45 -20 -91 -44z"/>
<path d="M14813 5949 c-37 -11 -73 -52 -73 -83 0 -12 9 -32 21 -44 l20 -22
-20 -27 c-26 -32 -27 -64 -2 -94 18 -22 18 -23 -2 -57 -20 -33 -20 -35 -3
-115 30 -137 55 -181 83 -144 6 6 13 23 17 37 3 14 12 46 20 72 14 44 13 49
-5 72 -11 15 -29 26 -40 26 -36 0 -15 51 32 75 37 19 29 35 -17 35 -33 0 -34
1 -34 39 0 30 5 42 26 55 l25 17 -25 20 c-29 23 -35 69 -13 88 15 12 130 31
194 31 33 0 43 -4 48 -20 9 -30 25 -24 25 9 0 17 -6 31 -16 35 -24 9 -225 5
-261 -5z m22 -449 c-10 -31 -25 -13 -25 28 0 36 0 36 16 14 9 -13 13 -31 9
-42z"/>
<path d="M10036 5925 c-10 -26 -7 -165 5 -250 12 -88 7 -99 -52 -116 -53 -16
-126 10 -135 49 -10 42 -12 42 -42 13 -25 -26 -125 -71 -157 -71 -11 0 -13 16
-8 85 l6 85 -40 0 c-53 0 -77 -20 -121 -105 -44 -83 -53 -85 -153 -25 -36 22
-73 40 -83 40 -27 0 -73 -52 -87 -100 -13 -44 -67 -96 -151 -143 -46 -27 -48
-37 -5 -37 40 1 102 23 127 45 17 16 21 16 42 1 39 -27 97 -20 158 19 83 53
128 47 165 -25 25 -48 73 -81 114 -78 42 4 56 26 68 112 l8 58 59 24 c33 13
60 23 61 21 1 -1 8 -13 14 -25 16 -31 68 -52 126 -52 37 0 51 5 70 26 14 15
25 33 25 40 0 22 9 17 58 -27 44 -41 45 -42 104 -36 108 10 248 100 248 159 0
24 -17 22 -65 -7 -54 -33 -104 -33 -145 1 -30 26 -30 27 -13 46 16 18 26 20
96 15 62 -5 77 -4 77 8 0 22 -58 57 -106 63 -76 8 -103 -24 -119 -140 -3 -27
-10 -48 -14 -48 -21 0 -59 42 -69 77 -6 21 -19 97 -28 168 -17 130 -26 161
-38 130z m-432 -294 c9 -14 -64 -71 -90 -71 -5 0 10 18 31 40 40 41 50 46 59
31z m-318 -106 c47 -19 35 -39 -19 -32 -48 7 -69 23 -47 37 20 13 25 12 66 -5z
m338 -85 c11 -11 17 -22 14 -25 -9 -9 -88 33 -88 46 0 16 51 1 74 -21z"/>
<path d="M4975 5887 c-6 -39 6 -194 21 -269 8 -40 -44 -71 -106 -63 -47 6
-100 49 -100 81 0 11 -12 5 -40 -19 -35 -30 -154 -77 -165 -65 -2 2 1 33 7 70
14 77 4 98 -43 98 -40 0 -77 -37 -113 -111 -28 -58 -34 -64 -60 -62 -15 1 -56
20 -90 43 -34 22 -72 40 -85 40 -31 0 -67 -40 -82 -91 -7 -24 -17 -50 -22 -57
-12 -16 -126 -96 -150 -105 -29 -11 -19 -27 17 -27 19 0 60 14 91 30 54 29 59
29 76 14 27 -25 108 -14 152 19 70 53 118 48 165 -18 56 -79 134 -109 166 -63
10 15 16 45 16 84 l0 62 63 25 c63 24 87 22 87 -10 0 -20 61 -43 116 -43 41 0
51 5 80 36 l34 35 44 -35 c51 -43 83 -45 179 -16 68 21 159 90 172 131 10 31
3 32 -56 4 -30 -14 -66 -25 -81 -25 -61 0 -105 43 -77 77 11 13 28 15 91 10
45 -4 78 -2 78 3 0 18 -70 62 -108 67 -71 10 -104 -24 -125 -128 l-13 -64 -31
31 c-39 39 -59 105 -74 245 -7 60 -16 109 -20 109 -4 0 -11 -19 -14 -43z
m-436 -283 c-15 -18 -69 -47 -75 -41 -3 2 14 21 38 42 25 23 43 34 46 26 2 -6
-2 -19 -9 -27z m-297 -81 c29 -26 22 -36 -23 -30 -45 6 -65 19 -55 36 11 17
57 13 78 -6z m328 -78 c7 -9 10 -18 7 -21 -7 -8 -75 14 -82 27 -10 16 62 10
75 -6z"/>
<path d="M7587 5893 c-14 -36 -14 -54 3 -209 11 -93 20 -194 22 -224 3 -54 3
-54 18 -30 12 19 16 68 18 209 3 155 1 191 -14 230 -24 65 -29 67 -47 24z"/>
<path d="M8082 5905 c-16 -35 -15 -45 6 -45 43 -1 44 -17 1 -49 l-43 -31 35 0
c41 0 74 21 94 60 30 58 11 90 -53 90 -21 0 -32 -7 -40 -25z"/>
<path d="M10810 5887 c-66 -33 -88 -49 -102 -77 -10 -19 -14 -36 -9 -38 18 -6
145 63 183 99 38 36 48 59 26 59 -7 -1 -51 -20 -98 -43z"/>
<path d="M11960 5894 c-14 -35 -12 -70 14 -294 21 -188 23 -194 35 -156 16 47
10 378 -9 439 -13 43 -27 47 -40 11z"/>
<path d="M7446 5873 c-3 -21 -1 -105 6 -187 11 -143 11 -149 -8 -163 -40 -31
-180 4 -191 48 -7 25 -15 24 -39 -2 -26 -30 -95 -59 -122 -52 -19 5 -22 12
-22 54 0 45 -3 51 -27 61 -16 6 -62 13 -104 16 -73 4 -78 3 -93 -20 -24 -37
-25 -71 -1 -76 11 -3 31 -9 45 -15 24 -10 24 -10 -15 -18 -22 -4 -66 -8 -97
-8 l-58 -1 0 48 c0 26 -5 53 -12 60 -16 16 -117 15 -145 -1 -12 -7 -42 -36
-67 -65 l-44 -52 -26 31 c-14 17 -26 37 -26 45 0 24 -19 16 -35 -15 -9 -18
-28 -34 -50 -41 -34 -11 -38 -10 -75 24 -27 24 -50 36 -69 36 -34 0 -40 -7
-52 -59 -13 -58 -3 -78 49 -97 26 -10 49 -19 51 -21 8 -6 -31 -31 -114 -75
l-80 -43 45 -3 c75 -6 105 5 144 51 20 23 43 50 51 60 8 9 26 17 40 17 15 0
31 10 41 25 l17 26 28 -27 c19 -18 29 -38 29 -56 0 -31 14 -37 28 -11 11 19
196 42 343 43 59 0 104 6 144 20 57 20 57 20 85 0 39 -28 128 -28 163 0 34 27
37 26 37 -20 0 -65 57 -82 103 -30 21 23 36 30 65 30 99 0 126 76 112 317 -9
158 -38 237 -54 146z m-781 -333 c10 -11 16 -22 14 -24 -5 -5 -131 -26 -154
-26 -16 0 -13 6 15 35 41 42 95 48 125 15z"/>
<path d="M11514 5861 c-77 -37 -124 -78 -124 -107 0 -20 3 -19 92 27 75 40
138 89 138 110 0 16 -25 10 -106 -30z"/>
<path d="M4736 5868 c-21 -30 -20 -48 3 -48 33 0 36 -22 8 -46 -34 -29 -34
-34 2 -34 36 0 77 46 87 96 8 42 -4 54 -53 54 -22 0 -37 -7 -47 -22z"/>
<path d="M9776 5868 c-23 -32 -20 -48 9 -48 35 0 31 -15 -12 -45 l-38 -25 42
0 c34 0 46 6 72 35 50 57 38 105 -25 105 -23 0 -38 -7 -48 -22z"/>
<path d="M9226 5864 c-9 -8 -16 -24 -16 -35 0 -15 7 -19 32 -19 l32 0 -39 -40
-39 -40 30 0 c42 0 70 23 90 76 17 45 17 47 -1 60 -25 19 -70 18 -89 -2z"/>
<path d="M8380 5851 c-16 -30 -12 -66 9 -85 27 -25 52 -17 67 21 12 28 11 34
-7 57 -24 31 -54 34 -69 7z"/>
<path d="M4161 5834 c-27 -34 -26 -44 2 -44 12 0 28 -4 36 -9 11 -7 7 -14 -20
-30 -19 -12 -37 -21 -41 -21 -5 0 -8 -4 -8 -10 0 -13 41 -13 74 0 30 11 66 65
66 97 0 47 -76 58 -109 17z"/>
<path d="M14662 5848 c-14 -18 -3 -108 15 -115 22 -8 47 22 38 44 -5 10 -9 31
-9 48 -1 32 -25 45 -44 23z"/>
<path d="M7265 5819 c-74 -33 -119 -69 -130 -106 -9 -32 5 -29 87 14 77 40
128 83 128 107 0 21 -3 21 -85 -15z"/>
<path d="M11749 5823 c-8 -22 -6 -32 9 -52 35 -48 75 -36 88 25 5 25 2 32 -21
42 -42 19 -64 15 -76 -15z"/>
<path d="M11206 5815 c-23 -35 -20 -45 14 -51 39 -8 38 -17 -7 -45 l-38 -24
33 -3 c50 -5 102 52 102 111 0 44 -77 53 -104 12z"/>
<path d="M6150 5801 c-19 -36 -13 -61 15 -61 35 0 31 -15 -12 -42 -35 -21 -36
-23 -15 -26 52 -8 122 51 122 101 0 44 -89 67 -110 28z"/>
<path d="M6890 5781 c-17 -32 -12 -58 15 -75 40 -26 62 -21 75 20 7 19 10 37
8 38 -9 9 -68 36 -77 36 -6 0 -15 -9 -21 -19z"/>
<path d="M6483 5744 c-17 -35 -17 -36 6 -55 44 -36 91 -14 91 42 0 22 -6 32
-26 39 -42 16 -53 12 -71 -26z"/>
<path d="M10833 5699 c-5 -17 -12 -20 -52 -17 -42 3 -47 1 -60 -26 -13 -28
-12 -31 13 -53 36 -31 62 -30 70 3 5 20 11 24 24 19 43 -19 59 -17 81 10 26
34 26 39 -1 65 -29 27 -68 26 -75 -1z"/>
<path d="M8124 5683 c-10 -51 -24 -73 -50 -83 -40 -16 -65 -12 -100 15 -18 14
-35 25 -38 25 -3 0 -6 -21 -6 -46 0 -35 6 -54 25 -76 14 -16 25 -33 25 -38 0
-17 -75 -70 -137 -96 -76 -33 -83 -54 -17 -54 105 0 173 45 183 122 6 41 8 43
45 49 22 4 47 16 57 27 17 21 17 21 42 -17 15 -22 42 -52 62 -67 70 -53 200
-40 300 28 45 32 96 100 84 113 -4 3 -32 -6 -64 -20 -73 -32 -115 -32 -143 -2
-49 52 -16 74 94 63 35 -4 64 -3 64 2 0 5 -10 18 -22 29 -59 54 -125 59 -168
13 -26 -28 -50 -94 -50 -139 0 -25 -9 -26 -53 -7 -56 24 -80 61 -101 159 -4
15 -11 27 -16 27 -5 0 -12 -12 -16 -27z"/>
<path d="M14916 5688 c-8 -47 -3 -77 15 -94 15 -14 21 -14 34 -4 18 15 13 99
-7 111 -23 15 -37 10 -42 -13z"/>
<path d="M11804 5615 c6 -85 6 -85 -20 -95 -28 -11 -104 -13 -128 -4 -12 5
-16 20 -16 59 l0 53 -44 11 c-49 12 -118 14 -153 5 -20 -6 -43 -48 -43 -79 0
-7 18 -15 39 -19 58 -9 58 -23 1 -31 -87 -12 -178 13 -200 56 -11 20 -11 20
-30 -4 -11 -14 -38 -32 -61 -41 -55 -22 -97 -8 -106 35 -3 16 -8 29 -10 29 -2
0 -24 -14 -49 -30 -62 -43 -116 -60 -193 -60 -67 0 -140 24 -157 51 -5 8 -11
39 -14 69 l-6 55 -14 -30 c-22 -48 -19 -138 6 -172 49 -67 201 -93 305 -54 31
12 64 30 74 41 18 19 18 19 56 -15 50 -45 99 -48 141 -8 l28 27 0 -42 c0 -33
5 -45 24 -58 33 -21 69 -15 81 14 11 25 21 28 110 36 33 3 80 12 104 21 41 14
45 14 71 -5 36 -26 163 -29 198 -4 52 36 66 123 37 222 -25 82 -39 66 -31 -33z"/>
<path d="M5509 5673 c-9 -10 -14 -41 -14 -84 0 -83 18 -111 95 -151 44 -24 65
-28 129 -28 145 0 258 46 281 115 15 45 5 116 -19 147 -18 22 -18 22 -25 1 -4
-11 -2 -40 3 -64 5 -24 8 -46 5 -50 -11 -18 -108 -41 -195 -46 -107 -6 -153 4
-207 45 -33 24 -34 26 -27 78 7 56 -1 67 -26 37z"/>
<path d="M8764 5595 c-41 -84 -57 -176 -33 -191 8 -5 40 -9 71 -10 l57 -3 21
55 c11 30 20 67 20 83 0 28 -65 131 -87 138 -6 2 -28 -30 -49 -72z m64 -30
c31 -39 47 -84 34 -97 -9 -9 -17 -7 -32 7 -18 16 -24 17 -41 7 -11 -7 -25 -10
-30 -6 -21 13 15 114 41 114 4 0 17 -11 28 -25z"/>
<path d="M8138 5404 c-14 -14 -21 -14 -52 -3 -41 15 -50 9 -63 -40 -11 -43 68
-85 84 -45 5 13 14 15 46 10 66 -11 104 44 55 78 -29 20 -50 20 -70 0z"/>
<path d="M4808 5394 c-14 -14 -21 -14 -53 -4 -42 14 -52 8 -61 -36 -10 -51 45
-86 76 -49 14 17 46 20 55 5 11 -18 43 -10 64 16 28 36 26 51 -9 69 -37 19
-52 19 -72 -1z"/>
<path d="M9870 5403 c-1 -28 -17 -33 -54 -18 -46 20 -61 15 -70 -20 -15 -59
54 -102 87 -54 14 20 16 20 41 4 32 -21 57 -13 79 25 l18 30 -33 20 c-33 20
-68 26 -68 13z"/>
<path d="M5741 5344 c-27 -34 -26 -49 1 -68 33 -24 47 -20 65 19 16 33 15 36
-2 55 -24 27 -39 25 -64 -6z"/>
<path d="M7876 5293 c-68 -36 -91 -53 -101 -77 -8 -17 -10 -35 -5 -40 21 -21
220 115 220 151 0 21 -20 15 -114 -34z"/>
<path d="M14856 5304 c-49 -7 -91 -16 -94 -19 -13 -13 15 -17 122 -17 114 1
161 12 153 35 -5 17 -78 18 -181 1z"/>
<path d="M5850 5260 c-81 -43 -130 -82 -130 -105 0 -23 27 -18 85 15 56 32
145 106 145 121 0 16 -24 9 -100 -31z"/>
<path d="M9626 5274 c-32 -14 -73 -35 -92 -47 -32 -21 -62 -62 -53 -72 10 -9
165 58 192 83 25 24 37 63 20 62 -5 -1 -34 -12 -67 -26z"/>
<path d="M4553 5239 c-61 -29 -87 -48 -98 -70 -9 -17 -15 -35 -13 -40 3 -9
148 58 179 83 15 12 39 51 39 62 0 13 -29 3 -107 -35z"/>
<path d="M14941 4802 c-14 -27 -15 -209 0 -217 18 -12 21 0 26 103 6 107 -4
154 -26 114z"/>
<path d="M6482 4638 c-15 -15 -16 -60 -2 -74 7 -7 6 -20 -5 -40 -20 -38 -19
-84 2 -113 15 -22 20 -23 90 -17 107 9 123 22 37 31 -97 11 -114 18 -114 53 0
33 28 62 85 88 l40 18 -55 6 c-40 3 -55 9 -55 20 0 10 12 16 38 18 20 2 37 7
37 13 0 13 -84 11 -98 -3z"/>
<path d="M8106 4579 c-77 -57 -150 -60 -238 -11 -36 20 -50 24 -59 15 -21 -21
-12 -61 23 -105 19 -24 38 -51 41 -60 9 -25 22 -22 35 6 8 18 20 24 55 28 91
10 192 82 185 131 l-3 26 -39 -30z"/>
<path d="M8344 4461 c-89 -44 -124 -72 -124 -102 0 -16 4 -19 23 -14 64 20
177 97 197 136 16 29 -5 25 -96 -20z"/>
<path d="M14770 4473 c-82 -57 -88 -119 -20 -197 l32 -36 -42 -76 -42 -76 4
-98 c3 -91 5 -102 33 -141 17 -24 53 -57 80 -74 45 -28 55 -30 144 -30 60 1
117 7 152 18 55 16 89 41 75 54 -3 3 -61 10 -128 14 -127 7 -159 14 -219 44
-118 60 -142 164 -65 278 27 40 93 83 178 115 51 20 77 35 85 52 18 37 2 43
-65 26 -79 -21 -115 -20 -162 4 -47 24 -51 44 -12 63 44 23 79 28 124 18 50
-12 57 -8 34 17 -36 40 -144 54 -186 25z"/>
<path d="M7757 4444 c-3 -3 -3 -22 0 -41 4 -26 3 -34 -5 -29 -7 4 -12 18 -12
32 0 36 -34 28 -38 -9 -3 -28 -20 -37 -26 -14 -16 53 -17 53 -28 34 -5 -10 -7
-34 -4 -52 8 -39 30 -48 95 -35 60 11 71 29 50 89 -11 30 -19 37 -32 25z"/>
<path d="M9346 4387 c-77 -41 -122 -83 -114 -107 4 -14 153 59 191 94 28 26
36 56 15 56 -7 -1 -49 -20 -92 -43z"/>
<path d="M7929 4371 c-8 -25 -10 -82 -5 -191 7 -181 27 -304 53 -332 47 -52
119 -63 158 -24 l24 24 26 -23 c16 -16 25 -35 25 -55 0 -35 11 -39 31 -11 12
18 35 21 204 31 127 8 197 16 212 25 44 29 56 89 51 257 -5 154 -18 218 -44
218 -18 0 -18 -96 0 -240 19 -141 13 -150 -84 -150 l-70 0 0 38 c0 58 -22 82
-77 82 -57 0 -109 -29 -146 -81 -16 -21 -36 -39 -46 -39 -22 0 -51 31 -51 53
0 24 -8 21 -39 -12 -54 -58 -120 -50 -147 16 -19 45 -46 265 -42 342 3 54 4
56 33 59 93 8 94 28 2 41 l-57 8 -11 -36z m522 -431 c10 -6 19 -15 19 -20 0
-11 -53 -26 -125 -36 l-50 -7 25 28 c39 43 90 56 131 35z"/>
<path d="M8376 4360 c-3 -8 -7 -28 -9 -45 l-3 -30 -14 28 c-18 37 -40 35 -40
-4 0 -35 -21 -36 -30 0 -8 33 -25 30 -28 -5 -2 -19 4 -38 15 -51 16 -18 26
-20 73 -14 l55 6 3 47 c3 50 -12 97 -22 68z"/>
<path d="M7446 4318 c-24 -34 -20 -48 14 -48 41 0 38 -15 -10 -42 -43 -25 -51
-38 -21 -38 61 0 121 56 121 113 0 42 -77 54 -104 15z"/>
<path d="M6451 4269 c-52 -22 -100 -44 -106 -49 -6 -5 -28 -52 -49 -104 l-39
-95 43 -103 42 -103 105 -42 104 -42 100 42 101 42 39 94 c21 52 39 102 39
111 0 9 -17 59 -39 109 l-38 93 -98 44 c-54 24 -101 44 -104 44 -3 -1 -48 -19
-100 -41z m198 -27 l94 -47 33 -79 c19 -44 34 -84 34 -90 0 -6 -16 -52 -37
-103 l-36 -92 -76 -33 c-42 -17 -92 -31 -111 -31 -36 1 -166 47 -187 67 -6 6
-27 50 -47 99 l-36 87 38 90 37 90 95 45 c52 25 97 45 100 45 3 -1 47 -22 99
-48z"/>
<path d="M6470 4209 c-132 -53 -171 -215 -76 -318 70 -75 166 -91 253 -41 156
90 139 296 -30 359 -35 13 -113 13 -147 0z m167 -36 c70 -36 109 -130 84 -205
-21 -64 -111 -128 -178 -128 -37 1 -102 31 -130 61 -35 38 -56 97 -48 138 13
69 43 111 98 137 60 29 114 28 174 -3z"/>
<path d="M6537 4061 c-40 -44 -67 -91 -67 -117 0 -14 9 -15 73 -9 73 7 90 16
80 43 -5 11 -17 13 -55 9 -44 -6 -47 -5 -39 12 6 10 17 24 26 31 9 7 23 26 31
42 22 43 -6 37 -49 -11z"/>
<path d="M8797 4303 c-12 -11 -7 -152 8 -263 8 -58 15 -136 15 -173 0 -80 19
-89 33 -16 14 75 1 368 -18 417 -17 41 -25 49 -38 35z"/>
<path d="M7717 4283 c-11 -10 -7 -128 7 -243 7 -58 11 -110 9 -117 -7 -17 -57
-26 -105 -18 -58 10 -82 39 -97 115 -7 36 -14 73 -17 83 -8 26 -24 10 -24 -24
0 -66 -92 -106 -135 -59 -47 52 -59 3 -23 -98 l22 -62 -20 -28 c-29 -39 -109
-76 -164 -76 -25 0 -63 10 -86 22 -80 41 -96 105 -50 202 14 30 23 56 21 58
-11 11 -36 -11 -54 -45 -39 -78 -45 -180 -13 -240 42 -77 176 -117 255 -76 84
43 120 87 138 171 8 41 15 52 30 52 25 0 76 26 81 41 2 6 12 -15 22 -46 16
-50 22 -59 59 -76 46 -21 108 -25 138 -9 45 25 54 64 54 240 0 187 -17 265
-48 233z"/>
<path d="M9658 4246 c-82 -39 -118 -71 -118 -104 0 -29 6 -27 96 23 65 37 124
86 124 104 0 19 -32 12 -102 -23z"/>
<path d="M9000 4230 c0 -44 23 -92 66 -140 35 -38 39 -40 51 -25 11 17 14 17
37 2 51 -34 106 -128 106 -184 1 -24 2 -26 11 -10 17 29 13 120 -6 161 -25 52
-97 129 -170 181 -75 54 -95 57 -95 15z"/>
<path d="M9334 4246 c-4 -10 -4 -87 -1 -172 l6 -153 -51 -46 c-28 -25 -82 -64
-120 -86 -61 -36 -84 -59 -59 -59 39 0 148 46 183 78 60 54 79 106 89 239 7
115 1 162 -25 198 -14 19 -15 19 -22 1z"/>
<path d="M7201 4217 c-107 -53 -183 -140 -103 -118 71 21 192 107 192 137 0
21 -18 17 -89 -19z"/>
<path d="M8275 4136 c-22 -40 -12 -60 32 -69 36 -7 53 1 63 29 12 31 5 49 -26
63 -39 17 -49 14 -69 -23z"/>
<path d="M14949 4123 c-65 -61 -122 -139 -115 -158 4 -12 26 -15 99 -15 78 0
97 3 110 18 36 39 23 51 -59 54 l-75 3 50 63 c47 58 60 82 46 82 -3 0 -28 -21
-56 -47z"/>
<path d="M9606 4057 c-19 -15 -36 -60 -36 -97 0 -35 32 -60 77 -60 18 0 33 -4
33 -9 0 -5 -41 -35 -90 -67 -108 -68 -109 -89 -2 -60 73 19 102 40 126 91 27
57 13 167 -23 190 -28 17 -70 23 -85 12z"/>
<path d="M7140 3951 c-24 -45 -7 -76 46 -87 25 -5 32 -2 42 21 18 40 15 61
-13 73 -38 17 -63 15 -75 -7z"/>
<path d="M7775 3770 c-73 -31 -125 -77 -125 -110 0 -17 3 -18 27 -9 61 23 145
74 169 101 47 57 30 61 -71 18z"/>
<path d="M7496 3735 c-6 -24 -7 -25 -36 -10 -42 22 -58 19 -75 -16 -19 -35 -9
-54 34 -70 19 -8 29 -5 47 12 20 19 27 20 55 10 41 -14 36 -16 59 22 26 42 25
44 -10 62 -43 22 -67 19 -74 -10z"/>
<path d="M7893 983 c4 -98 3 -183 -1 -189 -17 -26 -76 -46 -119 -41 -81 9
-114 67 -78 137 20 38 3 48 -24 14 -45 -57 -35 -150 22 -208 25 -26 33 -28 82
-24 60 5 113 38 145 91 34 56 14 397 -24 397 -6 0 -7 -67 -3 -177z"/>
<path d="M8170 1045 c-23 -24 -23 -25 -5 -45 26 -29 51 -25 65 10 10 24 10 33
0 45 -18 21 -33 19 -60 -10z"/>
<path d="M7435 993 c-27 -57 -10 -241 20 -211 24 23 28 248 5 248 -4 0 -16
-17 -25 -37z"/>
<path d="M8024 1005 c-16 -24 -16 -27 1 -45 24 -27 41 -25 62 6 16 26 16 27
-6 45 -30 25 -37 24 -57 -6z"/>
<path d="M8175 917 c-22 -52 -40 -63 -78 -48 -66 26 -67 26 -67 -10 0 -20 9
-42 22 -56 30 -32 19 -48 -66 -96 -36 -21 -64 -43 -60 -48 9 -15 67 -10 112
11 34 15 47 29 59 60 9 22 24 42 33 45 10 3 25 14 35 25 17 19 18 19 39 -13
26 -38 81 -77 109 -77 12 0 38 12 58 26 33 23 41 24 77 15 22 -6 46 -9 55 -6
19 8 36 47 44 100 5 37 2 44 -22 63 -15 12 -32 22 -38 22 -6 0 -40 -30 -76
-66 -60 -62 -67 -66 -99 -60 -47 7 -88 48 -101 102 -6 24 -14 44 -17 44 -3 0
-11 -15 -19 -33z m315 -87 c0 -5 -4 -10 -9 -10 -6 0 -13 5 -16 10 -3 6 1 10 9
10 9 0 16 -4 16 -10z"/>
</g>
</svg>
