<?xml version="1.0" standalone="no"?>
<!DOCTYPE svg PUBLIC "-//W3C//DTD SVG 20010904//EN"
 "http://www.w3.org/TR/2001/REC-SVG-20010904/DTD/svg10.dtd">
<svg version="1.0" xmlns="http://www.w3.org/2000/svg"
 width="1600.000000pt" height="2100.000000pt" viewBox="0 0 1600.000000 2100.000000"
 preserveAspectRatio="xMidYMid meet">
<metadata>
Created by potrace 1.16, written by Peter Selinger 2001-2019
</metadata>
<g transform="translate(0.000000,2100.000000) scale(0.100000,-0.100000)"
fill="#000000" stroke="none">
<path d="M3129 20548 c-59 -31 -103 -77 -87 -93 15 -16 178 90 178 116 0 16
-26 9 -91 -23z"/>
<path d="M2612 20533 c-58 -28 -112 -76 -112 -99 0 -41 121 21 162 84 33 50
26 52 -50 15z"/>
<path d="M14201 20524 c-55 -30 -117 -31 -172 -3 -23 11 -42 19 -44 17 -1 -2
-8 -13 -14 -26 -13 -24 -8 -40 21 -60 10 -7 25 -27 34 -45 l17 -32 15 23 c10
15 24 22 45 22 62 0 167 73 167 116 0 19 -18 17 -69 -12z"/>
<path d="M2916 20525 c-22 -22 -20 -45 4 -45 27 0 25 -14 -5 -34 -14 -9 -23
-21 -20 -26 12 -19 37 -10 72 25 26 26 34 41 31 62 -2 23 -8 29 -34 31 -19 2
-38 -3 -48 -13z"/>
<path d="M13710 20445 c-58 -31 -132 -33 -178 -5 -43 26 -49 25 -57 -10 -5
-25 -1 -37 22 -64 15 -18 33 -41 40 -52 11 -18 12 -18 28 4 9 12 27 22 41 22
57 0 164 72 164 111 0 24 -5 23 -60 -6z"/>
<path d="M3098 20396 c-8 -18 -8 -48 0 -113 6 -48 14 -130 18 -180 4 -51 10
-93 15 -93 22 0 32 79 25 205 -8 181 -29 244 -58 181z"/>
<path d="M2993 20394 c-3 -9 -1 -72 6 -140 7 -69 9 -129 6 -134 -3 -6 -31 -10
-61 -10 -51 0 -56 2 -72 30 -19 34 -38 39 -47 12 -7 -26 -47 -42 -99 -42 l-44
0 5 44 c5 38 2 48 -20 70 -17 17 -37 26 -57 26 -20 0 -40 -9 -57 -26 -22 -22
-25 -32 -20 -70 l5 -44 -97 0 c-64 1 -104 5 -121 15 -14 8 -28 14 -32 15 -15
0 -8 -55 12 -97 l19 -43 -32 -24 c-18 -13 -56 -38 -84 -56 -29 -17 -53 -34
-53 -37 0 -10 103 4 132 17 16 8 36 31 47 56 11 23 30 45 41 49 11 4 105 8
208 9 178 2 190 3 220 25 l32 23 52 -26 c29 -14 63 -26 75 -26 30 0 68 41 84
88 14 41 5 263 -12 293 -12 23 -28 24 -36 3z m-372 -244 c19 -15 21 -19 7 -20
-27 0 -48 11 -48 26 0 19 14 17 41 -6z"/>
<path d="M2599 20384 c-9 -11 -22 -14 -41 -10 -24 5 -30 1 -38 -20 -14 -36
-13 -42 15 -60 24 -16 27 -16 45 1 17 15 24 16 46 6 30 -13 39 -9 59 29 15 29
15 30 -24 50 -48 24 -45 24 -62 4z"/>
<path d="M14220 20380 c-9 -18 -10 -48 -1 -129 5 -58 13 -143 17 -188 3 -46
10 -83 14 -83 37 0 33 371 -4 408 -12 12 -16 11 -26 -8z"/>
<path d="M2015 20366 c-18 -27 -11 -52 17 -67 15 -8 23 -7 34 8 19 26 17 61
-5 73 -27 14 -28 13 -46 -14z"/>
<path d="M2098 20354 c-11 -23 -10 -29 11 -45 31 -25 39 -24 53 7 11 23 10 29
-11 45 -31 25 -39 24 -53 -7z"/>
<path d="M14104 20365 c-4 -9 -3 -60 1 -113 5 -54 9 -115 9 -137 l1 -40 -171
-3 -172 -2 -50 31 c-71 44 -88 38 -145 -48 -31 -48 -65 -85 -102 -110 -30 -21
-54 -41 -55 -45 -1 -24 105 6 141 38 16 14 20 14 43 -2 34 -21 99 -14 130 15
21 19 34 21 177 21 85 0 164 3 176 6 13 4 33 23 45 43 21 33 23 46 21 166 -1
72 -6 143 -11 159 -9 35 -29 45 -38 21z m-431 -332 l32 -18 -28 -3 c-37 -4
-57 4 -57 23 0 20 14 19 53 -2z"/>
<path d="M2817 20293 c-64 -34 -108 -76 -94 -89 19 -20 177 75 177 106 0 26
-3 26 -83 -17z"/>
<path d="M1750 20288 c-16 -24 -19 -43 -15 -71 3 -20 8 -71 12 -112 9 -114 31
-108 54 16 10 54 16 67 43 84 29 19 80 94 71 104 -3 2 -20 -4 -39 -14 -34 -19
-45 -17 -83 11 -21 15 -23 15 -43 -18z"/>
<path d="M13294 20294 c-16 -23 -19 -45 -17 -124 3 -103 9 -140 22 -140 14 0
20 37 27 151 4 66 3 113 -3 124 -10 17 -12 16 -29 -11z"/>
<path d="M2301 20282 c-54 -27 -97 -70 -90 -91 9 -24 179 80 179 110 0 16 -34
9 -89 -19z"/>
<path d="M13670 20283 l0 -27 -16 22 c-17 25 -34 21 -34 -9 0 -10 -4 -19 -10
-19 -5 0 -10 9 -10 21 0 12 -5 19 -12 17 -18 -6 -21 -29 -9 -61 10 -24 14 -26
59 -23 28 2 55 6 61 10 22 14 6 96 -19 96 -6 0 -10 -12 -10 -27z"/>
<path d="M8121 20262 c-7 -13 -24 -27 -39 -33 -21 -8 -31 -6 -55 11 -59 44
-77 7 -70 -146 5 -122 9 -154 22 -154 13 0 30 55 37 116 4 28 9 56 13 60 14
20 75 44 110 44 29 0 44 7 68 33 41 43 59 77 40 77 -8 0 -20 -7 -27 -15 -18
-22 -55 -18 -72 7 l-15 22 -12 -22z"/>
<path d="M2019 20253 c-1 -5 -3 -55 -4 -113 -4 -120 5 -140 62 -140 65 0 96
67 72 159 -10 41 -10 53 1 66 18 22 4 31 -25 15 -22 -12 -30 -11 -60 3 -40 19
-44 20 -46 10z m81 -131 c25 -20 20 -42 -9 -42 -22 0 -41 19 -41 42 0 23 22
23 50 0z"/>
<path d="M2802 19962 c-12 -25 -10 -29 15 -51 l27 -23 23 26 c30 35 29 42 -7
61 -39 20 -43 19 -58 -13z"/>
<path d="M7207 15402 c-10 -10 -17 -30 -17 -43 0 -14 -5 -30 -12 -37 -23 -23
1 -24 36 -2 36 22 53 57 42 85 -7 20 -29 19 -49 -3z"/>
<path d="M6706 15385 c-3 -9 -6 -29 -6 -44 0 -15 -5 -32 -12 -39 -22 -22 17
-14 46 9 34 27 34 82 0 87 -13 2 -24 -4 -28 -13z"/>
<path d="M9000 15380 c-6 -11 -8 -25 -4 -31 3 -6 -2 -19 -11 -29 -10 -11 -13
-20 -6 -24 14 -9 79 54 83 79 4 29 -47 34 -62 5z"/>
<path d="M9366 15363 c-9 -9 -7 -33 5 -78 11 -39 12 -39 21 -15 15 40 -5 114
-26 93z"/>
<path d="M6440 15233 c0 -147 9 -172 61 -190 19 -6 52 -28 72 -48 44 -44 68
-43 82 3 7 23 17 34 35 38 54 12 67 22 73 59 7 40 -1 92 -14 101 -11 7 -22
-40 -17 -71 5 -23 2 -25 -28 -25 -18 0 -40 -3 -49 -6 -14 -6 -16 0 -14 37 3
38 1 44 -17 47 -21 3 -74 -47 -74 -69 0 -6 -12 -9 -27 -7 -40 4 -55 44 -57
147 -1 82 0 86 22 89 35 5 26 22 -13 22 l-35 0 0 -127z m170 -117 c0 -2 -7 -7
-16 -10 -8 -3 -12 -2 -9 4 6 10 25 14 25 6z m15 -86 c3 -5 2 -10 -4 -10 -5 0
-13 5 -16 10 -3 6 -2 10 4 10 5 0 13 -4 16 -10z"/>
<path d="M6814 15335 c-8 -32 12 -239 26 -265 22 -40 82 -38 158 6 45 27 60
62 20 49 -52 -16 -74 -16 -87 -1 -21 25 -3 39 45 33 24 -2 44 -1 44 4 0 14
-37 29 -70 29 -28 0 -34 -5 -47 -40 -27 -69 -37 -54 -54 80 -11 92 -8 110 17
110 8 0 14 5 14 10 0 6 -13 10 -30 10 -23 0 -31 -5 -36 -25z"/>
<path d="M7284 15329 c-106 -67 -119 -93 -88 -176 9 -24 14 -46 11 -49 -12
-13 -58 -6 -77 11 -10 9 -29 15 -42 13 -33 -4 -38 -60 -7 -82 13 -8 21 -17 18
-19 -2 -2 -22 -14 -44 -28 -37 -22 -38 -24 -17 -27 32 -5 80 16 93 40 6 11 30
28 55 38 39 17 44 23 44 52 0 18 -7 54 -15 81 l-14 47 47 30 c26 16 52 30 58
30 13 0 44 43 44 60 0 16 -13 12 -66 -21z"/>
<path d="M8724 15318 c3 -24 8 -81 11 -127 9 -118 24 -150 68 -151 10 0 35
-18 56 -40 53 -55 79 -52 95 13 5 23 12 27 40 27 19 0 40 8 49 18 17 19 22 77
11 120 -11 39 -24 24 -24 -27 l0 -48 -41 -7 c-23 -4 -44 -4 -48 0 -3 3 -6 22
-6 42 0 30 -4 38 -21 40 -21 3 -74 -47 -74 -69 0 -16 -36 -10 -53 9 -19 21
-37 103 -37 169 0 36 4 46 20 50 33 9 23 23 -16 23 l-35 0 5 -42z m176 -202
c0 -3 -4 -8 -10 -11 -5 -3 -10 -1 -10 4 0 6 5 11 10 11 6 0 10 -2 10 -4z m15
-86 c3 -5 2 -10 -4 -10 -5 0 -13 5 -16 10 -3 6 -2 10 4 10 5 0 13 -4 16 -10z"/>
<path d="M9115 15243 c7 -136 19 -188 41 -197 27 -11 91 -6 102 7 16 20 24 72
16 111 -9 53 -26 44 -22 -11 l3 -48 -40 0 c-49 0 -60 19 -76 129 -11 80 -4
106 27 106 8 0 14 5 14 10 0 6 -16 10 -36 10 l-36 0 7 -117z"/>
<path d="M9256 15317 c-40 -23 -65 -51 -54 -62 11 -11 108 58 108 77 0 13 -12
9 -54 -15z"/>
<path d="M6949 15310 c-43 -23 -64 -46 -50 -55 18 -11 111 45 111 67 0 13 -22
9 -61 -12z"/>
<path d="M9325 15198 c4 -67 11 -131 15 -142 14 -38 23 27 17 132 -5 101 -12
132 -29 132 -7 0 -8 -41 -3 -122z"/>
<path d="M6568 15268 c-34 -20 -54 -45 -44 -55 11 -11 106 51 106 69 0 14 -23
9 -62 -14z"/>
<path d="M7082 15278 c-16 -16 -15 -28 3 -28 13 0 14 -4 5 -20 -16 -31 16 -26
36 5 13 20 14 28 4 40 -15 18 -32 19 -48 3z"/>
<path d="M8855 15267 c-35 -20 -60 -57 -38 -57 16 0 113 61 113 70 0 17 -33
11 -75 -13z"/>
<path d="M6736 15263 c-4 -4 -17 -8 -29 -8 -24 0 -32 -22 -17 -45 8 -13 13
-13 30 -2 11 7 25 10 31 6 14 -8 39 15 39 37 0 13 -7 19 -23 19 -13 0 -27 -3
-31 -7z"/>
<path d="M7309 15243 c-6 -15 -17 -41 -25 -57 -19 -37 -13 -41 25 -22 35 19
54 48 49 79 -5 33 -36 34 -49 0z"/>
<path d="M9012 15263 c-39 -5 -52 -28 -29 -51 13 -13 21 -14 39 -4 13 6 32 11
43 9 15 -1 20 4 20 23 0 27 -12 31 -73 23z"/>
<path d="M7322 15078 l3 -53 -42 -20 c-54 -26 -58 -50 -7 -42 55 9 74 32 74
88 0 52 -7 79 -21 79 -5 0 -8 -24 -7 -52z"/>
<path d="M9228 15013 c-14 -2 -32 -11 -39 -20 -11 -13 -10 -17 5 -29 13 -9 24
-10 37 -4 10 6 28 9 41 7 18 -2 24 3 26 26 4 29 -2 30 -70 20z"/>
<path d="M6900 14785 c-9 -11 -16 -13 -24 -5 -12 12 -56 13 -74 2 -26 -17 -46
-162 -23 -176 14 -9 21 20 21 80 0 47 3 54 19 54 14 0 21 -8 23 -27 4 -39 20
-38 46 5 12 20 29 47 38 60 14 19 14 22 1 22 -8 0 -20 -7 -27 -15z"/>
<path d="M8879 14777 c-13 -28 -4 -157 11 -157 10 0 20 25 20 49 0 9 18 36 40
60 22 23 40 47 40 51 0 5 -16 6 -35 3 -21 -3 -41 -1 -50 7 -12 10 -17 8 -26
-13z"/>
<path d="M9030 14753 c-26 -57 -50 -122 -50 -134 0 -24 19 -4 40 41 13 28 27
50 30 50 4 0 18 -21 32 -47 25 -49 50 -62 56 -30 4 22 -63 167 -77 167 -6 0
-20 -21 -31 -47z"/>
<path d="M9130 14785 c0 -16 32 -66 49 -74 11 -7 24 -31 31 -61 7 -27 15 -52
20 -55 9 -6 20 70 20 141 0 58 -4 63 -32 37 -16 -14 -22 -14 -46 -2 -15 7 -30
15 -34 17 -5 2 -8 1 -8 -3z"/>
<path d="M6935 14711 c-14 -28 -14 -31 11 -50 34 -26 36 -26 64 4 l23 25 -23
25 c-31 33 -56 32 -75 -4z"/>
<path d="M6730 14243 c-25 -32 -25 -98 0 -98 8 0 16 10 18 23 2 12 -2 22 -8
22 -7 0 -3 14 9 34 12 18 21 36 21 40 0 14 -20 4 -40 -21z"/>
<path d="M6780 14230 c-15 -15 -20 -31 -18 -53 2 -25 -2 -34 -20 -43 -69 -34
-37 -47 35 -15 34 16 44 27 52 58 14 50 14 51 -9 63 -16 8 -24 6 -40 -10z"/>
<path d="M8580 14183 c-29 -11 -40 -43 -15 -43 21 0 19 -13 -5 -28 -11 -7 -20
-17 -20 -23 0 -17 43 0 68 28 37 41 19 84 -28 66z"/>
<path d="M8250 14159 c-38 -15 -90 -58 -90 -75 0 -19 4 -18 72 18 62 33 94 69
61 67 -10 0 -29 -5 -43 -10z"/>
<path d="M6978 14115 c-56 -35 -76 -59 -58 -70 12 -7 78 26 119 60 65 55 22
62 -61 10z"/>
<path d="M8821 14121 c-6 -11 -11 -33 -11 -49 0 -16 -7 -35 -15 -42 -25 -20
-17 -30 15 -19 71 25 107 120 48 127 -18 2 -30 -3 -37 -17z m46 -27 c-3 -3
-12 -4 -19 -1 -8 3 -5 6 6 6 11 1 17 -2 13 -5z"/>
<path d="M6787 14066 c-8 -8 -24 -12 -40 -9 -21 4 -29 0 -39 -22 -10 -22 -9
-28 3 -36 8 -5 23 -7 34 -3 11 3 32 7 47 9 36 4 48 13 48 35 0 27 -34 44 -53
26z"/>
<path d="M8455 14049 c-61 -29 -102 -65 -89 -78 12 -13 127 56 137 83 8 20 2
20 -48 -5z"/>
<path d="M8657 14054 c-10 -11 -8 -101 7 -234 12 -107 13 -113 25 -85 27 62
-2 349 -32 319z"/>
<path d="M8563 13932 c4 -97 2 -124 -9 -133 -19 -16 -82 -2 -97 21 -15 26 -23
25 -59 -5 -19 -16 -42 -25 -64 -25 -32 0 -34 2 -34 34 0 77 -34 109 -91 86
-33 -14 -44 -44 -35 -94 l6 -33 -52 9 c-29 5 -57 14 -62 19 -33 32 -47 -11
-21 -62 9 -16 13 -34 10 -39 -3 -5 -37 -28 -75 -51 -39 -23 -70 -43 -70 -46 0
-10 106 9 128 23 12 8 30 31 39 49 l17 35 137 0 c130 0 139 1 165 24 l28 23
34 -23 c42 -29 82 -31 113 -5 20 16 23 29 27 107 4 107 -8 196 -27 202 -12 4
-13 -15 -8 -116z m-305 -99 c2 -8 -5 -13 -17 -13 -21 0 -35 13 -24 24 10 10
36 3 41 -11z"/>
<path d="M9406 14034 c-3 -9 -6 -31 -6 -51 0 -24 -7 -40 -22 -52 -41 -34 0
-32 44 2 68 52 79 117 19 117 -17 0 -31 -6 -35 -16z"/>
<path d="M7020 14015 c-1 -29 -1 -29 -16 -10 -14 19 -16 19 -28 2 -13 -16 -14
-16 -21 5 -8 22 -8 22 -12 -5 -7 -47 2 -60 39 -52 49 10 62 27 50 62 l-10 28
-2 -30z"/>
<path d="M7362 14014 c-45 -22 -73 -56 -59 -70 12 -12 137 67 137 87 0 15 -23
10 -78 -17z"/>
<path d="M7613 14000 c-50 -29 -79 -61 -67 -73 16 -15 114 46 134 83 15 29 -5
26 -67 -10z"/>
<path d="M8160 14005 c-13 -35 -13 -40 5 -55 13 -10 20 -10 38 -1 13 7 36 11
51 9 35 -4 57 23 40 50 -13 21 -50 28 -69 12 -10 -8 -19 -8 -34 0 -18 9 -23 7
-31 -15z"/>
<path d="M7767 14013 c-4 -3 -7 -16 -7 -29 0 -23 32 -38 48 -22 5 5 20 4 38
-2 24 -9 31 -8 41 7 16 20 13 33 -10 47 -12 8 -22 8 -35 -1 -12 -7 -24 -8 -33
-2 -17 10 -33 11 -42 2z"/>
<path d="M9218 14009 c-23 -13 -23 -39 -1 -39 14 0 12 -5 -10 -26 -33 -31 -31
-36 9 -26 38 11 78 77 54 92 -19 12 -30 12 -52 -1z"/>
<path d="M9910 14007 c0 -7 11 -24 24 -36 27 -26 51 -109 42 -145 -3 -14 -22
-45 -42 -71 -19 -26 -33 -49 -31 -51 13 -13 93 66 111 108 21 52 18 76 -20
134 -30 46 -84 85 -84 61z"/>
<path d="M6017 13986 c-41 -38 -70 -104 -64 -144 7 -42 48 -97 87 -117 42 -22
45 -19 16 16 -63 74 -70 141 -23 211 38 55 39 58 24 58 -8 0 -26 -11 -40 -24z"/>
<path d="M6499 13973 c34 -44 55 -121 42 -155 -5 -13 -21 -40 -35 -60 -27 -41
-21 -48 19 -22 89 58 86 189 -5 254 -44 31 -54 24 -21 -17z"/>
<path d="M9689 13987 c-38 -31 -69 -87 -69 -122 0 -38 36 -102 72 -128 38 -28
44 -17 14 27 -46 68 -46 134 -1 200 36 54 30 62 -16 23z"/>
<path d="M7107 13994 c-4 -4 -7 -18 -7 -31 0 -21 4 -24 33 -21 27 2 32 7 32
28 0 19 -6 26 -25 28 -14 2 -29 0 -33 -4z"/>
<path d="M8012 13975 c-50 -23 -68 -42 -60 -65 6 -18 138 59 138 82 0 14 -22
9 -78 -17z"/>
<path d="M6118 13888 c-45 -105 -52 -128 -39 -128 6 0 24 28 39 62 l28 63 30
-55 c57 -106 90 -61 35 48 -54 105 -52 105 -93 10z"/>
<path d="M8775 13950 c-7 -23 10 -50 31 -50 21 0 38 38 23 56 -17 21 -47 17
-54 -6z"/>
<path d="M8862 13958 c-15 -15 -16 -45 -2 -53 17 -10 50 5 50 24 0 16 -18 41
-30 41 -3 0 -11 -5 -18 -12z"/>
<path d="M6796 13942 c-4 -11 -22 -29 -40 -40 -36 -21 -69 -80 -64 -115 3 -20
9 -22 61 -22 49 0 61 -4 75 -23 10 -13 33 -25 53 -28 29 -5 41 -1 65 19 l29
25 28 -24 c21 -18 40 -24 75 -24 53 0 64 5 81 37 12 23 15 111 5 137 -13 34
-24 13 -24 -45 l0 -61 -57 4 c-46 4 -60 10 -78 32 l-21 27 -32 -31 c-45 -43
-88 -42 -106 3 -8 17 -17 52 -21 77 -10 61 -20 80 -29 52z m2 -84 c-2 -18 -10
-24 -38 -26 l-35 -2 28 25 c35 31 49 32 45 3z"/>
<path d="M9044 13936 c-49 -23 -64 -40 -64 -72 0 -19 72 16 113 54 50 48 30
55 -49 18z"/>
<path d="M9769 13937 c-16 -36 -3 -183 16 -167 7 6 16 30 19 53 6 35 12 45 39
57 20 9 33 24 35 37 3 20 0 22 -28 17 -22 -5 -36 -2 -50 11 -19 17 -20 16 -31
-8z"/>
<path d="M6335 13868 c-84 -91 -85 -112 -5 -116 71 -4 120 5 127 25 9 23 -15
33 -82 33 l-59 0 52 53 c49 49 64 77 43 77 -5 0 -39 -32 -76 -72z"/>
<path d="M7374 13854 c8 -89 0 -108 -49 -120 -33 -8 -43 1 -50 44 -10 56 -15
72 -26 72 -14 0 -11 -87 5 -125 31 -72 103 -83 134 -19 15 33 35 43 47 25 13
-22 65 -22 104 0 33 18 44 20 71 10 39 -13 48 -8 66 35 18 44 18 79 -2 98 -27
28 -54 18 -107 -39 -32 -35 -58 -55 -72 -55 -35 0 -72 36 -91 88 -29 78 -37
74 -30 -14z m266 -44 c0 -5 -4 -10 -9 -10 -6 0 -13 5 -16 10 -3 6 1 10 9 10 9
0 16 -4 16 -10z"/>
<path d="M7763 13904 c-3 -8 -1 -25 4 -37 7 -14 6 -35 -3 -65 -13 -41 -12 -45
11 -68 13 -13 35 -24 48 -24 51 0 83 80 54 137 -14 27 -14 31 0 46 22 22 11
32 -17 17 -17 -9 -29 -9 -47 -1 -32 15 -43 14 -50 -5z m69 -91 c23 -21 23 -33
-1 -33 -22 0 -45 25 -36 40 9 14 15 13 37 -7z"/>
<path d="M8780 13841 c0 -17 4 -32 9 -36 6 -3 6 -18 0 -38 -16 -55 -11 -85 15
-102 22 -15 27 -15 55 -1 37 20 45 44 36 113 -4 37 -3 59 6 69 18 22 2 30 -33
16 -20 -7 -37 -8 -49 -2 -29 16 -39 12 -39 -19z m78 -98 c4 -26 -1 -28 -29
-13 -27 15 -25 42 4 38 14 -2 23 -11 25 -25z"/>
<path d="M9522 13817 c-10 -24 -15 -26 -32 -17 -11 6 -20 16 -20 22 0 7 -13
-1 -29 -16 -31 -29 -47 -28 -60 6 -7 19 -8 19 -38 -6 -37 -31 -59 -33 -75 -6
-9 13 -24 20 -45 20 -29 0 -33 -4 -39 -35 -7 -38 5 -60 37 -70 31 -10 22 -23
-38 -57 l-58 -33 32 -3 c43 -4 83 16 108 54 11 17 36 37 55 46 32 13 39 13 69
-1 32 -15 34 -15 53 9 14 16 22 21 25 13 5 -15 41 -17 61 -4 9 5 12 24 10 57
-3 48 -4 48 -16 21z"/>
<path d="M9035 13800 c-3 -5 -1 -28 5 -50 6 -22 8 -45 5 -50 -4 -6 -33 -24
-66 -41 -80 -40 -64 -62 31 -43 41 9 70 54 70 112 0 61 -26 103 -45 72z"/>
<path d="M7850 13690 c-45 -24 -80 -57 -80 -76 0 -12 5 -12 33 2 45 24 117 76
117 86 0 14 -33 8 -70 -12z"/>
<path d="M8400 13690 c-26 -26 -22 -42 14 -55 23 -8 30 -6 42 10 17 23 15 34
-13 52 -19 13 -24 12 -43 -7z"/>
<path d="M7128 13664 c-75 -41 -99 -71 -47 -60 34 7 120 63 127 84 6 18 -7 15
-80 -24z"/>
<path d="M740 13680 c0 -13 44 -98 64 -123 8 -10 21 -17 30 -15 13 3 13 8 -3
43 -29 65 -91 129 -91 95z"/>
<path d="M6988 13671 c-13 -18 -17 -19 -33 -7 -26 19 -45 9 -45 -24 0 -40 25
-58 49 -36 16 14 23 15 41 6 46 -25 68 38 23 67 -19 13 -23 12 -35 -6z"/>
<path d="M892 13635 c-83 -37 2 -54 180 -35 201 20 195 43 -12 47 -104 3 -143
0 -168 -12z"/>
<path d="M742 13541 c-19 -11 -11 -62 11 -75 14 -9 21 -7 31 6 12 17 14 17 31
-2 22 -24 35 -26 35 -4 0 20 -63 84 -81 84 -8 0 -20 -4 -27 -9z"/>
<path d="M908 13518 c-16 -5 -28 -17 -28 -25 0 -14 13 -15 103 -9 183 13 162
19 165 -43 3 -47 1 -53 -12 -42 -8 7 -25 11 -37 9 -19 -3 -25 -17 -47 -102
l-25 -99 29 -24 c27 -21 54 -30 54 -17 0 3 -5 14 -11 26 -14 26 -2 95 13 80
18 -18 22 -152 5 -200 -8 -24 -11 -45 -6 -48 12 -7 70 5 87 19 18 14 69 -35
94 -90 29 -66 41 -64 33 3 -10 76 -17 90 -64 113 -36 19 -38 23 -43 78 -3 32
-17 86 -32 120 -30 72 -30 73 -13 73 18 0 53 40 60 69 10 43 -4 80 -38 101
-28 17 -49 20 -146 19 -63 0 -126 -5 -141 -11z"/>
<path d="M852 13334 c-27 -19 -28 -35 -4 -65 14 -16 28 -22 55 -21 20 1 40 -5
47 -13 12 -14 40 -21 40 -10 0 27 -85 125 -108 125 -4 0 -18 -7 -30 -16z"/>
<path d="M9274 13298 c-15 -24 -2 -158 16 -158 11 0 17 18 25 71 10 65 -18
124 -41 87z"/>
<path d="M1226 13271 c-16 -18 -16 -20 10 -40 33 -26 36 -26 59 -1 17 19 17
21 0 40 -23 25 -47 25 -69 1z"/>
<path d="M7824 13167 c-7 -20 3 -148 15 -180 12 -31 23 -5 29 69 4 52 1 68
-16 96 -18 28 -22 30 -28 15z"/>
<path d="M8105 13130 c-22 -24 -13 -50 17 -50 21 -1 20 -3 -12 -30 -26 -22
-31 -30 -17 -30 44 0 107 55 107 94 0 36 -67 47 -95 16z"/>
<path d="M6850 13108 c-67 -35 -111 -81 -94 -98 12 -12 71 17 138 67 89 68 64
86 -44 31z"/>
<path d="M8505 13108 c-71 -36 -105 -65 -105 -90 0 -26 16 -23 92 22 63 38 88
63 88 89 0 16 -8 13 -75 -21z"/>
<path d="M7046 13115 c-9 -25 -7 -123 5 -214 8 -61 8 -86 0 -94 -17 -17 -112
-12 -148 7 -18 9 -37 16 -43 16 -15 0 -12 -39 7 -94 l18 -48 -25 -20 c-14 -11
-56 -36 -94 -55 -76 -38 -77 -57 -2 -42 77 14 118 39 143 85 21 38 27 42 74
47 60 7 85 26 99 76 12 43 12 229 1 289 -10 51 -25 71 -35 47z"/>
<path d="M7158 13104 c-9 -20 -7 -63 11 -207 12 -100 24 -183 27 -186 13 -14
19 25 23 146 2 106 -1 150 -15 204 -10 38 -22 69 -26 69 -5 0 -14 -11 -20 -26z"/>
<path d="M9527 13123 c-16 -15 10 -394 28 -412 15 -15 20 29 20 177 -1 189
-17 267 -48 235z"/>
<path d="M8677 13113 c-10 -10 -8 -107 4 -207 8 -65 8 -91 -1 -100 -18 -18
-94 -11 -141 12 -33 16 -45 19 -51 9 -12 -19 -9 -37 13 -83 12 -23 19 -49 17
-56 -3 -8 -42 -33 -87 -58 -45 -24 -80 -48 -78 -54 8 -22 132 8 169 40 9 9 22
31 28 49 10 30 14 33 66 38 101 10 116 43 109 239 -4 150 -19 201 -48 171z"/>
<path d="M8793 13103 c-6 -16 25 -384 33 -392 14 -15 19 32 19 187 0 124 -4
184 -13 200 -15 26 -30 28 -39 5z"/>
<path d="M9229 13084 c-18 -49 -2 -77 53 -88 69 -13 80 -6 76 56 -4 62 -25 77
-30 21 l-3 -38 -17 35 c-11 24 -17 30 -21 20 -19 -54 -21 -56 -25 -25 -5 45
-20 53 -33 19z"/>
<path d="M5444 13080 c-118 -43 -120 -45 -159 -156 l-23 -67 22 -63 c35 -96
46 -108 136 -144 l81 -33 85 34 86 33 41 82 41 83 -36 88 c-35 87 -36 88 -92
115 -87 43 -125 49 -182 28z m140 -33 l80 -32 33 -80 34 -80 -35 -76 -34 -76
-82 -33 -81 -33 -78 34 -77 33 -33 77 -34 78 34 80 34 80 70 30 c39 17 75 30
80 30 6 0 46 -14 89 -32z"/>
<path d="M5429 13010 c-44 -23 -100 -90 -101 -122 -4 -72 2 -89 53 -144 l52
-54 69 0 69 0 49 49 c76 76 81 160 15 230 -58 61 -139 77 -206 41z m137 -19
c58 -26 89 -74 88 -134 -1 -81 -59 -137 -149 -145 -55 -4 -55 -4 -105 45 -45
45 -50 55 -50 95 0 56 30 104 85 135 49 27 77 28 131 4z"/>
<path d="M1002 13063 c-22 -8 -35 -43 -21 -59 25 -30 89 -5 76 30 -7 19 -38
35 -55 29z"/>
<path d="M837 13053 c-13 -12 -7 -51 9 -67 20 -20 44 -21 44 -1 0 21 9 19 31
-7 l18 -23 1 23 c0 44 -78 101 -103 75z"/>
<path d="M6206 13037 c-24 -18 -17 -51 12 -55 31 -5 28 -17 -8 -32 -16 -7 -30
-19 -30 -26 0 -18 3 -18 50 6 22 11 46 33 55 50 18 36 19 35 -1 54 -19 19 -54
21 -78 3z"/>
<path d="M10270 13015 c-14 -36 -13 -45 5 -45 24 0 17 -25 -10 -40 -35 -19
-31 -34 7 -26 44 9 88 53 88 87 0 32 -3 34 -47 44 -29 6 -34 4 -43 -20z"/>
<path d="M6886 12991 c4 -20 2 -31 -5 -31 -6 0 -11 6 -11 14 0 7 -7 19 -15 26
-13 11 -16 8 -21 -19 -8 -37 -24 -41 -24 -6 0 14 -4 25 -9 25 -14 0 -22 -29
-15 -56 6 -22 11 -24 60 -24 48 0 54 2 60 24 8 33 2 69 -13 74 -9 2 -11 -5 -7
-27z"/>
<path d="M8519 12998 c-1 -7 -1 -21 0 -30 3 -25 -15 -23 -22 2 -7 28 -27 25
-27 -5 0 -16 -6 -25 -15 -25 -9 0 -15 9 -15 25 0 14 -4 25 -10 25 -11 0 -14
-49 -4 -74 4 -12 20 -16 54 -16 58 0 75 16 66 65 -7 35 -25 57 -27 33z"/>
<path d="M9123 12972 c-11 -18 -40 -45 -65 -61 -76 -48 -116 -117 -86 -147 18
-18 110 -30 133 -16 15 8 25 3 50 -24 25 -26 40 -34 68 -34 34 0 60 16 70 42
3 9 11 6 26 -9 50 -53 113 -39 132 29 17 66 -4 198 -32 198 -9 0 -10 -23 -5
-84 7 -80 6 -85 -14 -91 -46 -14 -79 50 -81 155 -1 55 -1 55 -14 25 -8 -16
-14 -57 -15 -91 0 -46 -5 -65 -18 -77 -28 -25 -57 -20 -86 14 -22 26 -26 41
-27 97 0 37 -4 76 -8 87 -8 18 -10 17 -28 -13z m-3 -111 c0 -32 -14 -41 -66
-41 -45 0 -43 14 9 44 53 33 57 32 57 -3z"/>
<path d="M8012 12950 c-20 -9 -42 -45 -42 -71 0 -6 16 -1 36 11 35 22 36 22
75 5 21 -10 39 -21 39 -26 0 -12 -139 -32 -183 -26 -25 4 -51 16 -71 35 l-31
30 -18 -23 c-9 -14 -35 -29 -56 -36 -33 -10 -43 -8 -80 11 -24 12 -46 19 -49
15 -3 -3 2 -38 12 -76 l18 -71 -22 -23 c-26 -28 -99 -55 -147 -55 -24 0 -44
10 -73 36 -51 46 -56 68 -31 124 11 25 21 56 21 69 0 21 -2 22 -17 10 -51 -43
-68 -162 -32 -235 38 -80 151 -108 235 -59 33 19 50 40 74 89 30 61 34 64 76
71 24 3 46 10 49 16 11 17 26 9 37 -22 17 -48 79 -62 93 -19 4 12 20 19 56 24
95 13 284 65 297 83 6 9 12 27 12 40 0 18 -5 23 -27 23 -16 0 -73 14 -127 30
-55 17 -100 30 -100 29 -1 0 -11 -4 -24 -9z"/>
<path d="M10575 12927 c-4 -21 -2 -58 4 -84 15 -57 8 -63 -71 -63 -50 0 -60 3
-74 25 l-16 24 -25 -30 c-31 -37 -76 -38 -81 -1 -4 29 -15 28 -32 -3 -21 -39
-58 -44 -86 -12 -22 26 -23 26 -65 12 -71 -25 -123 -20 -180 20 -76 52 -105
45 -144 -38 -19 -38 -40 -63 -81 -92 -31 -22 -66 -48 -78 -57 -21 -17 -21 -17
17 -18 48 0 102 22 116 49 11 20 12 20 31 1 29 -29 88 -26 134 5 27 18 50 25
85 25 27 0 64 7 84 15 30 13 37 13 47 0 19 -22 75 -29 108 -13 25 13 32 13 61
-1 32 -15 34 -15 55 11 21 27 21 27 45 7 49 -40 169 -13 190 44 11 29 -4 149
-23 184 l-14 28 -7 -38z m-675 -179 c27 -17 31 -23 18 -26 -21 -4 -70 18 -76
36 -6 18 19 14 58 -10z"/>
<path d="M1123 12880 c1 -29 -5 -55 -12 -63 -11 -10 -13 -3 -8 36 2 26 1 47
-4 47 -16 0 -39 -45 -39 -77 0 -27 5 -35 28 -44 15 -6 41 -8 59 -6 22 4 39 0
57 -14 46 -37 48 -18 5 66 -29 58 -65 105 -80 105 -3 0 -6 -23 -6 -50z"/>
<path d="M882 12874 c-12 -8 -22 -22 -22 -30 0 -24 38 -54 70 -54 17 0 42 -7
56 -16 32 -22 39 -13 20 24 -15 29 -80 92 -94 92 -4 0 -18 -7 -30 -16z"/>
<path d="M6374 12883 c-16 -11 -34 -49 -34 -69 0 -15 4 -14 25 6 l25 24 55
-18 c30 -9 55 -21 55 -26 0 -13 -167 -24 -203 -13 -20 5 -37 19 -45 36 -15 31
-28 35 -36 9 -8 -24 -68 -52 -112 -52 -21 0 -61 14 -102 37 -42 23 -74 34 -85
30 -9 -3 -29 -27 -45 -53 -43 -73 -60 -92 -123 -135 -32 -22 -59 -44 -59 -50
0 -16 56 -2 118 29 40 19 55 23 64 14 26 -26 97 -12 142 27 13 12 33 15 76 13
53 -3 60 -1 94 29 l37 32 22 -20 c58 -53 96 -55 274 -11 111 28 133 37 142 56
6 13 11 28 11 35 0 7 -46 24 -105 40 -118 33 -175 41 -191 30z m-419 -129 c30
-20 32 -34 5 -34 -29 0 -70 21 -70 37 0 18 35 16 65 -3z"/>
<path d="M7495 12806 c-17 -26 -11 -52 15 -66 24 -13 45 -4 58 24 12 26 6 38
-25 55 -29 15 -30 15 -48 -13z"/>
<path d="M9055 12679 c-70 -35 -108 -70 -103 -93 5 -25 144 49 170 92 26 41
12 42 -67 1z"/>
<path d="M6535 12661 c-62 -31 -124 -85 -112 -98 11 -10 123 47 153 78 43 45
25 53 -41 20z"/>
<path d="M6236 12638 c-16 -22 -16 -22 -48 -4 -30 18 -32 18 -45 1 -7 -11 -13
-31 -13 -47 0 -36 41 -49 70 -23 15 13 22 14 40 5 30 -16 67 -5 76 22 5 17 0
27 -22 45 -36 28 -39 28 -58 1z"/>
<path d="M10530 12630 c-26 -26 -25 -46 1 -60 32 -18 62 -8 73 22 8 23 6 31
-10 43 -26 20 -40 19 -64 -5z"/>
<path d="M1005 12623 c-50 -14 -139 -113 -116 -128 6 -3 15 3 20 13 13 24 82
57 138 67 54 9 104 -6 154 -45 22 -18 42 -31 44 -28 10 10 -38 69 -75 94 -41
27 -119 40 -165 27z"/>
<path d="M5975 12591 c-81 -38 -143 -101 -99 -101 27 0 135 62 151 87 25 38
10 42 -52 14z"/>
<path d="M9912 12584 c-50 -24 -77 -44 -87 -64 -14 -28 -14 -30 3 -30 25 0
138 70 157 97 24 35 4 34 -73 -3z"/>
<path d="M7605 12557 c-75 -33 -112 -58 -124 -84 -9 -19 -8 -23 5 -23 26 0
154 71 165 92 18 33 6 37 -46 15z"/>
<path d="M10615 12545 c-75 -39 -115 -71 -115 -92 0 -18 2 -17 83 20 77 36
111 66 105 92 -3 14 -13 12 -73 -20z"/>
<path d="M966 12462 c-10 -17 21 -33 77 -39 90 -9 182 12 133 30 -30 12 -203
19 -210 9z"/>
<path d="M890 12371 c0 -29 63 -88 107 -100 70 -20 131 -14 172 16 38 27 84
83 76 91 -2 3 -16 -4 -31 -14 -61 -43 -78 -53 -111 -59 -48 -9 -135 19 -178
56 -32 29 -35 29 -35 10z"/>
<path d="M10446 12134 c-20 -20 -21 -48 -1 -41 11 5 12 1 5 -19 -17 -44 -12
-109 11 -138 17 -22 29 -26 68 -26 54 0 114 17 105 31 -3 5 -29 9 -58 9 -126
0 -153 102 -40 150 25 11 44 26 44 35 0 22 -112 21 -134 -1z"/>
<path d="M942 12101 c-29 -18 -7 -45 53 -68 32 -13 60 -23 61 -23 10 0 -14 47
-36 70 -28 30 -54 37 -78 21z"/>
<path d="M1105 12094 c-21 -22 -11 -50 36 -99 45 -47 52 -85 15 -85 -33 0 -51
-25 -51 -72 0 -28 6 -44 20 -54 26 -19 34 -18 45 9 8 18 9 15 7 -18 -2 -36 -5
-41 -37 -51 -19 -6 -72 -15 -118 -18 -79 -7 -84 -6 -89 13 -7 29 -33 27 -33
-3 0 -44 20 -50 151 -43 177 10 207 32 187 135 -8 40 -8 62 2 92 11 35 11 42
-9 73 -18 29 -20 40 -10 63 9 26 7 31 -16 51 -31 27 -77 30 -100 7z"/>
<path d="M9981 12077 c-9 -26 -8 -48 3 -98 9 -35 13 -74 10 -87 -10 -34 21
-28 36 8 18 45 16 123 -5 169 -10 23 -22 41 -26 41 -4 0 -12 -15 -18 -33z"/>
<path d="M11765 12035 c-28 -22 -127 -55 -165 -55 -9 0 -42 16 -74 35 -32 19
-60 35 -61 35 -2 0 -6 -14 -10 -31 -6 -25 0 -41 34 -91 23 -34 41 -66 41 -72
0 -6 10 2 23 17 18 22 33 29 77 34 30 3 69 14 87 25 43 25 93 84 93 108 0 26
-8 25 -45 -5z"/>
<path d="M10512 12028 c4 -29 38 -38 38 -10 0 11 -7 23 -16 26 -24 9 -26 8
-22 -16z"/>
<path d="M8269 11981 c-9 -29 -9 -47 0 -72 6 -17 11 -54 11 -81 0 -54 15 -61
37 -17 26 51 6 209 -26 209 -6 0 -15 -18 -22 -39z"/>
<path d="M8843 12012 c-7 -4 -16 -22 -19 -40 -6 -31 -5 -32 27 -32 l34 0 -39
-33 c-48 -41 -35 -54 25 -24 53 26 91 86 73 114 -12 19 -80 29 -101 15z"/>
<path d="M7442 11970 c-85 -41 -132 -78 -132 -105 0 -22 29 -18 90 12 74 37
169 133 132 133 -4 0 -45 -18 -90 -40z"/>
<path d="M8655 11924 c-206 -141 -213 -157 -139 -324 19 -43 34 -83 34 -90 0
-13 -61 -40 -92 -40 -54 0 -99 21 -120 56 l-20 35 -38 -41 c-34 -37 -41 -40
-88 -40 -55 0 -78 14 -88 56 -3 13 -9 24 -12 24 -3 0 -20 -15 -37 -33 -56 -58
-181 -78 -290 -47 -63 18 -85 48 -85 119 l0 56 -20 -25 c-10 -14 -24 -45 -29
-70 -9 -39 -7 -51 12 -90 35 -69 87 -93 208 -98 100 -4 129 3 187 49 24 18 25
18 69 -16 25 -19 57 -35 70 -35 32 0 77 24 101 55 l20 25 33 -30 c70 -63 157
-66 218 -6 l37 36 33 -40 c41 -51 97 -80 157 -80 39 0 51 5 79 33 42 42 49 82
43 269 -3 115 -8 150 -23 178 l-18 35 -15 -44 c-13 -40 -13 -60 3 -189 16
-136 16 -146 1 -158 -27 -19 -83 -26 -126 -14 -52 14 -107 82 -168 208 l-45
94 29 24 c73 60 154 106 177 100 20 -5 25 1 45 57 24 67 26 77 15 77 -5 -1
-57 -35 -118 -76z"/>
<path d="M11327 11972 c-21 -17 -54 -36 -74 -43 -45 -14 -127 -4 -171 22 -40
23 -58 24 -66 3 -12 -31 -5 -51 28 -83 19 -19 40 -47 47 -63 l12 -30 14 25
c10 20 26 28 70 37 32 7 75 21 95 31 45 23 91 80 86 109 -3 21 -4 21 -41 -8z"/>
<path d="M9405 11902 c-33 -15 -74 -35 -91 -44 -33 -18 -71 -80 -52 -87 17 -6
177 80 198 107 20 25 26 52 13 52 -5 0 -35 -13 -68 -28z"/>
<path d="M980 11903 c0 -23 56 -113 70 -113 19 0 10 37 -19 78 -36 49 -51 59
-51 35z"/>
<path d="M5510 11852 c0 -56 -4 -72 -20 -87 -14 -13 -20 -31 -20 -62 l0 -43
83 0 c45 0 132 7 192 15 61 8 111 15 113 15 1 0 2 4 2 10 0 6 -70 11 -177 12
-113 2 -177 7 -175 13 1 6 26 9 55 7 29 -1 77 4 107 12 49 13 56 13 67 -1 13
-16 24 -12 61 20 26 24 29 59 6 78 -14 11 -19 10 -36 -11 -12 -14 -24 -24 -29
-23 -4 2 -23 -4 -41 -11 -18 -7 -53 -16 -78 -20 -64 -9 -78 5 -86 82 -4 34
-11 62 -15 62 -5 0 -9 -31 -9 -68z"/>
<path d="M11819 11874 c-7 -18 -9 -59 -5 -109 9 -125 35 -368 40 -372 2 -3 10
6 17 18 13 26 6 350 -10 427 -12 60 -27 73 -42 36z"/>
<path d="M6510 11864 c-15 -38 -13 -44 20 -50 17 -4 30 -9 30 -13 0 -3 -14
-19 -32 -34 l-33 -29 39 6 c51 7 76 33 83 86 7 49 -3 60 -60 60 -31 0 -39 -4
-47 -26z"/>
<path d="M8980 11864 c-14 -35 -13 -49 10 -202 11 -74 20 -162 21 -195 0 -34
4 -71 8 -81 17 -44 26 16 29 199 3 175 2 195 -18 248 -24 63 -35 70 -50 31z"/>
<path d="M9559 11850 c-9 -31 -9 -66 0 -157 9 -80 9 -126 3 -144 -11 -28 -77
-62 -145 -74 -55 -11 -141 3 -178 28 -53 36 -56 49 -29 106 13 28 21 54 17 57
-12 13 -66 -54 -77 -95 -15 -56 0 -102 47 -140 48 -40 108 -54 200 -49 89 5
134 24 160 68 20 35 29 37 38 10 10 -30 55 -81 82 -91 42 -16 91 13 114 67 19
42 21 61 16 213 -4 153 -17 231 -38 231 -14 0 -18 -79 -9 -200 5 -71 12 -139
15 -153 8 -31 -16 -47 -69 -47 -64 0 -90 63 -101 238 -12 179 -23 211 -46 132z"/>
<path d="M11620 11854 c-14 -37 -12 -129 5 -246 14 -94 14 -104 -1 -115 -21
-16 -127 -26 -213 -21 -57 3 -75 8 -98 28 -62 56 -121 73 -156 48 -9 -7 -27
-40 -40 -73 -21 -54 -30 -65 -92 -108 -79 -54 -112 -84 -103 -93 4 -3 32 -1
62 6 45 9 62 19 87 49 l32 37 28 -28 c38 -38 82 -37 144 4 l48 32 139 -3 138
-3 29 31 c16 17 33 50 39 73 15 62 6 327 -13 372 -18 43 -22 44 -35 10z m-389
-411 c34 -20 36 -29 8 -36 -32 -8 -79 12 -79 34 0 24 32 25 71 2z"/>
<path d="M7876 11855 c-18 -19 -31 -77 -22 -108 4 -16 -4 -31 -31 -59 -31 -32
-34 -38 -17 -38 29 0 122 66 144 103 22 36 26 87 8 105 -17 17 -64 15 -82 -3z
m52 -62 c2 -8 -5 -13 -17 -13 -21 0 -35 13 -24 24 10 10 36 3 41 -11z"/>
<path d="M5080 11828 c-25 -42 -25 -42 6 -67 40 -31 63 -27 80 15 14 34 14 38
-3 54 -10 10 -28 21 -40 25 -18 5 -26 0 -43 -27z"/>
<path d="M6894 11811 c-43 -21 -86 -47 -95 -57 -22 -25 -34 -64 -19 -64 29 0
173 88 202 124 40 48 16 47 -88 -3z"/>
<path d="M7090 11801 c0 -24 9 -51 25 -75 65 -95 85 -115 85 -81 0 27 27 16
69 -31 45 -48 80 -115 81 -151 0 -39 20 -25 21 15 3 116 -11 153 -81 222 -56
55 -171 140 -189 140 -6 0 -11 -17 -11 -39z"/>
<path d="M7423 11803 c-9 -30 -7 -218 2 -269 5 -26 -1 -38 -44 -82 -29 -30
-77 -65 -119 -86 -39 -20 -73 -40 -77 -46 -10 -17 48 -12 118 10 106 33 138
83 162 256 17 124 19 167 6 192 -5 9 -12 25 -15 35 -8 26 -25 21 -33 -10z"/>
<path d="M4796 11798 c-23 -33 -20 -44 17 -55 l32 -9 -37 -25 c-43 -28 -48
-39 -15 -39 49 0 117 66 117 114 0 39 -89 49 -114 14z"/>
<path d="M9970 11794 c-23 -58 -4 -94 49 -94 24 0 56 43 47 65 -5 14 -63 55
-79 55 -4 0 -12 -12 -17 -26z"/>
<path d="M10429 11783 l-97 -36 -41 -101 c-23 -56 -41 -105 -41 -109 0 -5 18
-53 41 -107 l41 -99 103 -41 104 -42 68 27 c131 52 128 49 168 137 53 116 53
127 6 238 l-40 95 -79 33 c-116 47 -124 47 -233 5z m215 -18 l83 -36 38 -94
38 -94 -35 -93 -35 -93 -69 -34 c-97 -47 -131 -48 -234 -8 l-84 34 -39 94 -38
94 38 98 38 97 85 34 c47 19 95 35 108 35 13 1 61 -15 106 -34z"/>
<path d="M10470 11729 c-54 -22 -99 -62 -114 -100 -21 -52 -20 -142 1 -186 21
-46 80 -88 144 -103 65 -16 120 4 183 65 71 68 81 144 33 230 -43 77 -172 126
-247 94z m170 -41 c53 -37 73 -71 78 -137 6 -76 -15 -121 -76 -161 -121 -80
-282 1 -282 144 0 62 19 104 64 144 34 30 42 32 110 32 59 0 79 -4 106 -22z"/>
<path d="M10525 11609 c-9 -28 4 -149 16 -149 5 0 9 38 9 85 0 81 -11 109 -25
64z"/>
<path d="M6209 11760 c-100 -51 -172 -133 -101 -115 75 18 192 104 192 141 0
19 -5 18 -91 -26z"/>
<path d="M11257 11774 c-4 -4 -7 -23 -8 -43 l-1 -36 -14 33 c-19 44 -34 40
-34 -8 0 -22 -4 -40 -8 -40 -16 0 -32 25 -32 49 0 18 -3 22 -11 14 -15 -15 -7
-84 12 -96 9 -6 24 -7 35 -2 11 4 29 7 42 6 34 -4 52 17 52 58 0 38 -20 78
-33 65z"/>
<path d="M4119 11753 c-31 -5 -39 -34 -39 -145 0 -95 21 -115 115 -108 35 2
65 16 65 30 0 6 -27 10 -60 10 -48 0 -63 4 -80 22 -37 40 -16 115 40 138 31
13 55 42 43 54 -7 6 -39 6 -84 -1z"/>
<path d="M4585 11728 c-9 -23 -36 -53 -72 -80 -67 -50 -108 -119 -97 -163 l7
-27 88 4 89 3 20 -33 c22 -36 72 -62 120 -62 20 0 43 11 70 36 l40 36 46 -31
c26 -17 63 -34 82 -37 52 -10 160 3 195 24 69 40 89 133 49 225 -23 51 -45 67
-96 67 -41 0 -51 -13 -61 -81 -6 -42 -4 -48 19 -66 14 -11 49 -23 78 -27 39
-6 49 -10 37 -16 -27 -15 -181 -29 -226 -21 -50 10 -69 23 -77 56 -8 31 -31
32 -47 3 -30 -57 -86 -77 -146 -53 -51 20 -62 45 -75 165 -6 52 -14 99 -19
104 -5 6 -15 -6 -24 -26z m-5 -132 c0 -26 -5 -35 -22 -40 -32 -8 -88 -7 -88 2
0 8 90 72 102 72 4 0 8 -15 8 -34z"/>
<path d="M8326 11718 c-30 -48 -29 -66 3 -82 41 -22 56 -20 75 9 24 36 20 53
-16 75 -41 25 -44 25 -62 -2z"/>
<path d="M8206 11685 c-22 -45 -8 -75 34 -75 54 0 69 69 20 95 -38 20 -35 20
-54 -20z"/>
<path d="M9345 11666 c-9 -14 -15 -35 -13 -48 2 -19 12 -25 53 -34 l50 -11
-60 -8 c-81 -10 -112 -22 -97 -37 16 -16 123 -11 171 8 34 13 41 21 41 43 0
39 -17 51 -72 51 -48 0 -67 16 -25 22 31 4 28 32 -5 36 -20 2 -31 -3 -43 -22z"/>
<path d="M9989 11643 c-15 -41 -4 -68 38 -87 44 -20 90 -53 83 -59 -3 -3 -41
-13 -85 -22 -44 -9 -83 -19 -86 -23 -4 -4 -10 -24 -13 -44 l-7 -38 38 0 c48 0
137 24 168 44 14 9 29 33 35 55 17 65 -12 116 -99 172 -55 36 -59 36 -72 2z"/>
<path d="M6546 11653 c-10 -10 -7 -59 6 -108 7 -24 9 -47 6 -50 -3 -3 -35 -11
-71 -17 -57 -9 -70 -9 -92 6 -15 10 -25 26 -25 41 0 30 -4 31 -40 5 -62 -44
-134 -70 -195 -70 -84 1 -133 14 -166 46 -23 22 -29 37 -31 83 -3 52 -4 54
-16 33 -8 -13 -16 -47 -19 -76 -7 -68 13 -108 75 -147 43 -27 53 -29 143 -29
88 0 101 3 153 30 l57 31 44 -32 c41 -30 48 -31 102 -26 48 5 63 11 86 37 24
27 27 38 27 98 0 93 -22 167 -44 145z"/>
<path d="M880 11634 c0 -38 70 -118 87 -100 9 8 -10 47 -42 84 -30 35 -45 41
-45 16z"/>
<path d="M4152 11633 c-12 -22 -5 -43 14 -43 8 0 14 10 14 24 0 31 -16 42 -28
19z"/>
<path d="M984 11626 c-3 -8 -4 -23 -2 -33 5 -25 51 -25 56 0 7 36 -42 65 -54
33z"/>
<path d="M1100 11622 l-35 -17 53 -3 52 -3 0 -45 c0 -44 0 -44 -34 -44 -61 0
-86 -50 -46 -90 11 -11 33 -20 50 -20 27 0 30 -3 30 -30 0 -35 -15 -45 -85
-55 -27 -4 -53 -9 -57 -12 -12 -7 93 -103 119 -109 34 -9 53 12 53 58 0 25 8
51 22 71 16 22 21 42 19 71 -4 50 -4 68 -1 127 3 62 -6 87 -40 104 -36 19 -55
18 -100 -3z m60 -156 c0 -3 -4 -8 -10 -11 -5 -3 -10 -1 -10 4 0 6 5 11 10 11
6 0 10 -2 10 -4z m-30 -207 c0 -11 -4 -17 -10 -14 -5 3 -10 13 -10 21 0 8 5
14 10 14 6 0 10 -9 10 -21z"/>
<path d="M6874 11626 c-4 -11 1 -51 11 -93 l19 -74 -30 -24 c-16 -14 -65 -44
-109 -67 l-80 -43 68 -3 c82 -4 127 15 159 66 32 52 31 141 -4 207 -22 42 -28
47 -34 31z"/>
<path d="M5553 11603 c-7 -2 -13 -16 -13 -29 0 -17 4 -23 12 -18 8 5 9 2 3
-12 -24 -56 -16 -143 16 -175 23 -23 75 -25 124 -5 50 21 43 36 -15 36 -131 0
-163 97 -52 158 60 33 56 52 -10 51 -29 0 -59 -3 -65 -6z"/>
<path d="M876 11502 c-6 -10 27 -77 52 -104 37 -43 43 -6 8 50 -28 44 -52 66
-60 54z"/>
<path d="M985 11490 c-13 -14 -15 -23 -7 -32 6 -7 12 -26 14 -43 2 -22 9 -31
25 -33 26 -4 51 34 34 51 -6 6 -11 20 -11 32 0 20 -17 45 -30 45 -4 0 -15 -9
-25 -20z"/>
<path d="M5612 11478 c2 -12 10 -23 18 -23 22 0 19 39 -3 43 -15 3 -18 -1 -15
-20z"/>
<path d="M4133 11458 c-5 -7 -18 -39 -28 -70 -15 -47 -16 -59 -6 -72 17 -20
51 -21 51 -1 0 20 9 19 32 -2 24 -22 52 -7 56 30 2 19 -4 30 -22 43 -15 9 -26
26 -26 38 0 39 -37 60 -57 34z"/>
<path d="M5203 11355 c-73 -34 -94 -49 -99 -69 -11 -45 0 -46 72 -10 72 36
144 92 144 113 0 18 -20 12 -117 -34z"/>
<path d="M4482 11356 c-79 -43 -92 -54 -92 -77 0 -18 5 -17 59 10 87 44 149
102 109 101 -7 0 -41 -16 -76 -34z"/>
<path d="M9769 11340 c-90 -46 -150 -110 -104 -110 29 0 152 69 179 100 52 62
31 64 -75 10z"/>
<path d="M6562 11337 c-6 -6 -13 -24 -17 -38 -5 -21 -1 -31 21 -48 37 -29 52
-26 72 15 l17 36 -30 24 c-34 27 -48 30 -63 11z"/>
<path d="M5594 11270 c-22 -57 -25 -72 -14 -85 14 -17 46 -20 55 -4 5 6 16 4
33 -7 25 -16 26 -16 44 6 26 32 23 59 -9 73 -20 9 -27 18 -25 34 3 19 -29 53
-49 53 -4 0 -20 -31 -35 -70z"/>
<path d="M940 11315 c-10 -12 -10 -22 -2 -39 8 -17 7 -27 -1 -35 -9 -10 -7
-16 8 -27 33 -25 50 -13 48 31 -5 82 -23 106 -53 70z"/>
<path d="M4868 11308 c-15 -22 -24 -21 -61 4 -15 11 -21 10 -33 -7 -25 -34
-28 -64 -9 -85 24 -26 52 -25 66 3 6 12 13 24 15 26 1 1 21 -8 44 -20 l42 -24
19 24 c28 34 24 59 -13 81 -42 25 -52 25 -70 -2z"/>
<path d="M6100 11301 c-19 -37 -12 -68 19 -81 37 -15 46 -9 62 37 10 32 9 38
-7 50 -26 19 -62 16 -74 -6z"/>
<path d="M6446 11304 c-19 -18 -31 -59 -22 -73 11 -18 77 -25 87 -10 20 31 21
60 4 79 -22 24 -48 26 -69 4z"/>
<path d="M8612 11284 c-75 -39 -132 -87 -132 -111 0 -21 40 -10 117 33 62 34
103 75 103 100 0 20 -11 18 -88 -22z"/>
<path d="M7846 11288 c-31 -43 -16 -73 42 -84 27 -5 32 -2 46 24 22 42 21 46
-19 65 -46 22 -51 21 -69 -5z"/>
<path d="M960 11050 c0 -6 12 -15 28 -21 35 -14 175 -2 169 14 -5 16 -197 22
-197 7z"/>
<path d="M7300 10610 c-71 -38 -130 -88 -130 -111 0 -14 34 -3 100 33 81 44
120 77 120 99 0 25 -3 25 -90 -21z"/>
<path d="M7890 10562 c0 -29 22 -56 62 -76 12 -6 31 -26 41 -44 18 -31 18 -34
2 -52 -9 -10 -27 -21 -41 -24 -32 -8 -31 -26 1 -26 40 0 81 26 95 59 15 37 19
169 5 173 -6 2 -12 -29 -15 -72 -4 -51 -8 -69 -14 -55 -27 68 -40 88 -77 115
-52 37 -59 37 -59 2z"/>
<path d="M9660 10520 c-76 -40 -140 -97 -140 -125 0 -21 2 -20 89 25 89 46
134 88 129 118 -3 20 -7 19 -78 -18z"/>
<path d="M10390 10480 c0 -45 -16 -53 -30 -15 -13 34 -30 32 -30 -4 0 -16 -6
-31 -14 -34 -19 -8 -26 1 -26 35 0 17 -4 27 -10 23 -15 -9 -12 -81 3 -94 9 -7
34 -8 73 -3 56 7 59 9 62 36 5 39 -6 96 -18 96 -6 0 -10 -18 -10 -40z"/>
<path d="M10062 10498 c-5 -7 -12 -22 -14 -33 -2 -15 3 -21 25 -23 23 -3 41
-22 19 -22 -4 0 -23 -13 -42 -30 l-35 -29 32 -1 c41 0 97 48 114 97 9 29 9 37
-2 44 -21 13 -85 11 -97 -3z"/>
<path d="M7327 10494 c-4 -4 -7 -23 -7 -43 l-1 -36 -14 33 c-18 40 -35 42 -35
3 0 -17 -5 -33 -11 -37 -14 -9 -29 14 -29 46 0 20 -2 22 -10 10 -15 -23 -12
-67 6 -85 13 -12 26 -15 58 -9 62 10 76 20 76 57 0 35 -21 73 -33 61z"/>
<path d="M11698 10440 c-30 -23 -42 -69 -27 -107 9 -25 7 -30 -20 -53 -38 -31
-40 -44 -4 -36 98 25 178 150 127 200 -21 21 -46 20 -76 -4z m52 -65 c0 -19
-11 -19 -35 -2 -24 18 -11 41 16 27 10 -6 19 -17 19 -25z"/>
<path d="M4912 10424 c-25 -11 -44 -65 -38 -106 6 -34 3 -41 -26 -67 -48 -42
-25 -51 40 -16 74 41 96 72 97 138 0 51 -1 52 -30 54 -16 1 -36 -1 -43 -3z
m36 -72 c3 -9 -2 -13 -14 -10 -9 1 -19 9 -22 16 -3 9 2 13 14 10 9 -1 19 -9
22 -16z"/>
<path d="M5755 10410 c-22 -24 -32 -104 -15 -115 9 -6 1 -17 -26 -40 -45 -38
-41 -52 9 -36 52 18 115 76 127 119 13 49 13 49 -10 72 -25 25 -62 26 -85 0z
m55 -65 c0 -3 -9 -5 -20 -5 -11 0 -20 7 -20 15 0 13 4 14 20 5 11 -6 20 -13
20 -15z"/>
<path d="M6622 10405 c-17 -37 -15 -45 12 -45 39 0 40 -17 2 -42 -41 -26 -45
-38 -15 -38 59 0 132 87 109 130 -8 15 -21 20 -54 20 -36 0 -45 -4 -54 -25z"/>
<path d="M11391 10380 c-79 -42 -121 -75 -121 -97 0 -21 21 -15 95 28 76 44
102 64 116 91 15 28 -7 22 -90 -22z"/>
<path d="M5480 10384 c-14 -37 -13 -43 15 -50 34 -8 31 -18 -12 -46 l-38 -23
32 -3 c44 -4 69 12 93 58 35 69 25 90 -46 90 -28 0 -36 -5 -44 -26z"/>
<path d="M9668 10359 l-3 -44 -22 35 c-22 33 -23 34 -23 10 -1 -57 -33 -64
-45 -10 -10 46 -28 24 -22 -27 2 -24 7 -47 11 -50 3 -3 34 -2 68 3 l63 9 -1
48 c-1 64 -22 86 -26 26z"/>
<path d="M7424 10338 c-4 -13 -7 -44 -7 -69 1 -57 33 -389 40 -409 13 -37 24
45 29 214 5 164 4 186 -14 231 -22 56 -37 66 -48 33z"/>
<path d="M8942 10335 c-18 -38 -15 -45 18 -45 41 0 38 -15 -12 -47 -40 -26
-41 -28 -17 -31 43 -5 77 15 99 58 12 23 20 51 18 63 -2 18 -11 22 -49 25 -41
3 -47 0 -57 -23z"/>
<path d="M11425 10319 c-87 -45 -133 -78 -141 -101 -3 -11 -4 -22 -1 -24 7 -7
157 63 180 84 11 9 25 29 33 44 19 37 6 37 -71 -3z"/>
<path d="M7283 10313 c-10 -37 -7 -127 7 -240 7 -51 10 -99 7 -107 -10 -25
-72 -31 -122 -11 -58 22 -81 53 -108 142 -11 40 -25 73 -29 73 -12 0 -10 -101
3 -157 14 -60 -4 -103 -54 -133 -66 -41 -92 -22 -122 87 -34 121 -70 94 -41
-30 29 -123 69 -177 132 -177 40 0 80 39 96 94 6 22 14 45 18 49 4 4 26 -8 49
-28 38 -31 49 -35 100 -35 65 0 80 10 106 73 12 29 14 70 12 204 -4 160 -15
223 -38 223 -5 0 -12 -12 -16 -27z"/>
<path d="M10311 10309 c-15 -44 -14 -84 6 -221 19 -132 18 -137 -44 -145 -101
-13 -143 64 -161 293 -4 48 -11 83 -17 82 -12 -3 -13 -174 -3 -266 7 -54 5
-65 -12 -82 -45 -45 -126 -37 -175 16 l-31 34 -34 -35 c-46 -47 -94 -60 -135
-37 -16 10 -39 32 -50 50 -25 39 -31 39 -49 3 -18 -35 -79 -61 -141 -61 l-45
0 0 58 c0 78 -8 100 -41 117 -36 19 -72 19 -108 0 -36 -18 -41 -31 -41 -116
l0 -69 -42 6 c-60 9 -125 39 -132 60 -3 11 -10 50 -15 88 -5 37 -12 71 -15 73
-7 7 -26 -42 -26 -67 0 -47 -81 -65 -138 -30 -18 11 -35 20 -37 20 -14 0 -2
-78 21 -131 23 -56 24 -63 10 -84 -43 -65 -190 -91 -273 -47 -76 40 -92 108
-46 198 15 29 24 57 20 60 -14 14 -46 -30 -66 -89 -58 -169 19 -287 189 -290
109 -2 174 52 211 174 15 49 26 69 37 69 10 0 30 9 46 19 l29 19 24 -49 c43
-86 46 -87 298 -86 l220 0 33 35 33 35 27 -26 c53 -51 131 -62 188 -26 l34 21
0 -31 c0 -68 85 -99 115 -42 12 24 23 30 52 33 31 2 42 10 62 40 l24 38 37
-40 c35 -38 40 -40 98 -40 55 0 62 3 80 28 36 50 42 91 38 257 -5 192 -27 265
-55 184z m-963 -295 c43 -30 15 -51 -36 -27 -44 21 -42 31 8 42 3 0 16 -6 28
-15z"/>
<path d="M7005 10300 c-20 -40 -19 -56 7 -74 33 -23 52 -20 71 13 20 34 15 53
-18 75 -34 22 -42 20 -60 -14z"/>
<path d="M9315 10289 c-7 -21 -15 -22 -72 -4 -18 6 -25 2 -33 -20 -15 -39 -12
-66 8 -81 25 -19 49 -17 66 7 13 19 17 20 52 9 36 -12 39 -11 61 14 32 37 29
47 -17 79 -33 23 -57 21 -65 -4z"/>
<path d="M9849 10268 c-18 -36 -20 -47 -10 -73 10 -28 9 -32 -26 -62 -52 -43
-34 -54 33 -19 69 36 114 87 114 127 0 49 -16 69 -55 69 -31 0 -37 -5 -56 -42z
m71 -33 c0 -16 -35 -21 -44 -6 -8 12 4 21 26 21 10 0 18 -7 18 -15z"/>
<path d="M8718 10266 c-95 -41 -138 -72 -138 -97 0 -25 18 -21 114 30 62 32
118 83 105 95 -3 3 -39 -10 -81 -28z"/>
<path d="M4308 10245 c-82 -42 -118 -73 -118 -102 0 -21 28 -15 90 18 57 30
140 101 140 119 0 17 -23 10 -112 -35z"/>
<path d="M6332 10250 c-83 -42 -122 -78 -122 -112 0 -15 4 -18 23 -12 73 23
197 116 197 148 0 23 -8 21 -98 -24z"/>
<path d="M7866 10217 l-98 -42 -39 -98 -39 -98 26 -76 c50 -146 41 -135 159
-181 l107 -41 103 41 104 41 37 91 c20 50 36 105 36 121 0 17 -17 69 -37 117
l-36 86 -102 41 c-56 23 -106 41 -112 41 -5 0 -54 -19 -109 -43z m224 -20 l84
-32 39 -98 39 -97 -38 -95 -39 -94 -97 -40 -98 -39 -99 39 -98 40 -38 95 -37
95 39 97 39 97 80 32 c43 17 93 32 110 32 16 1 68 -14 114 -32z"/>
<path d="M7929 10166 c-102 -36 -149 -98 -149 -194 0 -90 38 -148 118 -183 90
-39 188 -12 248 68 38 50 50 105 34 162 -12 45 -68 114 -109 135 -42 22 -103
27 -142 12z m97 -21 c49 -14 99 -56 123 -102 15 -30 14 -119 -3 -151 -26 -49
-72 -85 -121 -92 -129 -20 -213 42 -222 161 -6 88 14 124 96 167 73 37 64 36
127 17z"/>
<path d="M7937 10053 c-16 -15 -3 -143 14 -143 5 0 9 16 9 35 0 25 5 38 18 42
28 10 52 35 52 54 0 16 -3 17 -25 7 -19 -9 -28 -9 -37 0 -14 14 -22 15 -31 5z"/>
<path d="M4646 10225 c-9 -9 -16 -27 -16 -41 0 -20 5 -24 30 -24 40 0 38 -13
-5 -40 -19 -12 -35 -24 -35 -26 0 -2 14 -4 31 -4 22 0 41 10 66 35 29 29 34
40 31 72 -3 37 -4 38 -44 41 -28 2 -47 -2 -58 -13z"/>
<path d="M5500 10193 c-17 -22 -21 -37 -17 -67 4 -30 1 -47 -15 -69 -11 -15
-19 -30 -17 -32 2 -2 37 12 77 30 125 58 172 104 93 90 -27 -4 -49 -2 -70 10
-45 23 -38 29 24 21 62 -7 72 5 25 29 -44 23 -76 19 -100 -12z"/>
<path d="M6685 10182 c-3 -16 -1 -49 4 -73 6 -24 11 -49 11 -55 0 -19 -49 -34
-114 -34 -51 0 -70 5 -100 25 -20 14 -39 25 -41 25 -13 0 -2 -80 15 -119 25
-54 25 -62 -1 -95 -28 -36 -90 -66 -136 -66 -95 0 -161 43 -184 119 -11 39
-10 46 16 101 28 58 29 80 5 65 -7 -4 -23 -31 -36 -59 -61 -130 -6 -282 114
-316 52 -14 81 -12 127 9 84 38 144 115 145 184 l0 27 76 0 c41 0 84 5 96 11
11 6 29 31 40 55 21 49 18 128 -8 192 -16 39 -21 40 -29 4z"/>
<path d="M9628 10178 c-15 -22 -17 -22 -53 -9 -35 12 -40 12 -52 -5 -18 -25
-16 -58 5 -77 25 -23 47 -21 64 5 14 21 16 21 50 5 47 -22 53 -22 72 8 24 36
20 53 -16 75 -42 25 -52 25 -70 -2z"/>
<path d="M4876 10156 c-21 -44 -21 -43 14 -61 42 -22 58 -19 75 15 22 43 19
57 -16 69 -48 16 -55 14 -73 -23z"/>
<path d="M11052 10170 c-73 -30 -124 -101 -137 -191 -9 -63 5 -85 62 -102 l47
-14 -39 -25 c-74 -46 -159 -63 -202 -39 -31 16 -72 72 -79 107 -4 21 3 45 25
86 30 58 28 78 -8 59 -23 -13 -46 -70 -56 -138 -14 -105 71 -223 161 -223 63
0 207 104 233 169 30 71 3 113 -82 126 -34 5 -36 8 -26 26 6 11 31 34 57 50
36 23 54 29 78 24 27 -5 32 -2 38 17 3 13 6 35 6 51 0 23 -4 27 -27 26 -16 0
-38 -4 -51 -9z"/>
<path d="M11669 10153 c-6 -16 -19 -66 -29 -112 -10 -46 -22 -87 -27 -92 -5
-5 -26 -6 -46 -2 -56 9 -91 50 -122 143 -15 44 -31 80 -37 80 -10 0 -9 -38 8
-177 6 -50 5 -54 -28 -87 -74 -74 -124 -53 -155 67 -10 38 -22 68 -28 67 -16
-1 -11 -101 10 -163 48 -150 174 -158 215 -12 7 25 15 45 17 45 3 0 24 -16 48
-36 l44 -36 128 7 c70 3 142 8 159 11 38 5 54 36 54 106 0 45 -4 54 -38 87
-54 51 -149 131 -157 131 -3 0 -10 -12 -16 -27z m68 -149 c2 -6 -3 -18 -10
-28 -10 -14 -21 -17 -40 -12 -31 7 -34 22 -11 54 14 21 18 22 37 9 11 -7 22
-18 24 -23z m72 -30 c21 -15 22 -18 7 -26 -25 -14 -55 -1 -49 22 6 24 12 25
42 4z"/>
<path d="M5774 10104 c-4 -22 -2 -51 5 -69 26 -72 4 -96 -87 -97 -38 -1 -47 3
-73 35 -24 30 -37 37 -65 37 -40 0 -54 -24 -54 -95 0 -39 4 -46 30 -60 16 -8
38 -15 50 -15 11 0 20 -4 20 -8 0 -11 -139 -102 -156 -102 -8 0 -14 -5 -14
-11 0 -19 119 -4 149 19 14 10 36 37 49 60 23 41 24 42 79 42 49 0 59 4 89 34
24 24 35 44 36 68 4 88 -11 166 -37 188 -11 9 -15 5 -21 -26z"/>
<path d="M5226 10064 c-112 -132 -137 -146 -204 -113 -25 12 -45 32 -52 50
-15 36 -23 36 -49 0 -11 -15 -43 -38 -72 -50 l-51 -22 -35 40 c-62 73 -133 49
-133 -45 0 -34 5 -47 26 -63 15 -12 41 -21 58 -21 l31 -1 -30 -24 c-16 -14
-61 -42 -100 -62 l-70 -38 57 -3 c69 -4 106 13 144 65 38 52 53 63 87 63 20 0
40 11 64 35 l35 35 39 -35 c35 -31 45 -35 94 -35 46 0 59 4 89 30 l34 30 58
-15 c32 -8 64 -15 72 -15 17 0 62 96 62 133 0 15 -7 43 -14 62 -14 33 -18 35
-62 35 -42 0 -50 -4 -78 -36z m80 -68 c10 -8 16 -17 13 -20 -8 -8 -69 14 -69
25 0 14 34 11 56 -5z"/>
<path d="M4434 10065 c-3 -8 3 -46 15 -84 12 -38 21 -78 21 -90 0 -39 -112
-101 -184 -101 -46 0 -117 39 -143 79 -30 45 -30 97 2 143 28 42 31 58 11 58
-8 0 -28 -21 -45 -47 -34 -51 -41 -113 -20 -186 14 -52 71 -112 126 -133 39
-15 53 -16 101 -6 80 17 129 53 158 116 31 68 32 116 5 199 -22 66 -36 81 -47
52z"/>
<path d="M4250 9998 c-25 -41 -25 -44 3 -62 35 -23 72 -29 84 -14 25 31 25 57
-1 83 -34 34 -62 32 -86 -7z"/>
<path d="M8650 9991 c-17 -33 -8 -64 23 -79 38 -18 64 -7 72 30 8 36 -7 55
-52 64 -25 5 -33 2 -43 -15z"/>
<path d="M6280 9981 c-5 -11 -10 -31 -10 -45 0 -19 8 -27 37 -37 34 -11 38
-10 55 11 24 30 23 45 -8 69 -33 26 -60 27 -74 2z"/>
<path d="M6693 9864 c-17 -23 -23 -25 -41 -15 -36 19 -60 13 -77 -19 -21 -40
-19 -47 15 -65 40 -21 48 -19 68 13 16 27 19 28 47 16 44 -19 53 -17 74 17 23
37 19 52 -15 68 -37 17 -50 14 -71 -15z"/>
<path d="M5330 9820 c-75 -39 -136 -93 -125 -110 11 -19 163 58 199 100 52 62
30 65 -74 10z"/>
<path d="M10350 9810 c-76 -40 -120 -81 -120 -112 0 -24 2 -24 82 19 78 41
138 92 138 117 0 24 -17 20 -100 -24z"/>
<path d="M5790 9790 c-10 -18 -17 -20 -60 -14 -48 6 -50 5 -61 -22 -12 -34 -4
-52 35 -74 26 -14 28 -14 50 13 20 25 24 27 56 16 30 -11 35 -10 52 11 10 12
18 33 18 46 0 42 -70 61 -90 24z"/>
<path d="M9008 9774 c-15 -15 -21 -15 -49 -4 -29 13 -33 12 -50 -9 -25 -31
-24 -56 3 -75 31 -22 53 -20 70 6 14 20 17 21 48 8 31 -13 34 -12 51 9 26 32
24 56 -6 69 -35 16 -48 15 -67 -4z"/>
<path d="M9348 9760 c-32 -15 -73 -38 -93 -50 -37 -23 -63 -67 -48 -81 14 -13
146 59 186 101 63 66 47 76 -45 30z"/>
<path d="M6992 9741 c-102 -55 -148 -99 -124 -123 7 -7 40 6 102 38 101 53
105 57 115 97 10 37 -4 35 -93 -12z"/>
<path d="M11380 9133 c-21 -7 -40 -34 -40 -55 0 -13 8 -18 25 -18 35 0 31 -15
-10 -40 -37 -23 -45 -40 -20 -40 74 0 156 137 93 154 -26 6 -27 6 -48 -1z"/>
<path d="M5143 9100 c-25 -10 -47 -45 -38 -60 3 -6 17 -10 31 -10 33 0 30 -11
-11 -38 -57 -37 -37 -59 25 -27 63 32 93 112 51 135 -23 12 -29 12 -58 0z"/>
<path d="M4890 9074 c-9 -21 -9 -44 -1 -83 6 -30 11 -69 11 -88 0 -38 14 -43
31 -11 17 31 7 175 -14 195 -15 15 -17 14 -27 -13z"/>
<path d="M5468 9045 c-36 -19 -74 -45 -82 -57 -16 -22 -22 -58 -10 -58 20 0
149 78 169 102 50 59 22 63 -77 13z"/>
<path d="M5932 9063 c-41 -8 -45 -34 -39 -223 8 -223 20 -291 59 -330 37 -37
83 -46 132 -26 49 21 51 20 52 -13 1 -41 11 -51 48 -51 25 0 38 7 50 25 11 17
26 25 46 25 18 0 42 11 64 31 l36 31 57 -15 c33 -8 65 -11 74 -6 21 10 39 74
39 136 0 59 -20 83 -68 83 -33 0 -56 -20 -115 -100 -54 -74 -131 -80 -194 -14
l-32 34 -23 -30 c-28 -38 -85 -58 -117 -40 -13 6 -29 27 -37 47 -17 39 -33
196 -34 321 l0 82 39 0 c48 0 62 16 26 30 -14 6 -29 9 -33 9 -4 -1 -17 -4 -30
-6z m563 -443 c10 -11 13 -20 7 -20 -18 0 -62 22 -62 32 0 16 37 8 55 -12z"/>
<path d="M11519 9033 c-8 -20 -8 -75 0 -201 19 -274 31 -321 96 -348 75 -31
156 -7 182 53 17 41 14 144 -6 196 -24 64 -43 -18 -21 -93 13 -46 -4 -62 -74
-68 -98 -8 -116 29 -137 295 -6 78 -8 147 -4 152 3 6 24 11 45 11 41 0 61 14
34 24 -9 3 -36 6 -60 6 -39 0 -46 -3 -55 -27z"/>
<path d="M7091 9015 c-77 -42 -101 -62 -101 -87 0 -25 24 -18 112 33 59 34 88
62 88 83 0 15 -40 3 -99 -29z"/>
<path d="M7365 9017 c-4 -13 0 -66 8 -118 l14 -94 17 37 c20 46 21 117 2 163
-17 41 -33 45 -41 12z"/>
<path d="M7850 8996 c-72 -37 -114 -76 -108 -100 7 -36 198 84 198 125 0 16
-23 9 -90 -25z"/>
<path d="M9853 9019 c-33 -12 -54 -61 -47 -106 5 -32 2 -42 -20 -62 -25 -24
-35 -51 -18 -51 13 0 83 53 110 82 59 65 42 162 -25 137z m32 -80 c-8 -12 -32
-12 -40 1 -11 18 5 31 26 20 11 -6 17 -15 14 -21z"/>
<path d="M11138 8973 c-65 -34 -115 -88 -106 -113 5 -16 105 40 160 88 80 72
55 84 -54 25z"/>
<path d="M4664 8965 c-23 -23 -26 -32 -22 -77 4 -41 2 -53 -14 -67 -11 -9 -24
-24 -30 -34 -8 -17 -7 -18 14 -12 70 21 138 98 138 157 -1 54 -47 72 -86 33z
m46 -51 c0 -9 -7 -14 -17 -12 -25 5 -28 28 -4 28 12 0 21 -6 21 -16z"/>
<path d="M6160 8956 c-39 -20 -74 -46 -87 -66 -39 -57 -30 -64 40 -29 85 43
115 65 132 100 14 27 14 29 -2 29 -10 -1 -47 -16 -83 -34z"/>
<path d="M8235 8943 c-3 -21 -1 -97 5 -168 5 -72 13 -167 17 -212 3 -46 10
-83 14 -83 16 0 21 95 16 263 -5 172 -13 227 -34 234 -6 2 -14 -13 -18 -34z"/>
<path d="M5722 8916 c-82 -46 -130 -106 -86 -106 50 0 205 115 189 141 -10 15
-26 9 -103 -35z"/>
<path d="M8143 8948 c-21 -27 -23 -67 -7 -206 12 -101 14 -146 6 -154 -5 -5
-40 -13 -76 -15 l-66 -6 0 37 c0 116 -109 123 -204 14 -49 -56 -72 -59 -82 -8
-8 37 -15 38 -52 0 -34 -33 -59 -37 -102 -15 -21 11 -32 27 -40 56 -18 67 -30
150 -30 214 0 76 -14 102 -30 60 -9 -21 -10 -74 -5 -176 6 -145 6 -147 -17
-163 -24 -17 -58 -22 -58 -7 0 4 -11 20 -25 35 -46 50 -102 24 -112 -52 -7
-49 21 -82 67 -82 17 0 30 -4 30 -9 0 -12 -49 -49 -113 -86 -59 -34 -50 -50
22 -40 60 8 94 32 121 86 13 24 30 41 46 45 14 4 35 22 48 41 24 34 24 34 39
13 18 -26 83 -60 114 -60 13 0 29 11 39 25 16 24 18 25 35 9 11 -10 24 -35 30
-58 l11 -40 17 23 c13 17 30 24 62 26 24 2 103 7 176 12 192 13 197 19 191
288 -3 168 -13 221 -35 193z m-198 -340 c29 -13 32 -25 8 -32 -42 -12 -137
-25 -142 -20 -3 3 9 19 27 35 35 31 66 36 107 17z"/>
<path d="M11396 8930 c-3 -17 0 -79 6 -138 6 -59 12 -129 12 -156 1 -45 -1
-50 -27 -59 -15 -5 -44 -6 -63 -3 -33 7 -34 9 -34 51 0 60 -32 85 -106 85 -65
0 -103 -16 -110 -47 -9 -34 2 -53 36 -59 49 -10 35 -22 -36 -29 -57 -7 -70 -5
-92 12 -15 11 -33 33 -41 48 l-14 29 -18 -25 c-35 -46 -52 -59 -86 -65 -39 -7
-89 21 -87 50 2 22 -12 20 -50 -9 -91 -69 -246 -73 -318 -8 -13 12 -18 31 -18
72 0 52 -1 54 -17 38 -12 -12 -19 -38 -21 -85 -4 -66 -3 -71 28 -105 74 -84
227 -86 342 -5 13 10 23 6 52 -20 21 -18 48 -32 62 -32 37 0 78 25 93 56 l12
27 32 -30 c59 -56 117 -65 220 -33 65 20 65 20 108 0 87 -39 155 -18 180 58
20 57 15 317 -7 370 -19 50 -29 53 -38 12z"/>
<path d="M6850 8924 c-109 -62 -154 -104 -132 -126 14 -14 109 36 160 85 68
66 53 87 -28 41z"/>
<path d="M10143 8907 c-77 -45 -122 -92 -106 -108 24 -24 203 97 203 136 0 23
-19 17 -97 -28z"/>
<path d="M5175 8919 c-5 -15 -12 -19 -26 -15 -10 3 -28 9 -39 12 -16 5 -23 -1
-36 -31 -17 -42 -9 -59 33 -70 21 -5 31 -1 44 17 16 21 20 22 51 10 31 -12 35
-11 55 13 26 30 23 45 -16 68 -39 23 -58 21 -66 -4z"/>
<path d="M9072 8923 c-21 -8 -42 -60 -42 -104 0 -33 -6 -50 -27 -71 -24 -25
-25 -28 -7 -28 31 0 97 43 121 79 47 70 19 150 -45 124z m26 -71 c2 -7 -3 -12
-12 -12 -9 0 -16 7 -16 16 0 17 22 14 28 -4z"/>
<path d="M9605 8910 c-7 -23 -15 -24 -49 -9 -20 9 -29 9 -41 -1 -21 -17 -19
-63 3 -83 25 -23 47 -21 64 4 14 21 15 21 48 4 32 -17 34 -17 47 1 8 11 17 30
20 43 11 46 -78 86 -92 41z"/>
<path d="M9294 8895 c-28 -28 -27 -50 1 -50 33 0 27 -23 -12 -49 l-38 -26 32
0 c41 0 88 40 104 87 10 32 9 38 -7 50 -27 20 -52 16 -80 -12z"/>
<path d="M5429 8883 c-14 -38 -8 -56 25 -72 27 -13 31 -12 48 9 36 44 15 90
-42 90 -13 0 -24 -10 -31 -27z"/>
<path d="M8600 8882 c-30 -16 -65 -35 -77 -42 -23 -15 -48 -61 -41 -80 4 -13
162 83 183 113 32 46 13 48 -65 9z"/>
<path d="M4328 8888 c-10 -7 -19 -24 -20 -38 -2 -19 2 -25 20 -26 35 -2 36
-10 3 -35 -36 -26 -39 -39 -12 -39 42 0 111 97 92 128 -11 18 -64 25 -83 10z"/>
<path d="M7880 8868 c0 -13 -4 -30 -9 -37 -8 -12 -12 -10 -22 12 -16 35 -29
34 -29 -2 0 -41 -19 -49 -26 -11 -9 44 -30 31 -26 -16 4 -49 24 -73 46 -54 9
7 26 10 38 7 12 -4 28 -1 35 5 15 12 18 104 3 113 -6 3 -10 -4 -10 -17z"/>
<path d="M8855 8870 c-21 -23 -13 -50 15 -50 29 0 25 -15 -10 -40 -34 -24 -39
-40 -12 -40 42 0 112 72 112 116 0 38 -74 48 -105 14z"/>
<path d="M10881 8881 c-6 -4 -13 -21 -17 -38 -5 -25 -2 -31 15 -36 31 -8 26
-25 -16 -50 l-38 -22 29 -3 c43 -5 73 15 97 66 16 33 19 49 12 61 -11 17 -65
32 -82 22z"/>
<path d="M7010 8854 c-16 -42 -12 -64 16 -76 24 -11 29 -9 50 15 30 35 30 41
-2 66 -35 28 -52 26 -64 -5z"/>
<path d="M7120 8844 c-15 -38 -12 -49 14 -63 28 -16 44 -8 57 26 7 20 6 30 -7
44 -24 27 -53 24 -64 -7z"/>
<path d="M6200 8821 c0 -46 -14 -47 -32 -3 l-11 27 -10 -33 c-12 -38 -31 -37
-35 1 -4 35 -20 35 -28 0 -5 -16 -2 -36 7 -52 13 -23 20 -26 64 -23 61 4 79
23 70 72 -10 54 -25 61 -25 11z"/>
<path d="M11125 8830 c-22 -43 -19 -54 21 -73 43 -21 59 -12 70 36 5 25 2 34
-16 49 -32 26 -57 22 -75 -12z"/>
<path d="M4902 8795 c-18 -39 -15 -49 20 -69 31 -19 31 -19 50 4 24 30 23 56
-4 74 -32 23 -53 20 -66 -9z"/>
<path d="M5163 8780 c-13 -5 -25 -21 -29 -37 -3 -15 -8 -35 -10 -44 -14 -50
53 -100 113 -84 23 5 25 4 14 -9 -14 -17 -91 -34 -170 -38 -53 -2 -55 -1 -92
42 l-38 44 -34 -38 c-32 -37 -36 -39 -110 -45 -66 -6 -77 -4 -72 8 13 34 16
98 6 124 -22 56 -75 27 -144 -79 -28 -43 -37 -49 -71 -52 -31 -3 -49 4 -90 32
-103 71 -127 66 -177 -32 -27 -53 -49 -79 -107 -126 -42 -33 -70 -62 -65 -67
16 -16 101 21 132 57 26 29 31 31 36 15 8 -25 58 -45 92 -37 16 4 45 18 65 32
30 19 51 24 101 24 58 0 65 -2 75 -24 19 -43 82 -104 113 -111 41 -9 57 7 71
76 l12 59 37 0 c52 0 67 7 94 47 22 34 24 34 34 14 20 -37 69 -54 156 -55 94
-1 139 19 168 74 35 68 0 219 -55 234 -28 7 -27 7 -55 -4z m-465 -152 c22 -22
13 -37 -29 -48 -23 -6 -43 -9 -45 -7 -6 5 45 67 55 67 4 0 12 -5 19 -12z
m-336 -88 l33 -29 -32 -1 c-34 0 -79 33 -68 50 11 18 34 11 67 -20z m352 -76
c20 -8 21 -34 2 -34 -8 0 -24 9 -37 20 -24 19 -24 19 -2 20 12 0 28 -3 37 -6z"/>
<path d="M9577 8754 c-28 -9 -47 -58 -47 -124 l0 -60 -49 0 c-39 0 -56 6 -80
26 -17 14 -31 32 -31 40 0 24 -21 16 -66 -26 -38 -35 -49 -40 -92 -40 -51 0
-102 27 -102 55 0 28 -20 25 -54 -9 -52 -53 -78 -55 -126 -12 -41 37 -79 46
-98 23 -18 -21 -25 -92 -13 -115 7 -12 29 -26 52 -32 40 -11 40 -12 23 -31 -9
-10 -46 -35 -81 -55 -80 -44 -82 -59 -6 -51 67 7 99 28 131 85 17 30 30 42 46
42 13 0 35 9 49 20 34 27 37 26 37 -13 0 -42 15 -57 58 -57 26 0 35 5 39 20 3
12 17 22 32 26 57 11 101 25 101 32 0 4 7 15 14 25 13 17 16 16 60 -14 l46
-33 210 0 c205 0 210 0 234 23 35 33 48 95 35 169 -6 33 -17 69 -24 79 -12 17
-14 16 -21 -11 -4 -15 -1 -52 6 -82 17 -72 10 -79 -83 -79 l-72 0 -5 72 c-3
47 -11 78 -21 88 -16 17 -72 27 -102 19z m73 -113 c15 -28 13 -31 -19 -31 -33
0 -46 13 -37 35 8 21 44 18 56 -4z"/>
<path d="M5470 8710 c0 -22 5 -60 12 -85 11 -42 11 -47 -9 -67 -12 -12 -53
-38 -90 -57 -37 -20 -68 -40 -68 -46 0 -5 28 -11 62 -13 61 -3 63 -2 109 40
l47 43 -6 75 c-5 77 -28 150 -46 150 -6 0 -11 -18 -11 -40z"/>
<path d="M5730 8719 c0 -16 5 -50 11 -75 17 -65 4 -85 -91 -139 -44 -26 -78
-51 -74 -56 10 -18 105 -10 140 12 74 45 90 117 53 227 -23 67 -39 80 -39 31z"/>
<path d="M7146 8719 c-20 -15 -34 -19 -54 -14 -67 16 -77 13 -80 -28 -2 -21 2
-45 8 -52 9 -11 9 -23 0 -49 -6 -19 -12 -54 -12 -78 0 -34 5 -46 27 -66 23
-19 35 -22 64 -17 20 3 44 14 54 24 25 24 34 125 17 185 -10 38 -10 47 6 70
24 38 6 53 -30 25z m-35 -150 c16 -11 29 -26 29 -34 0 -13 -29 -25 -62 -25
-25 0 -41 35 -28 60 14 25 25 25 61 -1z"/>
<path d="M6767 8717 c-20 -14 -32 -74 -23 -110 5 -23 36 -42 81 -49 15 -3 1
-16 -57 -56 -42 -28 -79 -56 -83 -62 -10 -16 60 -12 105 6 48 19 75 54 90 116
27 105 -46 205 -113 155z"/>
<path d="M10115 8714 c-23 -24 -37 -78 -26 -107 8 -19 22 -30 56 -40 l46 -13
-70 -47 c-112 -77 -119 -98 -27 -73 76 19 104 39 127 89 25 55 24 93 -3 147
-18 36 -30 46 -56 51 -22 5 -37 2 -47 -7z"/>
<path d="M8693 8664 c2 -22 10 -65 18 -96 11 -48 11 -59 -2 -74 -24 -30 -111
-64 -162 -64 -43 0 -53 4 -97 46 -42 40 -50 52 -50 83 0 20 9 56 20 80 24 51
19 64 -9 30 -79 -95 -54 -251 49 -308 106 -59 250 -1 281 112 21 76 -3 213
-40 225 -10 3 -12 -5 -8 -34z"/>
<path d="M8529 8639 c-32 -32 -22 -71 21 -86 31 -10 37 -9 53 9 30 35 15 73
-36 91 -11 4 -25 -1 -38 -14z"/>
<path d="M6519 8448 c-63 -33 -86 -51 -101 -78 -10 -21 -14 -36 -8 -38 26 -9
179 89 200 127 18 35 -6 32 -91 -11z"/>
<path d="M9864 8425 c-18 -24 -21 -25 -52 -13 -36 14 -46 7 -59 -41 -4 -18 0
-29 17 -43 29 -24 36 -23 64 7 23 24 25 25 60 10 40 -17 35 -21 61 53 4 11
-48 52 -66 52 -3 0 -14 -11 -25 -25z"/>
<path d="M9354 8413 c-19 -26 -20 -26 -54 -8 -32 17 -34 17 -47 -1 -16 -22
-17 -66 -1 -82 18 -18 49 -14 74 9 l23 21 29 -21 30 -21 21 36 c12 19 21 39
21 43 0 4 -17 17 -38 29 l-39 21 -19 -26z"/>
<path d="M11677 8408 c-18 -38 -16 -43 26 -64 30 -16 32 -16 49 6 23 29 23 45
-2 70 -29 29 -55 25 -73 -12z"/>
<path d="M9633 8391 c-40 -21 -80 -44 -89 -51 -19 -17 -47 -70 -40 -77 8 -8
161 85 187 113 12 12 19 29 17 38 -2 12 -17 8 -75 -23z"/>
<path d="M10922 8410 c-15 -25 -30 -25 -55 -3 -18 17 -20 17 -38 -6 -24 -30
-24 -42 2 -75 25 -32 45 -33 60 -3 6 12 13 24 15 26 2 2 19 -6 38 -18 l34 -22
21 30 c27 38 26 45 -5 70 -34 26 -56 27 -72 1z"/>
<path d="M10486 8398 c-25 -35 -20 -57 16 -72 41 -18 55 -12 63 26 13 56 -48
91 -79 46z"/>
<path d="M10561 8289 c-130 -80 -157 -146 -34 -84 64 32 133 91 133 115 0 23
-23 16 -99 -31z"/>
<path d="M11784 8305 c-87 -49 -139 -105 -99 -105 28 0 153 69 174 96 43 55
13 59 -75 9z"/>
<path d="M8438 7653 c-63 -32 -93 -55 -109 -79 -12 -19 -19 -38 -15 -41 18
-18 194 82 216 122 25 46 -1 46 -92 -2z"/>
<path d="M9385 7660 c-9 -15 27 -73 53 -86 68 -34 79 -75 30 -116 -39 -32 -35
-41 14 -28 48 14 66 37 78 100 14 74 12 115 -5 130 -13 11 -15 3 -15 -61 0
-41 -5 -81 -10 -89 -7 -12 -10 -8 -10 14 0 37 -31 87 -74 120 -37 28 -51 32
-61 16z"/>
<path d="M4378 7643 c-27 -37 -50 -45 -140 -53 -89 -7 -93 -8 -126 -44 -39
-43 -37 -54 7 -32 18 10 55 16 92 16 78 0 140 28 174 78 14 20 25 40 25 44 0
14 -19 8 -32 -9z"/>
<path d="M10857 7572 c-27 -30 -38 -69 -26 -99 9 -26 7 -31 -27 -59 -45 -38
-39 -62 9 -37 82 42 137 109 137 167 0 43 -62 62 -93 28z m47 -57 c3 -9 0 -15
-8 -15 -7 0 -19 7 -26 15 -10 12 -9 15 8 15 11 0 22 -7 26 -15z"/>
<path d="M8467 7533 c-4 -3 -4 -22 -1 -41 8 -40 -11 -37 -27 5 -11 30 -24 23
-33 -18 -8 -40 -30 -33 -34 10 -5 47 -27 33 -26 -17 1 -53 18 -76 46 -61 11 6
32 9 47 6 42 -9 56 6 55 58 -1 45 -14 72 -27 58z"/>
<path d="M4211 7486 c-26 -32 -7 -458 24 -533 27 -65 127 -86 199 -42 l39 23
-5 -35 c-8 -44 0 -57 38 -68 37 -10 53 -4 64 24 7 19 18 23 76 28 37 4 77 13
89 21 36 24 59 96 52 164 -5 63 -32 127 -47 117 -12 -8 -13 -87 -1 -137 12
-53 -4 -63 -100 -63 -82 1 -119 16 -143 61 -6 10 -12 21 -14 23 -1 3 -15 -10
-30 -28 -30 -36 -96 -63 -127 -51 -52 19 -83 142 -88 355 -2 100 -2 100 23
103 79 9 92 25 33 41 -51 14 -68 14 -82 -3z"/>
<path d="M5994 7475 c-12 -18 -15 -39 -12 -76 4 -41 2 -52 -13 -59 -23 -13
-49 -39 -49 -51 0 -32 113 29 151 82 29 41 35 91 14 112 -25 26 -71 22 -91 -8z
m54 -53 c3 -9 -2 -13 -14 -10 -9 1 -19 9 -22 16 -3 9 2 13 14 10 9 -1 19 -9
22 -16z"/>
<path d="M6830 7448 c-21 -35 -25 -74 -11 -97 7 -11 -2 -25 -32 -52 -39 -36
-40 -38 -18 -39 32 0 115 54 143 93 25 34 29 87 9 111 -7 9 -26 16 -42 16 -22
0 -34 -8 -49 -32z m60 -43 c11 -13 8 -15 -13 -15 -28 0 -44 15 -25 23 21 9 25
8 38 -8z"/>
<path d="M6566 7439 c-34 -26 -33 -47 2 -55 15 -3 31 -7 36 -8 4 -1 -11 -14
-34 -30 -28 -18 -39 -31 -32 -38 25 -25 132 58 132 104 0 46 -60 62 -104 27z"/>
<path d="M11749 7428 c-15 -25 -19 -43 -15 -77 6 -41 4 -46 -31 -76 -52 -45
-28 -52 49 -12 51 26 67 40 86 77 27 55 28 74 2 100 -31 31 -67 26 -91 -12z
m60 -42 c14 -17 0 -29 -23 -20 -17 7 -20 16 -9 27 10 11 19 8 32 -7z"/>
<path d="M11481 7419 c-27 -44 -26 -47 6 -51 39 -4 38 -20 -3 -46 -24 -16 -33
-27 -26 -34 14 -14 74 14 105 51 45 54 33 94 -31 107 -27 6 -33 2 -51 -27z"/>
<path d="M7717 7418 c-9 -12 -17 -32 -19 -43 -2 -17 2 -19 25 -17 36 4 36 -20
1 -43 -34 -22 -14 -38 28 -23 35 12 68 61 68 100 0 31 -3 34 -52 43 -31 6 -38
4 -51 -17z"/>
<path d="M8560 7385 c-14 -36 -13 -94 4 -211 8 -54 18 -141 21 -191 7 -92 19
-117 31 -67 4 14 7 103 8 197 1 142 -2 182 -17 229 -22 68 -33 79 -47 43z"/>
<path d="M8855 7379 c-38 -17 -84 -41 -102 -55 -31 -23 -51 -60 -39 -71 3 -3
36 7 72 22 70 30 144 91 144 118 0 10 -1 17 -2 17 -2 -1 -34 -14 -73 -31z"/>
<path d="M8144 7345 c-19 -46 -18 -50 13 -75 l28 -22 22 27 c31 35 29 59 -6
84 -16 12 -32 21 -36 21 -3 0 -13 -16 -21 -35z"/>
<path d="M8416 7358 c-12 -48 -3 -202 20 -309 8 -39 -18 -59 -77 -59 -65 0
-99 31 -143 134 -59 136 -64 125 -40 -87 7 -63 -4 -85 -58 -113 -66 -34 -90
-15 -123 98 -26 90 -39 85 -33 -13 4 -56 13 -99 27 -130 51 -107 171 -87 202
35 6 25 13 46 16 46 2 0 21 -13 41 -30 43 -34 120 -54 155 -41 14 5 34 25 46
44 19 32 21 48 21 211 0 139 -3 183 -15 206 -19 36 -31 38 -39 8z"/>
<path d="M10896 7335 c-14 -21 -19 -23 -46 -13 -40 13 -56 6 -63 -29 -11 -56
46 -100 84 -62 15 15 27 17 63 13 42 -6 45 -5 61 25 19 38 15 45 -35 71 -48
25 -44 25 -64 -5z"/>
<path d="M5414 7291 c-96 -46 -168 -121 -117 -121 46 0 213 115 213 147 0 19
-8 17 -96 -26z"/>
<path d="M7479 7287 c-57 -29 -91 -54 -107 -77 -38 -57 3 -51 120 18 55 31 98
84 79 96 -4 3 -46 -14 -92 -37z"/>
<path d="M9361 7292 l-94 -37 -40 -104 -39 -105 37 -92 c20 -51 42 -97 48
-101 7 -5 54 -29 106 -52 107 -49 104 -50 240 18 l73 36 39 92 38 93 -23 67
c-53 154 -45 144 -154 186 -54 20 -106 37 -117 37 -11 0 -62 -17 -114 -38z
m211 -13 c45 -18 88 -36 93 -40 6 -4 28 -50 48 -101 l38 -93 -39 -90 -39 -90
-97 -43 -97 -42 -96 41 -96 42 -32 71 c-51 112 -50 107 -10 210 l37 94 87 35
c47 20 93 36 103 37 9 0 54 -14 100 -31z"/>
<path d="M9400 7234 c-113 -49 -158 -188 -93 -292 39 -63 95 -94 172 -94 70 0
107 17 154 72 58 68 66 145 24 226 -45 87 -165 128 -257 88z m158 -25 c58 -29
102 -96 102 -156 0 -75 -62 -163 -126 -179 -47 -12 -129 1 -164 26 -83 59 -93
209 -19 276 64 57 133 68 207 33z"/>
<path d="M9406 7128 c-13 -50 2 -186 17 -148 3 8 7 26 9 40 3 25 32 45 81 55
18 4 31 15 38 32 10 28 3 46 -11 24 -5 -9 -17 -12 -31 -8 -13 3 -29 1 -36 -5
-10 -8 -19 -6 -37 11 l-23 22 -7 -23z"/>
<path d="M10285 7297 c-83 -40 -135 -82 -135 -108 0 -24 3 -24 75 5 60 24 145
96 145 123 0 19 -7 17 -85 -20z"/>
<path d="M11180 7308 c-27 -29 -25 -54 4 -74 34 -22 67 -14 86 19 14 27 14 29
-15 53 -37 30 -49 30 -75 2z"/>
<path d="M4480 7265 c-84 -44 -130 -83 -130 -111 0 -8 7 -14 15 -14 17 0 100
40 158 77 38 24 65 69 50 84 -4 4 -46 -12 -93 -36z"/>
<path d="M10601 7274 c-26 -33 -26 -43 -3 -50 56 -18 56 -19 5 -47 l-48 -27
47 0 c41 0 49 4 69 31 14 20 23 48 23 73 1 40 0 41 -35 44 -30 3 -41 -2 -58
-24z"/>
<path d="M5726 7268 c-28 -39 -15 -58 37 -58 19 0 17 -5 -18 -35 l-40 -34 30
-1 c52 0 105 55 105 110 0 41 -89 54 -114 18z"/>
<path d="M6579 7253 c-8 -9 -14 -39 -14 -68 0 -36 -6 -59 -17 -72 -41 -45 -14
-44 88 5 43 22 85 46 92 55 21 25 7 37 -31 26 -40 -12 -87 -2 -87 18 0 12 9
14 50 8 55 -8 65 3 25 29 -32 21 -89 21 -106 -1z"/>
<path d="M7826 7252 c-4 -7 -6 -50 -4 -95 l3 -82 -44 -9 c-51 -11 -121 4 -163
34 -18 13 -29 16 -33 9 -9 -14 4 -97 20 -129 14 -29 10 -46 -19 -78 -73 -82
-229 -83 -286 -2 -34 48 -36 84 -5 144 17 35 25 61 21 73 -7 16 -10 15 -32
-10 -60 -70 -68 -208 -16 -282 102 -146 319 -93 372 91 l12 41 82 6 c73 6 83
9 103 34 13 16 26 43 29 61 13 67 -20 225 -40 194z"/>
<path d="M5966 7225 c-32 -49 -15 -85 41 -85 60 0 69 66 13 95 -37 19 -35 19
-54 -10z"/>
<path d="M11484 7205 c-17 -41 -14 -49 25 -70 26 -13 30 -13 44 3 14 17 37 56
37 65 0 5 -75 37 -86 37 -3 0 -12 -16 -20 -35z"/>
<path d="M6857 7153 c-3 -15 1 -49 8 -77 17 -65 6 -78 -72 -84 -56 -4 -59 -2
-92 32 -26 27 -43 36 -67 36 -39 0 -50 -13 -59 -67 -9 -54 5 -78 52 -93 21 -7
42 -16 46 -20 9 -8 -42 -43 -123 -86 l-55 -29 57 -3 c71 -4 108 14 149 71 27
37 37 43 92 54 79 16 112 49 122 122 7 54 1 100 -21 144 -18 34 -30 34 -37 0z"/>
<path d="M10863 7159 l-43 -21 0 -79 0 -79 -40 0 c-35 0 -47 6 -79 40 -50 53
-93 54 -120 3 -30 -58 2 -126 65 -138 47 -8 39 -17 -71 -80 l-80 -45 61 0 c70
0 113 23 152 80 13 19 31 38 40 42 9 4 172 7 363 7 l345 1 34 35 34 35 27 -26
c78 -74 230 -61 266 24 27 65 4 207 -36 220 -11 4 -12 -7 -7 -54 13 -127 15
-117 -28 -132 -67 -22 -186 12 -186 52 0 30 -22 27 -55 -6 -37 -39 -107 -64
-153 -53 l-30 6 5 63 c3 38 1 71 -6 84 -23 42 -120 48 -161 10 -20 -18 -22
-29 -18 -94 l3 -74 -56 0 c-88 0 -90 2 -83 74 6 56 4 65 -17 88 -34 37 -75 43
-126 17z m82 -102 c22 -17 12 -37 -17 -37 -22 0 -58 26 -58 42 0 13 54 9 75
-5z m330 -7 c17 -18 16 -19 -9 -26 -27 -6 -76 17 -76 36 0 18 66 11 85 -10z"/>
<path d="M6296 7103 c-100 -115 -102 -116 -153 -109 -56 7 -93 30 -93 56 0 31
-15 31 -46 -2 -32 -34 -81 -58 -118 -58 -17 0 -34 12 -52 35 -20 27 -34 35
-58 35 -40 0 -52 -9 -65 -43 -23 -61 0 -107 62 -122 15 -4 29 -10 32 -14 2 -4
-36 -32 -85 -62 -49 -30 -90 -58 -90 -63 0 -12 106 1 139 17 14 7 41 33 60 59
27 36 45 49 78 59 24 6 58 25 75 41 31 28 31 29 52 10 27 -25 73 -48 113 -56
28 -7 37 -2 76 33 l43 40 52 -15 c68 -20 103 -15 119 16 16 32 17 162 1 178
-7 7 -32 12 -57 12 -41 0 -48 -4 -85 -47z m94 -58 c18 -22 9 -26 -35 -14 -28
8 -35 13 -24 20 21 13 45 11 59 -6z"/>
<path d="M8776 7119 c-50 -59 -25 -128 53 -144 l34 -7 -92 -59 c-116 -75 -109
-101 17 -64 59 18 97 60 122 134 16 50 2 110 -35 147 -33 33 -68 31 -99 -7z"/>
<path d="M5520 7098 c0 -26 10 -73 21 -105 l22 -57 -32 -27 c-38 -31 -131 -69
-169 -69 -36 1 -102 32 -129 61 -43 47 -46 74 -17 145 14 36 24 67 21 70 -2 3
-18 -11 -35 -30 -36 -41 -46 -83 -40 -166 5 -75 27 -105 99 -143 47 -25 63
-28 120 -25 87 5 136 36 173 109 38 76 30 207 -14 261 l-19 23 -1 -47z"/>
<path d="M10391 7091 c-1 -25 6 -71 15 -103 13 -47 14 -61 4 -73 -21 -26 -136
-75 -174 -75 -74 0 -147 46 -167 107 -9 30 -7 41 20 100 34 71 34 87 0 57 -56
-50 -78 -138 -55 -217 31 -107 103 -155 217 -144 165 15 247 174 170 332 l-29
60 -1 -44z"/>
<path d="M5336 7055 c-23 -36 -20 -58 13 -78 41 -24 58 -21 76 14 19 35 11 50
-36 75 -36 18 -34 18 -53 -11z"/>
<path d="M10205 7050 c-8 -16 -15 -38 -15 -48 0 -19 37 -42 69 -42 22 0 51 30
51 53 0 15 -64 67 -82 67 -4 0 -14 -13 -23 -30z"/>
<path d="M7413 7014 c-17 -35 -17 -36 6 -55 44 -36 66 -26 98 43 3 6 -68 48
-82 48 -3 0 -13 -16 -22 -36z"/>
<path d="M7836 6918 c-32 -46 -11 -88 43 -88 19 0 51 43 51 69 0 11 -51 41
-69 41 -5 0 -17 -10 -25 -22z"/>
<path d="M6413 6880 c-82 -41 -116 -69 -128 -107 -9 -32 4 -29 96 18 77 40
129 86 129 115 0 21 -10 18 -97 -26z"/>
<path d="M7718 6893 c-16 -17 -22 -36 -19 -59 1 -12 44 -34 67 -34 8 0 22 16
31 35 15 31 15 37 2 50 -25 24 -63 28 -81 8z"/>
<path d="M6872 6845 c-13 -28 -28 -31 -68 -13 -23 11 -28 10 -45 -11 -24 -29
-24 -53 -1 -74 26 -24 69 -22 83 4 11 21 20 21 74 4 17 -5 24 1 38 30 9 20 17
38 17 40 0 4 -75 45 -83 45 -2 0 -9 -11 -15 -25z"/>
<path d="M11784 6835 c-10 -16 -23 -24 -33 -21 -65 20 -69 19 -87 -15 -16 -33
-16 -33 10 -56 35 -30 60 -29 80 1 14 22 18 23 46 13 37 -14 60 -3 73 38 8 24
6 31 -14 46 -33 25 -56 24 -75 -6z"/>
<path d="M11275 6816 c-79 -37 -130 -76 -138 -106 -7 -28 2 -26 91 19 82 42
132 82 132 106 0 20 -4 19 -85 -19z"/>
<path d="M4676 6818 c-22 -31 -20 -54 6 -72 34 -24 63 -20 76 9 18 38 15 49
-17 68 -38 22 -47 22 -65 -5z"/>
<path d="M8160 6791 c-71 -31 -88 -43 -105 -73 -11 -20 -16 -40 -12 -44 21
-21 217 107 217 142 0 19 -3 18 -100 -25z"/>
<path d="M4791 6711 c-86 -38 -121 -68 -121 -103 0 -25 24 -19 112 33 61 36
108 79 108 100 0 13 -7 11 -99 -30z"/>
<path d="M8460 6085 c-29 -31 -77 -45 -159 -45 -61 0 -65 -2 -105 -42 -44 -44
-38 -60 13 -34 18 10 55 16 91 16 77 0 120 20 165 75 19 23 35 45 35 49 0 13
-17 5 -40 -19z"/>
<path d="M7889 6060 c-26 -15 -42 -66 -35 -108 5 -34 2 -42 -24 -67 -40 -38
-38 -49 7 -30 52 22 100 61 118 95 38 74 -5 146 -66 110z m36 -71 c4 -6 5 -12
2 -15 -7 -7 -37 7 -37 17 0 13 27 11 35 -2z"/>
<path d="M11780 6039 c-21 -39 -27 -74 -18 -99 8 -22 4 -29 -29 -57 -49 -42
-36 -53 28 -23 62 29 106 77 115 126 9 48 -5 68 -49 72 -28 3 -38 -1 -47 -19z
m50 -54 c0 -8 -4 -15 -9 -15 -5 0 -14 7 -21 15 -10 13 -9 15 9 15 12 0 21 -6
21 -15z"/>
<path d="M11553 5978 c-21 -27 -23 -49 -5 -54 57 -18 57 -19 6 -49 -51 -30
-47 -41 11 -31 36 7 64 38 83 92 7 23 7 35 -1 43 -15 15 -82 14 -94 -1z"/>
<path d="M5522 5936 c-95 -50 -122 -72 -122 -98 0 -25 21 -23 90 12 73 37 130
86 130 111 0 10 -3 19 -7 19 -5 0 -45 -20 -91 -44z"/>
<path d="M7636 5958 c-23 -33 -20 -48 14 -54 17 -4 30 -9 30 -12 0 -3 -15 -18
-32 -33 l-33 -28 27 -1 c34 0 93 50 102 86 15 57 -74 91 -108 42z"/>
<path d="M10325 5953 c-96 -41 -144 -80 -145 -116 0 -23 21 -17 104 26 64 34
116 80 116 103 0 18 -4 18 -75 -13z"/>
<path d="M4087 5943 c-12 -12 -8 -55 5 -47 8 5 9 2 3 -12 -17 -41 -18 -120 -1
-152 16 -31 19 -32 82 -32 64 0 104 12 104 30 0 6 -19 10 -42 10 -91 0 -138
27 -138 79 0 29 42 73 81 86 19 7 35 19 37 28 3 14 -6 17 -61 17 -35 0 -67 -3
-70 -7z"/>
<path d="M9805 5915 c-16 -37 -16 -52 -3 -215 10 -114 12 -182 5 -196 -16 -37
-83 -67 -161 -72 -87 -5 -147 10 -189 48 l-32 29 23 43 c24 46 28 68 12 68
-40 0 -76 -105 -60 -175 11 -50 45 -80 112 -100 108 -32 224 -10 279 52 30 35
33 36 43 18 6 -11 25 -34 43 -52 44 -46 89 -45 142 2 l39 35 42 -35 c38 -31
48 -35 102 -35 114 0 123 20 123 260 0 151 -2 180 -19 209 -38 70 -46 -10 -21
-214 14 -116 14 -121 -5 -136 -53 -45 -145 -25 -183 38 l-19 34 -37 -40 c-49
-53 -102 -64 -137 -30 -30 30 -39 79 -55 294 -6 94 -15 179 -20 190 -6 17 -9
15 -24 -20z"/>
<path d="M8286 5924 c-19 -18 -20 -62 -6 -264 16 -217 24 -259 59 -294 24 -23
40 -30 85 -34 49 -4 59 -1 88 23 28 24 37 26 73 20 95 -17 106 -14 131 35 27
52 30 96 10 145 -14 32 -19 35 -55 35 -45 0 -81 -26 -126 -90 -32 -46 -70 -70
-110 -70 -41 0 -61 16 -80 62 -22 55 -53 374 -38 389 6 6 29 13 52 16 45 6 50
23 10 34 -42 12 -77 9 -93 -7z m385 -444 c20 -16 21 -19 7 -20 -25 0 -68 22
-62 31 9 15 30 10 55 -11z"/>
<path d="M9653 5860 c-80 -38 -113 -68 -113 -102 0 -10 2 -18 5 -18 3 0 42 19
88 41 55 27 91 53 105 73 40 58 28 59 -85 6z"/>
<path d="M4652 5834 c-82 -42 -128 -80 -137 -111 -9 -31 3 -29 85 12 81 41
140 90 140 116 0 26 -7 24 -88 -17z"/>
<path d="M7064 5811 c-76 -36 -124 -77 -124 -107 0 -22 18 -17 99 27 88 48
121 75 121 101 0 24 -2 23 -96 -21z"/>
<path d="M7216 5834 c-10 -27 -7 -139 10 -284 9 -77 13 -151 10 -165 -15 -59
-164 -96 -242 -59 -72 34 -91 88 -54 157 32 60 25 78 -14 36 -21 -23 -38 -54
-46 -87 -11 -49 -11 -55 18 -116 37 -80 63 -97 150 -104 83 -5 131 15 186 79
l36 43 0 200 c0 160 -3 212 -17 258 -18 60 -26 70 -37 42z"/>
<path d="M7898 5825 c-9 -20 -8 -67 6 -213 9 -103 20 -209 23 -237 l6 -50 13
31 c8 20 13 94 15 220 1 154 -2 196 -15 226 -21 48 -33 55 -48 23z"/>
<path d="M10416 5834 c-9 -25 -7 -89 9 -219 8 -66 15 -157 15 -202 0 -85 12
-106 30 -57 13 32 12 275 0 370 -13 100 -38 150 -54 108z"/>
<path d="M11104 5825 c-4 -15 1 -114 11 -220 10 -106 15 -204 12 -217 -9 -35
-99 -82 -157 -82 -80 1 -160 60 -160 119 0 9 9 34 21 56 11 22 19 48 17 57 -3
14 -9 11 -35 -14 -24 -24 -33 -42 -38 -85 -7 -58 6 -125 32 -165 23 -36 91
-64 154 -64 68 0 134 38 176 101 l28 43 0 190 c0 194 -10 271 -40 296 -11 10
-15 7 -21 -15z"/>
<path d="M11820 5831 c-5 -11 -10 -37 -10 -57 0 -46 40 -437 45 -442 2 -2 8
13 14 35 25 90 1 483 -30 483 -4 0 -13 -9 -19 -19z"/>
<path d="M4154 5825 c-7 -18 3 -35 22 -35 8 0 14 10 14 25 0 27 -27 35 -36 10z"/>
<path d="M4804 5804 c-4 -15 -1 -87 6 -160 12 -128 12 -135 -6 -155 -39 -43
-74 -53 -179 -54 -86 0 -105 3 -136 22 -54 34 -63 63 -33 106 25 38 30 57 14
57 -17 0 -49 -42 -66 -87 -16 -40 -16 -46 0 -88 21 -55 53 -81 124 -101 104
-31 213 -7 274 58 l27 29 23 -35 c49 -75 125 -85 158 -21 8 17 16 32 18 35 2
3 8 -4 14 -15 26 -46 56 -65 102 -65 57 0 96 15 121 46 l20 25 43 -36 42 -37
98 4 c149 5 190 36 199 150 6 76 -11 118 -60 148 -64 40 -107 14 -115 -68 -4
-44 -2 -51 23 -70 20 -16 42 -22 79 -23 l51 -1 -45 -20 c-65 -31 -197 -31
-237 -2 -15 11 -32 30 -38 42 -13 29 -26 28 -56 -4 -13 -14 -41 -35 -62 -45
-37 -19 -38 -19 -81 0 -38 16 -46 25 -59 67 -18 54 -33 142 -42 247 -6 65 -17
83 -29 51 -10 -26 -7 -150 6 -246 12 -90 12 -90 -13 -109 -33 -25 -51 -24 -81
9 -34 35 -55 113 -63 227 -8 110 -14 145 -26 145 -5 0 -12 -12 -15 -26z"/>
<path d="M10976 5795 c-44 -19 -88 -43 -99 -53 -20 -17 -41 -61 -33 -69 7 -7
140 64 175 92 32 28 58 65 44 65 -4 0 -44 -16 -87 -35z"/>
<path d="M8655 5779 c-81 -40 -125 -79 -125 -111 0 -10 3 -18 6 -18 3 0 46 21
95 46 84 44 119 77 119 114 0 15 -9 13 -95 -31z"/>
<path d="M9034 5776 c-89 -43 -124 -73 -124 -108 0 -28 19 -22 108 33 79 48
118 87 110 108 -1 6 -44 -9 -94 -33z"/>
<path d="M5552 5798 c-7 -7 -12 -18 -12 -25 0 -17 -2 -16 -45 4 -40 19 -48 14
-62 -36 -8 -31 6 -52 41 -64 23 -8 30 -6 43 13 13 18 21 20 55 15 30 -5 44 -3
59 11 28 25 23 50 -15 73 -39 24 -48 25 -64 9z"/>
<path d="M7659 5773 c-5 -16 -12 -34 -14 -40 -6 -16 33 -53 56 -53 19 0 59 45
59 66 0 15 -56 54 -78 54 -7 0 -17 -12 -23 -27z"/>
<path d="M11573 5763 c-15 -37 -15 -38 12 -60 37 -32 61 -29 74 8 14 40 15 34
-16 64 -37 34 -51 32 -70 -12z"/>
<path d="M10030 5748 c-23 -38 -19 -48 23 -48 l32 -1 -45 -39 c-40 -35 -42
-39 -22 -40 50 0 132 68 132 110 0 25 -37 50 -72 50 -21 0 -33 -8 -48 -32z"/>
<path d="M5250 5728 c-23 -38 -19 -48 21 -48 39 0 37 -14 -8 -42 l-38 -23 27
-3 c36 -4 65 12 88 51 36 59 21 97 -37 97 -27 0 -37 -6 -53 -32z"/>
<path d="M6035 5721 c-16 -32 -15 -35 29 -45 l30 -7 -42 -25 c-66 -39 -49 -60
23 -30 25 11 41 28 57 60 27 56 15 76 -43 76 -32 0 -41 -5 -54 -29z"/>
<path d="M7401 5654 c-27 -35 -26 -50 4 -70 32 -21 56 -15 75 19 14 27 14 29
-13 53 -35 30 -41 30 -66 -2z"/>
<path d="M11321 5654 c-27 -34 -26 -49 1 -68 30 -21 55 -20 68 3 16 31 12 59
-12 75 -30 21 -33 20 -57 -10z"/>
<path d="M6504 5650 c-18 -12 -37 -34 -44 -50 -7 -17 -28 -44 -47 -60 -27 -24
-43 -30 -81 -30 -44 0 -85 17 -104 44 -6 8 -11 7 -17 -2 -9 -15 -1 -69 19
-123 12 -33 11 -40 -9 -73 -79 -128 -321 -82 -321 61 0 17 9 52 20 78 30 69
26 85 -10 50 -41 -39 -54 -85 -47 -166 9 -102 34 -140 117 -178 63 -29 106
-26 167 9 57 33 104 92 124 158 12 42 13 42 59 42 37 0 55 6 83 29 l36 28 66
-15 c57 -14 67 -14 79 -1 22 23 36 78 36 140 0 47 -4 60 -19 69 -30 16 -73 12
-107 -10z m74 -98 c3 -10 -18 -8 -58 4 -12 4 -12 6 -1 14 16 9 53 -2 59 -18z"/>
<path d="M4596 5628 c-8 -13 -17 -38 -21 -55 l-7 -33 51 0 c70 0 64 -16 -10
-24 -70 -8 -89 -14 -89 -28 0 -7 33 -9 90 -6 97 4 130 21 130 63 0 26 -17 35
-63 35 -18 0 -43 3 -57 7 -24 7 -23 8 10 13 27 4 36 10 38 28 3 19 -1 22 -27
22 -21 0 -35 -7 -45 -22z"/>
<path d="M7708 5644 c-12 -11 -9 -82 4 -127 11 -35 10 -41 -7 -53 -43 -32
-214 -6 -239 35 -14 22 -26 10 -26 -27 0 -21 11 -61 25 -88 l25 -49 -32 -28
c-18 -15 -70 -46 -115 -69 -45 -22 -80 -45 -77 -49 13 -22 172 7 205 37 10 9
26 37 38 63 23 54 36 61 122 61 96 0 139 59 125 171 -8 60 -37 135 -48 123z"/>
<path d="M9608 5634 c-29 -15 -45 -52 -34 -79 4 -10 20 -15 51 -15 63 0 49
-16 -21 -25 -67 -8 -84 -14 -84 -27 0 -16 175 -5 195 12 10 8 15 25 13 44 -3
30 -4 31 -60 34 -57 3 -79 18 -35 24 14 2 23 11 25 26 4 26 -11 28 -50 6z"/>
<path d="M11615 5611 c-3 -15 -1 -49 6 -74 6 -26 9 -53 6 -61 -8 -21 -74 -37
-122 -29 -42 6 -109 36 -120 53 -3 5 -10 10 -16 10 -15 0 -10 -57 11 -118 l21
-57 -36 -32 c-20 -17 -67 -48 -106 -68 -38 -20 -69 -40 -69 -46 0 -13 45 -11
110 4 78 19 90 28 125 93 l32 59 80 5 c46 3 88 11 97 19 25 21 49 117 42 163
-8 50 -32 108 -45 108 -5 0 -12 -13 -16 -29z"/>
<path d="M8965 5556 c-25 -38 -30 -92 -11 -121 14 -21 25 -25 64 -26 l47 0
-35 -29 c-19 -16 -60 -44 -89 -62 -74 -44 -79 -63 -17 -55 129 18 195 106 172
230 -14 77 -97 116 -131 63z"/>
<path d="M6037 5461 c-20 -35 -15 -54 19 -70 39 -17 52 -13 70 21 16 31 16 32
-10 55 -36 31 -58 29 -79 -6z"/>
<path d="M6585 5377 c-53 -28 -87 -54 -103 -77 -15 -23 -19 -36 -12 -38 20 -7
157 68 194 106 67 66 36 70 -79 9z"/>
<path d="M10482 5290 c-78 -39 -122 -78 -122 -106 0 -21 14 -17 99 26 73 36
121 80 121 109 0 17 -12 14 -98 -29z"/>
<path d="M5029 5250 c-70 -36 -129 -87 -129 -111 0 -25 177 66 210 108 43 55
22 56 -81 3z"/>
<path d="M5251 5259 c-23 -37 -19 -52 15 -68 39 -17 49 -14 67 24 21 45 22 42
-13 60 -41 21 -48 19 -69 -16z"/>
<path d="M10076 5265 c-7 -28 -22 -31 -50 -10 -30 23 -46 18 -61 -19 -18 -41
-13 -59 22 -77 23 -12 27 -11 43 9 20 25 38 27 74 10 22 -9 29 -8 46 7 28 25
25 60 -6 84 -36 28 -60 27 -68 -4z"/>
<path d="M7433 5160 c-78 -38 -123 -77 -123 -106 0 -21 14 -17 88 21 77 39
103 59 127 98 24 37 9 35 -92 -13z"/>
<path d="M11333 5159 c-89 -46 -123 -74 -123 -101 0 -25 17 -23 89 13 69 34
131 88 131 113 0 23 -10 21 -97 -25z"/>
<path d="M9476 4534 c-11 -28 -7 -62 16 -139 21 -70 23 -74 35 -53 19 34 15
117 -7 166 -20 44 -34 53 -44 26z"/>
<path d="M5638 4418 c-4 -68 -10 -95 -22 -103 -26 -20 -19 -25 32 -25 63 0 92
21 92 66 0 33 -1 34 -40 34 l-40 0 0 60 c0 94 -17 70 -22 -32z m67 -78 c-3 -5
-13 -10 -21 -10 -8 0 -14 5 -14 10 0 6 9 10 21 10 11 0 17 -4 14 -10z"/>
<path d="M9732 4455 c-17 -37 -15 -45 13 -45 32 0 31 -7 -2 -42 l-27 -28 28 0
c38 0 96 60 96 100 0 31 -14 40 -64 40 -25 0 -35 -6 -44 -25z"/>
<path d="M9890 4404 c-24 -61 -2 -431 28 -494 40 -83 179 -95 246 -21 27 30
29 161 3 210 -29 52 -42 27 -28 -55 15 -82 6 -95 -67 -102 -63 -6 -107 16
-121 60 -15 49 -31 191 -31 285 0 89 12 113 55 113 13 0 26 4 29 9 8 12 -19
21 -65 21 -33 0 -41 -4 -49 -26z"/>
<path d="M6861 4406 c-20 -24 -31 -76 -21 -100 7 -20 3 -29 -26 -54 -35 -31
-44 -52 -21 -52 7 0 36 16 65 35 73 50 115 138 80 173 -16 16 -63 15 -77 -2z
m47 -64 c3 -9 -2 -13 -14 -10 -9 1 -19 9 -22 16 -3 9 2 13 14 10 9 -1 19 -9
22 -16z"/>
<path d="M8309 4379 c-17 -35 -19 -46 -9 -67 10 -22 7 -29 -21 -58 -18 -19
-30 -37 -26 -40 3 -3 26 4 51 16 112 54 155 190 61 190 -30 0 -37 -5 -56 -41z
m56 -20 c10 -14 1 -21 -19 -13 -9 3 -13 10 -10 15 7 12 21 11 29 -2z"/>
<path d="M7609 4343 c-6 -16 -12 -47 -13 -70 -2 -31 -9 -49 -29 -67 -55 -51
-15 -64 50 -17 72 52 102 105 89 156 -5 21 -12 25 -46 25 -35 0 -42 -4 -51
-27z m56 -32 c7 -12 -12 -24 -25 -16 -11 7 -4 25 10 25 5 0 11 -4 15 -9z"/>
<path d="M7123 4289 c-4 -16 -11 -19 -27 -14 -59 19 -65 18 -76 -10 -17 -44
-12 -65 18 -76 21 -9 33 -7 55 5 17 9 39 13 57 9 36 -7 80 19 80 46 0 21 -56
61 -85 61 -9 0 -19 -9 -22 -21z"/>
<path d="M8620 4281 c-18 -34 -12 -61 16 -71 38 -15 42 -13 60 22 16 31 16 32
-6 50 -29 23 -57 23 -70 -1z"/>
<path d="M8730 4274 c-18 -47 -5 -74 35 -74 44 0 61 52 27 83 -27 24 -51 21
-62 -9z"/>
<path d="M9462 4246 c4 -29 18 -62 44 -99 35 -50 41 -54 55 -41 23 21 34 18
64 -17 34 -42 62 -96 70 -142 12 -62 25 -41 25 40 0 66 -4 82 -26 114 -38 55
-197 189 -224 189 -9 0 -11 -12 -8 -44z"/>
<path d="M9764 4255 c-6 -35 2 -203 12 -257 8 -40 -58 -106 -156 -158 -116
-60 -104 -79 23 -40 53 16 73 29 105 65 48 54 59 96 67 240 5 88 3 118 -10
148 -19 46 -32 47 -41 2z"/>
<path d="M9260 4241 c-17 -33 -11 -58 17 -81 l28 -21 17 21 c24 30 23 52 -5
78 -29 27 -43 28 -57 3z"/>
<path d="M9002 4193 c-82 -46 -106 -70 -100 -98 2 -12 11 -11 46 5 68 31 148
88 160 115 18 38 -9 33 -106 -22z"/>
<path d="M6295 4194 c-74 -36 -105 -64 -105 -95 0 -25 3 -25 79 17 69 38 106
67 122 97 15 26 -15 21 -96 -19z"/>
<path d="M6605 4200 c-20 -38 -19 -40 8 -40 49 0 52 -17 6 -46 -43 -29 -43
-29 -15 -32 39 -5 75 23 98 74 24 56 13 74 -43 74 -33 0 -41 -5 -54 -30z"/>
<path d="M7390 4204 c-13 -32 -6 -44 26 -44 36 0 29 -14 -23 -49 -39 -25 -44
-31 -25 -31 30 0 84 23 100 43 20 24 32 83 19 96 -6 6 -28 11 -49 11 -32 0
-40 -4 -48 -26z"/>
<path d="M8000 4211 c-17 -33 -12 -51 15 -51 33 0 32 -10 -7 -42 l-33 -27 33
-1 c57 0 122 89 91 126 -18 22 -86 18 -99 -5z"/>
<path d="M10479 4195 c-61 -31 -119 -83 -119 -106 0 -15 18 -10 80 21 67 34
130 85 130 106 0 21 -18 17 -91 -21z"/>
<path d="M5566 4175 c-43 -19 -87 -42 -97 -51 -10 -9 -35 -58 -55 -109 l-37
-94 42 -103 41 -103 100 -42 100 -42 106 42 107 42 40 102 40 102 -38 101
c-21 55 -43 104 -49 109 -17 12 -194 81 -209 80 -6 0 -47 -16 -91 -34z m193
-23 l95 -37 38 -90 c21 -49 38 -94 38 -99 0 -6 -17 -52 -37 -103 l-37 -91 -91
-36 c-50 -20 -97 -36 -105 -36 -8 0 -53 16 -100 35 l-85 36 -38 95 -39 95 39
97 39 96 89 38 c50 20 92 37 95 37 3 0 48 -16 99 -37z"/>
<path d="M5575 4103 c-74 -39 -115 -104 -115 -184 0 -72 24 -115 86 -156 91
-61 178 -55 257 16 47 43 67 85 67 143 -1 86 -59 166 -138 188 -53 14 -122 12
-157 -7z m199 -37 c114 -87 95 -239 -38 -308 -50 -26 -108 -20 -170 16 -57 33
-77 63 -84 121 -9 84 38 160 118 194 14 6 50 9 82 8 43 -2 64 -10 92 -31z"/>
<path d="M5706 4005 c-13 -10 -24 -11 -36 -5 -13 7 -24 5 -41 -9 -19 -15 -24
-31 -27 -85 -3 -44 -1 -66 7 -66 6 0 11 18 11 43 0 23 5 49 10 57 8 13 11 12
24 -5 16 -20 16 -20 36 5 27 33 52 80 43 80 -5 0 -16 -7 -27 -15z"/>
<path d="M6835 4154 c-16 -25 -16 -27 1 -45 33 -32 65 -28 87 10 20 33 20 34
2 47 -31 23 -71 17 -90 -12z"/>
<path d="M8314 4135 c-8 -19 -21 -67 -29 -106 -8 -39 -18 -75 -21 -80 -3 -5
-22 -9 -43 -9 -28 0 -51 10 -92 40 -92 70 -116 64 -169 -40 -21 -42 -47 -69
-104 -114 -41 -32 -73 -63 -70 -67 14 -23 101 5 145 47 22 21 27 23 32 9 9
-22 56 -37 94 -30 18 3 47 18 64 32 31 26 37 27 183 31 175 5 202 13 212 67
11 61 -4 106 -50 150 -79 75 -115 105 -126 105 -6 0 -18 -16 -26 -35z m51
-109 c16 -12 17 -17 6 -45 -15 -35 -20 -37 -45 -18 -14 10 -17 21 -11 45 7 35
21 40 50 18z m90 -56 c18 -20 17 -20 -13 -20 -25 0 -32 4 -32 20 0 11 6 20 13
20 8 0 22 -9 32 -20z m-397 -50 c44 -27 42 -44 -4 -37 -47 8 -68 25 -53 43 15
18 18 18 57 -6z"/>
<path d="M7112 4149 c-40 -15 -58 -113 -26 -140 9 -8 40 -19 68 -25 l51 -11
-30 -12 c-16 -7 -67 -15 -112 -18 -78 -6 -84 -4 -118 21 -19 15 -35 34 -35 42
0 22 -14 17 -54 -21 -21 -19 -52 -37 -72 -41 -32 -6 -40 -3 -73 30 -57 56
-103 47 -117 -22 -11 -54 1 -77 52 -99 l46 -20 -43 -30 c-24 -17 -63 -40 -87
-52 -49 -25 -47 -41 5 -41 58 0 120 35 149 86 18 30 33 44 47 44 28 0 83 33
99 59 12 19 13 19 45 -9 42 -37 102 -53 167 -45 79 10 113 24 141 56 21 26 25
41 25 95 0 66 -16 120 -41 140 -21 17 -61 23 -87 13z"/>
<path d="M8617 4136 c-7 -16 2 -56 15 -73 6 -8 4 -35 -6 -77 -18 -72 -12 -104
26 -130 33 -23 72 -20 107 10 28 23 31 32 31 80 0 31 -5 75 -11 99 -9 36 -8
47 6 69 24 36 13 43 -31 17 l-36 -22 -35 21 c-40 24 -59 25 -66 6z m107 -141
c41 -38 35 -57 -16 -53 -36 3 -44 7 -46 26 -3 22 13 52 28 52 4 0 19 -11 34
-25z"/>
<path d="M7618 4098 c-3 -18 1 -52 10 -76 13 -39 13 -45 -1 -59 -9 -9 -38 -18
-66 -21 -47 -4 -52 -2 -84 32 -55 58 -109 45 -123 -29 -9 -48 12 -75 70 -95
l47 -15 -90 -54 c-50 -30 -88 -58 -85 -62 9 -15 74 -10 111 8 19 9 47 35 61
57 14 23 27 43 29 45 2 2 28 8 59 12 69 9 90 28 110 96 17 58 12 117 -12 166
-19 36 -31 34 -36 -5z"/>
<path d="M9157 4078 c-22 -18 -40 -69 -28 -81 6 -6 13 -1 20 12 15 27 72 28
121 2 l35 -19 -59 -17 c-74 -22 -158 -17 -214 13 -24 12 -47 22 -52 22 -18 0
-10 -54 14 -107 l25 -52 -35 -31 c-19 -16 -66 -46 -104 -65 -83 -42 -91 -61
-24 -51 119 16 165 43 188 111 l14 40 69 7 c37 4 129 22 203 40 l134 34 15 38
c17 44 8 55 -44 56 -16 0 -68 14 -115 30 -91 32 -137 37 -163 18z"/>
<path d="M6418 4044 c-14 -13 -9 -59 12 -119 11 -32 18 -67 15 -76 -4 -10 -32
-34 -63 -54 -49 -31 -63 -36 -103 -32 -89 8 -169 72 -169 137 0 15 11 48 25
74 29 55 29 56 12 56 -18 0 -63 -84 -72 -132 -4 -23 -1 -56 9 -91 36 -124 160
-171 286 -107 79 40 107 101 97 209 -5 62 -37 148 -49 135z"/>
<path d="M10426 4001 c-10 -11 -20 -37 -23 -58 -6 -48 18 -82 66 -92 l34 -6
-65 -43 c-66 -43 -105 -78 -97 -87 10 -9 130 23 150 41 54 49 76 153 44 214
-26 51 -78 65 -109 31z"/>
<path d="M6253 3978 c-35 -44 -34 -56 3 -85 l36 -27 24 27 c30 35 30 54 2 78
-27 21 -51 24 -65 7z"/>
<path d="M7172 3811 c-77 -41 -101 -64 -102 -94 0 -14 5 -17 23 -12 68 21 187
106 187 134 0 20 -34 11 -108 -28z"/>
<path d="M9371 3814 c-48 -24 -79 -47 -92 -68 -16 -26 -17 -31 -4 -34 41 -9
195 90 195 125 0 21 -22 16 -99 -23z"/>
<path d="M8729 3795 c-46 -23 -74 -46 -89 -70 -12 -20 -20 -39 -17 -42 8 -8
142 67 177 99 63 57 27 63 -71 13z"/>
<path d="M7628 3795 c-8 -18 -16 -24 -27 -19 -52 22 -73 13 -86 -37 -7 -29 6
-44 47 -54 23 -6 29 -3 40 20 8 19 17 25 30 21 10 -3 26 -9 37 -12 13 -4 25 3
41 26 l23 32 -29 24 c-38 30 -62 30 -76 -1z"/>
<path d="M10052 3774 c-10 -34 -9 -36 21 -55 40 -24 43 -24 61 3 21 30 20 43
-6 68 -35 32 -63 26 -76 -16z"/>
<path d="M10138 3682 c-56 -28 -77 -45 -90 -72 -10 -19 -14 -36 -8 -38 14 -5
146 67 175 95 28 28 33 53 11 53 -8 0 -48 -17 -88 -38z"/>
<path d="M7893 983 c4 -98 3 -183 -1 -189 -17 -26 -76 -46 -119 -41 -81 9
-114 67 -78 137 20 38 3 48 -24 14 -45 -57 -35 -150 22 -208 25 -26 33 -28 82
-24 60 5 113 38 145 91 34 56 14 397 -24 397 -6 0 -7 -67 -3 -177z"/>
<path d="M8170 1045 c-23 -24 -23 -25 -5 -45 26 -29 51 -25 65 10 10 24 10 33
0 45 -18 21 -33 19 -60 -10z"/>
<path d="M7435 993 c-27 -57 -10 -241 20 -211 24 23 28 248 5 248 -4 0 -16
-17 -25 -37z"/>
<path d="M8024 1005 c-16 -24 -16 -27 1 -45 24 -27 41 -25 62 6 16 26 16 27
-6 45 -30 25 -37 24 -57 -6z"/>
<path d="M8175 917 c-22 -52 -40 -63 -78 -48 -66 26 -67 26 -67 -10 0 -20 9
-42 22 -56 30 -32 19 -48 -66 -96 -36 -21 -64 -43 -60 -48 9 -15 67 -10 112
11 34 15 47 29 59 60 9 22 24 42 33 45 10 3 25 14 35 25 17 19 18 19 39 -13
26 -38 81 -77 109 -77 12 0 38 12 58 26 33 23 41 24 77 15 22 -6 46 -9 55 -6
19 8 36 47 44 100 5 37 2 44 -22 63 -15 12 -32 22 -38 22 -6 0 -40 -30 -76
-66 -60 -62 -67 -66 -99 -60 -47 7 -88 48 -101 102 -6 24 -14 44 -17 44 -3 0
-11 -15 -19 -33z m315 -87 c0 -5 -4 -10 -9 -10 -6 0 -13 5 -16 10 -3 6 1 10 9
10 9 0 16 -4 16 -10z"/>
</g>
</svg>
