<?xml version="1.0" standalone="no"?>
<!DOCTYPE svg PUBLIC "-//W3C//DTD SVG 20010904//EN"
 "http://www.w3.org/TR/2001/REC-SVG-20010904/DTD/svg10.dtd">
<svg version="1.0" xmlns="http://www.w3.org/2000/svg"
 width="1211.000000pt" height="1777.000000pt" viewBox="0 0 1211.000000 1777.000000"
 preserveAspectRatio="xMidYMid meet">
<metadata>
Created by potrace 1.16, written by Peter Selinger 2001-2019
</metadata>
<g transform="translate(0.000000,1777.000000) scale(0.100000,-0.100000)"
fill="#000000" stroke="none">
<path d="M5209 13784 c-7 -9 -12 -29 -11 -44 1 -17 -4 -30 -13 -34 -8 -3 -15
-10 -15 -16 0 -20 60 20 75 51 13 24 14 34 4 45 -15 18 -23 18 -40 -2z m22
-21 c13 -16 12 -17 -3 -4 -17 13 -22 21 -14 21 2 0 10 -8 17 -17z"/>
<path d="M7060 13774 c-6 -14 -10 -33 -10 -43 0 -10 -7 -24 -15 -31 -31 -25
-5 -22 29 4 40 30 53 60 36 81 -18 22 -29 18 -40 -11z m30 -8 c0 -3 -4 -8 -10
-11 -5 -3 -10 -1 -10 4 0 6 5 11 10 11 6 0 10 -2 10 -4z"/>
<path d="M6799 13741 c-23 -18 -23 -20 -12 -136 12 -129 27 -163 76 -176 15
-4 41 -22 57 -39 40 -43 66 -36 84 23 3 11 15 17 33 17 51 0 73 25 73 80 0 27
-5 52 -11 55 -18 12 -23 -4 -10 -31 16 -36 4 -46 -60 -52 l-52 -5 7 27 c16 64
-30 92 -59 37 -21 -41 -53 -63 -76 -50 -21 11 -34 56 -43 145 -8 70 -1 93 27
103 17 7 18 9 4 14 -9 3 -26 -2 -38 -12z m171 -230 c0 -9 -24 -21 -42 -21 -6
0 -6 6 2 15 14 16 40 20 40 6z m-4 -85 c10 -8 16 -17 12 -21 -7 -7 -48 16 -48
27 0 12 14 9 36 -6z"/>
<path d="M7416 13744 c-3 -9 -3 -34 0 -56 8 -48 24 -32 24 24 0 39 -14 58 -24
32z"/>
<path d="M4598 13726 c-13 -30 3 -231 22 -266 6 -12 28 -28 48 -37 20 -8 49
-28 64 -44 36 -39 60 -37 81 6 10 22 24 35 36 35 40 0 151 41 161 60 15 28 13
29 -20 20 -33 -10 -82 0 -88 18 -4 14 45 35 65 28 7 -3 13 -1 13 5 0 13 -41
28 -60 21 -32 -11 -50 -36 -50 -69 0 -32 -1 -33 -39 -33 l-39 0 5 40 c5 32 2
41 -12 46 -13 5 -29 -6 -61 -40 -37 -41 -46 -46 -63 -36 -24 13 -38 59 -47
163 -7 74 -6 78 14 84 12 3 19 9 16 14 -10 17 -34 9 -46 -15z m177 -236 c4 -6
-5 -10 -20 -10 -15 0 -24 4 -20 10 3 6 12 10 20 10 8 0 17 -4 20 -10z m-4 -70
c28 -16 23 -32 -6 -18 -14 6 -25 15 -25 20 0 11 7 10 31 -2z"/>
<path d="M7164 13726 c-11 -44 14 -239 35 -266 23 -32 70 -38 101 -12 26 21
32 84 11 118 -10 16 -11 12 -9 -25 3 -40 1 -45 -25 -53 -44 -15 -74 10 -81 69
-20 170 -20 181 5 186 22 4 22 4 -3 6 -21 1 -29 -4 -34 -23z"/>
<path d="M4917 13734 c-12 -12 -8 -22 11 -27 13 -4 11 -5 -5 -6 -16 -1 -23 -7
-23 -20 0 -11 -3 -27 -7 -36 -5 -15 -3 -16 15 -6 34 18 58 60 46 79 -12 19
-28 25 -37 16z"/>
<path d="M5284 13709 c-64 -40 -104 -79 -104 -100 0 -9 7 -33 15 -52 21 -51
19 -66 -11 -78 -21 -7 -35 -5 -64 10 -28 14 -41 16 -49 8 -19 -19 -12 -44 16
-65 l27 -19 -42 -28 c-24 -15 -40 -30 -38 -33 10 -9 69 18 94 44 15 14 43 36
62 48 31 20 35 27 33 63 -1 23 -9 55 -17 71 l-16 31 57 35 c32 20 61 36 65 36
4 0 14 14 23 30 20 38 11 38 -51 -1z"/>
<path d="M7295 13703 c-30 -16 -45 -31 -45 -46 0 -11 74 28 89 47 18 22 -3 21
-44 -1z"/>
<path d="M7375 13690 c-8 -13 1 -152 14 -210 l8 -35 7 34 c5 18 5 70 1 115 -7
86 -17 118 -30 96z"/>
<path d="M4768 13670 c-39 -21 -54 -37 -44 -48 10 -9 76 29 87 50 12 23 4 22
-43 -2z"/>
<path d="M6928 13661 c-48 -31 -67 -51 -47 -51 19 0 78 40 89 61 14 25 12 24
-42 -10z"/>
<path d="M5073 13654 c-3 -9 0 -20 7 -24 11 -7 11 -12 -1 -26 -12 -15 -12 -17
0 -12 22 7 54 54 47 67 -11 17 -46 13 -53 -5z"/>
<path d="M7086 13654 c-8 -21 1 -34 23 -34 27 0 33 12 14 32 -20 22 -29 23
-37 2z"/>
<path d="M5310 13631 c-5 -11 -10 -28 -10 -38 0 -10 -7 -29 -16 -41 -19 -28
-5 -28 30 -1 35 27 51 66 35 85 -16 19 -26 18 -39 -5z"/>
<path d="M7034 13635 c-4 -8 0 -22 7 -31 12 -14 14 -14 26 2 9 13 10 21 2 31
-15 17 -28 17 -35 -2z"/>
<path d="M5327 13463 l5 -51 -48 -31 -49 -31 36 0 c24 0 42 7 56 23 31 33 34
58 13 102 l-19 40 6 -52z"/>
<path d="M7306 13405 c-4 -11 -13 -14 -29 -10 -18 5 -26 2 -31 -11 -11 -29 8
-37 51 -23 51 18 59 25 43 44 -16 19 -26 19 -34 0z"/>
<path d="M4966 13164 c-8 -21 -8 -103 0 -144 11 -54 24 -13 24 78 0 76 -10
103 -24 66z"/>
<path d="M7094 13110 c-64 -76 -81 -106 -70 -118 12 -11 142 -5 166 8 11 6 20
18 20 27 0 13 -10 15 -70 9 -44 -5 -70 -4 -70 3 0 5 20 33 45 62 38 45 56 79
41 79 -2 0 -30 -32 -62 -70z"/>
<path d="M4775 12620 c-12 -23 -13 -35 -5 -50 6 -11 15 -18 21 -15 12 8 12 32
-2 37 -7 2 -7 12 0 31 14 36 5 34 -14 -3z"/>
<path d="M4844 12642 c-19 -12 -34 -50 -27 -68 4 -12 -3 -25 -23 -41 -28 -24
-28 -24 -4 -18 50 15 77 35 90 66 18 42 -6 82 -36 61z m16 -43 c0 -6 -4 -7
-10 -4 -5 3 -10 11 -10 16 0 6 5 7 10 4 6 -3 10 -11 10 -16z"/>
<path d="M6530 12561 c-13 -26 -13 -31 5 -31 19 0 19 -9 -2 -32 -15 -17 -15
-18 1 -18 23 0 66 45 66 68 0 35 -53 44 -70 13z"/>
<path d="M5240 12535 c-1 -29 -1 -29 -16 -10 -11 14 -18 16 -21 8 -7 -18 -23
-16 -23 3 0 8 -4 12 -10 9 -15 -9 -12 -31 6 -49 19 -20 44 -20 68 -3 16 12 17
18 8 43 l-10 29 -2 -30z"/>
<path d="M5055 12533 c-34 -18 -85 -63 -85 -75 0 -11 80 29 108 55 39 36 28
47 -23 20z"/>
<path d="M6400 12539 c-32 -13 -90 -57 -90 -70 0 -17 21 -9 76 27 67 45 75 67
14 43z"/>
<path d="M6800 12535 c-8 -9 -13 -33 -13 -53 1 -23 -5 -41 -15 -48 -32 -23 -5
-24 29 -1 45 30 68 71 53 94 -15 24 -38 27 -54 8z m30 -36 c0 -6 -4 -7 -10 -4
-5 3 -10 11 -10 16 0 6 5 7 10 4 6 -3 10 -11 10 -16z"/>
<path d="M5263 12460 c-51 -33 -98 -70 -104 -82 -11 -20 -9 -56 7 -140 6 -33
4 -38 -19 -49 -31 -14 -72 -5 -94 21 -17 19 -17 19 -39 -1 -11 -11 -37 -22
-57 -26 -30 -4 -37 -2 -52 20 -9 14 -21 54 -27 90 l-11 65 -53 -52 c-95 -95
-84 -158 23 -127 28 8 32 7 37 -13 12 -47 89 -60 126 -21 l23 24 16 -20 c11
-14 33 -23 63 -26 39 -5 47 -2 62 18 9 13 16 31 16 41 0 26 8 23 56 -22 48
-44 77 -50 126 -24 22 11 43 14 74 9 38 -5 45 -3 58 17 38 58 28 128 -18 128
-17 0 -37 -16 -66 -50 -52 -63 -80 -71 -137 -40 -44 23 -103 98 -103 131 0 10
31 39 78 72 84 60 116 90 110 107 -2 6 -45 -17 -95 -50z m-415 -197 c-2 -21
-9 -29 -27 -31 -38 -6 -46 13 -15 37 36 28 46 27 42 -6z m630 -51 c2 -7 -2
-10 -12 -6 -9 3 -16 11 -16 16 0 13 23 5 28 -10z"/>
<path d="M6189 12493 c-12 -30 -5 -189 12 -277 16 -85 27 -90 189 -94 l139 -3
18 27 c15 24 18 48 17 152 -1 74 -5 127 -12 134 -18 18 -23 -29 -14 -132 6
-60 5 -100 -1 -107 -5 -7 -27 -13 -48 -13 -38 0 -39 1 -39 36 0 70 -39 105
-90 79 -27 -14 -30 -20 -30 -67 l0 -51 -37 6 c-21 4 -43 14 -50 23 -21 28 -34
117 -31 205 3 78 4 84 26 87 33 5 27 22 -8 22 -24 0 -33 -6 -41 -27z m227
-264 c3 -6 2 -15 -3 -20 -13 -13 -43 -1 -43 17 0 16 36 19 46 3z"/>
<path d="M4838 12464 c-12 -13 -20 -14 -36 -5 -18 9 -23 8 -32 -8 -5 -11 -10
-24 -10 -30 0 -16 40 -24 55 -11 8 6 22 10 32 8 40 -6 59 33 25 51 -14 7 -23
6 -34 -5z"/>
<path d="M5661 12466 c-8 -9 -26 -15 -45 -13 -27 2 -31 -1 -31 -23 0 -29 33
-41 47 -16 6 11 14 13 33 6 17 -7 27 -5 36 6 10 12 9 19 -8 35 -17 18 -21 18
-32 5z"/>
<path d="M6625 12439 c-3 -8 -1 -55 5 -105 5 -49 10 -118 10 -153 0 -89 20
-67 27 30 8 117 -22 281 -42 228z"/>
<path d="M7331 12424 c-14 -18 -18 -34 -15 -54 5 -22 1 -31 -15 -39 -12 -7
-21 -16 -21 -22 0 -14 59 19 86 48 26 28 31 62 12 81 -17 17 -24 15 -47 -14z
m29 -19 c0 -8 -4 -15 -10 -15 -5 0 -10 7 -10 15 0 8 5 15 10 15 6 0 10 -7 10
-15z"/>
<path d="M5031 12424 c-1 -29 -11 -36 -29 -21 -13 10 -15 9 -9 -6 4 -10 7 -23
7 -28 0 -11 70 -1 84 11 4 5 4 21 -2 37 -9 25 -11 25 -11 6 -1 -13 -5 -23 -9
-23 -5 0 -14 10 -20 23 -10 21 -11 21 -11 1z"/>
<path d="M5914 12419 c-46 -22 -81 -55 -70 -66 12 -13 126 57 126 78 0 13 -10
11 -56 -12z"/>
<path d="M5456 12402 c-27 -15 -56 -38 -65 -51 l-15 -23 39 20 c44 23 116 81
100 81 -5 0 -32 -12 -59 -27z"/>
<path d="M6356 12388 c-18 -25 -6 -48 25 -48 24 0 43 34 26 47 -28 22 -36 22
-51 1z"/>
<path d="M4371 12349 c-64 -88 -64 -150 0 -223 46 -52 72 -63 35 -13 -39 51
-51 108 -38 168 7 28 21 64 33 80 11 16 16 29 10 29 -6 0 -24 -18 -40 -41z"/>
<path d="M4630 12385 c0 -3 9 -24 20 -45 44 -86 35 -176 -23 -237 -17 -18 -27
-33 -22 -33 18 0 76 52 91 83 24 46 22 126 -5 174 -20 34 -61 74 -61 58z"/>
<path d="M6124 12375 c-4 -9 -19 -15 -40 -15 -41 0 -57 -26 -29 -46 15 -11 21
-11 39 1 11 8 33 15 48 15 30 0 39 25 16 48 -16 16 -27 15 -34 -3z"/>
<path d="M7516 12345 c-59 -78 -58 -142 5 -218 35 -43 60 -50 31 -9 -47 67
-50 132 -11 221 11 24 17 46 15 48 -2 3 -20 -17 -40 -42z"/>
<path d="M7738 12363 c49 -71 52 -152 7 -230 -30 -53 -17 -56 25 -5 61 74 61
150 0 225 -36 43 -61 51 -32 10z"/>
<path d="M6762 12368 c-25 -25 -8 -58 28 -58 15 0 22 40 10 55 -15 18 -22 19
-38 3z"/>
<path d="M6834 12366 c-10 -26 0 -51 21 -51 28 0 32 40 5 55 -16 9 -21 8 -26
-4z"/>
<path d="M7122 12368 c-17 -17 -15 -38 3 -38 19 0 19 -9 -2 -32 -25 -28 4 -22
32 7 14 13 25 30 25 38 0 16 -20 37 -35 37 -6 0 -16 -5 -23 -12z"/>
<path d="M6995 12333 c-48 -24 -65 -39 -65 -55 0 -5 5 -8 10 -8 15 0 120 71
120 81 0 13 -10 10 -65 -18z"/>
<path d="M5628 12298 c-59 -55 -82 -103 -57 -120 8 -5 34 -6 58 -3 38 4 48 1
78 -25 42 -37 76 -38 177 -6 l75 24 3 -21 c4 -31 45 -49 102 -44 70 6 98 51
80 126 -12 49 -30 40 -26 -13 4 -48 -7 -56 -79 -56 -46 0 -52 7 -32 36 9 14
14 27 11 29 -2 3 -44 16 -94 30 l-89 26 -22 -26 c-25 -28 -29 -45 -13 -45 6 0
10 4 10 9 0 16 29 21 58 10 25 -10 26 -11 9 -24 -22 -16 -108 -29 -135 -21
-26 9 -41 41 -50 109 l-7 57 -57 -52z m40 -44 c-4 -21 -30 -29 -56 -19 -15 6
-13 10 13 30 31 25 49 20 43 -11z"/>
<path d="M4492 12295 c-32 -36 -55 -101 -50 -138 2 -18 11 -23 52 -28 59 -6
81 10 92 67 7 39 -11 88 -46 119 -16 14 -20 13 -48 -20z m48 -47 c21 -35 27
-78 11 -78 -6 0 -13 5 -16 11 -4 6 -19 7 -35 4 -38 -8 -46 9 -25 56 22 48 39
49 65 7z"/>
<path d="M7643 12313 c-14 -24 -16 -127 -3 -158 7 -19 8 -18 14 5 4 14 6 59 4
100 -3 66 -5 72 -15 53z"/>
<path d="M6764 12232 c3 -24 1 -61 -6 -88 -12 -44 -11 -47 11 -65 31 -25 47
-24 76 6 27 26 34 89 14 126 -8 16 -7 25 8 41 18 21 18 21 -12 13 -35 -9 -42
-9 -74 1 -23 7 -24 6 -17 -34z m69 -70 c25 -22 21 -32 -13 -32 -32 0 -47 18
-36 46 6 16 17 13 49 -14z"/>
<path d="M7432 12216 c-12 -27 -36 -27 -46 0 -8 20 -24 17 -31 -6 -6 -19 -55
-30 -55 -12 0 4 -4 13 -9 20 -6 11 -14 8 -34 -12 -33 -32 -47 -33 -77 -1 -30
32 -57 32 -71 1 -16 -35 -4 -70 28 -85 l28 -13 -27 -21 c-15 -12 -37 -30 -50
-39 l-23 -17 28 -1 c38 0 64 15 87 52 10 17 36 38 57 48 35 16 42 16 67 3 25
-13 30 -13 46 2 12 10 26 14 39 10 42 -13 85 42 63 81 -7 12 -10 10 -20 -10z"/>
<path d="M6980 12210 c0 -11 6 -36 14 -55 14 -33 14 -35 -13 -57 -15 -13 -44
-32 -64 -43 -46 -24 -47 -35 -4 -35 33 0 71 20 95 48 16 21 15 85 -2 127 -17
39 -26 45 -26 15z"/>
<path d="M5239 12075 c-53 -28 -75 -50 -59 -60 14 -9 97 40 110 65 14 25 6 25
-51 -5z"/>
<path d="M5040 12075 c-7 -8 -26 -14 -44 -12 -25 2 -32 -2 -34 -19 -2 -11 4
-27 13 -34 13 -11 18 -10 33 3 11 10 22 13 32 7 19 -12 50 6 50 30 0 27 -34
44 -50 25z"/>
<path d="M5630 12058 c-53 -33 -74 -58 -48 -58 18 0 111 62 116 78 6 19 -10
14 -68 -20z"/>
<path d="M6130 12050 c-47 -25 -87 -63 -71 -68 15 -5 107 54 115 73 7 19 -1
18 -44 -5z"/>
<path d="M7336 11674 c-7 -19 3 -112 15 -134 8 -15 11 -7 23 68 9 54 -22 108
-38 66z"/>
<path d="M5906 11534 c-8 -20 15 -154 25 -154 13 0 22 107 12 136 -11 33 -28
41 -37 18z"/>
<path d="M4970 11505 c-66 -34 -120 -76 -120 -95 0 -14 6 -13 43 7 86 44 160
104 145 118 -2 2 -32 -12 -68 -30z"/>
<path d="M6186 11515 c-21 -32 -20 -35 9 -35 33 0 32 -19 -2 -47 -19 -15 -23
-22 -13 -23 22 0 55 25 81 61 20 29 20 31 4 50 -25 26 -59 24 -79 -6z"/>
<path d="M3496 11477 c-77 -31 -81 -34 -107 -87 -55 -111 -56 -119 -18 -210
37 -89 40 -92 150 -130 l66 -24 80 33 81 32 36 79 c20 44 36 86 36 93 0 22
-59 160 -75 176 -12 12 -153 72 -165 70 -3 0 -41 -15 -84 -32z m239 -49 c14
-26 65 -155 65 -167 0 -9 -17 -47 -38 -85 -36 -66 -39 -69 -108 -98 l-72 -29
-76 32 c-42 17 -80 37 -84 43 -5 6 -21 40 -36 76 l-28 65 33 81 32 81 76 30
76 30 79 -28 c43 -16 80 -30 81 -31z"/>
<path d="M3494 11411 c-61 -35 -79 -71 -79 -153 1 -70 22 -103 86 -136 118
-62 249 17 249 150 0 62 -28 108 -86 140 -64 36 -106 35 -170 -1z m153 -16
c112 -56 112 -205 0 -255 -53 -24 -81 -25 -133 -1 -58 27 -74 53 -74 127 0 73
21 106 84 135 53 24 63 24 123 -6z"/>
<path d="M3570 11271 c0 -34 4 -61 10 -61 6 0 10 24 10 54 0 30 -4 58 -10 61
-6 4 -10 -17 -10 -54z"/>
<path d="M5137 11490 c-3 -12 -1 -61 4 -108 5 -48 9 -111 9 -139 0 -48 -2 -53
-26 -59 -34 -9 -107 2 -145 22 l-31 16 5 -39 c2 -21 10 -52 18 -70 17 -41 8
-52 -82 -101 -38 -20 -69 -41 -69 -46 0 -11 88 3 121 20 15 7 39 34 53 59 25
42 30 45 67 45 81 0 108 38 116 168 8 131 -22 302 -40 232z"/>
<path d="M5253 11494 c-8 -22 22 -382 33 -393 14 -15 19 29 19 162 0 104 -5
167 -15 200 -15 49 -26 58 -37 31z"/>
<path d="M6575 11486 c-63 -29 -118 -79 -93 -84 18 -3 112 40 141 66 17 15 23
42 10 42 -5 0 -30 -11 -58 -24z"/>
<path d="M6746 11486 c-3 -14 -2 -66 4 -118 5 -51 10 -112 10 -135 0 -38 -3
-43 -27 -49 -37 -10 -135 12 -150 32 -12 16 -13 16 -19 1 -8 -23 3 -65 28 -99
20 -28 20 -30 2 -50 -11 -11 -40 -31 -67 -44 -26 -14 -62 -34 -80 -45 l-32
-21 60 7 c81 9 112 27 137 80 20 41 25 45 60 45 55 0 85 18 107 64 17 36 19
58 16 171 -4 120 -16 185 -35 185 -4 0 -11 -11 -14 -24z"/>
<path d="M6866 11493 c-8 -20 23 -375 34 -387 25 -26 24 280 -1 363 -13 44
-23 51 -33 24z"/>
<path d="M7585 11487 c-6 -23 22 -377 31 -386 14 -14 19 28 19 167 -1 149 -12
223 -35 237 -5 3 -12 -5 -15 -18z"/>
<path d="M7296 11474 c-10 -25 -7 -59 6 -72 13 -13 75 -16 102 -6 24 9 19 94
-6 94 -5 0 -8 -12 -6 -27 2 -16 -1 -29 -7 -31 -5 -1 -11 9 -13 23 -4 33 -32
33 -32 0 0 -14 -4 -25 -10 -25 -5 0 -10 14 -10 30 0 32 -14 40 -24 14z"/>
<path d="M4305 11410 c-20 -38 -19 -40 10 -40 32 0 32 -9 -2 -37 -21 -17 -24
-22 -11 -23 20 0 74 44 90 73 9 17 7 24 -12 39 -32 26 -57 22 -75 -12z"/>
<path d="M8326 11398 c-21 -29 -20 -38 3 -38 33 0 34 -19 2 -38 -32 -18 -40
-32 -18 -32 49 0 113 84 87 115 -18 22 -57 18 -74 -7z"/>
<path d="M4977 11373 l-3 -38 -14 33 c-8 17 -18 32 -22 32 -4 0 -8 -15 -10
-32 -4 -38 -22 -40 -26 -3 -4 33 -22 22 -22 -13 0 -45 12 -54 59 -46 44 7 61
25 61 68 0 41 -18 40 -23 -1z"/>
<path d="M6594 11360 c7 -38 -10 -40 -27 -3 l-12 27 -5 -30 c-6 -35 -20 -36
-38 -3 -12 23 -12 22 -10 -16 l3 -40 45 2 c25 1 48 2 52 2 12 2 19 39 12 65
-9 37 -28 33 -20 -4z"/>
<path d="M7192 11356 c-6 -13 -36 -43 -68 -67 -79 -61 -101 -91 -88 -126 9
-27 12 -28 86 -28 70 0 79 -2 105 -27 42 -40 97 -39 118 2 9 17 18 30 21 30 3
0 17 -13 31 -30 32 -38 57 -38 95 1 30 30 31 32 24 100 -3 38 -12 84 -20 102
l-13 32 -7 -25 c-4 -14 -2 -46 3 -70 17 -74 15 -90 -15 -90 -44 0 -62 17 -73
70 -6 28 -11 68 -11 88 -1 68 -23 5 -24 -67 -1 -61 -3 -66 -31 -83 -30 -17
-32 -17 -61 1 -35 21 -44 51 -44 142 0 63 -11 81 -28 45z m-2 -106 c0 -34 -8
-39 -64 -43 -52 -3 -56 16 -9 47 52 36 73 34 73 -4z"/>
<path d="M6079 11324 c-9 -11 -20 -30 -24 -44 l-7 -25 25 23 c23 22 28 22 68
12 119 -32 96 -50 -62 -50 -115 0 -117 0 -134 26 l-17 27 -23 -29 c-20 -25
-29 -28 -77 -28 -35 0 -64 6 -81 17 -27 17 -27 17 -27 -9 0 -14 8 -48 17 -74
16 -44 16 -50 1 -72 -22 -34 -84 -62 -133 -62 -31 1 -124 35 -125 47 0 1 -7
20 -14 42 -13 37 -12 43 11 88 26 52 25 69 -3 46 -47 -39 -57 -139 -21 -209
31 -62 76 -90 144 -90 52 0 56 2 106 53 34 33 57 67 65 94 12 40 14 42 52 40
29 -1 46 5 65 23 25 24 27 23 29 -19 1 -13 13 -33 29 -45 l29 -21 22 28 c13
16 31 27 47 27 21 0 85 15 261 61 27 7 43 19 54 40 8 17 14 32 12 33 -12 9
-198 60 -232 63 -31 4 -45 1 -57 -13z"/>
<path d="M8626 11306 c-4 -16 -2 -50 5 -77 7 -27 9 -52 5 -56 -4 -5 -37 -8
-73 -8 -53 0 -67 4 -79 20 -15 20 -16 20 -35 -7 -24 -33 -51 -36 -79 -8 l-21
21 -29 -25 c-36 -30 -69 -24 -83 15 l-11 27 -29 -22 c-21 -16 -43 -21 -86 -21
-50 0 -64 5 -112 38 -30 20 -59 37 -65 37 -26 0 -62 -42 -73 -84 -10 -40 -19
-50 -81 -93 -73 -50 -83 -63 -49 -63 26 0 57 16 91 48 25 23 29 24 45 10 39
-33 61 -39 95 -25 18 8 39 21 47 30 10 13 30 17 75 17 45 0 67 6 86 20 31 25
36 25 43 0 7 -27 51 -35 96 -18 32 13 41 13 56 2 25 -19 29 -18 62 10 29 24
29 24 53 5 17 -12 42 -19 74 -19 42 0 52 4 83 35 35 35 36 37 30 95 -4 33 -13
74 -20 92 l-14 33 -7 -29z m-675 -162 c33 -17 34 -37 2 -42 -25 -4 -69 31 -59
46 10 16 21 15 57 -4z"/>
<path d="M4482 11273 c-14 -5 -42 -55 -42 -74 0 -7 11 -2 24 10 25 23 25 23
81 6 31 -10 52 -22 48 -26 -4 -4 -41 -13 -81 -19 -84 -13 -133 -2 -158 36
l-16 24 -19 -24 c-24 -31 -81 -50 -125 -43 -19 3 -62 23 -96 43 -73 45 -80 42
-126 -44 -25 -47 -47 -72 -93 -104 -60 -42 -72 -58 -44 -58 21 0 88 35 104 54
12 14 16 14 38 -4 35 -27 82 -25 123 5 28 20 45 25 96 25 57 0 64 3 87 30 14
17 28 30 31 30 4 0 25 -13 48 -30 54 -39 89 -39 251 2 115 29 130 35 143 60 8
15 14 29 14 31 0 2 -25 9 -56 16 -31 7 -88 24 -127 37 -72 25 -82 26 -105 17z
m-413 -134 c39 -24 36 -31 -14 -31 -39 0 -72 22 -61 41 11 17 37 13 75 -10z"/>
<path d="M5583 11184 c-16 -25 -16 -27 2 -41 25 -18 44 -14 62 14 14 20 13 23
-16 37 -30 16 -31 15 -48 -10z"/>
<path d="M7112 11059 c-59 -29 -103 -72 -88 -87 10 -10 84 32 136 78 54 47 38
50 -48 9z"/>
<path d="M4614 11034 c-84 -51 -117 -84 -82 -84 21 0 158 91 158 106 0 21 -10
18 -76 -22z"/>
<path d="M4337 11018 c-15 -23 -15 -23 -45 -5 l-31 18 -16 -30 c-19 -39 -20
-38 11 -58 25 -16 27 -16 44 7 16 22 20 23 50 10 31 -13 34 -12 52 10 l20 24
-27 23 c-33 29 -39 29 -58 1z"/>
<path d="M8581 11013 c-20 -24 -20 -27 -5 -45 29 -31 61 -21 77 24 5 13 -2 22
-23 33 -27 14 -30 14 -49 -12z"/>
<path d="M7988 10978 c-69 -37 -126 -83 -115 -94 4 -5 28 3 54 16 50 28 131
95 123 103 -3 3 -31 -8 -62 -25z"/>
<path d="M4064 10964 c-68 -41 -101 -70 -90 -81 10 -11 90 34 139 78 54 49 30
51 -49 3z"/>
<path d="M5658 10924 c-61 -31 -109 -76 -95 -90 11 -12 171 87 181 112 8 21
-13 16 -86 -22z"/>
<path d="M8665 10928 c-65 -33 -115 -74 -115 -95 0 -28 158 67 180 107 14 26
6 25 -65 -12z"/>
<path d="M8201 10425 c-7 -26 -7 -54 -1 -80 5 -22 10 -60 10 -85 0 -41 1 -43
17 -28 31 31 30 171 -1 214 -13 17 -15 16 -25 -21z"/>
<path d="M4190 10435 c0 -25 31 -65 50 -65 18 0 60 -56 60 -80 0 -7 -16 -27
-35 -46 l-35 -33 31 9 c42 12 59 28 80 75 27 62 33 117 15 140 l-15 20 -2 -20
c-1 -11 -2 -47 -3 -79 -1 -37 -6 -61 -14 -63 -7 -3 -10 1 -6 10 9 26 -26 85
-69 117 -46 34 -57 37 -57 15z"/>
<path d="M6320 10371 c-16 -30 -12 -51 9 -51 34 0 33 -18 -1 -49 -30 -28 -31
-30 -11 -31 29 0 79 43 92 80 9 26 7 34 -9 50 -26 26 -66 26 -80 1z"/>
<path d="M10025 10350 c-33 -16 -67 -35 -76 -42 -20 -17 -42 -58 -35 -65 9 -9
134 58 167 88 30 28 38 50 17 48 -7 0 -40 -13 -73 -29z"/>
<path d="M5832 10326 c-81 -44 -132 -83 -132 -102 0 -21 8 -18 85 27 69 40
125 85 125 101 0 13 -12 9 -78 -26z"/>
<path d="M9756 10308 c-24 -34 -20 -48 14 -48 39 0 38 -17 -2 -51 -38 -33 -27
-38 20 -9 34 21 72 74 72 101 0 36 -81 41 -104 7z"/>
<path d="M8886 10268 c-31 -52 -34 -61 -23 -92 9 -27 7 -32 -23 -58 -45 -37
-32 -46 25 -18 75 37 122 119 96 169 -16 28 -56 28 -75 -1z m42 -30 c18 -18
14 -38 -7 -38 -23 0 -35 15 -27 35 7 18 18 19 34 3z"/>
<path d="M6037 10248 c-3 -13 -2 -43 3 -68 5 -25 9 -64 10 -87 0 -24 4 -43 9
-43 14 0 34 68 35 115 1 68 -45 134 -57 83z"/>
<path d="M2610 10240 c-7 -13 -7 -33 0 -62 5 -24 10 -64 10 -90 0 -52 15 -63
30 -22 20 53 5 194 -21 194 -4 0 -13 -9 -19 -20z"/>
<path d="M5306 10241 c-23 -25 -17 -55 12 -59 29 -4 28 -16 -3 -40 -29 -23
-32 -32 -9 -32 23 0 82 62 90 95 5 21 2 31 -11 42 -26 19 -59 16 -79 -6z"/>
<path d="M3394 10211 c-39 -20 -79 -43 -90 -51 -26 -19 -59 -69 -51 -76 7 -7
105 46 155 83 32 24 68 70 61 77 -2 2 -36 -12 -75 -33z"/>
<path d="M2985 10200 c-22 -43 -19 -50 23 -50 l37 0 -40 -35 c-22 -19 -34 -34
-27 -35 27 0 71 31 93 66 l22 37 -27 24 c-37 31 -62 29 -81 -7z"/>
<path d="M3556 10194 c-4 -14 -2 -80 4 -147 7 -67 10 -140 8 -162 l-3 -40 -56
-8 c-48 -8 -64 -6 -104 12 -26 12 -54 21 -61 21 -22 0 -16 -33 16 -93 l30 -57
-42 -31 c-24 -17 -71 -44 -105 -60 -97 -45 -95 -65 4 -48 84 15 118 39 150
103 l27 55 45 -6 c53 -6 89 15 119 70 32 59 17 417 -17 417 -5 0 -12 -12 -15
-26z"/>
<path d="M3691 10193 c-9 -20 -9 -56 4 -167 8 -78 19 -175 24 -216 7 -70 8
-73 19 -47 18 44 16 365 -3 410 -19 47 -30 52 -44 20z"/>
<path d="M6456 10196 c-4 -15 0 -107 9 -204 8 -97 16 -199 17 -227 3 -49 3
-50 18 -25 11 19 14 63 14 195 0 168 -9 230 -37 269 -13 18 -14 18 -21 -8z"/>
<path d="M10005 10205 c-3 -8 -7 -21 -9 -29 -3 -8 1 -72 9 -143 7 -70 17 -166
20 -211 10 -112 28 -94 33 32 4 88 -11 293 -24 344 -7 25 -22 29 -29 7z"/>
<path d="M6316 10177 c-3 -13 -1 -59 4 -103 6 -43 13 -116 16 -160 6 -75 5
-82 -12 -87 -45 -12 -96 -18 -116 -11 -18 5 -20 12 -14 50 5 38 2 45 -19 62
-56 44 -162 34 -199 -19 -25 -36 -20 -46 29 -58 65 -16 46 -31 -40 -31 -67 0
-75 2 -94 25 -25 32 -49 136 -57 249 -7 89 -19 116 -30 72 -8 -34 -8 -50 1
-203 l8 -132 -26 -12 c-40 -18 -112 -3 -152 33 l-35 30 -34 -30 c-44 -39 -84
-47 -129 -28 -44 18 -53 35 -68 125 -7 39 -15 71 -19 71 -11 0 -20 -27 -20
-60 0 -19 -7 -33 -19 -40 -32 -16 -86 -12 -114 10 -14 11 -28 20 -31 20 -15 0
-3 -80 19 -130 l24 -55 -27 -28 c-85 -90 -241 -90 -312 0 -19 24 -21 36 -16
82 4 30 15 69 26 86 24 39 26 52 3 34 -31 -27 -63 -111 -63 -170 0 -107 86
-192 195 -194 92 0 181 73 205 169 14 56 23 70 49 74 12 2 31 16 43 32 23 32
38 31 38 -2 0 -35 32 -90 64 -109 43 -26 95 -24 136 6 36 27 54 24 45 -6 -9
-29 2 -55 31 -67 38 -18 54 -15 64 13 6 17 17 25 33 25 32 0 71 32 87 70 11
27 30 41 30 22 0 -4 15 -25 34 -45 30 -33 39 -37 82 -37 27 0 82 10 122 22
l73 21 38 -21 c24 -14 56 -22 85 -22 62 0 90 27 106 106 21 99 -1 374 -29 374
-5 0 -11 -10 -15 -23z"/>
<path d="M8271 10169 c4 -43 -12 -52 -29 -16 -16 34 -36 35 -30 2 7 -34 -17
-53 -31 -26 -6 11 -11 27 -11 36 0 9 -5 13 -11 9 -12 -7 -5 -60 11 -79 12 -15
107 -12 123 4 11 11 0 88 -15 97 -6 4 -9 -7 -7 -27z"/>
<path d="M7465 10160 c-86 -37 -159 -110 -110 -110 37 0 166 84 185 120 14 26
9 25 -75 -10z"/>
<path d="M5022 10146 c-81 -44 -132 -83 -132 -102 0 -19 2 -19 71 16 79 40
168 121 132 120 -5 0 -36 -16 -71 -34z"/>
<path d="M9517 10128 c-52 -27 -83 -50 -93 -69 -18 -36 -8 -37 59 -3 65 33
113 69 127 94 16 30 -4 25 -93 -22z"/>
<path d="M9836 10143 c-4 -16 -2 -73 4 -128 5 -55 10 -125 10 -156 0 -65 -2
-67 -89 -75 -42 -4 -61 -2 -76 10 -15 12 -17 15 -5 16 15 0 50 48 50 67 0 5
-24 15 -52 21 -29 7 -90 24 -136 39 -63 21 -87 25 -100 17 -23 -15 -62 -73
-61 -93 0 -12 4 -11 16 7 11 15 25 22 50 22 38 0 103 -24 103 -39 0 -13 -89
-31 -191 -38 l-86 -6 -41 38 -42 37 -35 -31 c-43 -37 -102 -42 -152 -11 -35
21 -51 48 -77 127 -10 29 -22 56 -28 59 -11 7 -9 -17 8 -152 4 -32 2 -59 -6
-73 -15 -29 -68 -61 -102 -61 -33 0 -48 21 -79 115 -28 83 -37 61 -19 -43 13
-75 31 -115 67 -148 52 -48 108 -18 147 78 l23 58 24 -26 c54 -58 115 -69 169
-29 39 29 51 25 44 -14 -7 -32 13 -57 52 -67 26 -7 54 10 54 31 0 9 22 15 68
20 37 3 113 22 169 41 57 19 107 32 113 29 5 -3 10 -15 10 -25 0 -10 14 -30
31 -44 25 -21 41 -26 88 -26 64 0 88 16 115 80 18 44 14 331 -5 373 -16 34
-26 34 -33 0z"/>
<path d="M4187 10099 c-89 -35 -107 -54 -157 -172 l-33 -78 38 -97 c21 -53 43
-102 49 -108 6 -6 53 -28 104 -49 l94 -39 54 19 c29 10 79 32 111 50 55 30 59
35 95 121 43 102 43 103 -13 225 l-40 85 -94 37 c-51 20 -102 37 -112 37 -10
-1 -53 -14 -96 -31z m198 -24 c33 -15 68 -34 79 -43 22 -20 88 -159 88 -187 0
-11 -18 -59 -41 -106 l-41 -87 -89 -36 -89 -35 -90 35 c-50 19 -95 40 -100 47
-5 7 -26 49 -45 95 l-36 84 40 97 40 97 92 40 c63 28 98 38 112 33 11 -4 47
-19 80 -34z"/>
<path d="M4205 10033 c-78 -41 -118 -102 -119 -183 -1 -183 206 -277 337 -152
104 98 83 263 -42 329 -52 27 -131 30 -176 6z m176 -32 c60 -40 83 -83 83
-151 0 -109 -71 -180 -180 -180 -99 0 -174 75 -174 174 0 143 156 233 271 157z"/>
<path d="M4246 9914 c-10 -26 -7 -154 4 -154 5 0 13 18 16 40 4 26 18 52 40
74 45 46 47 71 4 44 -15 -10 -22 -10 -32 0 -16 16 -25 15 -32 -4z"/>
<path d="M9156 10104 c-25 -25 -20 -54 8 -54 39 0 39 -16 -1 -49 -32 -27 -35
-31 -16 -31 31 0 80 45 94 87 10 32 9 38 -7 50 -24 18 -59 17 -78 -3z"/>
<path d="M7053 10082 c8 -41 -7 -50 -23 -12 -16 39 -28 38 -32 -2 -2 -21 -8
-33 -18 -33 -10 0 -16 12 -18 33 -5 48 -22 39 -22 -13 0 -50 21 -71 53 -53 10
5 29 7 42 4 31 -8 49 23 40 64 -9 42 -30 53 -22 12z"/>
<path d="M3398 10058 l-3 -43 -22 35 -23 35 -6 -33 c-8 -38 -31 -42 -40 -7 -3
14 -10 25 -15 25 -16 0 -9 -57 10 -81 16 -20 21 -21 34 -10 10 8 27 10 46 6
37 -8 55 19 45 70 -9 51 -22 52 -26 3z"/>
<path d="M8017 10041 c-5 -21 -23 -41 -69 -73 -95 -66 -135 -143 -93 -178 18
-15 131 -8 148 9 17 17 24 13 37 -19 15 -35 55 -60 98 -60 31 0 72 32 72 57 0
11 12 4 40 -21 47 -42 78 -45 117 -12 27 23 28 28 27 108 -2 119 -28 203 -48
152 -5 -14 7 -115 21 -171 5 -20 1 -23 -29 -23 -18 0 -43 7 -55 15 -25 17 -43
84 -43 159 0 55 -11 73 -25 39 -3 -10 -9 -56 -12 -103 -3 -47 -10 -91 -16 -97
-11 -16 -71 -17 -97 -3 -25 13 -40 70 -40 152 0 68 -6 98 -20 98 -4 0 -10 -13
-13 -29z m-4 -113 c6 -41 -7 -54 -58 -62 -51 -8 -75 5 -55 30 18 21 81 63 96
63 7 1 14 -14 17 -31z"/>
<path d="M2800 9988 c-19 -32 -26 -58 -15 -58 3 0 16 11 29 25 l23 25 59 -20
c96 -33 91 -30 74 -40 -27 -15 -180 -31 -228 -24 -35 5 -55 15 -78 40 l-31 33
-13 -24 c-28 -53 -134 -68 -190 -26 l-30 22 0 -36 c0 -20 7 -52 15 -72 20 -48
19 -69 -6 -104 -30 -42 -69 -59 -139 -59 -102 0 -149 31 -171 113 -9 33 -7 46
15 94 15 30 26 60 26 66 0 24 -50 -39 -64 -81 -34 -99 -8 -199 65 -252 76 -55
155 -48 233 21 52 46 70 76 80 132 7 38 8 39 41 33 26 -5 47 0 85 19 27 14 50
22 51 18 1 -5 0 -22 -1 -40 -3 -53 54 -71 93 -29 17 17 38 25 85 30 34 4 106
20 160 36 53 17 109 30 125 30 20 0 32 9 47 33 24 39 25 57 5 57 -9 0 -70 16
-136 35 -155 45 -183 45 -209 3z"/>
<path d="M6765 9966 c-8 -19 -15 -51 -15 -70 0 -136 129 -201 325 -165 71 13
109 31 153 72 36 35 38 52 17 125 -23 77 -39 79 -31 4 l7 -61 -53 -28 c-49
-26 -62 -28 -163 -28 -90 1 -118 5 -156 22 -56 25 -78 66 -61 119 14 47 -4 55
-23 10z"/>
<path d="M7442 9928 c3 -18 11 -55 19 -82 13 -46 13 -49 -9 -67 -13 -10 -57
-37 -98 -59 -41 -23 -74 -46 -74 -52 0 -7 23 -9 66 -5 70 5 101 21 137 69 26
34 24 123 -2 184 -24 52 -45 59 -39 12z"/>
<path d="M2241 9851 c-26 -37 -26 -46 1 -65 34 -24 56 -19 73 14 18 35 15 45
-25 65 -28 14 -30 14 -49 -14z"/>
<path d="M4976 9858 c-23 -33 -20 -46 17 -68 l32 -20 17 23 c30 39 21 66 -29
81 -16 5 -26 1 -37 -16z"/>
<path d="M7934 9691 c-84 -41 -124 -72 -124 -96 0 -23 19 -18 89 24 71 42 121
84 121 101 0 14 4 15 -86 -29z"/>
<path d="M8372 9675 c-50 -24 -78 -44 -92 -67 -11 -18 -15 -34 -10 -36 22 -8
200 107 200 129 0 16 -24 10 -98 -26z"/>
<path d="M6992 9658 c-19 -19 -14 -55 9 -72 27 -19 44 -12 59 25 10 23 10 32
0 44 -15 18 -51 20 -68 3z"/>
<path d="M5213 9623 c-14 -36 -14 -38 7 -55 29 -24 35 -23 60 9 21 27 22 27
52 10 29 -17 32 -17 49 -1 22 20 24 45 7 62 -18 18 -56 14 -70 -7 -12 -19 -12
-19 -39 0 -38 27 -48 24 -66 -18z"/>
<path d="M5652 9585 c-50 -24 -78 -44 -92 -67 -11 -18 -20 -36 -20 -41 0 -20
193 101 203 128 9 23 -11 19 -91 -20z"/>
<path d="M7075 9546 c-70 -33 -96 -55 -108 -88 -8 -23 -6 -23 56 8 70 36 133
80 140 99 9 23 -11 19 -88 -19z"/>
<path d="M2361 9547 c-60 -24 -131 -84 -131 -111 0 -15 5 -14 43 5 64 33 154
96 160 114 8 20 -7 18 -72 -8z"/>
<path d="M7840 8912 c0 -20 34 -55 62 -65 16 -6 58 -75 58 -96 0 -5 -17 -20
-37 -32 -20 -13 -32 -24 -25 -27 17 -5 70 26 88 54 22 32 35 100 27 142 -9 54
-23 36 -23 -30 0 -76 -14 -107 -24 -54 -13 66 -126 163 -126 108z"/>
<path d="M3504 8839 c7 -66 5 -78 -13 -101 -32 -40 -27 -51 19 -45 54 7 90 32
90 61 0 34 -26 53 -51 38 -10 -7 -21 -12 -24 -12 -3 0 -5 27 -5 59 0 34 -5 63
-11 67 -9 5 -10 -13 -5 -67z m64 -91 c-5 -16 -48 -24 -48 -10 0 11 17 20 38
21 8 1 12 -5 10 -11z"/>
<path d="M2824 8832 c-39 -20 -79 -44 -90 -52 -24 -18 -60 -70 -48 -70 4 0 40
16 81 36 66 33 133 90 133 114 0 13 6 15 -76 -28z"/>
<path d="M2524 8785 c-18 -43 -18 -69 1 -278 17 -199 32 -244 90 -271 71 -34
169 -8 203 55 17 31 9 134 -14 186 l-17 38 -10 -38 c-7 -31 -6 -47 9 -79 18
-40 18 -40 -5 -59 -18 -15 -40 -19 -97 -19 l-74 0 -14 33 c-24 58 -37 138 -43
267 -7 149 0 170 52 170 36 0 47 13 19 24 -9 3 -31 6 -50 6 -30 0 -37 -5 -50
-35z"/>
<path d="M2396 8772 c-4 -10 1 -85 9 -168 8 -82 15 -172 15 -200 0 -46 -3 -52
-27 -64 -16 -7 -74 -15 -131 -18 -98 -4 -105 -3 -129 19 -40 38 -45 54 -28 95
17 42 19 54 6 54 -17 0 -51 -86 -51 -127 0 -47 32 -93 84 -120 47 -25 170 -24
220 3 77 40 81 51 84 265 3 160 1 197 -14 235 -18 47 -29 55 -38 26z"/>
<path d="M7411 8739 c-8 -24 -7 -44 4 -83 8 -28 16 -64 18 -81 l3 -30 13 30
c16 38 17 112 1 159 -14 44 -25 46 -39 5z"/>
<path d="M2267 8725 c-71 -34 -127 -79 -127 -102 0 -19 3 -18 91 28 72 38 119
77 119 100 0 13 -9 11 -83 -26z"/>
<path d="M4461 8734 c-28 -36 -26 -44 9 -44 19 0 30 -5 30 -14 0 -8 -13 -23
-30 -33 -16 -9 -30 -21 -30 -25 0 -28 80 28 105 74 16 30 17 39 6 52 -21 25
-66 20 -90 -10z"/>
<path d="M9717 8708 c-52 -27 -83 -50 -93 -69 -19 -38 -6 -38 65 2 66 37 131
87 131 100 0 16 -24 9 -103 -33z"/>
<path d="M4890 8698 l-1 -43 -22 28 c-28 34 -37 34 -37 2 0 -30 -26 -34 -35
-5 -9 28 -25 25 -25 -5 0 -34 36 -70 55 -55 8 7 26 9 44 5 37 -8 55 19 45 70
-9 51 -24 53 -24 3z"/>
<path d="M2955 8701 c-3 -17 1 -108 9 -203 9 -95 17 -198 19 -228 l2 -55 15
30 c23 49 21 353 -4 428 -10 31 -22 57 -27 57 -4 0 -10 -13 -14 -29z"/>
<path d="M5235 8702 c-3 -15 1 -103 10 -195 8 -92 15 -195 15 -230 1 -55 2
-60 14 -44 8 11 17 59 21 113 14 188 -34 474 -60 356z"/>
<path d="M10055 8698 c-3 -18 1 -106 9 -196 9 -89 16 -190 16 -224 0 -95 21
-58 33 58 16 145 -13 394 -45 394 -4 0 -10 -15 -13 -32z"/>
<path d="M9916 8696 c-3 -14 -1 -71 6 -128 7 -57 13 -130 13 -163 l0 -60 -65
-3 c-64 -3 -150 19 -150 39 0 5 -4 9 -10 9 -17 0 -11 -62 10 -109 11 -24 20
-49 20 -57 0 -17 -84 -72 -157 -104 -96 -41 -59 -53 65 -21 78 21 91 31 119
98 l18 43 58 0 c75 0 100 23 117 106 28 131 -15 466 -44 350z"/>
<path d="M6264 8668 c-72 -35 -104 -64 -104 -95 0 -23 158 62 185 100 33 48
23 47 -81 -5z"/>
<path d="M2828 8658 l-3 -43 -18 33 c-20 37 -42 43 -33 8 3 -12 3 -26 0 -29
-13 -13 -43 14 -46 40 l-4 28 -8 -28 c-5 -18 -4 -38 3 -53 9 -21 17 -24 61
-24 60 0 84 26 74 78 -9 45 -22 40 -26 -10z"/>
<path d="M5096 8675 c-3 -13 -2 -64 4 -112 6 -49 13 -120 17 -160 l6 -72 -37
-6 c-52 -10 -117 2 -143 27 -12 11 -34 56 -49 99 -15 43 -32 79 -37 79 -6 0
-6 -33 -1 -87 14 -153 7 -172 -69 -195 -38 -11 -41 -11 -63 15 -13 15 -31 52
-39 82 -24 82 -39 82 -33 -1 8 -112 57 -194 116 -194 41 0 84 41 103 98 6 20
14 40 18 44 3 4 25 -8 49 -26 79 -63 167 -54 193 21 17 46 17 343 0 386 -13
34 -27 35 -35 2z"/>
<path d="M6895 8667 c-4 -18 -2 -79 3 -135 12 -138 7 -162 -43 -187 -32 -16
-60 -20 -140 -20 -113 0 -142 11 -170 66 -16 29 -15 32 10 65 37 49 24 55 -21
10 -35 -35 -36 -39 -31 -89 11 -92 65 -137 177 -145 102 -7 135 3 191 55 l49
45 9 -24 c10 -26 75 -88 93 -88 13 0 78 68 78 82 0 6 20 -8 44 -30 61 -57 97
-62 146 -23 45 36 50 37 115 14 l48 -16 23 27 c38 43 50 100 33 149 -8 22 -21
45 -30 50 -37 23 -97 -17 -170 -113 -23 -31 -31 -35 -73 -35 -39 0 -52 5 -71
27 -28 32 -51 129 -61 251 -4 48 -10 90 -15 92 -17 11 -20 -44 -8 -174 14
-156 10 -188 -25 -197 -78 -19 -110 55 -131 299 -7 81 -20 100 -30 44z m563
-293 c30 -20 19 -35 -18 -24 -39 11 -51 20 -45 31 9 14 38 11 63 -7z"/>
<path d="M3465 8616 c-33 -13 -83 -35 -111 -49 -49 -25 -52 -28 -93 -129 -49
-116 -49 -106 14 -244 25 -56 39 -74 67 -87 82 -39 171 -77 179 -77 5 0 54 19
110 42 l102 42 33 72 c18 39 39 91 45 115 11 42 10 49 -32 149 l-44 105 -100
42 c-55 23 -102 42 -105 42 -3 0 -32 -10 -65 -23z m137 -42 c42 -14 88 -34
101 -44 15 -12 40 -57 60 -109 l36 -89 -35 -89 c-20 -48 -40 -93 -46 -100 -5
-6 -51 -28 -102 -48 l-93 -37 -74 31 c-120 50 -127 56 -169 155 l-38 89 33 78
c48 110 53 119 83 131 43 16 157 57 162 58 3 0 40 -12 82 -26z"/>
<path d="M3435 8531 c-132 -59 -166 -240 -67 -344 105 -111 286 -77 353 68 78
167 -116 354 -286 276z m186 -38 c17 -10 44 -38 60 -63 27 -40 30 -52 27 -106
-3 -48 -10 -69 -31 -98 -69 -89 -201 -103 -280 -28 -53 50 -74 118 -56 184 12
47 75 113 121 127 44 14 122 6 159 -16z"/>
<path d="M3576 8421 c-6 -9 -21 -11 -51 -6 -38 5 -45 3 -59 -17 -18 -25 -22
-114 -7 -137 11 -17 18 7 23 69 4 42 30 48 38 8 5 -26 6 -25 38 22 19 27 32
55 30 62 -3 9 -6 9 -12 -1z"/>
<path d="M8925 8615 c-35 -34 -31 -43 16 -47 l40 -3 -42 -32 c-35 -27 -39 -33
-21 -33 27 0 89 62 98 96 12 48 -50 61 -91 19z"/>
<path d="M5975 8580 c-20 -39 -20 -40 15 -40 17 0 30 -4 30 -10 0 -5 -13 -19
-30 -32 -31 -23 -38 -38 -18 -38 21 0 73 47 93 85 20 36 20 37 1 51 -34 24
-74 18 -91 -16z"/>
<path d="M7855 8571 c-100 -43 -106 -50 -155 -168 l-30 -73 26 -79 c40 -122
49 -132 150 -174 49 -21 99 -37 110 -37 12 0 64 17 115 39 l94 39 42 102 43
102 -44 101 -43 102 -94 42 c-52 23 -101 42 -109 42 -8 0 -55 -17 -105 -38z
m201 -28 l82 -27 36 -82 c20 -46 36 -97 36 -114 0 -16 -14 -66 -32 -109 l-32
-80 -79 -30 c-99 -39 -134 -39 -227 3 l-74 33 -38 93 -38 93 36 82 c20 46 43
90 53 99 22 20 139 65 170 66 14 0 62 -12 107 -27z"/>
<path d="M7885 8515 c-50 -18 -111 -85 -126 -138 -24 -89 25 -202 104 -237 51
-24 125 -25 175 -5 133 56 163 226 58 331 -60 61 -131 77 -211 49z m161 -41
c49 -23 84 -87 84 -153 0 -81 -36 -134 -114 -166 -109 -46 -235 44 -236 168 0
58 17 94 65 136 32 28 42 31 101 31 40 0 79 -6 100 -16z"/>
<path d="M8014 8399 c-3 -6 -16 -8 -27 -5 -12 3 -27 1 -33 -5 -9 -7 -19 -7
-34 1 -11 6 -25 8 -30 5 -13 -8 -13 -145 -1 -145 5 0 15 19 23 42 11 35 19 44
48 53 44 13 57 21 70 46 11 20 -3 28 -16 8z"/>
<path d="M9750 8568 l-1 -33 -24 29 -23 29 -4 -34 c-4 -46 -32 -47 -36 -1 -4
37 -22 34 -22 -4 0 -49 14 -61 71 -59 62 2 75 16 65 68 -9 46 -26 48 -26 5z"/>
<path d="M4526 8550 c-5 -22 -2 -50 8 -78 15 -42 15 -42 -11 -60 -42 -27 -152
-24 -192 6 -16 12 -33 22 -36 22 -11 0 -4 -52 15 -100 18 -45 18 -54 6 -78
-32 -62 -87 -92 -167 -92 -83 0 -138 42 -159 121 -9 33 -7 48 14 100 28 69 13
76 -22 9 -20 -38 -23 -57 -20 -127 3 -73 6 -85 34 -120 40 -49 69 -63 152 -70
l68 -6 56 61 c37 40 62 78 73 112 l17 50 56 0 c105 0 159 57 149 159 -2 31
-11 72 -20 91 l-14 35 -7 -35z"/>
<path d="M2241 8516 c-14 -14 -21 -33 -19 -48 2 -19 10 -23 43 -26 93 -6 81
-27 -22 -38 -70 -7 -81 -18 -28 -28 49 -10 100 2 130 30 46 43 28 71 -50 76
-49 3 -50 4 -22 16 16 7 27 18 24 25 -7 21 -32 18 -56 -7z"/>
<path d="M6695 8505 c-44 -43 -23 -75 49 -75 58 0 41 -18 -24 -26 -33 -3 -68
-13 -77 -21 -16 -13 -9 -14 60 -9 85 5 127 24 127 56 0 25 -29 40 -79 40 -43
0 -55 14 -21 23 23 6 27 37 5 37 -9 0 -27 -11 -40 -25z"/>
<path d="M6234 8475 c-3 -14 2 -46 12 -75 21 -58 16 -67 -44 -81 -49 -11 -81
0 -129 41 -42 37 -65 38 -92 4 -41 -52 -17 -109 57 -135 18 -6 32 -15 32 -19
0 -9 -82 -65 -140 -96 l-35 -19 32 -3 c53 -5 109 16 142 53 17 20 31 42 31 50
0 15 10 18 83 30 21 3 52 19 70 35 29 26 32 34 32 87 0 61 -22 153 -36 153 -5
0 -11 -11 -15 -25z"/>
<path d="M5708 8422 c-13 -16 -32 -51 -43 -78 -28 -75 -40 -89 -131 -150 -46
-31 -84 -60 -84 -65 0 -12 4 -12 74 8 49 14 71 27 109 67 l49 49 51 -12 c49
-11 53 -10 69 9 21 26 38 83 38 127 0 67 -88 97 -132 45z m81 -78 c8 -7 13
-16 10 -18 -7 -8 -79 13 -79 23 0 25 41 22 69 -5z"/>
<path d="M9145 8438 c-27 -15 -55 -49 -55 -70 0 -14 4 -13 25 7 29 30 39 31
110 4 85 -32 72 -43 -66 -55 -108 -9 -145 -1 -165 39 -9 18 -18 33 -19 35 -2
2 -19 -13 -38 -34 -32 -35 -39 -38 -101 -42 -67 -4 -68 -4 -137 44 -68 47 -71
48 -97 33 -16 -9 -39 -40 -57 -76 -26 -53 -43 -72 -120 -130 -62 -46 -85 -69
-73 -71 26 -5 136 47 157 75 16 19 20 20 25 8 7 -19 65 -45 99 -45 13 0 41 15
63 34 36 31 43 33 92 28 62 -6 103 9 138 51 l26 31 22 -26 c51 -61 114 -68
273 -29 68 17 138 37 157 45 36 15 72 58 62 75 -4 5 -32 15 -63 21 -31 7 -93
23 -137 36 -90 27 -94 28 -121 12z m-499 -139 c19 -11 34 -28 34 -36 0 -13 -8
-14 -42 -9 -54 9 -77 28 -58 50 16 21 26 20 66 -5z"/>
<path d="M4130 8351 c-17 -33 -11 -50 22 -67 30 -15 32 -15 45 2 19 26 16 62
-6 74 -29 15 -49 12 -61 -9z"/>
<path d="M4534 8233 c-15 -34 -15 -38 2 -50 25 -18 54 -16 70 5 20 25 17 49
-8 66 -34 24 -48 20 -64 -21z"/>
<path d="M4420 8221 c-16 -30 -12 -48 12 -65 33 -23 46 -20 64 16 16 31 16 32
-6 50 -29 23 -57 23 -70 -1z"/>
<path d="M3030 8179 c-56 -28 -88 -51 -101 -72 -10 -18 -19 -36 -19 -40 0 -14
153 72 188 106 32 31 40 47 23 47 -5 0 -46 -18 -91 -41z"/>
<path d="M9368 8176 c-81 -41 -114 -65 -127 -92 -6 -15 -10 -28 -8 -30 1 -2
34 13 72 32 72 36 110 66 126 97 13 24 -5 22 -63 -7z"/>
<path d="M2788 8165 c-12 -28 -25 -30 -62 -14 -54 25 -82 -54 -30 -82 25 -13
28 -12 49 15 21 27 25 28 55 17 45 -15 48 -15 65 18 14 28 14 31 -11 50 -35
28 -52 26 -66 -4z"/>
<path d="M6248 8165 c-13 -29 -19 -30 -58 -10 -27 14 -30 14 -49 -11 -26 -33
-26 -50 -2 -64 31 -16 57 -12 73 12 15 22 17 22 53 9 35 -12 40 -12 52 5 21
29 16 59 -12 72 -37 17 -44 15 -57 -13z"/>
<path d="M8972 8153 c-20 -28 -20 -28 -56 -11 l-36 18 -16 -32 c-15 -30 -15
-31 11 -57 l26 -26 24 29 23 29 37 -21 c20 -12 38 -22 40 -22 3 0 45 69 45 75
0 4 -65 45 -73 45 -3 0 -14 -12 -25 -27z"/>
<path d="M5734 8142 c-78 -35 -110 -56 -130 -87 -26 -40 -7 -42 60 -6 131 69
188 145 70 93z"/>
<path d="M7164 8132 c-39 -20 -79 -44 -90 -52 -22 -16 -60 -70 -50 -70 4 0 42
18 85 39 70 36 131 87 131 112 0 12 6 14 -76 -29z"/>
<path d="M6790 8153 c-70 -25 -137 -66 -152 -91 -28 -47 -22 -54 25 -31 123
63 219 155 127 122z"/>
<path d="M4862 8115 c-64 -32 -132 -91 -132 -115 0 -20 135 55 188 104 32 30
40 46 23 46 -4 0 -40 -16 -79 -35z"/>
<path d="M8664 8086 c-69 -34 -134 -88 -134 -109 0 -4 19 1 42 9 78 27 185
108 177 132 -2 6 -41 -9 -85 -32z"/>
<path d="M4237 8048 c-127 -69 -177 -144 -59 -88 71 33 103 56 133 94 19 24
19 26 2 26 -10 0 -44 -15 -76 -32z"/>
<path d="M3964 7414 c5 -67 3 -81 -14 -110 -24 -38 -15 -48 35 -38 39 7 85 39
85 58 0 21 -35 46 -63 46 -26 0 -27 2 -27 60 0 38 -4 60 -11 60 -9 0 -10 -22
-5 -76z m76 -93 c0 -13 -37 -24 -52 -15 -8 5 -6 10 8 15 27 11 44 11 44 0z"/>
<path d="M10035 7370 c-99 -50 -184 -141 -98 -105 75 32 183 106 183 127 0 14
-24 8 -85 -22z"/>
<path d="M2327 7348 c-53 -28 -83 -50 -93 -70 -9 -17 -14 -31 -12 -33 7 -7
125 53 156 79 39 34 59 66 40 66 -7 0 -48 -19 -91 -42z"/>
<path d="M6476 7349 c-89 -44 -112 -61 -119 -90 -7 -26 3 -24 72 10 64 33 116
73 132 102 13 26 6 24 -85 -22z"/>
<path d="M7680 7368 c-65 -29 -138 -80 -149 -104 -6 -15 -10 -28 -9 -29 7 -7
126 54 156 79 61 53 62 80 2 54z"/>
<path d="M2080 7345 c-25 -30 -7 -411 23 -503 17 -51 66 -82 129 -82 97 0 143
50 142 155 -1 35 -9 77 -19 100 l-17 40 -10 -35 c-7 -23 -6 -47 1 -71 23 -77
19 -82 -77 -94 -63 -8 -96 9 -117 59 -16 38 -35 198 -37 314 -1 92 4 101 57
103 l30 1 -30 13 c-39 18 -60 18 -75 0z"/>
<path d="M7379 7333 c-15 -39 8 -458 27 -494 7 -15 27 -38 44 -53 26 -22 41
-26 91 -26 54 0 63 3 97 34 37 34 37 35 35 109 -1 44 -8 87 -16 104 l-15 28
-7 -27 c-4 -15 -2 -42 4 -59 25 -73 18 -82 -77 -94 -63 -8 -96 9 -117 59 -15
36 -34 192 -38 314 -2 93 3 101 63 103 l35 1 -35 13 c-56 22 -79 19 -91 -12z"/>
<path d="M9149 7314 c-19 -20 -24 -36 -24 -76 0 -42 -4 -53 -27 -72 -27 -21
-37 -46 -19 -46 12 0 81 47 113 77 42 40 53 75 34 112 -20 38 -45 39 -77 5z
m42 -35 c24 -13 16 -29 -16 -29 -26 0 -40 14 -30 30 8 13 21 13 46 -1z"/>
<path d="M7236 7313 c-3 -10 3 -106 13 -213 11 -114 15 -200 9 -206 -30 -39
-208 -51 -273 -19 -37 18 -40 23 -39 60 0 22 4 54 9 70 8 28 7 29 -10 15 -47
-39 -58 -128 -22 -180 42 -63 69 -75 166 -75 79 0 92 3 130 28 63 42 70 66 72
269 1 147 -1 183 -16 222 -19 49 -30 57 -39 29z"/>
<path d="M2922 7308 c-18 -18 -15 -48 6 -48 43 -1 45 -17 6 -54 -42 -39 -31
-48 21 -16 42 26 74 84 59 108 -13 21 -74 28 -92 10z"/>
<path d="M7109 7274 c-69 -37 -139 -89 -139 -105 0 -41 179 63 211 122 13 26
4 24 -72 -17z"/>
<path d="M5760 7264 c-76 -36 -130 -77 -130 -101 0 -20 16 -16 91 23 64 34
119 82 119 105 0 11 9 14 -80 -27z"/>
<path d="M5115 7266 c-33 -33 -32 -44 7 -48 46 -4 45 -23 -4 -53 -39 -24 -40
-26 -13 -20 45 10 74 32 93 71 12 26 13 39 6 52 -18 28 -60 27 -89 -2z"/>
<path d="M3196 7254 c-16 -42 21 -492 38 -465 22 34 14 368 -10 459 -7 26 -19
29 -28 6z"/>
<path d="M7836 7254 c-16 -42 21 -492 38 -465 22 34 14 368 -10 459 -7 26 -19
29 -28 6z"/>
<path d="M9451 7244 c-29 -37 -34 -61 -20 -95 10 -26 10 -32 -7 -44 -50 -36
-58 -44 -52 -50 12 -12 95 34 127 70 17 19 33 51 37 72 6 31 3 39 -16 55 -30
24 -45 23 -69 -8z m45 -63 c-5 -8 -13 -8 -27 0 -17 8 -18 13 -8 25 11 13 14
13 27 0 8 -8 11 -19 8 -25z"/>
<path d="M4800 7228 c-23 -38 -26 -78 -7 -97 10 -10 8 -15 -8 -27 -47 -34 -59
-48 -47 -52 32 -10 136 75 153 125 24 73 -52 115 -91 51z m60 -43 c0 -19 -21
-19 -46 0 -16 12 -17 16 -5 24 18 12 51 -4 51 -24z"/>
<path d="M8310 7233 c-67 -28 -147 -83 -159 -109 -6 -15 -10 -28 -8 -30 6 -6
141 67 165 89 24 22 46 56 40 61 -2 2 -19 -3 -38 -11z"/>
<path d="M7618 7205 c-4 -51 -31 -56 -36 -7 -5 48 -22 39 -22 -12 0 -51 20
-76 45 -56 9 7 27 10 44 7 47 -10 63 22 39 80 l-12 28 -6 -40 -5 -40 -22 40
-21 40 -4 -40z"/>
<path d="M9715 7210 c-21 -40 -19 -50 10 -50 14 0 25 -4 25 -10 0 -5 -11 -17
-25 -26 -30 -19 -32 -34 -6 -34 35 0 101 71 101 109 0 12 -52 41 -74 41 -9 0
-22 -13 -31 -30z"/>
<path d="M2285 7169 c-20 -39 -15 -54 24 -67 28 -10 33 -9 47 13 20 31 15 45
-24 68 l-31 18 -16 -32z"/>
<path d="M6420 7175 c-18 -22 -4 -64 26 -77 22 -11 28 -9 40 7 19 26 18 55 -3
71 -24 18 -48 17 -63 -1z"/>
<path d="M9971 7158 c-11 -29 -9 -35 10 -50 28 -23 46 -23 59 1 16 30 12 59
-9 71 -33 17 -49 11 -60 -22z"/>
<path d="M3863 7139 l-102 -40 -40 -104 c-23 -57 -41 -107 -41 -112 0 -4 19
-54 41 -111 47 -115 30 -102 201 -172 l58 -24 95 38 c111 44 129 62 175 176
l33 82 -23 71 c-49 153 -45 149 -162 196 -56 22 -110 41 -118 41 -8 0 -61 -19
-117 -41z m232 -25 l91 -36 34 -96 c19 -53 34 -101 32 -106 -2 -6 -19 -51 -38
-101 l-36 -90 -99 -43 -100 -43 -97 48 -97 48 -34 85 c-19 47 -34 96 -34 110
0 22 76 200 85 200 2 0 42 16 88 35 47 19 92 32 100 29 8 -2 56 -21 105 -40z"/>
<path d="M3900 7085 c-50 -23 -79 -53 -106 -110 -43 -91 -24 -188 49 -252 86
-76 229 -68 299 15 37 44 51 94 46 167 -4 72 -32 118 -100 162 -50 33 -135 41
-188 18z m153 -29 c44 -18 94 -77 107 -127 22 -80 -25 -186 -96 -215 -43 -18
-127 -18 -163 0 -74 39 -121 133 -101 204 32 122 145 184 253 138z"/>
<path d="M3944 6915 c-15 -33 -24 -68 -22 -87 3 -30 6 -33 41 -36 55 -5 77 18
77 78 0 38 -5 51 -28 73 -15 15 -31 27 -36 27 -4 0 -18 -25 -32 -55z m76 -56
c0 -14 -16 -18 -30 -9 -9 5 -19 5 -27 -1 -26 -22 -33 2 -12 43 l20 40 25 -33
c13 -18 24 -36 24 -40z"/>
<path d="M6115 7150 c-20 -39 -20 -40 15 -40 40 0 38 -20 -6 -48 -20 -13 -33
-26 -30 -29 10 -10 66 19 91 48 49 59 40 99 -21 99 -27 0 -36 -6 -49 -30z"/>
<path d="M5734 7078 c-16 -31 -16 -32 6 -50 30 -24 61 -20 76 11 15 30 10 45
-22 60 -36 16 -42 14 -60 -21z"/>
<path d="M2910 7072 c-6 -15 -20 -65 -30 -111 -10 -46 -23 -88 -28 -93 -14
-14 -87 0 -112 20 -11 10 -35 57 -54 106 -22 60 -35 83 -39 71 -10 -25 -8 -65
6 -120 9 -32 11 -61 5 -82 -19 -71 -119 -111 -152 -60 -9 12 -20 45 -26 74 -6
28 -18 59 -25 69 -39 51 0 -157 40 -218 32 -48 64 -57 109 -28 24 14 45 41 64
81 l29 59 19 -21 c10 -12 38 -30 61 -41 38 -17 53 -17 169 -9 142 11 153 16
161 78 7 52 -17 103 -69 145 -22 18 -57 49 -78 70 l-38 36 -12 -26z m48 -124
c26 -26 7 -78 -29 -78 -27 0 -37 22 -27 58 9 34 33 43 56 20z m88 -86 c-46 -4
-57 5 -45 36 l9 23 37 -28 37 -28 -38 -3z"/>
<path d="M5630 7068 c-26 -43 -26 -45 12 -64 30 -15 32 -15 45 2 19 26 12 64
-14 81 -21 14 -23 13 -43 -19z"/>
<path d="M7076 7058 c-9 -13 -17 -35 -18 -48 -3 -23 0 -25 47 -28 72 -5 76
-18 9 -32 -86 -17 -94 -20 -64 -32 58 -22 160 20 160 67 0 18 -39 35 -81 35
-34 0 -39 15 -8 23 26 7 20 31 -9 35 -13 2 -26 -5 -36 -20z"/>
<path d="M9156 6969 c7 -132 0 -155 -62 -184 -54 -25 -78 -4 -106 90 -12 41
-26 75 -30 75 -4 0 -8 -22 -8 -50 0 -94 68 -220 119 -220 31 0 88 63 108 120
l18 50 35 -35 c70 -67 123 -72 181 -14 l41 41 26 -26 c34 -32 92 -56 134 -56
18 0 65 9 104 21 l71 21 41 -21 c27 -14 60 -21 97 -21 49 0 59 4 93 34 36 34
37 36 36 104 -1 38 -7 87 -14 108 -12 36 -13 37 -22 15 -5 -14 -4 -46 4 -83
15 -74 10 -79 -92 -76 l-75 3 0 44 c0 40 -4 47 -32 64 -18 10 -56 21 -85 24
-44 4 -57 2 -80 -17 -43 -33 -38 -67 15 -89 35 -15 39 -19 22 -24 -11 -4 -51
-8 -88 -9 -66 -3 -70 -2 -97 28 -15 17 -30 38 -33 45 -5 11 -8 10 -18 -5 -33
-54 -86 -75 -154 -62 -56 11 -91 48 -115 124 -36 110 -41 107 -34 -19z"/>
<path d="M5126 7044 c-3 -9 -6 -27 -6 -40 0 -48 -107 -69 -141 -28 -34 42 -38
-5 -7 -93 27 -79 19 -101 -54 -142 -41 -24 -65 -31 -106 -31 -142 0 -211 105
-147 224 14 27 23 51 20 55 -12 11 -41 -36 -64 -105 -20 -59 -22 -75 -12 -109
35 -128 186 -194 292 -127 56 36 109 102 109 135 0 38 17 77 34 77 8 0 28 11
44 25 39 32 52 32 52 -4 0 -19 14 -44 42 -76 l42 -48 75 6 c42 3 99 14 126 25
l50 20 35 -24 c60 -42 144 -27 188 33 l19 27 43 -37 c65 -55 127 -60 178 -14
l22 21 31 -32 c37 -37 69 -41 110 -12 l28 21 21 -21 c27 -27 43 -25 84 10 27
25 36 28 43 17 14 -24 50 -37 102 -37 45 0 56 5 92 37 l42 38 -7 73 c-3 44
-14 87 -26 110 l-21 37 5 -60 c3 -33 8 -72 12 -87 8 -35 -22 -51 -97 -51 -67
1 -99 16 -99 46 -1 18 -4 16 -20 -14 -12 -22 -29 -39 -45 -43 -30 -8 -65 8
-65 29 0 22 -12 18 -43 -15 -45 -48 -87 -38 -102 23 -8 32 -10 33 -42 8 -13
-11 -48 -25 -78 -32 -48 -11 -57 -10 -87 8 -18 10 -39 32 -46 47 l-14 28 -32
-35 c-33 -37 -77 -52 -132 -45 -27 3 -29 7 -34 50 -3 27 -10 52 -15 57 -28 25
-130 40 -170 25 -20 -8 -48 -61 -41 -79 2 -7 20 -16 38 -20 75 -16 52 -35 -45
-35 -113 0 -132 18 -152 147 -7 47 -19 62 -29 37z"/>
<path d="M8193 6984 c-20 -32 -23 -98 -5 -116 7 -7 36 -15 64 -18 l52 -5 -55
-36 c-29 -20 -74 -48 -97 -63 -24 -15 -41 -30 -39 -33 12 -11 108 10 139 30
47 32 82 105 73 156 -16 95 -93 145 -132 85z"/>
<path d="M4785 6899 c-20 -39 -15 -54 25 -67 29 -11 32 -9 50 21 11 18 20 35
20 38 0 5 -65 39 -75 39 -3 0 -12 -14 -20 -31z"/>
<path d="M7924 6745 c-79 -40 -93 -51 -117 -85 -29 -42 -20 -42 52 -5 95 50
180 125 142 125 -4 0 -39 -16 -77 -35z"/>
<path d="M3277 6730 c-91 -46 -151 -99 -133 -117 9 -9 167 80 186 105 40 50
27 52 -53 12z"/>
<path d="M7641 6700 l-11 -32 -36 23 c-36 22 -37 22 -50 4 -24 -32 -18 -74 12
-87 24 -11 29 -10 49 16 22 27 23 28 54 12 37 -20 44 -17 61 24 15 36 4 54
-41 65 -23 6 -28 2 -38 -25z"/>
<path d="M5137 6691 c-12 -28 -14 -29 -37 -16 -49 28 -53 28 -66 10 -43 -58
19 -117 63 -61 17 21 21 22 38 10 30 -22 53 -17 70 15 14 28 14 31 -11 50 -35
28 -43 27 -57 -8z"/>
<path d="M9427 6702 c-25 -28 -21 -50 16 -72 l32 -20 18 21 c23 29 22 55 -5
73 -29 21 -41 20 -61 -2z"/>
<path d="M5478 6680 c-88 -36 -156 -95 -135 -117 14 -13 190 94 200 122 8 20
-7 18 -65 -5z"/>
<path d="M2637 6638 c-63 -33 -82 -49 -98 -81 -25 -47 -21 -47 76 8 74 43 87
53 109 88 26 38 8 35 -87 -15z"/>
<path d="M3220 5969 c-79 -43 -130 -84 -130 -106 0 -16 29 -6 101 38 77 46
142 109 112 109 -5 0 -42 -19 -83 -41z"/>
<path d="M5330 5958 c0 -18 50 -78 65 -78 19 0 55 -49 55 -75 0 -16 -12 -30
-37 -46 -26 -15 -33 -24 -22 -26 25 -6 67 14 84 40 18 28 37 133 29 159 -12
40 -24 13 -24 -57 0 -43 -4 -75 -10 -75 -5 0 -10 15 -10 34 0 29 -9 42 -56 85
-56 51 -74 61 -74 39z"/>
<path d="M8051 5854 c-28 -36 -26 -44 9 -44 18 0 30 -5 30 -13 0 -7 -13 -21
-30 -30 -26 -16 -40 -37 -25 -37 35 0 115 77 115 110 0 43 -69 53 -99 14z"/>
<path d="M3250 5826 c0 -50 -13 -54 -30 -10 -13 33 -30 30 -30 -6 0 -19 -5
-30 -14 -30 -16 0 -26 21 -26 53 0 18 -2 19 -10 7 -15 -23 -12 -67 5 -84 20
-19 113 -15 127 5 11 17 3 88 -11 102 -8 8 -11 -3 -11 -37z"/>
<path d="M7106 5747 c-73 -39 -128 -89 -114 -103 9 -9 129 52 171 87 33 27 49
59 30 59 -5 0 -44 -19 -87 -43z"/>
<path d="M8840 5734 c-84 -40 -120 -69 -120 -96 0 -23 0 -23 68 11 82 42 170
121 134 121 -4 0 -41 -16 -82 -36z"/>
<path d="M2586 5738 c-23 -32 -20 -48 9 -48 33 0 32 -10 -7 -42 -38 -31 -32
-46 12 -28 58 24 110 111 79 131 -27 17 -77 10 -93 -13z"/>
<path d="M3977 5703 c-62 -32 -92 -54 -103 -75 -9 -17 -14 -32 -11 -34 2 -2
36 12 75 31 64 33 132 91 132 115 0 13 8 16 -93 -37z"/>
<path d="M3775 5718 c-3 -13 -1 -91 4 -174 13 -207 1 -252 -75 -285 -24 -11
-44 -24 -44 -29 0 -24 156 -24 242 0 111 32 155 172 68 217 -31 16 -72 10
-110 -17 -15 -11 -31 -20 -34 -20 -3 0 -6 63 -6 140 0 131 -10 190 -31 190 -5
0 -11 -10 -14 -22z m180 -360 c48 -22 27 -37 -85 -63 -83 -18 -96 -7 -46 40
40 38 82 45 131 23z"/>
<path d="M8615 5720 c-4 -6 -1 -92 5 -191 l12 -179 -27 -46 c-20 -34 -38 -51
-66 -62 -22 -8 -39 -19 -39 -23 0 -31 241 -17 288 17 15 11 38 41 50 67 21 41
22 50 12 83 -9 27 -21 40 -48 51 -34 14 -39 14 -88 -10 l-52 -26 -7 47 c-3 26
-1 79 4 119 10 63 8 76 -10 117 -21 49 -24 52 -34 36z m191 -381 c8 -6 14 -15
14 -19 0 -20 -151 -56 -177 -42 -12 7 -11 12 4 30 41 49 119 64 159 31z"/>
<path d="M3355 5697 c-4 -16 -5 -72 -1 -125 3 -54 9 -154 12 -224 4 -71 10
-128 14 -128 41 0 37 399 -4 479 l-14 26 -7 -28z"/>
<path d="M8194 5698 c-9 -31 -7 -91 11 -263 8 -82 16 -166 18 -185 l3 -35 12
40 c18 61 16 372 -3 418 -19 45 -32 53 -41 25z"/>
<path d="M9915 5692 c-3 -16 1 -86 10 -155 21 -170 20 -186 -7 -196 -13 -5
-51 -10 -85 -13 l-63 -4 0 53 c0 52 -1 55 -35 69 -62 25 -135 -7 -182 -81 -15
-25 -32 -45 -36 -45 -22 0 -57 35 -57 56 0 32 -10 30 -42 -8 -25 -31 -31 -33
-87 -33 -46 1 -67 6 -90 23 -17 12 -33 22 -36 22 -14 0 -2 -66 20 -111 l26
-49 -26 -26 c-14 -14 -67 -45 -117 -69 -82 -39 -89 -44 -66 -50 39 -10 148 22
179 51 15 14 35 43 44 65 17 36 21 39 60 39 31 0 47 6 65 25 13 14 29 25 35
25 21 0 55 -46 55 -73 0 -30 14 -36 28 -11 11 20 114 33 270 34 114 0 114 0
142 30 42 45 54 118 46 272 -8 135 -16 180 -33 185 -6 2 -14 -9 -18 -25z
m-192 -324 c42 -21 -9 -47 -122 -62 l-53 -7 22 32 c38 53 95 67 153 37z"/>
<path d="M10055 5688 c-3 -18 1 -106 9 -196 9 -89 16 -187 16 -217 0 -59 15
-73 27 -27 5 15 8 106 8 202 0 159 -2 179 -22 223 -12 26 -24 47 -27 47 -3 0
-8 -15 -11 -32z"/>
<path d="M3217 5703 c-14 -24 -16 -79 -7 -158 6 -50 13 -118 17 -152 l6 -61
-41 -12 c-52 -16 -84 -8 -132 36 -31 28 -44 51 -60 105 -11 37 -26 71 -32 75
-10 7 -9 -35 8 -177 6 -52 5 -57 -24 -86 -31 -31 -62 -42 -95 -35 -20 4 -48
56 -67 125 -7 26 -17 50 -21 53 -22 13 1 -157 27 -208 54 -104 146 -84 190 39
l18 51 44 -39 c80 -70 154 -59 199 30 21 41 22 54 18 202 -3 117 -9 167 -20
189 -16 31 -21 35 -28 23z"/>
<path d="M7841 5676 c-24 -38 -26 -58 -10 -88 9 -17 6 -26 -23 -55 l-33 -35
40 17 c118 48 174 195 74 195 -20 0 -33 -9 -48 -34z m55 -21 c10 -24 -5 -36
-27 -24 -16 8 -18 13 -8 25 15 18 28 18 35 -1z"/>
<path d="M8983 5680 c-6 -20 -6 -69 -2 -115 5 -44 13 -136 19 -205 20 -223 37
-189 39 75 1 169 -6 223 -33 260 -13 18 -14 17 -23 -15z"/>
<path d="M2946 5683 c-2 -10 -7 -28 -11 -40 -4 -15 1 -28 16 -42 30 -27 34
-27 60 10 l22 32 -31 28 c-37 34 -49 36 -56 12z"/>
<path d="M4136 5677 c-3 -12 1 -81 9 -152 8 -72 15 -166 15 -210 0 -84 11
-123 24 -88 14 35 18 229 7 319 -16 133 -40 190 -55 131z"/>
<path d="M8057 5674 c-3 -15 0 -93 6 -174 5 -81 7 -154 4 -162 -7 -19 -91 -30
-143 -18 -25 6 -47 20 -63 40 l-24 30 -18 -29 c-32 -53 -145 -62 -163 -14 -5
12 -12 8 -36 -17 -23 -25 -36 -31 -62 -28 -25 2 -34 8 -36 26 -5 30 -13 28
-50 -13 -30 -35 -32 -35 -60 -21 -15 8 -33 26 -40 41 l-12 26 -27 -21 c-37
-27 -108 -35 -157 -18 -38 13 -48 23 -60 61 -5 15 -10 13 -37 -17 -34 -39 -79
-56 -151 -56 l-47 0 7 33 c22 98 -5 150 -78 149 -23 -1 -53 -8 -66 -17 -22
-14 -24 -22 -24 -92 l0 -76 -65 6 c-80 8 -104 20 -112 58 -3 16 -7 29 -9 29
-3 0 -24 -20 -47 -45 -39 -40 -48 -45 -88 -45 -63 0 -99 13 -153 54 -73 56
-107 46 -141 -39 -29 -74 -37 -83 -116 -136 -44 -30 -79 -57 -79 -61 0 -13 48
-9 83 6 18 7 45 28 60 46 l28 33 27 -25 c15 -14 37 -29 49 -32 27 -9 88 18
108 47 12 17 21 19 74 13 67 -8 88 -1 138 47 l32 30 39 -31 c67 -53 123 -64
207 -41 30 9 60 8 121 -1 97 -15 119 -11 174 35 l42 35 32 -26 c67 -58 119
-62 185 -15 l28 20 11 -24 c7 -15 26 -28 52 -36 37 -11 42 -11 66 12 21 19 28
21 42 11 43 -31 89 -24 107 16 12 28 16 28 45 -3 29 -31 80 -33 133 -5 l37 20
0 -38 c0 -21 5 -43 12 -50 20 -20 57 -14 82 13 17 18 34 25 61 25 48 0 98 48
115 111 15 53 7 296 -10 347 -14 39 -26 41 -33 6z m-1209 -292 c26 -17 20 -27
-20 -37 -35 -9 -76 28 -57 51 13 16 39 11 77 -14z m-640 -92 c44 -27 40 -40
-11 -40 -46 0 -67 13 -67 42 0 24 36 23 78 -2z"/>
<path d="M9680 5657 c0 -51 -13 -56 -30 -11 -13 33 -30 30 -30 -6 0 -40 -28
-41 -36 0 -4 16 -10 27 -15 24 -12 -7 -11 -51 2 -75 9 -17 17 -19 57 -13 26 3
53 11 60 16 14 12 16 77 2 98 -7 11 -10 2 -10 -33z"/>
<path d="M2304 5663 c-66 -26 -144 -85 -144 -109 0 -23 20 -17 99 29 66 37
122 89 110 101 -2 2 -32 -7 -65 -21z"/>
<path d="M6197 5613 c-62 -32 -92 -54 -103 -75 -9 -17 -13 -32 -11 -34 7 -7
139 64 165 89 25 23 46 56 40 62 -2 2 -43 -17 -91 -42z"/>
<path d="M6804 5635 c-18 -23 -22 -24 -51 -13 -37 14 -58 2 -66 -38 -3 -19 2
-29 25 -46 l30 -21 23 29 c23 29 23 29 58 12 33 -16 36 -16 52 2 24 27 15 61
-21 82 -32 19 -32 19 -50 -7z"/>
<path d="M5350 5605 c-41 -19 -83 -38 -92 -44 -21 -13 -68 -105 -93 -179 l-17
-53 38 -100 c21 -55 43 -104 50 -110 18 -15 195 -89 214 -89 26 0 183 70 207
92 26 24 93 179 93 215 0 32 -65 181 -92 210 -22 23 -186 94 -216 92 -9 0 -51
-16 -92 -34z m207 -31 l92 -39 40 -97 41 -98 -30 -80 c-43 -116 -49 -123 -156
-169 l-94 -41 -103 46 -103 45 -33 98 -34 97 34 97 34 96 100 45 c55 25 105
43 110 42 6 -2 51 -21 102 -42z"/>
<path d="M5355 5532 c-78 -37 -115 -103 -115 -202 0 -105 53 -175 153 -201 61
-17 145 -1 194 37 50 38 87 122 81 184 -6 62 -48 133 -99 167 -53 35 -156 42
-214 15z m148 -13 c120 -33 173 -183 103 -289 -73 -110 -245 -109 -310 2 -67
114 -26 242 90 283 48 17 68 18 117 4z"/>
<path d="M5400 5417 c0 -9 13 -31 29 -49 16 -19 32 -50 36 -71 4 -20 11 -37
15 -37 18 0 28 154 11 165 -6 3 -15 -4 -21 -15 -14 -26 -24 -25 -50 2 -16 18
-20 19 -20 5z"/>
<path d="M6496 5618 c-24 -34 -20 -48 14 -48 40 0 38 -11 -7 -50 l-38 -31 30
6 c45 9 74 32 93 71 21 45 8 68 -41 72 -27 2 -39 -2 -51 -20z"/>
<path d="M9249 5600 c-73 -37 -139 -90 -139 -111 0 -15 36 -2 107 37 57 32
113 83 113 105 0 12 7 14 -81 -31z"/>
<path d="M4404 5597 c-77 -41 -96 -55 -118 -89 -26 -40 -5 -37 79 13 143 83
176 148 39 76z"/>
<path d="M7496 5598 c-24 -34 -20 -48 14 -48 40 0 38 -12 -7 -46 -46 -35 -25
-45 25 -11 49 32 81 89 63 111 -20 24 -77 20 -95 -6z"/>
<path d="M7106 5585 c-22 -34 -21 -40 16 -63 37 -24 42 -22 64 21 16 30 16 32
-6 49 -31 25 -55 23 -74 -7z"/>
<path d="M2625 5561 c-3 -17 0 -51 9 -79 13 -44 13 -52 0 -71 -25 -34 -117
-29 -216 14 -15 6 -18 2 -18 -21 0 -15 8 -51 17 -80 14 -46 15 -57 3 -79 -24
-45 -79 -74 -155 -81 l-70 -6 -48 50 c-42 46 -47 56 -47 97 0 26 9 63 20 85
24 47 25 61 5 53 -41 -15 -76 -147 -61 -227 9 -50 78 -120 133 -136 53 -16 99
-7 157 32 58 38 93 88 102 146 l7 42 61 -6 c54 -5 65 -3 96 18 52 35 62 61 56
146 -5 61 -26 132 -40 132 -3 0 -7 -13 -11 -29z"/>
<path d="M7002 5578 c-19 -19 -14 -55 10 -72 31 -22 35 -20 53 15 15 29 15 32
-1 50 -20 22 -44 25 -62 7z"/>
<path d="M4794 5444 c-22 -14 -53 -46 -68 -70 -15 -24 -31 -44 -35 -44 -17 0
-51 33 -51 51 0 27 -12 24 -45 -11 -16 -16 -44 -33 -63 -36 -42 -8 -136 12
-152 32 -38 44 -41 -26 -5 -97 l26 -50 -31 -29 c-16 -15 -64 -45 -105 -67 -41
-21 -75 -42 -75 -47 0 -18 157 21 188 47 8 6 25 32 38 59 21 41 29 48 54 48
38 0 101 25 117 47 7 8 19 13 27 10 23 -9 54 -66 49 -88 -3 -10 -1 -19 5 -19
5 0 12 9 15 19 3 14 17 21 43 25 111 17 149 27 172 48 59 56 68 123 23 169
-37 37 -74 38 -127 3z m107 -76 c4 -6 6 -15 3 -19 -6 -11 -99 -29 -142 -29
l-37 1 30 25 c17 14 39 29 50 35 26 11 86 4 96 -13z"/>
<path d="M2243 5358 c-23 -30 -23 -49 2 -74 34 -34 53 -30 71 12 13 31 13 39
2 50 -21 20 -63 27 -75 12z"/>
<path d="M2634 5244 c-17 -24 -21 -25 -46 -13 -24 10 -31 10 -48 -6 -29 -26
-26 -69 5 -83 32 -15 54 -6 61 23 6 23 7 23 46 9 51 -18 45 -19 63 16 20 38
20 35 -19 59 -41 26 -38 26 -62 -5z"/>
<path d="M4839 5145 c-102 -52 -171 -127 -101 -111 53 13 182 107 182 133 0
18 -6 17 -81 -22z"/>
<path d="M6532 5145 c-20 -25 -20 -25 -57 -8 -36 17 -37 17 -51 -2 -22 -30
-17 -63 12 -82 26 -17 27 -17 50 12 l24 30 32 -18 33 -19 23 27 c28 33 25 44
-15 68 -31 18 -31 18 -51 -8z"/>
<path d="M2963 5120 c-70 -34 -86 -47 -103 -80 -11 -22 -18 -40 -15 -40 17 0
149 74 180 101 32 28 46 59 28 59 -5 0 -45 -18 -90 -40z"/>
<path d="M9640 5130 c-65 -27 -140 -86 -140 -109 0 -17 30 -6 101 36 124 72
149 119 39 73z"/>
<path d="M6805 5118 c-65 -33 -115 -74 -115 -95 0 -23 23 -15 105 36 83 51
122 91 88 91 -10 -1 -45 -15 -78 -32z"/>
<path d="M8652 4491 c-10 -6 -8 -10 10 -14 31 -9 1346 -9 1377 0 23 6 23 7 5
14 -26 10 -1376 11 -1392 0z"/>
<path d="M10054 4414 c-67 -27 -144 -87 -144 -110 0 -18 22 -13 93 23 69 34
154 115 120 113 -5 -1 -36 -12 -69 -26z"/>
<path d="M3153 4408 c-57 -22 -133 -82 -133 -104 0 -19 2 -18 63 12 70 36 133
80 140 99 8 20 -6 18 -70 -7z"/>
<path d="M5525 4400 c-20 -39 -20 -40 15 -40 39 0 38 -8 -7 -47 -25 -21 -32
-32 -22 -33 27 0 83 44 104 82 16 30 17 39 6 52 -8 9 -28 16 -47 16 -27 0 -36
-6 -49 -30z"/>
<path d="M8140 4399 c-68 -32 -120 -73 -120 -96 0 -21 22 -15 89 25 69 40 111
75 111 92 0 15 -9 13 -80 -21z"/>
<path d="M6490 4350 c-78 -42 -125 -80 -119 -99 6 -18 119 42 174 92 62 57 44
59 -55 7z"/>
<path d="M9767 4356 c-16 -34 -16 -36 1 -36 9 0 24 -5 32 -10 12 -8 10 -14
-15 -40 -24 -25 -26 -30 -11 -30 24 0 83 60 92 94 8 33 -2 45 -47 52 -32 5
-36 3 -52 -30z"/>
<path d="M4580 4338 c-22 -37 -26 -88 -9 -105 9 -9 3 -17 -25 -33 -20 -12 -36
-28 -36 -36 0 -19 5 -18 56 12 57 33 91 75 100 121 6 31 3 39 -16 55 -32 26
-48 23 -70 -14z m46 -32 c27 -20 6 -43 -25 -27 -22 12 -26 23 -14 34 9 10 17
9 39 -7z"/>
<path d="M4976 4332 c-22 -42 -20 -49 9 -49 41 0 42 -12 5 -44 -31 -25 -33
-28 -13 -29 28 0 77 42 93 80 16 38 2 56 -47 66 -28 5 -33 3 -47 -24z"/>
<path d="M3390 4317 c-91 -46 -115 -63 -128 -93 -7 -14 -12 -27 -12 -30 0 -8
129 63 167 92 32 25 61 64 46 64 -4 -1 -37 -15 -73 -33z"/>
<path d="M6790 4331 c0 -23 44 -71 65 -71 17 0 55 -56 55 -82 0 -9 -19 -29
-42 -43 l-43 -27 38 6 c47 6 66 21 84 63 15 38 18 167 3 158 -5 -3 -10 -42
-10 -86 0 -51 -4 -78 -10 -74 -5 3 -10 16 -10 27 0 33 -47 104 -84 127 -41 26
-46 26 -46 2z"/>
<path d="M8382 4316 c-81 -44 -132 -83 -132 -102 0 -19 2 -19 69 15 64 33 116
73 132 102 13 26 4 24 -69 -15z"/>
<path d="M6178 4263 c-28 -34 -30 -53 -3 -53 38 0 38 -15 0 -49 -35 -30 -35
-31 -11 -31 31 0 92 57 102 94 5 20 2 31 -12 41 -26 20 -58 18 -76 -2z"/>
<path d="M8090 4256 c-7 -20 -6 -67 4 -164 15 -155 10 -175 -44 -187 -67 -15
-135 15 -152 67 -3 7 -12 4 -25 -9 -20 -20 -96 -53 -157 -67 -26 -7 -28 -5
-21 16 15 48 18 128 5 143 -35 42 -96 2 -140 -90 -18 -37 -39 -66 -50 -70 -21
-7 -86 21 -139 60 -41 30 -40 30 -82 2 -26 -17 -38 -37 -52 -79 -16 -52 -23
-60 -92 -107 -80 -55 -95 -71 -71 -71 25 0 117 37 137 56 18 16 20 16 44 -6
32 -30 80 -23 137 19 54 40 118 43 148 9 104 -121 138 -139 177 -94 19 22 23
39 23 90 l0 63 43 12 c23 7 53 19 65 28 13 8 25 13 26 11 1 -2 9 -15 18 -29
20 -32 75 -59 119 -59 25 0 41 9 71 41 l40 41 32 -31 c45 -44 84 -53 152 -35
70 18 134 55 174 100 48 56 38 69 -28 35 -58 -29 -88 -33 -127 -17 -43 18 -58
62 -29 83 14 10 36 12 86 7 80 -8 87 3 28 42 -32 21 -47 25 -76 21 -20 -3 -44
-13 -54 -22 -20 -18 -40 -79 -40 -123 0 -40 -14 -48 -46 -27 -38 24 -50 65
-69 220 -9 77 -19 142 -21 144 -2 2 -8 -8 -14 -23z m-423 -290 c-7 -17 -95
-71 -103 -63 -3 3 15 27 40 53 34 35 49 45 57 37 7 -7 9 -18 6 -27z m-309 -86
c18 -11 30 -25 27 -30 -9 -15 -79 -12 -101 5 -19 15 -19 15 0 30 26 20 34 19
74 -5z m328 -81 c25 -21 16 -32 -22 -26 -38 6 -64 23 -64 40 0 12 67 2 86 -14z"/>
<path d="M3096 4243 c-4 -15 -2 -71 4 -123 22 -209 15 -226 -88 -217 -73 7
-88 16 -97 59 l-7 30 -22 -21 c-40 -38 -186 -92 -186 -69 0 6 5 39 12 74 13
71 4 94 -37 94 -36 0 -72 -36 -105 -104 -42 -90 -63 -92 -173 -22 -31 20 -60
36 -66 36 -26 0 -71 -54 -85 -103 -13 -45 -23 -57 -72 -92 -31 -22 -69 -50
-83 -63 l-26 -23 40 7 c44 7 90 28 118 52 16 14 19 13 40 -6 38 -36 87 -28
150 24 21 18 41 24 74 24 38 0 49 -5 72 -31 60 -72 89 -98 116 -105 23 -6 33
-2 52 20 19 22 23 39 23 90 l0 63 43 12 c23 7 53 19 65 28 13 8 25 13 26 11 1
-2 7 -16 14 -31 14 -33 65 -57 118 -57 30 0 44 7 76 41 l40 41 32 -31 c46 -44
84 -53 154 -35 85 22 223 126 199 150 -4 4 -34 -5 -68 -20 -63 -29 -92 -29
-136 0 -33 21 -30 62 5 75 27 11 91 8 125 -6 34 -14 18 22 -23 50 -32 22 -47
26 -76 22 -20 -3 -45 -14 -55 -23 -20 -18 -49 -101 -49 -141 0 -28 -10 -29
-43 -3 -34 27 -56 97 -71 230 -14 117 -20 138 -30 93z m-420 -258 c8 -20 -11
-42 -58 -66 -48 -24 -48 -11 -2 41 39 43 51 48 60 25z m-308 -105 c39 -24 34
-40 -14 -40 -64 0 -96 32 -51 50 30 12 28 12 65 -10z m333 -86 c12 -11 16 -21
10 -27 -11 -11 -101 27 -101 44 0 17 68 4 91 -17z"/>
<path d="M5677 4243 c-15 -29 -16 -43 -3 -160 8 -70 18 -163 21 -205 4 -43 10
-80 15 -83 27 -16 25 384 -1 445 l-16 35 -16 -32z"/>
<path d="M8865 4238 c-65 -33 -115 -74 -115 -95 0 -23 23 -15 105 36 83 51
122 91 88 91 -10 -1 -45 -15 -78 -32z"/>
<path d="M9991 4237 c-8 -25 -8 -66 3 -163 8 -71 18 -166 22 -212 9 -113 27
-92 32 37 4 92 -10 297 -24 349 -9 31 -21 27 -33 -11z"/>
<path d="M5535 4218 c-4 -18 -1 -80 4 -137 16 -150 14 -208 -5 -215 -47 -18
-155 2 -190 35 l-23 22 -38 -29 c-28 -21 -48 -28 -82 -28 l-46 -1 0 50 c0 44
-3 51 -27 63 -42 20 -123 26 -157 12 -30 -12 -58 -60 -46 -79 3 -6 15 -11 25
-11 10 0 31 -5 47 -12 l28 -11 -30 -7 c-16 -4 -65 -8 -107 -9 l-77 -1 6 34
c10 66 -71 109 -140 75 -12 -6 -46 -36 -75 -67 l-52 -57 -25 28 c-14 15 -25
37 -25 48 0 29 -16 23 -30 -12 -24 -58 -91 -65 -140 -14 -45 46 -76 47 -96 0
-7 -19 -14 -45 -14 -59 0 -29 42 -66 76 -66 13 0 24 -6 24 -13 0 -20 -25 -40
-105 -84 l-70 -38 38 -3 c55 -5 125 33 160 86 20 30 35 42 52 42 13 0 32 11
43 25 25 31 29 31 63 -1 22 -21 27 -33 23 -58 l-6 -31 20 24 c14 18 30 24 68
26 290 14 391 24 433 43 l43 20 36 -24 c47 -33 107 -32 152 1 18 13 37 22 41
19 5 -3 9 -23 9 -45 0 -32 4 -41 25 -51 21 -9 29 -7 60 21 20 17 47 31 61 31
38 0 82 27 101 63 15 27 18 57 17 187 0 147 -11 221 -34 235 -5 3 -12 -9 -15
-27z m-775 -320 l35 -21 -30 -13 c-39 -16 -155 -37 -163 -30 -8 8 48 66 73 76
32 14 48 11 85 -12z"/>
<path d="M9600 4233 c-69 -29 -147 -83 -158 -108 -17 -36 0 -33 83 16 69 40
125 85 125 101 0 11 -8 9 -50 -9z"/>
<path d="M2856 4212 c-20 -39 -20 -42 2 -42 9 0 24 -5 32 -10 13 -9 9 -15 -20
-40 -30 -26 -32 -30 -13 -30 31 0 80 45 93 86 14 42 7 52 -43 61 -32 5 -37 2
-51 -25z"/>
<path d="M7836 4218 c-23 -32 -20 -48 9 -48 32 0 32 -13 -2 -39 -30 -25 -25
-36 12 -27 25 6 85 78 85 102 0 36 -81 45 -104 12z"/>
<path d="M7290 4198 l-20 -33 30 -3 c39 -4 38 -19 -2 -53 -31 -26 -31 -28 -11
-29 27 0 90 61 99 95 8 33 -11 55 -47 55 -22 0 -34 -8 -49 -32z"/>
<path d="M2312 4203 c-7 -3 -19 -18 -27 -34 l-16 -29 36 0 c47 0 45 -18 -8
-53 l-42 -29 40 7 c50 8 63 20 86 70 16 36 17 41 2 57 -16 17 -44 22 -71 11z"/>
<path d="M6454 4185 c-19 -30 -11 -58 20 -73 20 -9 27 -7 40 7 22 24 20 68 -3
81 -29 15 -39 13 -57 -15z"/>
<path d="M9792 4188 c-28 -28 -2 -88 38 -88 43 0 54 75 14 90 -33 13 -37 13
-52 -2z"/>
<path d="M5345 4158 c-66 -33 -115 -74 -115 -96 0 -19 31 -8 112 39 59 34 88
62 88 83 0 12 -27 4 -85 -26z"/>
<path d="M9251 4172 c-17 -32 -13 -49 14 -56 34 -9 31 -21 -12 -51 -36 -24
-37 -25 -12 -25 36 0 72 30 94 80 21 47 15 58 -37 67 -30 4 -38 2 -47 -15z"/>
<path d="M4255 4140 c-19 -37 -19 -54 0 -46 17 6 45 -2 45 -15 0 -4 -13 -16
-30 -26 -35 -20 -39 -33 -9 -33 32 0 89 65 89 100 0 54 -70 69 -95 20z"/>
<path d="M4988 4126 c-13 -31 -6 -50 26 -71 30 -20 41 -15 55 25 9 29 8 32
-22 50 -41 25 -45 25 -59 -4z"/>
<path d="M4591 4094 c-28 -35 -27 -37 15 -57 41 -20 47 -18 64 24 12 28 12 33
-5 45 -28 21 -51 17 -74 -12z"/>
<path d="M8882 4048 c-7 -7 -12 -18 -12 -25 0 -10 -8 -9 -35 4 -28 13 -37 14
-50 3 -16 -13 -20 -47 -7 -66 4 -6 17 -16 30 -23 20 -10 23 -9 34 14 12 27 18
28 77 13 7 -2 22 9 34 24 20 27 20 28 2 48 -20 22 -55 26 -73 8z"/>
<path d="M6205 4021 c-3 -16 -15 -42 -26 -56 -26 -31 -79 -34 -127 -5 -18 11
-35 20 -37 20 -3 0 -5 -17 -5 -38 0 -27 9 -48 32 -76 l32 -39 -35 -29 c-18
-16 -67 -45 -106 -64 -40 -20 -73 -40 -73 -45 0 -12 66 -11 115 2 55 15 115
77 115 118 0 32 3 34 53 45 16 4 35 19 46 37 l18 30 13 -31 c20 -47 103 -117
150 -125 50 -9 139 16 203 57 50 32 105 94 93 105 -3 4 -28 -4 -55 -17 -61
-28 -126 -30 -151 -4 -53 54 -5 94 93 77 32 -5 60 -6 63 -1 7 10 -85 68 -107
68 -43 0 -70 -21 -94 -72 -14 -29 -25 -68 -25 -85 0 -36 -10 -40 -57 -22 -46
17 -73 50 -89 109 -20 69 -30 80 -39 41z"/>
<path d="M9836 4022 c-4 -12 -2 -47 5 -78 12 -52 11 -58 -7 -71 -13 -9 -40
-13 -89 -11 l-70 3 0 50 c0 58 -15 70 -102 81 -66 8 -107 -8 -123 -46 -15 -36
-7 -50 28 -50 30 0 60 -15 50 -25 -12 -12 -87 -17 -143 -10 -41 5 -65 14 -88
35 l-31 28 -26 -28 c-53 -56 -151 -48 -158 13 -4 32 -13 34 -38 6 -28 -31 -81
-56 -150 -69 -75 -15 -161 0 -202 35 -23 20 -27 30 -25 74 1 28 0 51 -3 51
-10 0 -34 -70 -34 -97 0 -15 9 -46 19 -69 15 -32 28 -45 67 -61 105 -45 202
-39 289 19 l46 31 27 -25 c58 -54 90 -60 134 -23 34 29 47 26 41 -9 -4 -17 3
-32 20 -50 33 -32 42 -32 74 0 20 20 42 28 92 35 36 5 88 17 115 25 46 16 50
15 91 -5 28 -14 61 -21 99 -21 50 0 60 4 94 34 l37 35 -2 79 c-1 88 -24 156
-37 114z"/>
<path d="M3623 4018 c-18 -23 -23 -80 -12 -122 25 -91 131 -144 267 -132 85 7
142 29 196 77 38 33 38 34 33 90 -3 31 -11 67 -18 80 l-12 24 -10 -24 c-8 -16
-7 -32 2 -54 6 -18 13 -36 14 -41 3 -16 -87 -44 -176 -56 -72 -10 -95 -9 -147
4 -63 16 -119 48 -121 69 -1 7 -1 31 1 55 2 44 -1 50 -17 30z"/>
<path d="M6872 4007 c-23 -27 -72 -143 -78 -184 -8 -57 14 -88 52 -71 17 8 27
8 37 -1 19 -15 42 -5 56 25 16 36 14 42 -15 42 -14 0 -31 5 -37 11 -8 8 -15 7
-28 -5 -38 -34 -51 15 -23 86 9 22 22 40 29 40 16 0 75 -78 75 -98 0 -7 6 -12
13 -9 22 8 10 63 -28 120 -21 32 -39 57 -40 57 -1 0 -7 -6 -13 -13z"/>
<path d="M6222 3747 c-21 -21 -23 -21 -51 -4 -39 23 -40 23 -58 -20 -14 -36
-14 -38 7 -55 29 -24 47 -23 60 3 10 17 17 20 51 14 67 -12 97 40 41 69 -27
14 -30 13 -50 -7z"/>
<path d="M7936 3744 c-22 -21 -20 -57 4 -79 20 -18 21 -18 52 12 33 34 31 46
-12 68 -26 13 -30 13 -44 -1z"/>
<path d="M2830 3731 c-15 -30 -12 -56 10 -76 20 -18 21 -18 50 10 l30 29 25
-24 26 -24 32 33 32 32 -24 20 c-30 25 -67 24 -81 -1 -10 -19 -11 -19 -43 0
-40 25 -44 25 -57 1z"/>
<path d="M7820 3731 c-22 -42 -5 -81 35 -81 50 0 61 56 16 83 -36 21 -38 21
-51 -2z"/>
<path d="M3850 3701 c-34 -64 27 -113 63 -52 22 38 22 38 -13 56 -37 19 -37
19 -50 -4z"/>
<path d="M5990 3654 c-82 -46 -140 -91 -140 -111 0 -18 26 -11 92 24 69 37
154 123 121 123 -5 0 -37 -16 -73 -36z"/>
<path d="M3949 3600 c-69 -35 -119 -78 -119 -101 0 -21 165 75 204 119 29 33
3 27 -85 -18z"/>
<path d="M7653 3601 c-73 -36 -115 -73 -99 -89 15 -14 179 76 196 108 16 30
-4 26 -97 -19z"/>
<path d="M2690 3589 c-36 -17 -77 -42 -92 -57 -28 -26 -37 -52 -18 -52 29 0
163 86 186 119 21 30 3 28 -76 -10z"/>
<path d="M4587 2982 c-21 -23 -22 -46 -2 -62 9 -7 14 -19 11 -26 -3 -9 11 -6
41 9 l45 22 -36 6 c-67 11 -75 49 -10 49 21 0 33 4 29 10 -10 17 -61 11 -78
-8z"/>
<path d="M6190 2925 c-48 -51 -159 -60 -236 -19 -45 24 -49 25 -61 8 -18 -25
-16 -37 11 -63 13 -12 32 -38 42 -57 21 -39 30 -42 39 -15 4 13 19 21 53 26
26 4 61 13 78 20 44 18 114 83 114 106 0 26 -12 24 -40 -6z"/>
<path d="M6422 2805 c-70 -33 -122 -74 -122 -95 0 -17 25 -11 86 21 62 33 100
63 115 92 13 24 3 22 -79 -18z"/>
<path d="M4565 2798 c16 -50 35 -61 100 -54 77 8 97 26 30 26 -28 0 -60 6 -71
13 -12 6 -32 18 -44 25 -21 13 -21 12 -15 -10z"/>
<path d="M5846 2789 c-4 -9 -6 -27 -4 -40 4 -36 -15 -35 -25 0 -10 42 -27 39
-27 -5 0 -28 -3 -35 -17 -32 -11 2 -19 14 -21 31 -4 35 -22 25 -22 -12 0 -38
17 -51 70 -51 33 0 52 6 63 18 20 22 21 37 3 77 -11 24 -15 27 -20 14z"/>
<path d="M7419 2735 c-83 -42 -159 -115 -120 -115 18 0 185 108 199 128 21 32
1 28 -79 -13z"/>
<path d="M6013 2713 c-14 -35 -14 -56 0 -244 9 -123 21 -220 30 -241 17 -40
71 -78 111 -78 15 0 38 11 52 25 14 14 28 25 33 25 20 0 51 -49 51 -81 l0 -34
18 22 c16 20 30 23 192 32 212 13 229 17 255 62 18 30 20 51 19 189 0 147 -13
240 -33 240 -23 0 -21 -81 9 -290 5 -37 5 -69 0 -74 -11 -11 -84 -25 -132 -26
l-38 0 0 50 c0 42 -4 52 -26 66 -22 15 -32 15 -80 5 -47 -11 -60 -19 -93 -62
-22 -26 -41 -54 -43 -60 -3 -8 -13 -7 -35 4 -31 17 -48 42 -37 58 12 20 -14 7
-41 -21 -49 -52 -114 -47 -145 10 -16 30 -40 221 -40 321 0 93 3 99 55 99 37
0 39 17 3 29 -53 19 -68 14 -85 -26z m530 -432 c23 -23 -23 -42 -132 -56 l-53
-7 23 32 c13 18 33 36 44 41 23 10 105 3 118 -10z"/>
<path d="M6450 2668 l-1 -43 -22 28 c-28 34 -41 35 -35 2 3 -14 2 -28 -3 -30
-10 -7 -39 23 -39 41 0 8 -4 14 -10 14 -16 0 -12 -53 6 -78 12 -17 19 -20 34
-12 10 5 32 7 48 4 38 -8 56 20 46 71 -9 51 -24 53 -24 3z"/>
<path d="M5554 2682 c-11 -7 -34 -45 -34 -56 0 -3 11 -6 24 -6 14 0 27 -4 31
-9 5 -9 -34 -45 -58 -54 -7 -2 -9 -7 -6 -11 3 -3 24 -1 45 6 31 10 44 22 61
57 21 42 22 46 6 63 -17 18 -49 23 -69 10z"/>
<path d="M6870 2638 c-11 -23 -10 -57 4 -205 9 -98 16 -203 16 -232 0 -81 20
-51 33 48 12 93 -2 296 -26 371 l-14 45 -13 -27z"/>
<path d="M4535 2601 c-120 -52 -117 -49 -176 -194 l-31 -78 17 -47 c10 -26 31
-77 47 -113 l30 -67 103 -41 c56 -23 110 -41 118 -41 23 0 207 77 227 95 26
23 83 199 76 232 -3 16 -21 66 -39 112 l-32 84 -94 45 c-52 24 -105 48 -116
52 -16 6 -50 -4 -130 -39z m184 -12 c108 -42 125 -59 172 -168 l40 -94 -42
-99 c-23 -54 -47 -102 -53 -106 -31 -23 -160 -72 -190 -72 -18 0 -74 18 -122
39 l-89 40 -38 100 -37 101 36 97 c20 54 37 99 39 101 3 3 198 92 203 92 2 0
38 -14 81 -31z"/>
<path d="M4568 2540 c-39 -11 -94 -57 -119 -96 -18 -30 -20 -47 -17 -123 3
-82 5 -92 34 -127 106 -132 314 -105 378 48 21 50 20 134 -3 184 -43 94 -167
146 -273 114z m173 -43 c51 -34 94 -111 93 -167 -1 -65 -46 -146 -97 -172 -85
-43 -203 -15 -251 60 -65 101 -36 219 69 284 45 27 142 25 186 -5z"/>
<path d="M4636 2369 c-53 -59 -80 -105 -71 -119 8 -12 135 -13 154 -1 8 5 11
16 7 26 -5 15 -15 16 -68 10 l-61 -7 47 60 c61 78 55 101 -8 31z"/>
<path d="M5797 2602 c-3 -15 1 -82 8 -147 18 -147 18 -192 3 -201 -17 -11 -92
-7 -132 6 -38 12 -50 34 -66 118 -5 30 -13 58 -16 64 -10 15 -24 -12 -24 -45
0 -23 -7 -31 -36 -43 -39 -17 -85 -11 -105 12 -36 44 -39 -19 -4 -95 l25 -53
-20 -33 c-28 -45 -109 -85 -172 -85 -72 0 -125 31 -150 87 -22 51 -20 73 18
147 30 58 26 68 -10 26 -28 -34 -56 -116 -56 -167 0 -66 53 -138 122 -168 56
-23 106 -19 164 14 74 43 110 88 118 150 5 36 12 54 24 57 53 17 71 28 80 47
10 22 10 22 17 2 41 -110 77 -145 148 -145 49 0 73 13 94 53 26 47 26 346 0
395 -10 17 -19 32 -21 32 -2 0 -6 -13 -9 -28z"/>
<path d="M7720 2588 c-78 -40 -132 -89 -117 -105 9 -8 99 34 148 69 37 26 66
65 56 74 -2 3 -42 -15 -87 -38z"/>
<path d="M7075 2563 c6 -48 38 -105 77 -140 15 -13 22 -15 25 -5 19 54 136
-75 147 -162 8 -64 16 -53 16 23 0 90 -17 125 -102 207 -65 63 -144 124 -161
124 -5 0 -7 -19 -2 -47z"/>
<path d="M5280 2552 c-76 -44 -132 -94 -119 -107 18 -17 219 117 219 146 0 16
-13 10 -100 -39z"/>
<path d="M7397 2573 c-3 -16 -3 -90 0 -166 l6 -138 -44 -45 c-24 -24 -75 -63
-114 -86 -82 -48 -80 -46 -73 -53 3 -3 35 4 73 16 82 25 157 92 174 156 13 49
31 250 24 272 -14 45 -26 71 -33 71 -4 0 -10 -12 -13 -27z"/>
<path d="M6361 2484 c-27 -35 -27 -41 9 -59 40 -21 47 -19 65 16 15 29 15 32
-1 50 -24 26 -49 24 -73 -7z"/>
<path d="M7663 2398 c-12 -16 -33 -76 -33 -94 0 -28 39 -54 80 -54 22 0 40 -4
40 -9 0 -5 -38 -34 -85 -65 -47 -31 -85 -61 -85 -66 0 -13 2 -13 82 10 58 18
72 27 93 58 47 72 45 139 -7 197 -31 36 -67 45 -85 23z"/>
<path d="M5242 2308 c-5 -7 -13 -23 -16 -35 -6 -18 -1 -26 26 -43 43 -26 45
-25 63 10 22 42 19 49 -20 66 -42 17 -40 17 -53 2z"/>
<path d="M5873 2118 c-57 -22 -133 -82 -133 -104 0 -19 2 -18 63 12 70 36 133
80 140 99 8 20 -6 18 -70 -7z"/>
<path d="M5588 2083 c-7 -16 -13 -30 -14 -32 -2 -2 -17 7 -34 19 -30 21 -32
22 -51 4 -25 -23 -21 -62 8 -81 21 -14 24 -13 51 16 25 28 30 30 42 16 15 -18
51 -20 68 -3 19 19 14 55 -10 72 -32 23 -47 20 -60 -11z"/>
</g>
</svg>
