<?xml version="1.0" standalone="no"?>
<!DOCTYPE svg PUBLIC "-//W3C//DTD SVG 20010904//EN"
 "http://www.w3.org/TR/2001/REC-SVG-20010904/DTD/svg10.dtd">
<svg version="1.0" xmlns="http://www.w3.org/2000/svg"
 width="1209.000000pt" height="1776.000000pt" viewBox="0 0 1209.000000 1776.000000"
 preserveAspectRatio="xMidYMid meet">
<metadata>
Created by potrace 1.16, written by Peter Selinger 2001-2019
</metadata>
<g transform="translate(0.000000,1776.000000) scale(0.100000,-0.100000)"
fill="#000000" stroke="none">
<path d="M5290 13756 c-12 -14 -20 -32 -17 -40 3 -8 -1 -20 -9 -26 -26 -23
-14 -31 17 -13 45 26 63 56 49 82 -13 26 -12 26 -40 -3z m21 -23 c13 -16 12
-17 -3 -4 -17 13 -22 21 -14 21 2 0 10 -8 17 -17z"/>
<path d="M4799 13736 c-13 -27 -4 -80 11 -71 6 4 17 20 26 36 12 24 13 34 3
45 -17 20 -28 17 -40 -10z m31 -16 c0 -5 -2 -10 -4 -10 -3 0 -8 5 -11 10 -3 6
-1 10 4 10 6 0 11 -4 11 -10z"/>
<path d="M7066 13741 c-10 -11 -16 -26 -13 -33 2 -7 -2 -21 -11 -31 -8 -9 -13
-20 -10 -23 10 -9 90 74 86 88 -7 21 -33 20 -52 -1z m25 -18 c13 -16 12 -17
-3 -4 -17 13 -22 21 -14 21 2 0 10 -8 17 -17z"/>
<path d="M7416 13713 c-4 -12 -2 -31 3 -42 6 -11 11 -30 12 -43 1 -19 3 -17
10 9 7 23 5 42 -4 65 -13 31 -14 32 -21 11z"/>
<path d="M4534 13705 c-4 -8 -5 -69 -3 -136 4 -118 5 -121 32 -145 15 -13 37
-24 47 -24 10 0 28 -14 40 -30 42 -59 85 -60 92 -2 2 18 10 28 23 30 51 7 62
13 73 37 14 30 15 84 3 103 -12 20 -23 -12 -15 -45 8 -32 -8 -43 -63 -43 l-41
0 5 39 c8 59 -12 61 -62 6 -47 -49 -74 -54 -95 -16 -12 24 -33 198 -25 211 3
5 15 10 26 10 11 0 17 5 14 10 -9 15 -45 12 -51 -5z m166 -224 c0 -12 -20 -25
-27 -18 -7 7 6 27 18 27 5 0 9 -4 9 -9z m15 -90 c10 -17 -12 -21 -25 -6 -10
12 -10 15 3 15 9 0 18 -4 22 -9z"/>
<path d="M4908 13695 c-13 -28 4 -231 22 -265 23 -42 82 -38 148 10 52 38 53
50 4 37 -47 -12 -72 -5 -72 23 0 20 10 24 60 21 24 -2 24 -1 6 14 -11 8 -32
15 -48 15 -25 0 -29 -5 -40 -45 -7 -25 -17 -44 -23 -42 -18 6 -34 74 -37 154
-3 75 -2 77 22 83 22 5 23 7 7 13 -30 11 -37 9 -49 -18z"/>
<path d="M6793 13704 c-3 -9 -1 -70 5 -136 12 -126 27 -168 62 -168 10 0 40
-18 66 -40 25 -23 51 -39 57 -37 6 2 16 19 22 37 9 28 18 36 46 41 48 10 72
44 64 89 -11 57 -27 72 -20 19 7 -53 0 -59 -67 -59 l-40 0 6 34 c12 66 -46 71
-79 6 -20 -39 -32 -44 -59 -27 -28 19 -46 83 -46 167 0 45 4 62 15 66 22 9 18
24 -5 24 -11 0 -23 -7 -27 -16z m162 -240 c-23 -17 -32 -10 -15 11 7 8 17 12
23 8 6 -4 3 -11 -8 -19z m29 -73 c8 -13 -3 -19 -24 -14 -11 3 -17 9 -14 14 7
11 31 12 38 0z"/>
<path d="M7177 13713 c-4 -3 -7 -20 -6 -37 1 -29 1 -30 8 -6 4 15 15 26 29 28
12 2 20 8 17 13 -7 10 -39 12 -48 2z"/>
<path d="M5341 13669 c-62 -42 -77 -56 -67 -66 9 -9 146 78 146 93 0 22 -13
17 -79 -27z"/>
<path d="M5039 13670 c-36 -19 -65 -47 -57 -55 8 -8 89 37 99 56 12 24 4 23
-42 -1z"/>
<path d="M7308 13670 c-38 -21 -54 -37 -44 -47 3 -3 24 7 46 22 66 46 65 60
-2 25z"/>
<path d="M7377 13658 c-8 -22 15 -238 26 -238 13 0 4 210 -9 234 -9 15 -12 15
-17 4z"/>
<path d="M5163 13634 c-3 -9 0 -20 7 -24 11 -7 11 -11 1 -24 -15 -18 -8 -20
18 -6 25 13 34 39 20 56 -15 19 -38 18 -46 -2z"/>
<path d="M4653 13620 c-29 -17 -44 -40 -28 -40 13 0 62 30 74 44 20 23 -6 21
-46 -4z"/>
<path d="M6913 13620 c-29 -17 -44 -40 -28 -40 16 0 72 29 84 43 12 15 11 17
-5 17 -11 0 -34 -9 -51 -20z"/>
<path d="M4824 13619 c-3 -6 -15 -8 -26 -6 -11 3 -21 0 -25 -9 -8 -21 12 -38
34 -29 10 5 24 7 31 6 23 -4 44 20 31 35 -14 17 -35 18 -45 3z"/>
<path d="M5394 13618 c-4 -6 -2 -14 4 -16 7 -2 12 -8 12 -14 0 -6 -7 -8 -15
-4 -10 4 -15 -1 -15 -16 0 -11 -8 -27 -17 -34 -10 -7 -15 -15 -11 -19 9 -9 65
31 78 56 18 33 -17 78 -36 47z"/>
<path d="M7104 13619 c-4 -6 -19 -9 -36 -5 -36 7 -51 -20 -23 -40 16 -12 21
-12 34 0 11 10 21 12 33 5 13 -7 20 -5 27 9 15 28 -18 58 -35 31z"/>
<path d="M5260 13575 c0 -8 7 -32 15 -52 8 -19 15 -41 15 -49 0 -24 -39 -26
-82 -4 -42 22 -51 20 -62 -16 -5 -16 0 -27 19 -42 l26 -21 -42 -30 c-30 -22
-37 -31 -23 -31 10 0 31 8 45 18 14 9 49 32 78 50 61 40 69 63 46 131 -17 52
-35 75 -35 46z"/>
<path d="M7185 13511 c3 -50 9 -79 21 -92 20 -22 72 -25 97 -6 21 14 32 75 22
114 -6 24 -8 25 -16 11 -7 -12 -5 -24 3 -38 11 -18 10 -23 -6 -36 -45 -32 -90
-4 -111 71 l-15 50 5 -74z"/>
<path d="M5406 13431 l6 -49 -41 -21 c-22 -12 -41 -26 -41 -31 0 -13 4 -13 45
4 18 8 38 23 44 34 19 35 12 112 -10 112 -6 0 -7 -21 -3 -49z"/>
<path d="M7305 13370 c-8 -13 13 -40 30 -40 15 0 28 27 19 41 -7 12 -41 11
-49 -1z"/>
<path d="M7251 13351 c-12 -21 -5 -31 20 -31 21 0 31 24 16 39 -16 16 -25 14
-36 -8z"/>
<path d="M4883 13123 c-21 -31 -33 -170 -14 -159 6 4 11 31 11 59 0 29 4 58 9
66 13 21 39 6 43 -25 3 -26 4 -26 36 19 35 49 44 79 17 57 -12 -10 -21 -10
-41 -1 -35 16 -41 14 -61 -16z"/>
<path d="M6940 13125 c-11 -28 -2 -147 11 -140 4 3 11 20 14 38 4 17 25 51 46
74 22 24 39 45 39 47 0 2 -14 -1 -30 -7 -23 -9 -35 -9 -50 1 -18 11 -21 9 -30
-13z"/>
<path d="M7076 13073 c-20 -42 -35 -84 -33 -92 2 -9 17 12 34 49 l31 64 31
-62 c30 -60 51 -73 51 -32 0 22 -61 150 -71 150 -4 0 -23 -35 -43 -77z"/>
<path d="M7190 13143 c0 -13 32 -56 51 -70 9 -7 23 -36 30 -65 l12 -53 14 75
c7 41 10 86 7 99 l-5 24 -25 -24 -24 -23 -30 22 c-17 13 -30 19 -30 15z"/>
<path d="M5025 13070 c-19 -37 -19 -37 10 -56 24 -16 27 -16 45 1 26 23 25 37
-3 63 -30 28 -33 28 -52 -8z"/>
<path d="M4816 12598 c-16 -23 -22 -79 -9 -91 7 -8 33 11 33 24 0 5 -7 9 -15
9 -13 0 -12 6 5 40 22 43 12 55 -14 18z"/>
<path d="M4860 12585 c-8 -9 -10 -29 -7 -51 5 -32 3 -36 -24 -46 -16 -5 -29
-14 -29 -19 0 -31 94 22 110 62 21 49 -19 92 -50 54z m30 -31 c0 -8 -4 -12
-10 -9 -5 3 -10 10 -10 16 0 5 5 9 10 9 6 0 10 -7 10 -16z"/>
<path d="M6627 12533 c-13 -12 -7 -33 10 -33 13 0 10 -7 -13 -31 -29 -31 -29
-31 -4 -24 38 11 60 35 60 67 0 23 -4 28 -23 28 -13 0 -27 -3 -30 -7z"/>
<path d="M6305 12505 c-33 -14 -72 -52 -63 -61 8 -7 78 23 100 43 36 32 17 42
-37 18z"/>
<path d="M5085 12481 c-53 -31 -92 -67 -82 -77 8 -9 87 39 116 70 35 37 23 39
-34 7z"/>
<path d="M6884 12475 c-9 -14 -13 -32 -9 -45 5 -15 0 -29 -16 -46 -35 -37 -4
-28 41 12 45 40 57 68 40 89 -18 22 -37 18 -56 -10z m36 -26 c0 -6 -4 -7 -10
-4 -5 3 -10 11 -10 16 0 6 5 7 10 4 6 -3 10 -11 10 -16z"/>
<path d="M4870 12415 c-9 -11 -17 -12 -33 -4 -16 9 -23 8 -34 -7 -17 -23 -16
-29 2 -44 12 -10 19 -10 27 -2 7 7 27 12 45 12 37 0 53 21 33 45 -16 19 -24
19 -40 0z"/>
<path d="M6494 12388 c-45 -31 -67 -58 -47 -58 16 0 101 60 107 75 8 23 -7 18
-60 -17z"/>
<path d="M6627 12396 c-4 -10 -4 -65 0 -123 6 -96 4 -107 -12 -119 -28 -21
-51 -17 -87 15 l-33 29 -33 -29 c-23 -20 -43 -29 -67 -29 l-35 0 0 55 c0 43
-4 56 -19 65 -30 16 -59 12 -82 -11 -18 -18 -20 -28 -14 -66 l6 -44 -48 6
c-26 4 -58 13 -70 21 -12 8 -25 14 -28 14 -14 0 -3 -54 17 -80 12 -16 20 -32
17 -34 -2 -2 -38 -25 -79 -51 l-75 -47 48 6 c63 8 82 19 112 66 l25 40 133 0
c129 0 134 1 157 25 l23 24 42 -24 c51 -31 86 -32 111 -4 17 18 19 37 19 148
0 122 -13 187 -28 147z m-306 -197 c22 -11 17 -29 -9 -29 -25 0 -46 16 -38 29
9 14 22 14 47 0z"/>
<path d="M7465 12387 c-10 -16 -14 -34 -9 -51 5 -20 2 -31 -12 -41 -11 -7 -16
-17 -12 -21 10 -10 70 38 88 70 26 50 -24 89 -55 43z m32 -33 c-9 -9 -28 6
-21 18 4 6 10 6 17 -1 6 -6 8 -13 4 -17z"/>
<path d="M5453 12375 c-55 -26 -89 -65 -56 -65 26 0 94 41 111 68 18 27 11 27
-55 -3z"/>
<path d="M6717 12393 c-3 -5 -2 -52 3 -104 5 -52 10 -121 10 -153 0 -82 19
-60 27 30 8 107 -19 262 -40 227z"/>
<path d="M5100 12365 c-1 -29 -1 -29 -16 -10 -11 14 -18 16 -21 8 -7 -19 -23
-16 -23 4 0 13 -3 14 -12 5 -9 -9 -9 -18 0 -37 10 -21 16 -24 44 -18 45 8 52
17 40 50 l-10 28 -2 -30z"/>
<path d="M5705 12361 c-53 -30 -92 -67 -82 -77 12 -12 111 55 128 88 12 23 13
23 -46 -11z"/>
<path d="M6293 12374 c-4 -11 -13 -13 -33 -9 -22 5 -28 2 -33 -14 -7 -29 17
-60 34 -43 7 6 30 12 50 12 24 0 39 5 43 16 10 25 7 30 -19 42 -33 15 -34 15
-42 -4z"/>
<path d="M5839 12359 c-10 -19 -9 -25 7 -36 24 -17 31 -17 43 6 8 13 7 22 -2
28 -28 22 -36 23 -48 2z"/>
<path d="M5916 12358 c-15 -21 -15 -24 1 -36 9 -7 22 -11 28 -9 16 6 17 43 1
56 -11 10 -17 8 -30 -11z"/>
<path d="M7265 12350 c-18 -20 -17 -20 11 -20 l29 -1 -27 -20 c-33 -24 -36
-39 -8 -32 26 7 64 59 56 78 -8 21 -40 18 -61 -5z"/>
<path d="M4101 12325 c-42 -49 -58 -104 -40 -146 14 -36 66 -99 80 -99 5 0 0
15 -11 33 -46 74 -46 151 0 210 39 50 15 52 -29 2z"/>
<path d="M5190 12339 c-13 -23 -13 -22 17 -38 19 -10 24 -8 33 10 13 23 13 22
-17 38 -19 10 -24 8 -33 -10z"/>
<path d="M7970 12353 c0 -4 9 -16 19 -27 10 -12 24 -44 30 -73 12 -59 3 -98
-37 -152 -22 -30 -23 -32 -4 -22 32 17 81 82 88 117 7 37 -17 98 -53 137 -26
26 -43 34 -43 20z"/>
<path d="M4591 12345 c0 -5 6 -18 14 -29 8 -10 19 -43 25 -73 11 -50 10 -57
-14 -103 -33 -64 -33 -70 4 -35 36 34 65 105 56 138 -6 25 -85 119 -85 102z"/>
<path d="M6080 12326 c-25 -12 -46 -30 -48 -39 -5 -23 5 -21 66 13 81 47 66
70 -18 26z"/>
<path d="M7721 12318 c-63 -64 -61 -129 3 -205 39 -47 51 -41 21 10 -35 60
-35 140 0 191 30 45 18 47 -24 4z"/>
<path d="M6840 12311 c-14 -26 -13 -29 9 -41 15 -7 23 -6 35 6 18 17 14 29
-14 44 -15 8 -21 6 -30 -9z"/>
<path d="M6918 12305 c-14 -31 0 -50 31 -40 27 8 27 41 1 55 -17 9 -22 7 -32
-15z"/>
<path d="M4886 12303 c-4 -11 -22 -33 -41 -48 -38 -28 -65 -72 -65 -104 0 -24
30 -35 76 -26 30 5 39 2 63 -24 36 -38 69 -40 111 -5 l31 27 28 -27 c37 -36
101 -37 136 -1 20 19 25 34 25 78 0 33 -6 60 -16 73 -14 18 -15 15 -10 -42 5
-58 4 -62 -17 -68 -46 -12 -77 -6 -109 23 l-33 29 -33 -29 c-65 -58 -107 -30
-126 86 -9 57 -14 74 -20 58z m4 -77 c0 -20 -28 -46 -50 -46 -31 0 -32 17 -4
39 31 24 54 27 54 7z"/>
<path d="M7115 12294 c-61 -30 -99 -74 -63 -74 19 0 108 61 119 81 13 24 5 23
-56 -7z"/>
<path d="M4210 12226 c-23 -48 -40 -92 -38 -98 2 -6 17 17 34 50 16 34 31 62
34 62 3 0 19 -25 35 -55 30 -55 48 -65 53 -29 3 18 -47 125 -69 148 -5 6 -25
-26 -49 -78z"/>
<path d="M7821 12292 c-12 -23 -13 -102 -2 -142 l7 -25 12 22 c7 12 12 33 12
48 0 17 7 28 23 34 27 11 63 49 54 58 -4 3 -19 1 -34 -6 -24 -11 -29 -10 -44
10 l-17 22 -11 -21z"/>
<path d="M4421 12214 c-34 -37 -61 -73 -61 -79 0 -42 174 -30 188 13 3 9 -15
12 -67 12 -39 0 -71 4 -71 8 0 4 20 28 45 52 25 24 45 48 45 52 0 20 -23 3
-79 -58z"/>
<path d="M5842 12229 c2 -30 -1 -68 -5 -86 -7 -26 -4 -36 12 -52 26 -26 63
-27 84 -3 19 21 23 92 7 121 -6 13 -5 24 5 37 21 27 18 36 -6 23 -21 -11 -46
-9 -82 6 -16 7 -17 2 -15 -46z m78 -64 c9 -11 10 -19 3 -26 -25 -25 -73 11
-60 45 7 19 33 10 57 -19z"/>
<path d="M5456 12200 c5 -65 4 -77 -12 -91 -50 -44 -87 -29 -98 40 -8 55 -26
63 -26 11 0 -67 45 -140 86 -140 25 0 64 43 64 71 0 24 12 24 52 -1 42 -25 59
-25 92 1 26 21 52 22 99 4 13 -6 21 1 33 30 45 109 -38 160 -103 63 -56 -83
-113 -72 -165 33 l-28 54 6 -75z m254 -30 c8 -5 12 -11 9 -14 -3 -3 -14 1 -25
9 -21 16 -8 20 16 5z"/>
<path d="M6936 12218 c-10 -6 -36 -7 -57 -4 -33 5 -39 4 -39 -12 0 -10 5 -23
12 -30 9 -9 8 -25 -2 -68 -13 -55 -13 -57 9 -75 30 -25 35 -24 73 10 l32 29
-12 62 c-10 48 -10 65 -1 76 16 19 8 25 -15 12z m-22 -94 c31 -31 13 -64 -24
-44 -19 10 -27 40 -13 53 10 11 20 8 37 -9z"/>
<path d="M7253 12173 c-33 -13 -4 -91 38 -105 21 -7 -5 -35 -60 -63 -33 -17
-40 -24 -25 -25 56 -1 86 13 110 51 13 22 30 39 38 39 7 0 21 9 31 20 18 19
18 19 45 0 35 -25 45 -25 63 1 13 18 18 19 36 7 31 -19 55 0 59 48 2 36 1 38
-13 20 -13 -17 -18 -18 -39 -6 -21 11 -27 10 -41 -4 -24 -23 -65 -21 -65 4 0
26 -8 25 -36 -5 -13 -14 -27 -25 -33 -25 -5 0 -23 11 -39 25 -29 24 -44 29
-69 18z"/>
<path d="M7096 12152 c-4 -6 -2 -21 4 -32 24 -45 9 -73 -60 -110 l-65 -35 50
-3 c45 -3 53 0 77 27 43 49 49 99 15 145 -9 13 -16 15 -21 8z"/>
<path d="M5924 12040 c-59 -34 -96 -70 -73 -70 19 0 98 51 123 78 26 30 11 27
-50 -8z"/>
<path d="M5235 12034 c-54 -28 -103 -69 -92 -80 9 -9 87 39 121 75 36 37 35
37 -29 5z"/>
<path d="M6461 12031 c-9 -17 -8 -22 10 -31 29 -16 51 -5 47 22 -4 31 -43 36
-57 9z"/>
<path d="M5071 12027 c-7 -7 -26 -12 -44 -12 -25 0 -33 -5 -35 -21 -4 -25 24
-40 44 -23 10 8 22 8 43 1 51 -18 70 32 23 57 -13 7 -22 7 -31 -2z"/>
<path d="M7324 11634 c-8 -32 7 -119 21 -119 17 0 29 71 19 106 -12 42 -31 48
-40 13z"/>
<path d="M5895 11500 c-4 -11 -2 -44 4 -73 6 -28 12 -61 14 -72 3 -17 5 -16
15 8 15 36 15 99 0 132 -14 30 -24 32 -33 5z"/>
<path d="M6172 11475 c-16 -35 -16 -35 13 -35 31 0 32 -16 3 -41 -19 -15 -20
-18 -7 -19 22 0 79 65 79 89 0 39 -71 43 -88 6z"/>
<path d="M4950 11464 c-53 -24 -110 -69 -110 -86 0 -17 38 -7 86 23 55 35 94
68 94 81 0 12 -11 10 -70 -18z"/>
<path d="M6575 11458 c-66 -33 -105 -65 -105 -85 0 -7 2 -13 5 -13 14 0 104
52 134 77 52 45 35 56 -34 21z"/>
<path d="M5246 11464 c-10 -25 -7 -79 11 -247 9 -86 20 -154 24 -150 14 14 21
215 10 283 -16 103 -23 130 -31 130 -4 0 -11 -7 -14 -16z"/>
<path d="M6856 11464 c-8 -21 25 -394 35 -394 12 0 21 155 14 247 -10 135 -31
195 -49 147z"/>
<path d="M7575 11458 c-3 -13 1 -104 9 -201 9 -98 16 -183 16 -190 0 -8 4 -7
13 2 17 17 15 311 -2 363 -15 47 -29 56 -36 26z"/>
<path d="M3530 11437 c-75 -32 -75 -32 -113 -107 -44 -87 -44 -102 3 -213 l31
-75 90 -36 89 -36 90 36 89 37 40 94 41 94 -47 91 -48 91 -70 28 c-38 15 -81
28 -95 28 -14 1 -59 -14 -100 -32z m194 -15 l69 -26 39 -84 38 -83 -39 -87
-39 -87 -81 -32 -81 -33 -82 34 -82 34 -38 85 -38 85 39 84 38 84 79 31 c43
18 86 30 94 27 8 -3 46 -17 84 -32z"/>
<path d="M3529 11373 c-85 -77 -101 -158 -46 -239 38 -56 86 -84 145 -84 59 0
108 25 142 72 52 72 47 156 -13 225 -39 44 -82 63 -142 63 -38 0 -51 -6 -86
-37z m191 -12 c64 -47 87 -160 44 -218 -68 -92 -178 -99 -257 -15 -34 35 -43
83 -27 142 13 48 65 105 102 113 40 9 112 -3 138 -22z"/>
<path d="M5127 11448 c-4 -12 -1 -77 5 -144 6 -66 8 -129 5 -139 -7 -15 -17
-17 -83 -13 -41 3 -80 10 -87 17 -6 6 -15 11 -19 11 -14 0 -9 -58 8 -94 9 -19
14 -40 12 -48 -3 -8 -42 -33 -87 -57 -88 -48 -103 -67 -43 -57 65 12 125 48
155 94 23 34 34 42 58 42 42 0 83 24 98 57 19 40 25 175 13 262 -12 80 -25
107 -35 69z"/>
<path d="M6736 11454 c-3 -9 -1 -77 6 -151 12 -130 11 -136 -7 -150 -29 -21
-94 -8 -177 35 -18 9 -6 -55 18 -96 l27 -45 -24 -19 c-13 -10 -54 -34 -91 -54
-38 -19 -68 -39 -68 -44 0 -13 5 -13 68 4 70 19 98 38 122 86 19 37 24 40 61
40 53 0 75 13 99 59 17 34 19 54 14 172 -4 122 -15 179 -35 179 -4 0 -10 -7
-13 -16z"/>
<path d="M7284 11434 c-4 -15 -3 -39 2 -53 9 -24 14 -26 64 -26 53 0 55 1 58
29 5 38 -6 78 -19 70 -6 -3 -9 -16 -7 -27 4 -34 -16 -35 -22 -1 -6 34 -25 30
-25 -6 0 -41 -20 -38 -23 3 -4 43 -19 49 -28 11z"/>
<path d="M4296 11378 c-22 -31 -20 -38 9 -38 14 0 25 -6 25 -13 0 -8 -11 -20
-25 -27 -35 -19 -31 -31 5 -18 31 10 70 55 70 80 0 40 -60 51 -84 16z"/>
<path d="M8315 11360 c-15 -28 -14 -30 4 -30 33 0 33 -17 0 -44 l-31 -26 25 0
c29 0 87 60 87 90 0 20 -27 40 -54 40 -9 0 -22 -13 -31 -30z"/>
<path d="M4968 11338 l-4 -43 -13 33 c-16 38 -29 41 -33 7 -4 -32 -21 -34 -29
-3 -5 20 -7 21 -14 5 -4 -9 -4 -28 -1 -42 6 -22 10 -24 52 -21 52 4 64 16 64
63 0 49 -18 49 -22 1z"/>
<path d="M6537 11321 c-7 -35 -23 -41 -32 -11 -10 31 -28 24 -20 -7 9 -37 22
-52 43 -48 60 12 70 16 76 31 7 19 -3 64 -14 64 -5 0 -10 -12 -12 -27 l-3 -28
-16 29 -16 29 -6 -32z"/>
<path d="M7178 11320 c-9 -16 -34 -40 -55 -53 -73 -47 -113 -110 -93 -148 9
-15 22 -19 70 -19 32 0 62 5 65 11 5 6 20 -3 40 -25 27 -30 39 -36 74 -36 32
0 44 5 57 25 20 30 30 32 37 5 3 -10 17 -22 31 -26 43 -10 75 3 93 41 15 30
15 44 5 112 -7 43 -16 81 -21 86 -18 18 -23 -16 -11 -79 14 -74 9 -94 -22 -94
-47 0 -63 28 -73 123 -10 89 -27 74 -29 -24 -2 -57 -6 -74 -21 -85 -27 -20
-50 -17 -82 10 -26 22 -28 31 -31 108 -2 45 -7 86 -11 90 -3 4 -14 -6 -23 -22z
m8 -97 c5 -19 2 -30 -11 -40 -22 -15 -105 -18 -105 -3 0 10 87 70 102 70 4 0
11 -12 14 -27z"/>
<path d="M6082 11303 c-11 -4 -42 -54 -42 -68 0 -4 14 4 31 16 l31 22 49 -23
c26 -13 46 -26 44 -30 -8 -13 -163 -33 -199 -26 -20 4 -44 18 -55 31 -19 25
-41 33 -41 15 0 -5 -19 -19 -41 -31 -46 -23 -97 -20 -119 6 -23 28 -33 17 -25
-27 4 -24 8 -63 9 -88 1 -39 -2 -46 -32 -66 -70 -48 -168 -40 -217 17 -30 37
-32 78 -5 138 23 50 19 63 -10 36 -28 -26 -43 -80 -38 -141 6 -68 45 -121 111
-148 40 -17 52 -18 87 -7 54 16 114 78 136 138 16 46 19 48 50 45 23 -3 41 2
60 17 35 27 46 27 38 -3 -4 -18 1 -28 22 -45 35 -27 48 -27 68 4 9 14 26 25
39 25 12 0 84 14 159 32 133 30 138 33 153 64 8 17 15 34 15 37 0 2 -19 7 -42
10 -24 4 -79 18 -122 32 -80 25 -91 27 -114 18z"/>
<path d="M8615 11270 c-4 -22 0 -51 9 -77 14 -40 14 -43 -4 -53 -10 -5 -41
-10 -69 -10 -38 0 -56 5 -72 21 l-21 21 -27 -26 c-32 -31 -56 -33 -73 -6 -12
19 -13 19 -44 -5 -40 -31 -58 -31 -78 -3 -14 20 -18 21 -66 10 -88 -20 -132
-16 -175 18 -71 56 -103 49 -140 -34 -19 -44 -35 -61 -99 -105 -42 -29 -76
-54 -76 -57 0 -7 72 7 95 19 11 5 30 19 42 30 21 18 24 19 40 5 40 -35 93 -30
140 14 18 17 30 19 62 14 27 -4 54 -1 82 10 38 16 43 16 69 1 34 -21 78 -21
104 -2 16 12 23 12 52 -2 27 -13 36 -14 49 -3 8 7 15 19 15 27 0 10 12 7 44
-12 58 -34 106 -27 155 22 33 33 34 36 29 96 -3 35 -12 76 -21 93 l-15 29 -7
-35z m-667 -160 c44 -27 42 -44 -5 -37 -41 7 -69 29 -59 46 10 16 27 14 64 -9z"/>
<path d="M4458 11223 c-9 -10 -19 -29 -23 -41 l-7 -24 21 21 c23 23 55 21 121
-6 48 -20 27 -30 -80 -38 -94 -8 -139 3 -147 35 -6 24 -28 26 -37 5 -8 -22
-67 -45 -114 -45 -26 0 -54 11 -92 35 -81 52 -83 52 -150 -57 -18 -29 -55 -66
-95 -95 -37 -26 -62 -49 -56 -51 17 -6 77 17 117 44 33 23 38 24 53 9 27 -23
81 -19 125 11 32 22 45 25 81 19 51 -7 96 11 121 50 l16 25 39 -35 c55 -49 83
-49 259 -3 126 33 140 40 140 72 0 19 -13 26 -114 54 -131 37 -157 39 -178 15z
m-404 -114 c37 -29 33 -43 -11 -36 -41 7 -69 29 -59 46 11 17 41 13 70 -10z"/>
<path d="M5576 11151 c-14 -26 -14 -30 3 -45 24 -22 37 -20 55 6 22 31 20 35
-14 53 -29 15 -30 15 -44 -14z"/>
<path d="M7110 11029 c-62 -34 -100 -66 -100 -86 0 -18 6 -17 65 17 57 33 105
73 105 90 0 15 -10 12 -70 -21z"/>
<path d="M4613 11005 c-91 -42 -144 -112 -57 -75 58 25 101 56 114 81 14 25 6
24 -57 -6z"/>
<path d="M4331 10989 c-18 -19 -24 -21 -46 -11 -36 17 -40 15 -53 -13 -16 -34
-16 -32 14 -52 25 -16 27 -16 44 7 16 22 20 22 50 10 28 -12 33 -11 51 6 19
20 19 20 -10 48 l-29 28 -21 -23z"/>
<path d="M8577 10982 c-24 -26 -21 -39 13 -57 29 -15 30 -15 45 14 14 28 14
31 -7 45 -28 20 -31 20 -51 -2z"/>
<path d="M4100 10954 c-81 -35 -153 -94 -136 -111 12 -12 150 78 166 107 6 11
9 20 8 20 -2 -1 -19 -8 -38 -16z"/>
<path d="M7964 10935 c-95 -48 -141 -103 -62 -76 46 16 105 57 118 81 14 26 4
25 -56 -5z"/>
<path d="M8650 10889 c-78 -41 -119 -74 -107 -86 15 -14 170 75 181 104 4 9 5
17 4 19 -2 1 -37 -15 -78 -37z"/>
<path d="M5641 10884 c-62 -31 -102 -67 -88 -80 13 -14 150 65 167 96 15 28 4
25 -79 -16z"/>
<path d="M8493 10488 c-25 -33 -26 -41 -5 -36 26 7 26 8 7 -28 -25 -48 -19
-101 14 -135 32 -31 54 -35 114 -18 54 15 46 26 -24 31 -69 5 -99 28 -99 77 0
38 19 59 65 75 22 8 41 21 43 30 3 13 -6 16 -51 16 -32 0 -59 -5 -64 -12z"/>
<path d="M8029 10429 c-8 -16 -8 -36 0 -78 6 -31 12 -74 14 -96 l2 -40 19 28
c23 34 26 128 6 176 -15 36 -25 39 -41 10z"/>
<path d="M9787 10385 c-26 -23 -111 -55 -146 -55 -9 0 -45 14 -80 30 -35 17
-66 28 -69 26 -13 -14 -1 -58 25 -97 16 -24 33 -53 37 -63 6 -19 7 -19 22 2 8
12 30 24 52 27 86 13 111 25 156 76 62 68 64 107 3 54z"/>
<path d="M8555 10391 c-8 -15 3 -31 21 -31 9 0 14 7 12 17 -4 20 -24 28 -33
14z"/>
<path d="M6896 10348 c-24 -34 -20 -48 14 -48 39 0 39 -19 0 -45 -16 -11 -30
-23 -30 -27 0 -30 93 29 115 72 14 28 14 31 -5 50 -27 27 -75 26 -94 -2z"/>
<path d="M5534 10326 c-76 -36 -144 -89 -144 -112 0 -21 16 -17 80 17 55 29
149 113 139 124 -3 2 -37 -10 -75 -29z"/>
<path d="M6338 10336 c-8 -18 -8 -37 1 -70 6 -25 11 -66 11 -92 0 -39 2 -45
14 -34 8 6 20 35 27 64 10 45 9 61 -6 105 -18 57 -30 63 -47 27z"/>
<path d="M6730 10282 c-52 -37 -116 -88 -142 -113 -60 -56 -61 -78 -13 -195
45 -108 45 -121 -2 -141 -66 -27 -173 2 -173 47 0 32 -15 30 -43 -5 -37 -46
-90 -62 -140 -42 -24 11 -38 24 -43 41 -8 32 -8 32 -47 2 -68 -50 -98 -60
-187 -61 -69 0 -94 5 -133 24 -50 24 -55 34 -59 111 l-3 45 -24 -44 c-27 -52
-24 -92 10 -148 34 -55 94 -78 204 -78 81 0 95 3 138 28 26 15 47 32 47 37 0
19 19 10 65 -30 25 -22 53 -40 61 -40 24 0 71 28 92 55 11 14 23 25 26 25 3 0
26 -15 51 -34 24 -19 57 -37 73 -41 40 -8 106 20 138 59 19 22 27 27 31 17 14
-35 77 -91 120 -105 62 -21 85 -20 117 5 41 32 57 73 63 162 5 77 -9 264 -23
301 -10 27 -23 18 -34 -23 -7 -29 -6 -68 5 -152 8 -63 15 -131 15 -151 0 -35
-2 -38 -41 -48 -106 -29 -175 23 -262 197 l-51 104 25 23 c13 13 58 49 100 79
73 53 77 55 86 35 8 -19 12 -15 30 33 12 30 24 62 28 72 12 28 -5 20 -105 -51z"/>
<path d="M9330 10302 c-60 -31 -70 -33 -125 -27 -35 4 -77 16 -102 31 l-41 24
-11 -31 c-10 -28 -8 -33 25 -66 19 -19 40 -46 45 -60 9 -24 11 -25 23 -8 7 10
44 26 84 36 39 10 82 25 95 34 25 16 84 93 76 99 -2 1 -33 -13 -69 -32z"/>
<path d="M7454 10247 c-94 -43 -123 -63 -135 -94 -5 -14 -8 -28 -5 -30 13 -13
199 105 210 133 4 9 5 18 3 20 -1 2 -34 -11 -73 -29z"/>
<path d="M3621 10204 c-1 -47 -6 -67 -26 -94 -28 -38 -32 -72 -10 -90 16 -14
135 -8 270 12 130 19 108 30 -50 24 -171 -5 -207 -1 -203 23 3 13 14 15 66 12
34 -1 85 2 112 9 39 9 54 9 65 0 32 -27 87 40 65 81 -14 26 -26 24 -46 -6 -9
-14 -22 -24 -28 -23 -6 1 -20 -3 -31 -9 -11 -6 -45 -14 -75 -18 -73 -9 -88 3
-99 80 l-9 60 -1 -61z m269 -54 c0 -5 -4 -10 -10 -10 -5 0 -10 5 -10 10 0 6 5
10 10 10 6 0 10 -4 10 -10z"/>
<path d="M4606 10218 c-24 -34 -20 -48 13 -48 17 0 32 -4 35 -9 6 -8 -25 -40
-59 -60 -17 -11 -16 -12 14 -7 52 9 79 32 91 77 14 50 1 69 -46 69 -23 0 -38
-7 -48 -22z"/>
<path d="M7042 10211 c-9 -25 -8 -58 4 -144 8 -62 17 -163 21 -224 3 -62 10
-113 14 -113 18 0 23 60 23 225 -1 167 -10 232 -37 269 -13 18 -15 17 -25 -13z"/>
<path d="M9842 10208 c-6 -21 -4 -78 3 -153 7 -66 16 -162 20 -212 15 -197 42
-44 31 176 -10 192 -32 268 -54 189z"/>
<path d="M7615 10207 c-4 -14 -5 -92 -3 -173 l3 -148 -32 -22 c-99 -67 -288
-51 -337 29 -9 14 -5 28 16 69 15 28 26 54 23 56 -9 10 -48 -33 -66 -73 -24
-52 -24 -82 1 -123 38 -62 180 -105 271 -82 76 19 94 30 113 65 23 43 30 43
46 5 16 -40 75 -90 104 -90 13 0 35 9 49 20 43 34 52 79 51 255 0 136 -3 165
-19 195 l-18 35 -9 -30 c-5 -17 -4 -82 3 -155 6 -69 9 -143 7 -165 -3 -37 -6
-40 -41 -47 -82 -17 -103 21 -124 230 -15 157 -26 198 -38 149z"/>
<path d="M5946 10198 c-23 -36 -29 -74 -16 -99 11 -20 9 -25 -26 -55 -57 -48
-33 -54 33 -8 65 45 103 94 103 135 0 49 -67 68 -94 27z m38 -34 c23 -9 20
-34 -3 -34 -22 0 -35 15 -26 30 7 12 8 12 29 4z"/>
<path d="M3196 10188 c-21 -29 -20 -58 2 -74 26 -20 50 -17 67 10 19 29 13 47
-25 69 -28 17 -29 17 -44 -5z"/>
<path d="M9647 10203 c-11 -10 -8 -116 5 -235 10 -94 10 -110 -3 -123 -11 -11
-49 -17 -141 -22 l-126 -6 -62 47 c-34 25 -72 46 -84 46 -29 0 -54 -28 -86
-93 -20 -42 -41 -64 -107 -112 -45 -33 -82 -63 -83 -67 0 -11 44 -10 77 3 15
5 44 26 64 45 l35 34 24 -25 c37 -39 119 -29 159 19 10 12 35 14 149 9 l137
-6 31 27 c53 44 62 81 59 254 -4 170 -19 235 -48 205z m-378 -405 c28 -17 26
-36 -3 -44 -43 -10 -99 34 -76 60 12 16 37 11 79 -16z"/>
<path d="M4973 10156 c-84 -42 -113 -70 -113 -107 0 -11 66 21 135 67 46 31
82 70 72 80 -2 3 -44 -16 -94 -40z"/>
<path d="M5170 10171 c0 -31 18 -72 57 -128 39 -56 47 -62 57 -37 16 41 131
-96 143 -169 8 -52 23 -28 23 37 0 68 -30 124 -102 191 -58 54 -155 125 -170
125 -5 0 -8 -9 -8 -19z"/>
<path d="M2906 10148 c-25 -35 -20 -48 19 -48 19 0 35 -4 35 -9 0 -5 -16 -19
-35 -31 -39 -24 -47 -45 -12 -34 37 12 66 34 88 71 20 33 20 35 4 53 -25 28
-79 26 -99 -2z"/>
<path d="M5502 10136 c-6 -18 -7 -92 -5 -163 l6 -130 -36 -39 c-19 -21 -61
-54 -94 -73 -96 -57 -105 -62 -100 -67 10 -11 129 25 166 49 53 35 88 110 97
207 3 41 10 95 15 119 8 35 6 53 -8 87 -10 24 -21 44 -25 44 -4 0 -11 -15 -16
-34z"/>
<path d="M8016 10128 c-17 -40 -12 -54 26 -67 39 -14 58 0 58 40 0 17 -8 34
-22 43 -33 23 -47 20 -62 -16z"/>
<path d="M4309 10112 c-84 -48 -102 -61 -123 -94 -23 -35 -18 -35 58 1 68 33
146 95 146 117 0 19 -6 18 -81 -24z"/>
<path d="M8486 10119 c-39 -16 -77 -36 -86 -44 -10 -9 -34 -53 -55 -100 l-37
-84 40 -98 40 -98 97 -39 97 -39 94 38 c104 41 92 28 154 177 l23 57 -40 98
-40 98 -89 32 c-49 17 -98 32 -109 32 -11 -1 -51 -14 -89 -30z m211 -30 c49
-20 55 -27 84 -87 45 -96 47 -121 14 -200 -15 -37 -33 -72 -39 -79 -13 -15
-153 -73 -175 -73 -9 0 -52 16 -97 36 -77 34 -82 38 -103 87 -13 29 -29 66
-36 82 -12 28 -10 37 25 119 l38 89 68 29 c81 33 138 33 221 -3z"/>
<path d="M8504 10060 c-63 -31 -93 -69 -106 -132 -15 -72 0 -125 47 -173 87
-86 254 -61 307 45 21 42 23 118 4 164 -25 60 -115 116 -187 116 -13 0 -42 -9
-65 -20z m119 -12 c83 -25 138 -112 122 -194 -14 -75 -121 -147 -194 -129 -45
11 -102 55 -117 90 -37 89 -8 175 75 217 61 32 60 32 114 16z"/>
<path d="M8577 9953 c-11 -10 -8 -133 3 -133 6 0 10 30 10 70 0 70 -1 76 -13
63z"/>
<path d="M9285 10110 c-4 -6 -5 -20 -3 -33 4 -35 -15 -35 -24 1 -12 44 -30 41
-26 -5 3 -32 0 -38 -17 -38 -14 0 -21 8 -23 28 -2 15 -8 27 -13 27 -15 0 -10
-54 7 -78 12 -18 19 -20 36 -11 11 6 31 8 44 5 33 -9 55 27 47 77 -6 37 -16
46 -28 27z"/>
<path d="M2242 10103 c-27 -5 -51 -43 -28 -43 13 0 13 -5 1 -41 -19 -53 -19
-92 0 -128 16 -32 33 -41 75 -41 31 0 80 19 80 30 0 4 -28 10 -61 12 -65 5
-99 28 -99 68 0 25 41 83 69 96 23 12 41 32 41 47 0 7 -38 7 -78 0z"/>
<path d="M2696 10069 c-8 -19 -34 -48 -59 -65 -57 -40 -96 -93 -104 -137 -4
-29 -2 -37 17 -47 22 -12 100 -9 145 4 16 5 23 -1 35 -26 18 -40 97 -84 130
-73 12 4 40 23 61 42 l39 35 56 -38 c53 -36 61 -39 124 -38 119 3 175 37 201
123 9 32 8 48 -5 89 -42 126 -137 141 -161 25 -3 -17 -2 -41 4 -52 13 -23 73
-45 107 -38 40 7 38 -12 -3 -30 -49 -21 -217 -24 -251 -5 -13 8 -28 27 -34 43
-13 36 -18 36 -43 -3 -28 -45 -83 -65 -135 -49 -55 16 -69 44 -82 158 -6 54
-14 102 -19 107 -5 6 -15 -5 -23 -25z m2 -113 c5 -41 -14 -56 -69 -56 -27 0
-49 4 -49 8 0 18 88 83 105 78 6 -1 11 -15 13 -30z"/>
<path d="M6402 10077 c-6 -7 -15 -25 -21 -39 -9 -24 -7 -30 21 -49 l31 -23 24
28 c30 35 27 55 -13 78 -25 15 -33 16 -42 5z"/>
<path d="M6288 10053 c-39 -44 -29 -93 18 -93 45 0 58 70 18 96 -18 12 -23 12
-36 -3z"/>
<path d="M7408 10023 c-24 -28 -32 -64 -17 -74 8 -5 37 -9 64 -9 68 0 42 -16
-52 -31 -40 -6 -73 -16 -73 -20 0 -15 49 -22 103 -15 121 14 147 106 30 106
-24 0 -43 5 -43 10 0 6 9 10 20 10 13 0 20 7 20 20 0 25 -31 27 -52 3z"/>
<path d="M4636 9980 c-5 -23 -2 -51 9 -79 17 -50 15 -54 -45 -71 -73 -21 -126
-6 -141 40 l-11 30 -38 -31 c-47 -38 -116 -59 -194 -59 -128 0 -182 37 -179
121 1 27 -2 49 -6 49 -12 0 -19 -21 -27 -79 -8 -63 14 -110 69 -147 36 -24 55
-29 129 -32 75 -4 92 -1 132 19 25 12 54 31 62 41 16 17 19 16 68 -23 47 -38
54 -40 96 -34 91 13 126 61 117 161 -3 34 -12 77 -20 95 l-14 34 -7 -35z"/>
<path d="M8036 9988 c-11 -44 -6 -53 48 -81 30 -16 62 -37 71 -47 16 -17 14
-19 -42 -30 -132 -25 -127 -23 -134 -60 -4 -19 -5 -38 -1 -42 11 -10 123 11
161 30 42 22 74 77 66 112 -13 52 -83 122 -137 135 -21 5 -26 2 -32 -17z"/>
<path d="M2265 9980 c-10 -16 16 -43 28 -31 11 11 2 41 -12 41 -5 0 -13 -5
-16 -10z"/>
<path d="M4960 9954 c0 -17 9 -56 19 -87 l20 -56 -31 -26 c-17 -15 -68 -45
-112 -68 l-81 -42 52 -3 c99 -6 172 47 189 137 7 37 -15 123 -41 156 -14 19
-14 19 -15 -11z"/>
<path d="M3650 9941 c-14 -27 -13 -34 4 -28 13 5 13 0 0 -36 -15 -42 -12 -103
7 -138 4 -9 22 -22 39 -29 26 -11 37 -10 75 5 25 9 45 21 45 26 0 5 -24 9 -54
9 -39 0 -60 6 -80 21 -49 39 -26 120 44 149 48 20 38 40 -20 40 -38 0 -52 -4
-60 -19z"/>
<path d="M3710 9830 c0 -15 5 -20 18 -18 9 2 17 10 17 18 0 8 -8 16 -17 18
-13 2 -18 -3 -18 -18z"/>
<path d="M2249 9799 c-9 -18 -7 -27 12 -53 19 -26 19 -28 2 -13 -26 23 -29 22
-42 -15 -10 -28 -9 -35 10 -53 12 -11 23 -15 25 -10 15 37 23 40 48 16 l24
-23 16 30 c14 28 14 30 -9 52 -14 13 -25 31 -25 40 0 16 -29 50 -43 50 -3 0
-11 -10 -18 -21z"/>
<path d="M3337 9716 c-77 -32 -104 -51 -122 -86 -21 -40 -8 -39 74 6 65 35
121 80 121 96 0 12 -9 10 -73 -16z"/>
<path d="M2600 9704 c-60 -28 -100 -60 -100 -81 0 -11 5 -11 23 -2 50 25 137
85 142 97 6 17 -3 15 -65 -14z"/>
<path d="M7816 9687 c-125 -67 -164 -140 -43 -80 68 33 121 74 138 104 15 29
-6 24 -95 -24z"/>
<path d="M4656 9691 c-24 -38 -25 -61 -4 -81 30 -27 52 -25 73 7 18 27 18 27
-16 55 -35 30 -45 33 -53 19z"/>
<path d="M3716 9668 c-10 -39 -7 -57 14 -68 16 -9 22 -6 36 15 16 25 16 27 -6
50 -29 31 -36 31 -44 3z"/>
<path d="M2978 9655 c-14 -31 -25 -31 -55 -3 -27 25 -39 18 -52 -30 -8 -28 -6
-34 17 -53 l27 -21 22 28 22 28 41 -19 c39 -18 41 -18 55 1 23 30 18 53 -17
74 -42 25 -46 25 -60 -5z"/>
<path d="M4200 9651 c-18 -35 -12 -60 20 -76 27 -14 30 -14 40 4 14 26 13 64
-2 79 -18 18 -46 14 -58 -7z"/>
<path d="M4530 9638 c-24 -40 -22 -50 14 -63 55 -19 91 46 44 79 -31 22 -35
21 -58 -16z"/>
<path d="M6665 9625 c-71 -41 -124 -86 -125 -107 0 -11 97 29 134 54 48 33 86
70 86 85 0 20 -9 17 -95 -32z"/>
<path d="M5924 9635 c-21 -33 -15 -58 19 -69 60 -21 93 45 38 77 -37 22 -37
22 -57 -8z"/>
<path d="M3686 9582 c-14 -27 -14 -31 4 -47 18 -17 22 -17 38 -2 15 13 19 14
36 1 29 -20 41 -17 55 13 11 24 10 29 -9 45 -27 22 -39 23 -46 3 -8 -19 -23
-19 -45 1 -16 15 -19 14 -33 -14z"/>
<path d="M5384 8956 c-98 -47 -186 -138 -97 -101 75 32 183 106 183 127 0 13
-12 10 -86 -26z"/>
<path d="M5960 8912 c0 -20 34 -55 62 -65 17 -6 58 -63 58 -81 0 -4 -17 -24
-37 -42 -28 -26 -33 -34 -19 -34 25 0 82 36 91 58 12 29 24 130 18 151 -11 42
-23 7 -23 -67 0 -80 -9 -85 -29 -15 -8 29 -25 53 -55 78 -48 39 -66 44 -66 17z"/>
<path d="M7714 8862 c-87 -46 -106 -60 -128 -94 -18 -27 -18 -28 0 -28 45 0
204 117 204 151 0 12 6 14 -76 -29z"/>
<path d="M8106 8838 c-24 -33 -20 -45 15 -46 17 0 33 -3 36 -5 2 -3 -16 -19
-42 -37 -53 -36 -53 -47 -1 -30 37 12 80 55 92 92 14 45 -71 68 -100 26z"/>
<path d="M8428 8818 l-3 -43 -20 32 c-25 42 -37 42 -33 1 2 -27 0 -33 -17 -33
-14 0 -21 8 -23 28 -2 15 -8 25 -13 22 -14 -9 -11 -48 7 -73 12 -17 19 -20 34
-12 10 5 32 7 48 4 38 -8 56 20 46 71 -9 51 -22 52 -26 3z"/>
<path d="M5405 8837 c-4 -9 -4 -28 -1 -42 9 -36 -13 -32 -25 5 -15 41 -27 38
-31 -7 -4 -49 -32 -53 -36 -5 -2 18 -8 30 -13 27 -12 -8 -12 -52 2 -76 9 -17
17 -19 57 -13 77 11 95 38 68 99 -12 25 -15 27 -21 12z"/>
<path d="M9719 8781 c-30 -31 -37 -67 -19 -101 8 -15 3 -25 -27 -54 -47 -45
-33 -46 37 -3 88 52 125 131 82 170 -26 24 -39 21 -73 -12z m49 -37 c24 -17
21 -34 -7 -34 -23 0 -41 19 -34 36 7 18 13 18 41 -2z"/>
<path d="M3010 8751 c-32 -31 -37 -59 -19 -93 9 -17 5 -26 -28 -60 -35 -37
-36 -40 -13 -33 82 22 164 126 144 182 -14 40 -47 42 -84 4z m46 -35 c25 -19
8 -37 -23 -25 -15 5 -21 14 -17 24 8 19 15 19 40 1z"/>
<path d="M3859 8754 c-19 -20 -24 -36 -24 -79 0 -46 -4 -58 -30 -86 -30 -31
-30 -31 -5 -24 71 21 137 87 147 148 4 28 1 37 -18 51 -32 22 -41 20 -70 -10z
m39 -36 c16 -16 15 -38 0 -38 -23 0 -41 18 -35 34 8 19 19 20 35 4z"/>
<path d="M4715 8750 c-20 -39 -20 -40 15 -40 40 0 38 -13 -6 -47 -20 -15 -32
-29 -26 -31 17 -5 68 25 96 58 43 52 30 90 -31 90 -26 0 -36 -6 -48 -30z"/>
<path d="M3590 8741 c-14 -28 -12 -51 4 -51 31 0 29 -24 -4 -52 l-34 -28 28 0
c54 0 124 101 95 136 -18 21 -76 18 -89 -5z"/>
<path d="M9452 8745 c-81 -35 -165 -105 -148 -123 8 -7 128 64 171 102 42 37
33 45 -23 21z"/>
<path d="M7722 8709 c4 -47 -13 -51 -34 -9 l-18 35 0 -31 c0 -42 -24 -63 -39
-35 -6 11 -11 28 -11 37 0 14 -3 15 -12 6 -9 -9 -8 -21 1 -52 l12 -41 52 7
c67 8 82 22 73 68 -9 47 -29 59 -24 15z"/>
<path d="M7002 8685 c-18 -38 -15 -43 21 -47 41 -4 39 -18 -6 -43 -46 -25 -48
-39 -4 -30 43 10 57 22 79 73 24 53 13 72 -42 72 -30 0 -39 -5 -48 -25z"/>
<path d="M5505 8690 c-10 -16 -7 -129 4 -218 5 -42 13 -119 17 -170 5 -70 9
-91 18 -82 7 7 12 75 14 195 3 152 1 193 -13 235 -16 49 -28 60 -40 40z"/>
<path d="M9429 8650 c-70 -36 -119 -78 -119 -102 0 -26 177 75 204 117 23 35
7 32 -85 -15z"/>
<path d="M5366 8664 c-10 -26 -6 -143 8 -249 16 -117 12 -125 -62 -125 -91 0
-142 52 -173 174 -6 25 -16 46 -21 46 -10 0 -8 -43 8 -167 8 -65 -9 -95 -71
-125 -43 -21 -45 -21 -65 -3 -11 10 -30 49 -41 87 -12 37 -25 70 -29 73 -17
11 -21 -16 -10 -77 20 -106 74 -188 126 -188 34 0 80 50 96 103 6 23 15 46 18
50 4 5 28 -10 54 -32 41 -36 53 -41 96 -41 41 0 52 4 74 30 14 17 30 48 35 68
13 53 6 325 -9 362 -14 33 -25 38 -34 14z"/>
<path d="M8354 8654 c-6 -25 -3 -106 12 -281 7 -72 7 -72 -20 -79 -38 -9 -115
1 -132 18 -21 20 -54 162 -61 261 -3 48 -10 90 -14 93 -17 10 -21 -50 -10
-154 6 -59 11 -128 11 -153 0 -42 -3 -48 -30 -59 -18 -7 -52 -10 -82 -8 -42 4
-57 11 -79 36 -27 30 -27 30 -46 10 -22 -25 -86 -58 -110 -58 -30 0 -81 37
-99 71 l-16 33 -16 -30 c-8 -16 -22 -34 -31 -41 -24 -18 -115 -37 -144 -29
-24 6 -25 9 -20 59 9 89 -34 145 -101 133 -59 -11 -76 -37 -76 -116 l0 -70
-55 0 c-64 0 -112 21 -124 53 -5 12 -12 50 -16 85 -4 34 -11 62 -16 62 -4 0
-13 -18 -19 -40 -18 -68 -65 -86 -135 -50 -22 11 -41 20 -42 20 -11 0 0 -67
16 -98 10 -20 22 -51 25 -68 6 -27 2 -35 -29 -62 -42 -38 -132 -66 -178 -57
-45 10 -114 51 -133 81 -21 31 -14 106 16 164 24 47 22 60 -4 31 -26 -29 -67
-158 -60 -189 14 -57 58 -123 98 -147 134 -78 269 -8 315 162 8 27 19 44 32
48 11 4 36 20 55 37 26 23 34 26 34 14 0 -28 37 -92 69 -118 29 -25 30 -25
241 -25 l211 0 34 40 35 41 28 -26 c71 -66 124 -76 182 -33 38 28 53 24 44
-10 -4 -18 1 -31 22 -50 34 -32 65 -29 82 8 10 20 20 27 43 27 30 0 65 26 86
64 10 18 14 16 50 -22 36 -38 44 -42 90 -42 57 0 86 23 108 87 16 44 10 330
-7 376 -13 34 -26 35 -34 1z m-945 -295 c27 -16 31 -23 20 -30 -38 -24 -99 2
-85 36 7 20 25 19 65 -6z"/>
<path d="M5090 8638 l-20 -33 25 -22 c34 -30 39 -29 66 9 l23 31 -28 24 c-35
30 -42 29 -66 -9z"/>
<path d="M7912 8633 c-28 -42 -33 -61 -20 -88 10 -23 8 -29 -27 -65 -47 -48
-37 -51 35 -7 63 37 100 86 100 131 0 60 -54 77 -88 29z m42 -29 c25 -9 19
-34 -7 -34 -30 0 -40 10 -26 27 13 15 12 15 33 7z"/>
<path d="M6774 8611 c-78 -39 -144 -94 -130 -108 9 -9 123 48 164 82 29 24 59
65 49 65 -3 0 -40 -18 -83 -39z"/>
<path d="M7366 8629 c-13 -19 -17 -20 -50 -8 -40 14 -50 9 -59 -31 -7 -30 0
-43 31 -59 21 -11 27 -10 48 10 21 20 28 21 59 12 32 -10 37 -9 55 14 26 33
25 38 -9 62 -37 27 -56 26 -75 0z"/>
<path d="M4440 8601 c-77 -40 -130 -83 -130 -107 0 -19 4 -18 81 22 64 34 129
91 129 114 0 13 7 15 -80 -29z"/>
<path d="M2435 8595 c-80 -39 -97 -51 -114 -83 -19 -35 -6 -38 50 -12 54 26
174 129 149 129 -8 0 -46 -15 -85 -34z"/>
<path d="M6025 8591 c-152 -56 -153 -57 -205 -188 l-33 -82 38 -93 c21 -51 43
-98 49 -104 6 -6 54 -28 107 -49 l96 -37 85 37 c47 20 95 46 106 58 11 12 37
60 57 105 l37 84 -22 51 c-61 143 -63 145 -164 193 -51 24 -95 44 -97 44 -2
-1 -26 -9 -54 -19z m155 -52 l75 -29 38 -91 38 -91 -17 -51 c-39 -119 -60
-141 -181 -190 l-62 -25 -92 41 -93 42 -38 89 -37 89 36 84 c40 94 65 117 164
153 60 21 63 21 169 -21z"/>
<path d="M6011 8515 c-80 -25 -141 -107 -141 -190 0 -104 100 -205 202 -205
69 1 163 67 187 133 6 16 11 48 11 73 0 135 -130 230 -259 189z m121 -25 c70
-20 128 -119 114 -195 -16 -81 -90 -145 -169 -145 -136 0 -221 144 -155 261
41 74 120 104 210 79z"/>
<path d="M6029 8383 c-12 -31 -3 -133 12 -133 5 0 9 18 9 40 0 22 5 40 10 40
17 0 60 47 60 65 0 13 -3 13 -20 3 -16 -10 -24 -10 -40 0 -18 11 -21 9 -31
-15z"/>
<path d="M2760 8558 l-20 -33 24 -6 c47 -13 49 -20 14 -50 -26 -22 -29 -28
-14 -29 10 0 33 15 51 33 59 59 56 117 -6 117 -22 0 -34 -8 -49 -32z"/>
<path d="M3610 8550 c-25 -25 -36 -68 -21 -83 12 -12 15 -47 3 -47 -4 0 -13
-9 -20 -20 -11 -18 -10 -19 14 -9 41 15 151 78 164 93 9 12 4 13 -29 9 -42 -6
-101 12 -101 30 0 6 21 8 55 4 30 -3 55 -4 55 -1 0 9 -66 44 -82 44 -10 0 -27
-9 -38 -20z"/>
<path d="M4776 8520 c-4 -21 -1 -54 8 -83 l14 -48 -26 -11 c-62 -25 -150 -14
-234 30 -15 7 -7 -54 12 -97 34 -73 25 -105 -43 -148 -34 -22 -53 -27 -98 -26
-144 3 -216 93 -169 213 25 65 21 86 -8 39 -48 -78 -51 -179 -6 -256 33 -58
115 -98 178 -89 86 13 164 87 187 177 l13 49 63 0 c113 0 149 37 146 150 -1
37 -8 82 -16 101 l-14 34 -7 -35z"/>
<path d="M2990 8508 c-11 -18 -20 -36 -20 -39 0 -5 65 -39 75 -39 3 0 14 18
25 40 l20 40 -36 15 c-46 19 -41 20 -64 -17z"/>
<path d="M7678 8518 c-16 -24 -11 -24 -80 10 -7 4 -38 -50 -38 -67 0 -6 13
-17 29 -26 28 -14 31 -14 50 11 l20 25 39 -20 c38 -19 40 -19 56 -2 23 25 20
57 -6 75 -31 22 -53 20 -70 -6z"/>
<path d="M9072 8504 c-73 -36 -122 -115 -122 -195 0 -55 1 -57 31 -68 18 -6
41 -11 51 -11 38 0 13 -35 -44 -64 -40 -20 -74 -29 -112 -30 -48 -1 -59 3 -85
28 -17 16 -38 49 -47 72 -16 43 -16 45 10 97 33 69 34 89 1 57 -23 -24 -55
-119 -55 -165 0 -32 45 -117 76 -146 56 -51 123 -45 209 20 69 52 105 100 112
148 6 45 -10 63 -74 82 -24 6 -43 18 -43 25 0 19 65 74 95 82 14 3 36 3 49 0
20 -5 24 -1 30 25 15 78 2 85 -82 43z"/>
<path d="M9696 8496 c-9 -21 -21 -68 -27 -104 -15 -85 -24 -102 -55 -102 -70
0 -127 64 -154 173 -7 26 -17 47 -22 47 -10 0 -8 -43 8 -167 8 -64 -8 -93 -66
-123 -66 -34 -93 -11 -121 103 -20 84 -42 68 -28 -21 11 -71 51 -156 83 -177
50 -33 114 7 137 86 7 24 16 48 20 53 4 4 27 -10 52 -33 l44 -41 142 7 c172 8
182 13 189 95 5 70 -5 88 -81 144 -34 25 -72 57 -84 71 l-21 26 -16 -37z m54
-120 c16 -20 9 -56 -12 -70 -39 -24 -68 33 -37 71 15 17 34 17 49 -1z m100
-61 l23 -25 -40 0 c-46 0 -53 4 -46 31 7 26 35 24 63 -6z"/>
<path d="M3875 8457 c-5 -26 -2 -51 10 -83 21 -56 16 -70 -32 -83 -70 -20 -94
-14 -139 30 -48 47 -82 49 -102 4 -32 -69 5 -135 75 -135 l38 0 -33 -28 c-19
-15 -64 -44 -100 -65 l-67 -39 56 5 c75 7 112 28 141 79 22 41 25 43 81 48 47
4 62 11 89 38 32 31 33 35 32 110 -1 57 -6 88 -22 117 l-20 40 -7 -38z"/>
<path d="M3328 8398 c-74 -89 -94 -106 -131 -113 -45 -9 -105 18 -120 54 -6
14 -12 28 -14 30 -1 2 -23 -15 -48 -38 -24 -22 -51 -41 -59 -41 -8 0 -21 -3
-29 -6 -8 -3 -34 12 -61 35 -26 23 -55 41 -65 41 -27 0 -52 -34 -58 -77 -5
-35 -2 -42 27 -66 17 -15 42 -27 56 -27 50 0 16 -33 -101 -98 l-60 -33 57 5
c76 6 105 22 143 76 25 35 39 46 64 48 22 2 46 17 73 44 l41 41 21 -24 c36
-42 69 -59 113 -59 33 0 50 7 79 32 l36 32 58 -16 c72 -19 90 -10 115 57 30
78 1 155 -60 155 -29 0 -40 -8 -77 -52z m94 -56 c26 -22 12 -32 -25 -20 -40
13 -51 23 -42 38 8 13 43 4 67 -18z"/>
<path d="M2556 8414 c-3 -9 4 -54 16 -101 l23 -86 -38 -32 c-52 -45 -120 -66
-183 -54 -124 23 -176 130 -111 228 31 46 29 65 -3 36 -57 -51 -76 -164 -41
-241 35 -77 133 -134 204 -118 92 19 163 85 183 169 12 54 11 63 -12 136 -14
44 -26 79 -28 79 -2 0 -7 -7 -10 -16z"/>
<path d="M2371 8349 c-23 -37 -19 -52 15 -68 40 -18 63 -13 76 15 11 24 9 29
-20 55 -41 36 -48 36 -71 -2z"/>
<path d="M6715 8330 c-21 -41 -19 -48 21 -65 42 -18 49 -15 63 25 9 29 8 32
-22 50 -42 26 -44 25 -62 -10z"/>
<path d="M4382 8328 c-22 -28 -23 -57 -3 -67 31 -17 58 -13 75 10 18 26 12 43
-20 58 -32 14 -39 14 -52 -1z"/>
<path d="M4781 8210 c-21 -29 -23 -30 -44 -15 -32 22 -45 19 -67 -17 -26 -43
-26 -43 13 -62 32 -16 32 -16 59 15 l26 31 32 -18 32 -19 24 28 c30 35 30 41
-2 66 -35 28 -46 27 -73 -9z"/>
<path d="M3436 8162 c-79 -42 -139 -93 -125 -107 11 -10 166 74 192 104 23 27
34 52 25 51 -2 0 -43 -22 -92 -48z"/>
<path d="M8399 8155 c-65 -33 -129 -86 -129 -107 0 -27 142 45 186 94 53 58
38 62 -57 13z"/>
<path d="M3887 8131 l-11 -29 -40 15 c-39 13 -42 13 -58 -8 -22 -26 -22 -33
-2 -53 36 -37 51 -38 74 -6 21 29 22 30 57 15 45 -19 40 -20 59 17 16 31 16
32 -10 55 -36 31 -55 29 -69 -6z"/>
<path d="M7077 8117 c-22 -24 -22 -24 -52 -6 -39 25 -42 24 -60 -12 -20 -37
-14 -55 21 -71 23 -11 28 -9 44 12 17 23 21 24 52 12 31 -12 35 -11 56 14 24
28 20 44 -20 65 -14 8 -23 5 -41 -14z"/>
<path d="M5080 8085 c-79 -41 -130 -83 -130 -106 0 -5 5 -9 11 -9 16 0 124 55
159 81 25 19 56 67 48 75 -2 1 -41 -17 -88 -41z"/>
<path d="M7385 8095 c-38 -18 -77 -40 -86 -47 -21 -17 -42 -58 -35 -66 16 -16
185 89 206 128 15 29 -2 26 -85 -15z"/>
<path d="M9385 7450 c-20 -38 -19 -40 10 -40 34 0 31 -22 -5 -43 -35 -21 -40
-41 -7 -32 54 17 110 102 86 131 -6 8 -24 14 -40 14 -21 0 -32 -7 -44 -30z"/>
<path d="M3005 7431 c-4 -12 -4 -65 0 -118 7 -87 9 -93 24 -79 21 22 21 149
-1 190 -15 29 -16 29 -23 7z"/>
<path d="M3244 7442 c-11 -7 -34 -45 -34 -56 0 -3 11 -6 23 -6 39 0 40 -13 5
-41 -18 -15 -29 -31 -25 -35 13 -13 60 21 91 65 29 40 29 41 11 61 -18 20 -51
26 -71 12z"/>
<path d="M3608 7405 c-79 -38 -114 -63 -127 -91 -6 -15 -10 -29 -7 -31 9 -9
124 59 156 92 44 45 35 58 -22 30z"/>
<path d="M4000 7378 c-24 -39 -24 -46 -5 -265 18 -204 28 -239 74 -270 44 -30
79 -29 122 2 l34 26 3 -45 c3 -39 7 -46 34 -57 29 -12 32 -11 57 19 19 24 34
32 57 32 21 0 40 10 63 34 l33 34 54 -19 c54 -18 55 -18 73 0 23 23 46 119 37
155 -3 14 -17 33 -30 42 -22 14 -27 14 -55 0 -17 -9 -43 -32 -58 -52 -61 -79
-78 -95 -114 -100 -45 -8 -106 19 -122 53 -13 30 -25 29 -37 -1 -12 -32 -39
-46 -88 -46 -75 0 -94 50 -106 280 -8 131 1 174 34 178 14 2 32 5 40 8 23 8
-8 24 -48 24 -26 0 -36 -6 -52 -32z m581 -403 c29 -16 31 -35 4 -35 -25 0 -65
23 -65 37 0 17 24 17 61 -2z"/>
<path d="M9562 7398 c-15 -15 -16 -199 -2 -378 l10 -125 39 -37 c34 -33 47
-38 86 -38 98 0 142 56 131 168 -4 35 -13 78 -20 96 l-13 31 -7 -40 c-4 -23
-2 -53 3 -69 16 -41 13 -74 -6 -80 -98 -27 -139 -18 -163 38 -20 46 -40 207
-40 325 0 85 4 90 68 91 25 0 30 15 6 24 -26 10 -79 7 -92 -6z"/>
<path d="M5185 7366 c-64 -37 -123 -91 -112 -103 16 -16 166 78 187 117 16 30
-4 26 -75 -14z"/>
<path d="M5446 7360 c-4 -14 0 -65 7 -115 13 -88 14 -89 25 -55 22 69 19 139
-7 171 l-19 24 -6 -25z"/>
<path d="M5921 7336 c-106 -60 -159 -136 -60 -85 73 37 114 67 132 99 10 16
15 30 10 29 -4 0 -41 -20 -82 -43z"/>
<path d="M7883 7348 c-29 -32 -36 -61 -21 -93 11 -24 9 -28 -20 -51 -18 -14
-32 -32 -32 -40 0 -12 8 -11 41 8 79 44 126 128 100 177 -15 27 -42 27 -68 -1z
m36 -37 c17 -11 7 -45 -12 -39 -13 5 -23 48 -10 48 4 0 14 -4 22 -9z"/>
<path d="M9190 7326 c-68 -35 -120 -79 -120 -102 0 -21 13 -17 72 17 57 33
104 73 119 102 13 23 4 21 -71 -17z"/>
<path d="M4270 7306 c-68 -35 -120 -79 -120 -102 0 -19 4 -18 71 18 56 29 119
87 119 108 0 13 6 15 -70 -24z"/>
<path d="M2782 7317 c-24 -28 -31 -66 -20 -97 10 -29 8 -34 -23 -66 -36 -37
-33 -42 10 -20 72 37 131 144 101 181 -15 18 -54 20 -68 2z m42 -46 c20 -22 7
-36 -24 -26 -20 6 -26 25 -13 38 10 11 19 8 37 -12z"/>
<path d="M6305 7290 c-10 -47 26 -453 39 -440 15 15 13 362 -3 417 -15 54 -28
62 -36 23z"/>
<path d="M3835 7264 c-97 -58 -147 -114 -89 -100 50 13 145 81 165 119 15 27
-9 21 -76 -19z"/>
<path d="M6204 7275 c-6 -26 -3 -90 12 -266 8 -87 9 -86 -87 -96 l-58 -6 -3
48 c-6 96 -91 111 -172 31 -23 -22 -49 -52 -57 -66 l-16 -24 -27 27 c-19 19
-25 33 -21 47 4 11 2 20 -4 20 -6 0 -11 -5 -11 -10 0 -25 -50 -60 -84 -60 -69
0 -98 71 -114 273 -12 149 -27 102 -27 -83 0 -141 -3 -172 -15 -180 -28 -18
-56 -10 -90 25 -19 19 -42 35 -51 35 -21 0 -44 -34 -54 -78 -6 -27 -3 -38 16
-58 13 -14 34 -24 50 -24 59 0 40 -27 -66 -96 l-60 -39 33 -3 c50 -5 123 35
147 81 11 21 34 46 52 57 18 10 39 30 49 44 l16 26 28 -30 c53 -57 117 -63
143 -14 l14 26 22 -28 c12 -16 25 -41 28 -56 6 -30 18 -36 26 -14 6 15 65 23
227 32 176 9 189 22 197 198 8 168 -21 346 -43 261z m-190 -315 c60 -23 21
-46 -113 -66 l-43 -6 23 32 c35 48 79 61 133 40z"/>
<path d="M9427 7281 c-2 -11 0 -61 6 -113 5 -51 10 -127 11 -168 l1 -75 -65 0
-65 0 0 44 c0 60 -33 85 -111 85 -49 0 -59 -3 -80 -27 -27 -31 -32 -67 -10
-67 8 0 27 -5 43 -11 24 -9 25 -12 12 -20 -9 -5 -47 -9 -85 -10 -62 -2 -70 1
-91 25 -13 15 -23 34 -23 42 0 22 -15 17 -30 -12 -18 -33 -59 -54 -108 -54
-41 0 -62 14 -62 42 0 25 -10 23 -56 -11 -52 -38 -116 -55 -186 -47 -110 11
-154 52 -141 131 8 51 -12 44 -26 -9 -24 -95 -3 -149 71 -184 94 -46 196 -37
264 22 l38 33 36 -39 c50 -51 89 -52 135 -2 l33 35 45 -32 c63 -44 121 -49
207 -16 l65 24 26 -20 c32 -23 108 -34 136 -18 11 5 29 27 39 48 34 68 21 423
-15 423 -5 0 -11 -9 -14 -19z"/>
<path d="M4911 7248 c-109 -63 -157 -137 -56 -87 52 26 120 81 135 110 15 27
4 24 -79 -23z"/>
<path d="M8207 7257 c-74 -41 -127 -84 -127 -102 0 -20 8 -19 55 6 51 27 122
85 135 110 15 26 4 24 -63 -14z"/>
<path d="M3285 7260 c-8 -24 -17 -25 -56 -5 l-30 16 -15 -38 c-15 -34 -15 -38
2 -50 24 -18 59 -16 74 3 10 11 23 14 50 9 29 -5 40 -2 55 15 20 22 20 22 -10
46 -37 29 -62 31 -70 4z"/>
<path d="M7654 7253 c-17 -23 -22 -24 -40 -13 -28 17 -52 7 -60 -26 -6 -23 -2
-32 22 -51 l29 -23 21 26 c18 22 25 24 42 15 35 -19 61 -13 68 14 8 34 0 51
-34 69 -28 14 -30 14 -48 -11z"/>
<path d="M7113 7243 c-11 -16 -18 -46 -18 -74 0 -39 -5 -53 -29 -78 -37 -39
-23 -40 35 -2 78 49 109 103 90 154 -14 37 -54 37 -78 0z m47 -49 c0 -16 -9
-17 -29 -5 -8 5 -11 16 -7 26 5 14 9 15 21 5 8 -7 15 -19 15 -26z"/>
<path d="M3546 7244 c-21 -20 -17 -63 7 -78 44 -28 74 52 31 81 -19 12 -24 12
-38 -3z"/>
<path d="M6660 7222 c-51 -25 -82 -48 -98 -72 -13 -19 -19 -36 -14 -38 25 -8
192 111 192 137 0 14 6 16 -80 -27z"/>
<path d="M7364 7252 c-11 -7 -34 -45 -34 -56 0 -3 11 -6 25 -6 33 0 32 -10 -7
-42 -30 -25 -31 -27 -11 -28 45 0 114 86 99 125 -6 16 -52 20 -72 7z"/>
<path d="M2454 7232 c-11 -7 -34 -45 -34 -56 0 -3 11 -6 25 -6 34 0 31 -13 -7
-44 l-33 -26 26 0 c29 0 82 51 94 91 11 35 -38 63 -71 41z"/>
<path d="M6921 7214 c-27 -35 -26 -44 3 -44 38 0 39 -15 5 -44 -39 -33 -33
-42 15 -22 27 11 42 27 56 58 17 39 18 44 3 60 -23 26 -58 22 -82 -8z"/>
<path d="M8910 7211 c-15 -30 -12 -48 10 -54 30 -8 24 -34 -12 -54 -26 -13
-29 -18 -15 -21 24 -5 64 22 87 61 27 43 25 66 -6 77 -37 15 -52 12 -64 -9z"/>
<path d="M5089 7189 c-12 -29 -11 -33 10 -50 30 -25 33 -24 59 10 l22 30 -29
20 c-39 28 -46 27 -62 -10z"/>
<path d="M5204 7188 c-16 -31 -16 -32 6 -50 29 -24 38 -23 52 6 13 30 6 51
-21 66 -18 9 -23 6 -37 -22z"/>
<path d="M5950 7191 c0 -39 -14 -47 -28 -16 -15 33 -34 32 -30 -2 4 -39 -25
-37 -33 2 -5 26 -7 27 -14 11 -4 -10 -4 -30 1 -45 8 -23 15 -26 54 -26 25 0
51 4 58 8 14 11 17 97 2 97 -5 0 -10 -13 -10 -29z"/>
<path d="M4290 7167 c0 -54 -13 -55 -36 -3 l-13 31 -1 -32 c0 -44 -19 -52 -33
-14 -15 41 -27 39 -27 -3 0 -45 21 -61 78 -57 55 3 64 13 56 61 -11 60 -23 69
-24 17z"/>
<path d="M9160 7170 l-20 -39 29 -16 c41 -21 48 -19 66 15 18 35 15 45 -25 65
-29 15 -30 15 -50 -25z"/>
<path d="M3015 7131 c-14 -28 -14 -31 11 -50 31 -24 49 -19 63 20 8 25 7 31
-12 44 -31 22 -45 19 -62 -14z"/>
<path d="M3256 7108 c-7 -13 -17 -40 -20 -60 -8 -46 15 -74 71 -83 21 -4 45
-8 53 -9 8 -2 -3 -11 -25 -21 -27 -12 -67 -18 -122 -19 -77 -1 -83 1 -112 28
-17 17 -31 36 -31 43 0 21 -16 15 -28 -11 -17 -38 -50 -53 -131 -61 l-74 -7 7
23 c23 73 18 122 -13 139 -27 14 -70 -24 -111 -96 -47 -82 -98 -85 -197 -14
-31 22 -64 40 -73 40 -23 0 -45 -26 -69 -81 -28 -64 -53 -92 -121 -140 -67
-47 -76 -64 -27 -54 43 9 91 40 111 70 l16 24 29 -30 c38 -38 76 -38 127 1 35
26 47 29 109 30 l70 0 28 -50 c27 -50 76 -90 110 -90 20 0 43 45 52 103 6 35
8 37 43 37 44 0 76 20 98 61 l15 30 20 -25 c73 -93 262 -85 311 14 31 61 17
161 -29 212 -23 26 -69 23 -87 -4z m-448 -130 c26 -26 9 -48 -50 -62 -35 -8
-35 4 -2 43 29 34 35 36 52 19z m-320 -90 c29 -28 28 -38 -6 -38 -36 0 -72 26
-72 52 0 17 4 19 28 13 15 -3 37 -16 50 -27z m354 -90 c12 -20 10 -28 -8 -28
-20 0 -74 31 -74 43 0 14 72 0 82 -15z"/>
<path d="M7611 7078 c-24 -25 -33 -65 -29 -123 3 -39 2 -40 -31 -43 -51 -5
-120 24 -127 54 -8 31 -27 31 -49 -2 -20 -31 -71 -54 -119 -54 -25 0 -46 10
-77 36 l-43 36 -18 -25 c-10 -14 -34 -31 -54 -37 -33 -11 -36 -10 -80 30 -28
26 -51 39 -60 36 -9 -3 -17 -6 -20 -6 -8 0 -34 -60 -34 -78 0 -30 38 -72 65
-72 60 0 24 -50 -72 -102 -24 -13 -43 -26 -43 -30 0 -15 75 -8 110 10 20 10
44 34 57 57 14 25 36 46 60 57 21 10 48 25 61 34 22 16 22 16 22 -29 0 -41 3
-46 31 -58 30 -12 33 -11 58 19 21 26 34 32 62 32 30 0 43 7 71 38 l35 39 31
-28 c42 -37 103 -53 177 -45 33 4 65 6 70 6 6 -1 49 -4 97 -7 67 -3 93 -1 118
12 66 34 85 110 54 216 -17 53 -17 54 -27 25 -6 -19 -6 -40 2 -66 23 -78 19
-83 -76 -95 -84 -11 -91 -5 -90 71 2 60 0 68 -26 90 -35 30 -80 31 -106 2z
m80 -87 c28 -23 16 -45 -21 -39 -31 4 -50 35 -30 48 21 13 25 13 51 -9z"/>
<path d="M3570 7063 c0 -14 8 -51 17 -80 12 -39 14 -59 7 -71 -6 -8 -46 -35
-90 -59 -105 -59 -108 -63 -46 -63 62 0 108 17 142 55 22 23 25 35 24 98 -1
72 -23 147 -43 147 -6 0 -11 -12 -11 -27z"/>
<path d="M3830 7069 c0 -13 5 -48 12 -80 15 -75 1 -97 -92 -144 -39 -19 -70
-40 -70 -45 0 -6 26 -10 57 -10 54 0 58 2 100 45 42 45 48 60 44 120 -5 67
-51 171 -51 114z"/>
<path d="M4846 7048 c-20 -28 -21 -92 -1 -108 8 -7 31 -18 52 -25 l36 -13 -59
-43 c-33 -24 -71 -52 -84 -62 l-25 -18 48 5 c26 3 61 13 77 21 36 18 80 100
80 147 0 32 -31 95 -54 110 -22 15 -55 8 -70 -14z"/>
<path d="M5218 7053 c-23 -15 -31 -15 -68 -3 -36 12 -43 12 -51 -1 -13 -21
-11 -42 6 -67 14 -20 14 -26 0 -67 -23 -70 -20 -99 16 -129 35 -30 35 -30 78
-15 39 14 49 32 57 101 5 43 2 64 -14 101 -20 45 -20 46 -1 63 36 33 21 44
-23 17z m-16 -144 c33 -32 29 -46 -12 -50 -60 -5 -83 18 -60 61 15 28 36 25
72 -11z"/>
<path d="M8150 7038 c-22 -37 -25 -60 -10 -88 11 -21 74 -45 96 -36 29 11 3
-14 -71 -68 -89 -67 -100 -81 -54 -71 79 17 114 40 144 97 27 52 28 57 15 102
-27 96 -82 126 -120 64z"/>
<path d="M6755 7038 c-4 -10 2 -48 14 -87 31 -103 31 -103 -48 -145 -98 -51
-161 -45 -224 21 -39 41 -44 89 -18 148 28 64 20 68 -16 8 -40 -68 -40 -153
-1 -209 58 -83 150 -114 225 -76 113 58 152 187 96 312 -16 36 -22 41 -28 28z"/>
<path d="M6590 6981 c-24 -45 -2 -81 49 -81 24 0 45 33 36 59 -5 17 -44 41
-65 41 -5 0 -14 -9 -20 -19z"/>
<path d="M4660 6818 c-65 -29 -138 -80 -149 -104 -6 -15 -10 -29 -7 -31 14
-14 166 90 186 128 12 21 6 23 -30 7z"/>
<path d="M7914 6765 c-7 -28 -22 -31 -50 -10 -27 20 -31 19 -49 -15 -21 -40
-19 -47 14 -64 26 -14 30 -14 45 3 9 10 16 23 16 29 0 17 8 15 46 -8 33 -21
33 -21 43 -1 17 31 13 59 -11 75 -32 22 -47 20 -54 -9z"/>
<path d="M9711 6764 c-25 -32 -26 -37 -3 -56 33 -28 51 -29 69 -2 18 29 12 47
-24 71 -19 13 -23 11 -42 -13z"/>
<path d="M8962 6753 c-20 -28 -21 -28 -50 -11 -28 17 -30 17 -46 -1 -22 -24
-20 -46 6 -71 29 -27 37 -25 51 10 l13 29 29 -19 c39 -26 51 -25 70 4 19 29
13 47 -24 69 -29 17 -30 17 -49 -10z"/>
<path d="M7408 6748 c-14 -21 -17 -22 -44 -8 -16 8 -32 16 -37 18 -4 2 -14
-13 -23 -33 -12 -28 -12 -40 -3 -51 17 -21 55 -17 71 8 l15 23 36 -20 c36 -19
37 -19 51 0 22 28 19 51 -6 69 -30 21 -43 20 -60 -6z"/>
<path d="M7689 6737 c-31 -17 -67 -41 -81 -52 -25 -21 -53 -63 -45 -71 5 -5
124 71 155 100 27 24 47 56 35 56 -4 0 -33 -15 -64 -33z"/>
<path d="M8525 6730 c-15 -30 -15 -30 17 -50 31 -19 34 -19 46 -3 18 25 15 61
-7 73 -30 16 -39 12 -56 -20z"/>
<path d="M8620 6641 c-82 -50 -134 -94 -129 -109 6 -18 97 29 153 79 69 63 56
78 -24 30z"/>
<path d="M9811 6645 c-71 -38 -111 -71 -111 -92 0 -18 2 -17 69 16 68 35 121
77 121 97 0 20 -7 18 -79 -21z"/>
<path d="M6507 5992 c-60 -32 -95 -57 -109 -79 -19 -32 -19 -33 -1 -33 28 0
164 81 186 111 35 49 13 49 -76 1z"/>
<path d="M7440 5991 c0 -22 43 -71 63 -71 18 0 43 -28 52 -58 5 -18 -1 -30
-31 -57 -36 -34 -37 -35 -13 -35 34 0 69 27 85 66 16 38 19 150 4 159 -6 4
-10 -22 -10 -69 0 -44 -4 -76 -10 -76 -5 0 -10 7 -10 17 0 26 -47 100 -79 122
-36 26 -51 27 -51 2z"/>
<path d="M2490 5975 c-28 -30 -77 -45 -149 -45 -44 0 -60 -5 -92 -31 -46 -36
-51 -56 -9 -34 18 9 56 15 100 15 80 0 109 14 156 76 32 41 27 54 -6 19z"/>
<path d="M8879 5888 c-18 -35 -20 -48 -11 -71 10 -25 7 -31 -24 -59 -64 -58
-32 -59 50 -1 98 69 118 173 34 173 -22 0 -32 -8 -49 -42z m65 -39 c-8 -13
-30 -11 -43 4 -18 23 8 41 31 21 9 -9 15 -21 12 -25z"/>
<path d="M6531 5850 c4 -44 -12 -53 -29 -17 -18 37 -34 34 -30 -5 4 -45 -23
-44 -38 0 -5 18 -13 29 -17 26 -12 -13 -7 -59 9 -82 12 -18 19 -20 34 -12 11
6 34 9 52 8 33 -3 33 -3 36 46 2 28 -2 54 -8 60 -9 8 -11 2 -9 -24z"/>
<path d="M2329 5823 c-26 -31 -5 -443 27 -520 15 -38 67 -73 108 -73 16 0 48
11 71 25 48 28 56 25 48 -16 -7 -38 11 -59 52 -59 24 0 37 7 49 25 14 21 24
25 62 25 63 0 109 24 130 68 24 50 24 136 -1 191 l-19 44 -8 -29 c-5 -17 -3
-55 4 -92 15 -80 12 -82 -106 -82 l-89 0 -35 38 -35 37 -38 -37 c-32 -33 -43
-38 -83 -38 -38 0 -48 4 -63 26 -24 38 -42 141 -49 292 -8 146 -6 152 48 152
39 0 43 16 6 29 -43 15 -63 14 -79 -6z"/>
<path d="M4089 5808 c-15 -25 -18 -43 -14 -72 5 -35 2 -43 -26 -72 -48 -49
-27 -53 38 -8 64 44 103 94 103 133 0 60 -67 72 -101 19z m64 -44 c-3 -14 -34
-17 -45 -6 -6 6 -8 18 -4 27 6 16 9 16 29 2 12 -8 21 -18 20 -23z"/>
<path d="M4933 5808 c-6 -7 -18 -28 -27 -46 -16 -32 -16 -35 0 -60 17 -25 16
-26 -7 -41 -13 -9 -32 -25 -43 -35 -33 -33 0 -31 52 3 89 57 123 111 100 159
-15 30 -58 41 -75 20z m36 -47 c14 -9 9 -41 -7 -41 -15 0 -34 28 -27 40 8 12
16 13 34 1z"/>
<path d="M4645 5770 c-20 -39 -20 -40 14 -40 46 0 46 -17 0 -45 -47 -30 -46
-42 4 -26 39 13 71 44 86 83 13 33 -11 58 -57 58 -25 0 -35 -6 -47 -30z"/>
<path d="M9792 5788 c-5 -7 -17 -27 -26 -45 -13 -26 -14 -37 -4 -59 12 -25 10
-29 -27 -60 -51 -42 -41 -52 22 -21 109 56 149 130 97 182 -19 18 -48 19 -62
3z m36 -50 c19 -19 14 -28 -12 -28 -27 0 -41 14 -31 30 8 14 28 13 43 -2z"/>
<path d="M9515 5766 c-31 -31 -29 -50 6 -51 36 0 36 -30 0 -51 -33 -20 -40
-34 -17 -34 15 0 69 41 98 75 32 37 20 67 -34 80 -21 5 -33 1 -53 -19z"/>
<path d="M5790 5748 c-18 -31 -18 -54 1 -43 12 8 49 -4 49 -15 0 -5 -13 -17
-30 -27 -34 -20 -39 -33 -11 -33 27 0 78 54 86 92 14 61 -61 82 -95 26z"/>
<path d="M6624 5729 c-10 -17 -7 -94 10 -239 9 -74 17 -164 18 -200 3 -63 4
-64 18 -40 23 38 20 353 -3 433 -17 55 -29 68 -43 46z"/>
<path d="M6908 5715 c-75 -31 -117 -61 -129 -93 -5 -13 -8 -27 -5 -29 12 -12
199 105 209 132 8 21 -7 19 -75 -10z"/>
<path d="M6486 5704 c-10 -27 -6 -145 9 -249 17 -122 13 -129 -77 -123 -74 5
-99 28 -134 122 -15 39 -33 78 -41 86 -11 12 -13 7 -13 -30 0 -25 7 -69 15
-99 12 -48 12 -58 -2 -93 -11 -29 -26 -44 -49 -54 -75 -31 -103 -12 -129 87
-22 82 -38 87 -33 9 9 -113 65 -210 122 -210 31 0 83 58 102 113 9 26 18 47
21 47 3 0 21 -13 39 -30 43 -37 106 -57 142 -44 66 23 89 112 78 305 -8 146
-30 216 -50 163z"/>
<path d="M6212 5680 c-9 -24 -7 -33 9 -55 26 -32 33 -32 60 7 l23 31 -28 24
c-36 31 -52 29 -64 -7z"/>
<path d="M8935 5666 l-16 -25 -35 21 c-43 25 -58 15 -58 -38 0 -24 6 -41 19
-50 25 -18 31 -18 55 6 16 16 28 19 60 14 46 -8 70 7 70 42 0 25 -33 54 -62
54 -10 0 -25 -11 -33 -24z"/>
<path d="M7432 5635 l-93 -44 -36 -78 c-51 -110 -52 -148 -5 -252 l37 -83 107
-45 107 -46 101 43 c55 24 104 48 109 54 5 6 25 51 46 101 42 102 42 105 -19
239 l-33 72 -97 42 c-54 23 -105 42 -114 42 -9 -1 -59 -21 -110 -45z m223 -27
l80 -29 42 -96 42 -95 -37 -92 -37 -91 -85 -42 c-47 -23 -94 -42 -105 -43 -11
0 -61 16 -112 36 l-92 37 -36 97 -37 98 37 83 c20 46 41 91 48 99 17 22 168
80 192 73 11 -3 56 -19 100 -35z"/>
<path d="M7460 5575 c-81 -37 -113 -90 -114 -191 -1 -66 2 -76 30 -115 42 -58
102 -89 171 -89 70 0 111 18 155 69 82 96 69 221 -34 304 -31 25 -48 30 -105
34 -48 2 -78 -1 -103 -12z m180 -35 c78 -40 112 -149 71 -232 -38 -80 -131
-123 -210 -99 -87 26 -151 119 -136 198 25 135 151 196 275 133z"/>
<path d="M7606 5464 c-12 -9 -23 -11 -29 -5 -6 6 -17 5 -28 -2 -15 -9 -24 -9
-41 2 -34 21 -49 -8 -42 -78 10 -86 24 -89 36 -6 2 14 15 23 48 31 28 7 51 20
64 37 23 31 19 41 -8 21z"/>
<path d="M3561 5655 c-69 -30 -148 -85 -160 -111 -6 -15 -10 -28 -9 -30 9 -8
130 61 171 97 65 56 64 72 -2 44z"/>
<path d="M8323 5633 c-80 -39 -123 -74 -123 -98 0 -21 13 -19 71 11 71 36 166
125 132 124 -5 -1 -41 -17 -80 -37z"/>
<path d="M9210 5638 c-27 -44 -26 -47 16 -64 33 -14 38 -14 55 2 24 22 24 35
-2 68 -27 34 -45 33 -69 -6z"/>
<path d="M5559 5625 c-64 -33 -129 -86 -129 -106 0 -13 4 -12 73 19 65 30 121
71 138 103 14 28 -4 24 -82 -16z"/>
<path d="M2596 5602 c-83 -44 -139 -93 -123 -108 20 -20 186 79 206 122 6 15
10 28 9 30 -2 1 -43 -18 -92 -44z"/>
<path d="M8647 5622 c-20 -22 -22 -52 -4 -52 6 0 19 -5 27 -10 12 -9 9 -15
-20 -40 -31 -26 -32 -29 -14 -30 51 0 116 89 94 130 -14 26 -61 26 -83 2z"/>
<path d="M3826 5608 c-26 -37 -20 -48 26 -48 l41 0 -23 -25 c-13 -13 -31 -27
-42 -31 -32 -10 -20 -26 15 -19 41 9 54 20 78 68 19 37 19 40 3 58 -24 27 -79
25 -98 -3z"/>
<path d="M4688 5610 c-26 -16 -41 -72 -27 -104 11 -24 9 -29 -16 -56 -16 -17
-26 -30 -22 -30 16 0 153 73 175 93 31 29 28 36 -15 25 -43 -11 -97 4 -90 25
4 13 52 15 80 3 31 -14 19 13 -15 34 -37 22 -46 24 -70 10z"/>
<path d="M4066 5564 c-23 -34 -17 -56 17 -68 59 -21 90 37 39 73 -37 26 -36
26 -56 -5z"/>
<path d="M5895 5571 c-4 -13 -2 -50 5 -83 7 -32 10 -61 7 -64 -26 -27 -185
-18 -218 12 -8 8 -19 14 -22 14 -13 0 -7 -57 10 -110 15 -46 15 -55 2 -78 -18
-32 -70 -69 -117 -81 -80 -23 -188 30 -212 103 -9 29 -7 43 16 100 27 64 28
86 4 71 -26 -16 -53 -99 -53 -165 -1 -79 18 -119 75 -160 90 -66 158 -63 242
11 52 46 70 76 80 132 l7 37 65 0 c116 0 150 36 147 156 -1 40 -8 85 -16 100
l-14 28 -8 -23z"/>
<path d="M9511 5543 c-12 -33 -12 -38 5 -50 30 -22 58 -16 78 18 10 17 16 32
14 33 -8 8 -68 36 -75 36 -5 0 -15 -17 -22 -37z"/>
<path d="M4945 5498 c-5 -25 -2 -53 9 -85 21 -61 9 -75 -72 -81 -58 -4 -60 -3
-100 37 -22 23 -46 41 -52 41 -26 0 -50 -23 -61 -59 -16 -55 3 -90 59 -109 23
-7 42 -18 42 -23 0 -11 -71 -57 -128 -83 -57 -26 -54 -40 7 -33 68 8 104 29
138 79 26 39 33 44 78 48 63 7 90 22 112 63 25 47 23 151 -4 202 l-21 40 -7
-37z"/>
<path d="M9795 5498 c-5 -26 -2 -53 11 -88 21 -58 16 -67 -44 -81 -71 -16
-182 18 -182 56 0 23 -15 18 -47 -13 -32 -33 -118 -58 -159 -48 -26 7 -26 9
-20 62 8 70 -10 108 -58 124 -29 9 -41 8 -69 -5 -48 -22 -61 -52 -53 -119 4
-35 2 -57 -5 -61 -6 -4 -40 -4 -76 0 l-66 7 7 54 c8 67 -9 106 -54 124 -27 11
-37 11 -65 -3 -52 -25 -69 -58 -62 -121 5 -49 3 -55 -16 -60 -41 -11 -56 -6
-102 34 -54 47 -76 50 -104 14 -44 -55 -14 -128 59 -143 17 -3 32 -10 33 -16
1 -5 -37 -30 -85 -55 -48 -25 -88 -49 -88 -54 0 -5 25 -6 55 -4 62 5 97 26
133 79 13 19 31 38 40 44 11 6 147 10 354 10 334 0 337 0 367 23 17 12 31 29
31 37 0 24 24 17 55 -15 64 -66 180 -66 240 0 29 32 27 158 -2 215 l-21 40 -7
-37z m-815 -96 c27 -22 19 -42 -16 -42 -69 0 -90 56 -23 59 9 1 27 -7 39 -17z
m330 -8 c13 -13 13 -16 0 -24 -24 -15 -53 -11 -80 10 -21 17 -23 21 -10 30 19
13 70 4 90 -16z"/>
<path d="M4444 5490 c-12 -5 -43 -34 -70 -66 -86 -101 -81 -97 -137 -91 -58 7
-97 30 -97 57 0 31 -15 31 -39 -1 -25 -33 -75 -59 -116 -59 -17 0 -37 12 -58
35 -18 19 -43 36 -56 37 -51 6 -89 -104 -45 -136 10 -8 38 -20 62 -27 l43 -12
-48 -32 c-26 -17 -67 -42 -90 -55 -24 -13 -43 -27 -43 -32 0 -14 64 -8 105 11
46 21 69 44 84 84 7 17 18 27 31 27 29 0 96 36 113 60 14 20 15 20 66 -14 29
-20 68 -38 88 -42 32 -6 39 -3 75 33 l40 40 65 -19 c36 -11 71 -17 79 -14 51
20 58 216 8 216 -7 0 -18 2 -26 4 -7 3 -23 1 -34 -4z m48 -104 c13 -18 9 -26
-12 -26 -23 0 -70 20 -70 31 0 21 68 17 82 -5z"/>
<path d="M6845 5466 c-56 -57 -35 -121 46 -141 l44 -11 -90 -59 c-108 -69
-101 -63 -89 -74 13 -13 104 5 134 27 41 30 79 110 80 166 0 41 -5 53 -34 82
-40 40 -59 42 -91 10z"/>
<path d="M3620 5448 c0 -18 9 -63 21 -99 12 -37 19 -74 16 -83 -3 -8 -34 -30
-69 -48 -142 -73 -288 -20 -288 105 0 21 9 55 20 77 25 49 26 68 3 49 -47 -40
-69 -172 -39 -242 27 -65 113 -117 190 -117 42 0 131 54 170 104 29 35 31 43
30 115 -1 54 -7 90 -22 124 -11 26 -23 47 -26 47 -3 0 -6 -15 -6 -32z"/>
<path d="M8431 5433 c-1 -22 8 -70 19 -105 19 -60 19 -64 2 -77 -39 -31 -139
-71 -176 -71 -73 0 -150 53 -170 118 -5 16 2 43 23 89 17 36 29 68 26 71 -10
10 -39 -24 -61 -73 -104 -222 165 -402 332 -223 72 76 81 149 31 258 l-25 55
-1 -42z"/>
<path d="M8249 5393 c-15 -41 -7 -65 27 -79 38 -16 62 -2 66 35 2 18 -6 31
-31 48 -43 29 -49 29 -62 -4z"/>
<path d="M3440 5391 c-17 -33 -11 -50 22 -71 30 -18 34 -18 50 -3 25 22 23 59
-4 77 -30 21 -55 20 -68 -3z"/>
<path d="M5492 5355 c-14 -30 -7 -52 19 -60 27 -9 57 3 70 28 10 17 8 24 -11
39 -32 26 -65 23 -78 -7z"/>
<path d="M5905 5250 c-21 -40 -20 -44 20 -63 34 -16 34 -16 55 10 26 33 25 37
-6 62 -36 28 -51 26 -69 -9z"/>
<path d="M4487 5208 c-53 -28 -83 -50 -93 -70 -9 -17 -13 -33 -9 -36 10 -10
130 58 170 96 66 65 42 68 -68 10z"/>
<path d="M5791 5224 c-26 -34 -26 -40 2 -58 41 -26 59 -24 74 11 12 30 11 35
-7 53 -27 27 -44 25 -69 -6z"/>
<path d="M4960 5191 c-5 -11 -10 -27 -10 -36 0 -14 -6 -13 -41 7 l-41 23 -19
-24 c-25 -30 -24 -58 2 -71 29 -16 62 -8 75 17 l11 22 36 -19 37 -20 20 32
c11 18 20 35 20 38 0 6 -64 50 -73 50 -3 0 -11 -9 -17 -19z"/>
<path d="M9807 5171 l-11 -29 -40 15 c-39 13 -42 13 -58 -8 -22 -26 -22 -33
-2 -53 36 -37 51 -38 74 -6 21 29 22 30 57 15 45 -19 40 -20 58 14 18 36 12
54 -21 70 -37 16 -45 14 -57 -18z"/>
<path d="M9304 5153 c-39 -21 -79 -45 -90 -53 -24 -17 -60 -70 -48 -70 32 0
224 129 224 151 0 15 -14 11 -86 -28z"/>
<path d="M2786 5143 c-14 -29 -15 -38 -4 -45 42 -27 88 -16 88 21 0 19 -39 61
-56 61 -6 0 -18 -16 -28 -37z"/>
<path d="M6231 5131 c-83 -37 -102 -53 -116 -99 -7 -23 -6 -23 57 9 34 17 75
40 90 51 29 20 75 79 61 77 -4 0 -46 -18 -92 -38z"/>
<path d="M2907 5050 c-38 -16 -75 -34 -83 -41 -19 -16 -47 -69 -40 -76 12 -12
167 90 193 126 18 27 12 26 -70 -9z"/>
<path d="M6539 4434 c-28 -34 -92 -57 -161 -56 -64 0 -68 -2 -109 -39 -48 -45
-47 -60 2 -30 27 17 44 19 85 15 37 -5 59 -2 82 10 39 20 99 72 113 97 12 23
6 25 -12 3z"/>
<path d="M5957 4392 c-30 -33 -41 -80 -26 -109 13 -23 11 -27 -20 -55 -18 -16
-31 -31 -29 -33 2 -3 23 5 46 16 54 27 99 79 108 126 6 31 3 39 -16 55 -28 23
-43 23 -63 0z m43 -68 c0 -16 -26 -19 -35 -4 -4 6 -4 18 -1 27 5 12 9 13 21 3
8 -7 15 -19 15 -26z"/>
<path d="M9798 4355 c-19 -40 -20 -47 -8 -70 14 -25 12 -28 -25 -60 -22 -18
-38 -36 -35 -39 10 -9 92 38 126 71 59 58 55 143 -6 143 -26 0 -33 -7 -52 -45z
m46 -11 c9 -3 16 -13 16 -21 0 -21 -44 -12 -48 10 -4 18 6 21 32 11z"/>
<path d="M9582 4318 c-5 -7 -13 -23 -16 -35 -6 -19 -3 -22 26 -25 44 -4 40
-18 -13 -48 -50 -28 -33 -40 23 -17 45 19 89 97 69 121 -16 19 -74 21 -89 4z"/>
<path d="M3634 4280 c-74 -38 -134 -88 -134 -110 0 -15 17 -12 63 11 90 46
172 117 155 135 -3 3 -41 -14 -84 -36z"/>
<path d="M5711 4294 c-27 -34 -26 -44 2 -44 12 0 29 -5 37 -10 13 -9 11 -13
-10 -30 -14 -11 -28 -20 -32 -20 -19 0 -6 -20 13 -20 27 0 84 59 93 97 14 54
-65 75 -103 27z"/>
<path d="M8355 4281 c-44 -20 -86 -40 -93 -44 -15 -10 -45 -67 -39 -74 13 -13
200 105 211 133 4 9 5 18 4 19 -2 2 -39 -13 -83 -34z"/>
<path d="M2213 4283 c-7 -2 -13 -14 -13 -25 0 -13 5 -18 14 -15 13 5 13 1 0
-35 -19 -56 -18 -97 6 -135 18 -30 24 -33 67 -32 109 2 139 34 39 41 -45 3
-71 10 -85 22 -45 41 -13 127 52 144 18 5 33 16 35 25 3 14 -5 17 -50 16 -29
0 -59 -3 -65 -6z"/>
<path d="M6361 4263 c-24 -16 -24 -17 -17 -147 8 -157 24 -307 37 -358 12 -46
56 -79 112 -85 37 -4 47 0 82 30 l39 34 59 -19 c55 -19 59 -19 77 -3 51 46 62
153 19 196 -42 42 -74 24 -185 -105 -27 -32 -37 -36 -78 -36 -80 0 -97 34
-115 220 -25 259 -26 250 41 250 49 0 49 16 1 29 -48 14 -44 14 -72 -6z m384
-444 c19 -19 19 -19 -1 -19 -12 0 -35 5 -53 11 -26 9 -29 14 -20 25 14 17 46
10 74 -17z"/>
<path d="M7850 4245 c-9 -28 -9 -63 0 -155 23 -244 15 -282 -66 -307 -64 -19
-192 -16 -241 7 -62 28 -71 55 -39 119 30 58 23 65 -19 21 -23 -24 -30 -41
-33 -89 -5 -71 5 -93 61 -126 119 -69 296 -44 341 49 l14 29 21 -42 c23 -44
72 -81 108 -81 12 0 41 18 64 40 l42 40 43 -40 c41 -37 48 -40 103 -40 55 0
61 3 81 29 31 44 43 131 37 272 -3 93 -9 134 -22 160 l-18 34 -9 -30 c-4 -18
-2 -82 7 -160 24 -207 27 -187 -25 -202 -25 -8 -60 -11 -79 -8 -33 6 -81 44
-94 75 -5 11 -9 12 -13 3 -15 -33 -43 -55 -87 -68 -47 -14 -48 -14 -78 13 -35
32 -41 64 -59 317 -6 88 -15 164 -20 168 -4 5 -13 -8 -20 -28z"/>
<path d="M7710 4199 c-73 -34 -110 -64 -110 -91 0 -23 2 -23 53 3 63 33 125
77 137 99 15 28 -1 25 -80 -11z"/>
<path d="M2762 4166 c-89 -47 -132 -81 -132 -104 0 -21 43 -8 112 34 54 33
108 85 108 105 0 12 7 14 -88 -35z"/>
<path d="M9847 4176 c-11 -27 -8 -118 8 -281 8 -82 15 -163 15 -179 0 -24 2
-28 13 -17 9 9 12 58 11 179 -1 185 -9 271 -28 297 -12 17 -13 17 -19 1z"/>
<path d="M2277 4166 c-7 -19 18 -42 28 -26 8 13 -1 40 -14 40 -5 0 -11 -6 -14
-14z"/>
<path d="M5143 4146 c-65 -31 -136 -97 -120 -112 12 -12 192 98 208 127 14 28
-5 25 -88 -15z"/>
<path d="M5295 4153 c-4 -16 1 -116 11 -223 10 -108 15 -203 11 -213 -3 -9
-25 -29 -49 -44 -36 -23 -53 -28 -103 -27 -134 2 -196 84 -140 188 14 27 24
50 22 52 -2 2 -17 -11 -35 -29 -41 -42 -58 -108 -43 -162 26 -96 74 -134 176
-143 60 -4 62 -4 116 40 89 72 91 81 86 303 -6 228 -30 345 -52 258z"/>
<path d="M5977 4173 c-11 -11 -7 -137 12 -323 15 -159 18 -172 29 -140 6 20
12 106 13 201 1 133 -2 176 -15 217 -17 50 -25 60 -39 45z"/>
<path d="M8455 4151 c-3 -16 -2 -64 4 -108 15 -120 22 -211 23 -297 1 -68 3
-77 14 -61 22 29 27 101 20 251 -9 185 -42 302 -61 215z"/>
<path d="M9136 4164 c-7 -18 -3 -73 20 -281 10 -90 11 -139 4 -157 -11 -29
-56 -61 -113 -78 -71 -21 -186 28 -201 86 -4 16 3 50 18 91 28 74 19 85 -21
24 -27 -42 -41 -124 -29 -173 9 -37 56 -87 101 -107 62 -28 124 -25 171 10
107 78 115 102 109 337 -4 145 -9 198 -22 227 -17 40 -27 46 -37 21z"/>
<path d="M2918 4132 c-2 -16 -1 -62 3 -103 15 -143 11 -193 -13 -216 -30 -28
-97 -45 -178 -45 -83 -1 -152 27 -174 70 -15 29 -14 32 14 73 35 53 29 66 -10
22 -60 -67 -60 -160 0 -203 111 -79 279 -69 354 20 l24 29 28 -40 c31 -46 76
-73 104 -64 10 3 29 22 40 41 12 18 24 34 27 34 3 0 23 -18 43 -40 33 -36 42
-40 85 -40 43 0 52 4 87 41 l40 41 31 -30 c42 -41 75 -52 151 -52 117 0 182
55 192 162 6 62 -16 106 -68 138 -45 27 -65 25 -82 -7 -28 -56 -29 -88 -3
-119 21 -24 31 -27 75 -26 112 2 30 -44 -95 -54 -90 -7 -146 10 -166 53 -13
28 -33 30 -47 3 -26 -48 -147 -67 -186 -29 -21 22 -51 153 -59 262 -4 53 -11
97 -16 97 -17 0 -22 -54 -14 -154 15 -190 14 -197 -21 -218 -32 -19 -32 -18
-63 8 -39 33 -57 94 -71 239 -5 61 -10 116 -10 123 0 24 -18 11 -22 -16z"/>
<path d="M6730 4120 c-78 -39 -130 -82 -130 -107 0 -10 6 -12 23 -7 28 9 116
59 143 82 21 18 48 61 42 67 -2 2 -37 -14 -78 -35z"/>
<path d="M7104 4122 c-39 -20 -79 -44 -91 -52 -23 -18 -47 -59 -39 -68 16 -15
197 100 210 134 13 33 8 32 -80 -14z"/>
<path d="M8994 4121 c-54 -27 -85 -50 -97 -70 -22 -38 -12 -39 56 -5 65 33
113 69 127 94 15 28 3 25 -86 -19z"/>
<path d="M3646 4119 c-13 -19 -17 -20 -51 -8 -31 11 -37 11 -45 -1 -19 -30
-11 -65 19 -83 29 -17 30 -17 49 10 18 25 21 26 51 13 31 -12 34 -11 59 14
l27 27 -30 25 c-37 29 -59 30 -79 3z"/>
<path d="M5729 4099 c-12 -30 -11 -33 15 -55 35 -31 42 -30 66 9 26 42 25 44
-10 62 -42 22 -56 19 -71 -16z"/>
<path d="M9601 4098 c-11 -31 -10 -35 16 -55 33 -27 43 -25 63 10 13 24 13 28
-9 51 -33 35 -57 33 -70 -6z"/>
<path d="M8081 4102 c-18 -34 -13 -52 13 -52 14 0 27 -4 31 -10 6 -10 -21 -41
-51 -58 -37 -21 -5 -23 34 -3 88 45 99 125 20 138 -30 4 -38 2 -47 -15z"/>
<path d="M3355 4070 c-22 -42 -19 -50 20 -50 19 0 35 -3 35 -7 0 -3 -15 -19
-32 -34 -27 -23 -30 -28 -14 -29 11 0 36 18 58 40 46 49 51 86 12 100 -43 17
-63 12 -79 -20z"/>
<path d="M4142 4078 c-5 -7 -13 -23 -16 -35 -7 -20 -4 -23 23 -23 41 0 39 -15
-4 -42 -40 -26 -46 -43 -12 -33 37 11 71 40 92 77 16 30 17 39 6 52 -16 19
-74 21 -89 4z"/>
<path d="M9349 3988 l-23 -31 28 -24 c34 -29 42 -29 61 1 19 28 9 58 -25 76
-15 8 -22 5 -41 -22z"/>
<path d="M4550 3930 c-99 -106 -114 -108 -242 -42 -15 7 -8 -48 12 -97 21 -55
19 -70 -16 -118 -34 -46 -101 -66 -178 -53 -122 20 -167 119 -106 233 23 42
24 47 11 47 -5 0 -23 -21 -41 -47 -30 -46 -32 -52 -28 -125 4 -62 10 -85 31
-117 43 -65 128 -99 199 -81 58 16 140 100 162 168 l18 52 44 0 c36 0 51 6 81
33 37 32 39 33 78 21 22 -7 55 -13 73 -13 29 -1 35 4 49 37 42 97 23 182 -40
182 -27 0 -43 -12 -107 -80z m127 -31 c22 -19 15 -30 -14 -23 -53 13 -74 24
-67 35 7 13 60 5 81 -12z"/>
<path d="M5475 3981 c-14 -28 -14 -31 12 -51 31 -24 40 -23 67 13 l19 26 -24
20 c-34 28 -56 26 -74 -8z"/>
<path d="M2732 3983 c-16 -6 -42 -57 -42 -83 0 -18 6 -20 57 -20 72 0 59 -14
-26 -29 -36 -6 -69 -16 -75 -22 -17 -18 135 -4 173 15 59 31 31 76 -47 76 -52
0 -58 9 -21 32 40 24 25 49 -19 31z"/>
<path d="M5776 3954 c-5 -29 -3 -53 8 -79 20 -46 20 -50 0 -69 -11 -12 -36
-16 -95 -16 -82 0 -107 7 -146 43 l-23 20 0 -36 c0 -20 11 -61 24 -92 l25 -55
-42 -33 c-23 -19 -70 -50 -104 -68 -93 -50 -85 -60 27 -33 86 20 103 33 134
99 l27 55 62 0 c74 0 103 13 135 60 21 30 23 44 19 95 -2 34 -13 81 -24 105
l-20 45 -7 -41z"/>
<path d="M7647 3964 c-30 -30 -35 -69 -11 -78 9 -3 34 -6 57 -6 59 0 35 -17
-42 -29 -36 -6 -69 -16 -75 -22 -18 -19 149 -4 179 15 52 34 22 76 -54 76 -47
0 -53 11 -15 29 14 6 24 17 21 24 -7 22 -33 18 -60 -9z"/>
<path d="M9646 3954 c-4 -13 -1 -52 6 -85 14 -69 11 -73 -57 -83 -56 -9 -139
11 -175 41 l-30 25 0 -40 c0 -23 11 -59 26 -88 l26 -49 -39 -33 c-21 -18 -74
-51 -118 -73 l-80 -40 70 4 c107 7 137 23 171 95 l29 61 62 0 c79 1 108 13
133 53 29 48 35 107 16 172 -19 64 -31 76 -40 40z"/>
<path d="M7036 3905 c-23 -24 -38 -88 -27 -118 11 -28 29 -37 78 -37 32 0 34
-2 22 -16 -7 -9 -46 -38 -86 -65 -102 -70 -105 -79 -13 -58 59 13 108 52 131
103 24 53 24 97 -1 146 -29 57 -73 76 -104 45z"/>
<path d="M4140 3798 c-27 -44 -26 -47 17 -64 34 -15 38 -15 50 2 23 31 16 62
-17 79 -30 15 -30 15 -50 -17z"/>
<path d="M4700 3727 c-91 -46 -115 -63 -129 -93 -6 -15 -10 -28 -8 -31 8 -7
141 68 170 95 31 29 52 62 40 62 -4 -1 -37 -15 -73 -33z"/>
<path d="M8526 3625 c-73 -37 -126 -80 -126 -102 0 -19 14 -16 68 11 64 33
129 81 142 106 16 29 -3 26 -84 -15z"/>
<path d="M3139 3585 c-83 -42 -159 -115 -120 -115 18 0 185 108 199 128 21 32
1 28 -79 -13z"/>
<path d="M3362 3608 c-7 -7 -12 -25 -12 -40 0 -21 6 -29 25 -34 34 -8 53 1 67
32 11 23 10 28 -7 40 -23 17 -57 18 -73 2z"/>
<path d="M8114 3589 l-16 -31 -21 20 c-40 36 -47 35 -62 -3 -27 -63 17 -106
61 -58 l25 26 36 -17 37 -18 23 27 c29 33 29 39 -3 64 -37 29 -61 26 -80 -10z"/>
<path d="M5524 3500 c-43 -21 -86 -45 -95 -52 -20 -16 -42 -58 -35 -65 9 -10
146 71 183 109 20 21 34 40 32 43 -3 3 -41 -13 -85 -35z"/>
<path d="M9384 3504 c-79 -39 -144 -88 -144 -110 0 -22 19 -17 94 24 60 33
137 104 125 116 -2 2 -36 -11 -75 -30z"/>
<path d="M7528 2855 c-9 -21 -8 -37 10 -88 11 -34 23 -71 25 -82 9 -44 29 38
23 92 -11 97 -35 128 -58 78z"/>
<path d="M3738 2755 c-3 -65 -9 -89 -24 -106 l-19 -22 53 5 c58 6 92 29 92 63
0 24 -17 35 -56 35 -22 0 -24 4 -24 49 0 85 -17 65 -22 -24z m70 -73 c2 -7 -6
-12 -17 -12 -21 0 -27 11 -14 24 9 9 26 2 31 -12z"/>
<path d="M7785 2790 c-19 -37 -19 -43 3 -36 9 3 24 1 32 -4 12 -9 9 -15 -20
-40 -31 -26 -33 -29 -13 -30 29 0 77 42 93 81 12 28 12 33 -5 45 -33 24 -73
18 -90 -16z"/>
<path d="M7946 2748 c-28 -40 -16 -387 17 -486 17 -52 66 -82 134 -82 47 0 59
4 83 28 52 53 61 144 22 231 l-17 36 -3 -34 c-2 -19 2 -54 9 -79 11 -40 10
-45 -9 -64 -16 -17 -32 -21 -82 -20 -72 1 -91 14 -108 70 -15 50 -32 201 -32
289 0 82 13 103 63 103 30 1 31 1 13 15 -29 22 -72 19 -90 -7z"/>
<path d="M4946 2729 c-27 -32 -34 -77 -15 -96 9 -9 2 -20 -25 -43 -35 -31 -45
-50 -27 -50 18 0 112 82 132 113 24 40 24 69 1 90 -26 24 -37 21 -66 -14z m40
-33 c15 -12 16 -17 7 -27 -10 -10 -15 -9 -28 1 -16 13 -21 40 -7 40 5 0 17 -6
28 -14z"/>
<path d="M6398 2743 c-33 -39 -40 -63 -27 -95 12 -29 11 -32 -22 -59 -46 -38
-30 -47 25 -15 76 44 120 120 96 165 -13 26 -51 27 -72 4z m42 -54 c8 -14 7
-19 -2 -19 -24 0 -41 18 -35 35 8 19 22 13 37 -16z"/>
<path d="M5695 2686 c-22 -33 -30 -91 -15 -101 9 -6 1 -18 -26 -40 -46 -39
-41 -54 11 -30 41 20 103 88 112 123 15 61 -49 99 -82 48z m45 -35 c11 -22 0
-34 -24 -25 -16 6 -21 25 -9 37 11 12 22 8 33 -12z"/>
<path d="M5205 2619 c-5 -14 -12 -18 -23 -13 -10 4 -29 9 -43 11 -23 4 -28 0
-38 -28 -10 -29 -9 -36 6 -46 23 -17 53 -16 73 2 13 12 22 13 48 3 27 -10 34
-9 51 7 29 26 26 52 -9 70 -39 20 -57 19 -65 -6z"/>
<path d="M6691 2627 c-19 -19 -13 -65 9 -77 17 -9 25 -6 46 15 25 25 25 27 9
45 -21 23 -50 31 -64 17z"/>
<path d="M6797 2623 c-12 -12 -7 -60 8 -73 21 -17 54 -3 61 27 5 19 2 30 -11
40 -20 14 -47 17 -58 6z"/>
<path d="M7514 2588 c4 -24 23 -66 43 -95 37 -54 53 -65 53 -38 0 22 14 19 49
-11 41 -34 77 -99 86 -152 4 -23 11 -40 16 -36 12 7 12 116 -1 148 -16 43
-212 226 -242 226 -7 0 -8 -15 -4 -42z"/>
<path d="M7815 2597 c-4 -13 -1 -86 5 -162 l11 -138 -33 -35 c-18 -18 -68 -54
-110 -79 -93 -53 -105 -67 -51 -57 89 16 160 61 188 121 24 49 47 269 34 317
-5 18 -16 39 -24 46 -12 10 -15 7 -20 -13z"/>
<path d="M7311 2560 c-9 -26 -7 -33 11 -50 30 -27 45 -25 63 9 14 28 14 31
-11 50 -36 28 -50 26 -63 -9z"/>
<path d="M4405 2535 c-80 -39 -97 -51 -114 -84 -13 -23 -12 -23 15 -17 35 8
119 65 159 106 37 38 27 37 -60 -5z"/>
<path d="M4696 2542 c-21 -40 -20 -42 8 -42 40 0 42 -21 6 -52 -32 -26 -33
-28 -11 -28 28 0 88 60 97 96 8 32 -3 43 -49 51 -32 5 -37 2 -51 -25z"/>
<path d="M5476 2548 c-23 -32 -20 -46 12 -50 37 -4 34 -18 -11 -48 -42 -27
-33 -39 14 -20 33 14 64 53 74 93 6 23 3 28 -20 37 -39 15 -52 12 -69 -12z"/>
<path d="M6076 2548 c-25 -36 -20 -48 21 -48 l36 0 -39 -35 c-34 -29 -36 -34
-18 -35 28 0 70 34 90 72 14 27 14 31 -2 49 -24 26 -69 25 -88 -3z"/>
<path d="M7067 2528 c-73 -38 -118 -80 -103 -95 15 -16 187 89 200 122 9 24
-13 18 -97 -27z"/>
<path d="M8517 2528 c-53 -28 -83 -50 -93 -70 -9 -17 -14 -31 -12 -33 6 -6
107 49 143 78 34 27 63 67 48 67 -4 0 -43 -19 -86 -42z"/>
<path d="M3655 2515 c-43 -19 -86 -43 -95 -52 -9 -10 -33 -57 -54 -104 l-38
-87 38 -86 c20 -47 47 -94 58 -105 12 -10 60 -35 108 -56 l86 -37 96 43 c53
23 100 47 104 53 18 23 72 165 72 188 -1 13 -18 64 -39 113 l-39 90 -88 37
c-49 21 -98 37 -109 38 -11 0 -56 -16 -100 -35z m214 -33 c63 -25 64 -26 97
-99 41 -90 42 -117 7 -207 -30 -77 -45 -89 -154 -132 l-66 -26 -92 38 -91 39
-36 91 -36 91 33 78 c17 43 40 85 51 94 10 9 51 28 91 43 80 30 97 30 196 -10z"/>
<path d="M3680 2459 c-32 -13 -87 -66 -106 -101 -8 -15 -14 -53 -14 -86 0
-113 82 -192 200 -192 147 0 238 157 167 291 -41 78 -163 121 -247 88z m171
-44 c42 -27 79 -95 79 -143 0 -48 -22 -93 -63 -129 -87 -77 -214 -47 -267 62
-32 67 -21 134 31 186 64 64 147 73 220 24z"/>
<path d="M3801 2351 c-8 -5 -30 -7 -49 -4 -48 8 -62 -13 -62 -96 0 -74 12 -74
20 1 5 54 27 76 37 39 8 -30 21 -23 50 27 26 44 27 47 4 33z"/>
<path d="M4930 2493 c-26 -33 -22 -44 18 -60 31 -13 33 -12 52 19 l20 33 -21
18 c-29 24 -44 22 -69 -10z"/>
<path d="M6387 2478 c-8 -18 -22 -68 -31 -111 -19 -86 -36 -103 -90 -93 -18 4
-50 21 -72 40 -64 55 -78 59 -109 35 -14 -12 -37 -45 -50 -74 -18 -43 -38 -65
-99 -112 -41 -32 -75 -61 -76 -65 0 -12 38 -9 74 6 18 7 47 29 64 47 25 27 32
30 32 16 0 -11 14 -24 36 -33 42 -17 83 -8 121 28 20 19 36 21 174 25 175 4
200 12 213 64 19 78 3 108 -112 207 l-61 53 -14 -33z m37 -104 c22 -8 22 -72
0 -81 -25 -9 -49 11 -46 38 5 49 13 56 46 43z m98 -61 c27 -24 22 -35 -14 -31
-25 2 -34 8 -36 26 -4 27 22 30 50 5z m-386 -54 c49 -30 46 -53 -7 -46 -48 6
-73 26 -63 50 8 23 30 21 70 -4z"/>
<path d="M5175 2466 c-9 -13 -18 -39 -21 -57 -8 -46 26 -78 92 -88 l49 -8 -37
-16 c-20 -9 -68 -20 -106 -23 -80 -8 -137 12 -155 55 -6 14 -12 28 -13 30 -2
2 -17 -13 -34 -33 -18 -20 -49 -41 -71 -48 -38 -11 -41 -10 -77 24 -20 19 -44
38 -53 41 -26 9 -58 -20 -65 -57 -9 -52 2 -73 51 -92 25 -9 45 -20 45 -23 0
-8 -119 -87 -144 -97 -27 -10 -18 -24 17 -24 51 0 118 39 150 88 20 29 35 42
51 42 13 0 43 18 68 40 43 37 46 39 62 22 9 -10 36 -29 62 -41 43 -22 50 -23
122 -12 89 13 118 30 138 76 25 61 10 159 -32 206 -25 28 -79 25 -99 -5z"/>
<path d="M6680 2448 c0 -17 7 -40 17 -50 15 -17 15 -22 0 -69 -23 -70 -21 -91
8 -119 37 -34 90 -33 121 4 29 33 31 87 8 165 -15 52 -15 54 7 77 28 30 8 32
-31 4 l-29 -20 -33 20 c-49 30 -68 27 -68 -12z m119 -124 c12 -15 21 -31 21
-35 0 -13 -46 -22 -74 -15 -32 8 -39 31 -21 67 13 24 19 28 35 19 10 -5 28
-22 39 -36z"/>
<path d="M5696 2436 c-4 -22 -1 -49 10 -76 16 -40 16 -42 -2 -61 -11 -10 -41
-22 -67 -25 -46 -7 -50 -5 -77 28 -57 69 -120 49 -120 -38 0 -45 0 -45 52 -68
l52 -23 -45 -32 c-24 -18 -61 -43 -81 -54 -47 -27 -48 -37 -5 -37 47 0 97 31
133 81 28 41 35 44 83 49 61 7 93 35 110 98 14 50 14 69 -4 130 -19 63 -31 72
-39 28z"/>
<path d="M7216 2408 c-14 -13 -28 -36 -32 -51 l-7 -29 26 26 c14 14 31 26 36
26 19 0 121 -41 121 -49 0 -5 -36 -16 -79 -25 -90 -20 -135 -15 -198 19 -23
13 -44 20 -47 17 -13 -13 -4 -62 19 -107 25 -46 25 -48 8 -67 -10 -11 -53 -41
-96 -66 -97 -56 -105 -67 -41 -57 98 14 146 45 174 111 18 40 19 41 77 46 90
9 319 67 336 86 8 9 17 28 19 41 3 22 -2 25 -57 37 -33 7 -93 24 -134 38 -91
32 -94 32 -125 4z"/>
<path d="M4505 2367 c-5 -11 3 -50 19 -100 l27 -81 -28 -23 c-15 -13 -52 -36
-82 -50 -50 -24 -58 -25 -100 -14 -65 17 -111 49 -127 87 -20 47 -17 74 11
128 29 55 31 63 8 45 -27 -23 -63 -111 -63 -157 0 -82 72 -174 147 -188 41 -8
111 8 157 34 65 38 98 127 79 214 -6 29 -18 69 -26 88 -12 30 -16 32 -22 17z"/>
<path d="M8473 2344 c-19 -8 -36 -80 -24 -102 15 -28 38 -44 74 -51 l32 -7
-82 -58 c-46 -32 -83 -62 -83 -67 0 -12 55 -1 107 21 33 15 47 29 67 69 32 62
33 104 3 156 -18 31 -29 40 -52 42 -17 1 -36 0 -42 -3z"/>
<path d="M4337 2295 c-16 -34 -16 -34 10 -55 33 -26 53 -23 73 13 14 27 14 29
-15 53 -40 32 -48 30 -68 -11z"/>
<path d="M5261 2149 c-58 -29 -86 -49 -97 -71 -8 -16 -13 -33 -9 -36 16 -16
205 112 205 139 0 15 -14 11 -99 -32z"/>
<path d="M7421 2144 c-48 -24 -76 -45 -86 -64 -21 -40 -20 -42 20 -26 67 28
155 95 155 118 0 14 -15 9 -89 -28z"/>
<path d="M6805 2136 c-64 -37 -123 -91 -111 -103 15 -15 166 79 186 117 16 30
-4 26 -75 -14z"/>
<path d="M5703 2126 l-16 -35 -25 20 c-34 26 -41 24 -59 -18 -14 -36 -14 -38
7 -55 31 -25 47 -22 65 11 14 28 16 29 51 18 33 -10 37 -9 54 13 21 27 17 36
-29 63 l-31 18 -17 -35z"/>
<path d="M8104 2113 c-6 -31 -3 -39 15 -55 27 -21 56 -11 67 24 5 17 0 27 -22
45 -40 32 -52 29 -60 -14z"/>
<path d="M8181 2014 c-49 -25 -76 -45 -87 -66 -8 -16 -13 -32 -10 -35 14 -15
167 81 186 117 16 30 -5 26 -89 -16z"/>
</g>
</svg>
